<svg width="97" height="97" viewBox="0 0 97 97" fill="none" xmlns="http://www.w3.org/2000/svg">
<path opacity="0.4" d="M2.20996 96.2946C3.11759 96.2946 3.85337 95.5588 3.85337 94.6512C3.85337 93.7436 3.11759 93.0078 2.20996 93.0078C1.30233 93.0078 0.56655 93.7436 0.56655 94.6512C0.56655 95.5588 1.30233 96.2946 2.20996 96.2946ZM2.20996 2.20933L2.20996 1.90118L1.90182 1.90118L1.90182 2.20933L2.20996 2.20933ZM94.6518 3.85274C95.5594 3.85274 96.2952 3.11695 96.2952 2.20933C96.2952 1.3017 95.5594 0.565911 94.6518 0.565911C93.7442 0.565911 93.0084 1.3017 93.0084 2.20933C93.0084 3.11695 93.7442 3.85274 94.6518 3.85274ZM2.20996 94.6512C2.5181 94.6512 2.5181 94.651 2.5181 94.6505C2.5181 94.6501 2.5181 94.6495 2.5181 94.6486C2.5181 94.6478 2.5181 94.6467 2.5181 94.6454C2.5181 94.6441 2.5181 94.6426 2.5181 94.6409C2.5181 94.6392 2.5181 94.6373 2.5181 94.6351C2.5181 94.633 2.5181 94.6307 2.5181 94.6281C2.5181 94.6255 2.5181 94.6228 2.5181 94.6198C2.5181 94.6168 2.5181 94.6136 2.5181 94.6102C2.5181 94.6068 2.5181 94.6032 2.5181 94.5994C2.5181 94.5956 2.5181 94.5915 2.5181 94.5873C2.5181 94.583 2.5181 94.5786 2.5181 94.5739C2.5181 94.5693 2.5181 94.5644 2.5181 94.5593C2.5181 94.5542 2.5181 94.549 2.5181 94.5435C2.5181 94.538 2.5181 94.5323 2.5181 94.5264C2.5181 94.5205 2.5181 94.5144 2.5181 94.508C2.5181 94.5017 2.5181 94.4952 2.5181 94.4885C2.5181 94.4817 2.5181 94.4748 2.5181 94.4676C2.5181 94.4605 2.5181 94.4532 2.5181 94.4456C2.5181 94.4381 2.5181 94.4303 2.5181 94.4223C2.5181 94.4144 2.5181 94.4062 2.5181 94.3978C2.5181 94.3895 2.5181 94.3809 2.5181 94.3721C2.5181 94.3633 2.5181 94.3544 2.5181 94.3452C2.5181 94.336 2.5181 94.3266 2.5181 94.317C2.5181 94.3075 2.5181 94.2977 2.5181 94.2877C2.5181 94.2777 2.5181 94.2675 2.5181 94.2571C2.5181 94.2467 2.5181 94.2361 2.5181 94.2253C2.5181 94.2146 2.5181 94.2036 2.5181 94.1924C2.5181 94.1812 2.5181 94.1698 2.5181 94.1582C2.5181 94.1466 2.5181 94.1348 2.5181 94.1228C2.5181 94.1109 2.5181 94.0987 2.5181 94.0863C2.5181 94.0739 2.5181 94.0613 2.5181 94.0486C2.5181 94.0358 2.5181 94.0228 2.5181 94.0096C2.5181 93.9965 2.5181 93.9831 2.5181 93.9695C2.5181 93.956 2.5181 93.9422 2.5181 93.9283C2.5181 93.9143 2.5181 93.9001 2.5181 93.8858C2.5181 93.8715 2.5181 93.8569 2.5181 93.8422C2.5181 93.8274 2.5181 93.8125 2.5181 93.7974C2.5181 93.7823 2.5181 93.767 2.5181 93.7514C2.5181 93.7359 2.5181 93.7202 2.5181 93.7043C2.5181 93.6884 2.5181 93.6723 2.5181 93.6561C2.5181 93.6398 2.5181 93.6233 2.5181 93.6066C2.5181 93.59 2.5181 93.5731 2.5181 93.5561C2.5181 93.539 2.5181 93.5218 2.5181 93.5044C2.5181 93.4869 2.5181 93.4693 2.5181 93.4515C2.5181 93.4337 2.5181 93.4157 2.5181 93.3975C2.5181 93.3793 2.5181 93.3609 2.5181 93.3424C2.5181 93.3238 2.5181 93.3051 2.5181 93.2861C2.5181 93.2672 2.5181 93.248 2.5181 93.2287C2.5181 93.2094 2.5181 93.1899 2.5181 93.1702C2.5181 93.1505 2.5181 93.1306 2.5181 93.1106C2.5181 93.0905 2.5181 93.0703 2.5181 93.0498C2.5181 93.0294 2.5181 93.0088 2.5181 92.9879C2.5181 92.9671 2.5181 92.9461 2.5181 92.925C2.5181 92.9038 2.5181 92.8824 2.5181 92.8609C2.5181 92.8393 2.5181 92.8176 2.5181 92.7957C2.5181 92.7738 2.5181 92.7517 2.5181 92.7294C2.5181 92.7071 2.5181 92.6846 2.5181 92.662C2.5181 92.6393 2.5181 92.6165 2.5181 92.5935C2.5181 92.5705 2.5181 92.5473 2.5181 92.5239C2.5181 92.5005 2.5181 92.477 2.5181 92.4532C2.5181 92.4295 2.5181 92.4056 2.5181 92.3815C2.5181 92.3574 2.5181 92.3331 2.5181 92.3087C2.5181 92.2842 2.5181 92.2596 2.5181 92.2348C2.5181 92.2099 2.5181 92.1849 2.5181 92.1598C2.5181 92.1346 2.5181 92.1092 2.5181 92.0837C2.5181 92.0582 2.5181 92.0325 2.5181 92.0066C2.5181 91.9807 2.5181 91.9546 2.5181 91.9284C2.5181 91.9022 2.5181 91.8758 2.5181 91.8492C2.5181 91.8226 2.5181 91.7958 2.5181 91.7689C2.5181 91.7419 2.5181 91.7148 2.5181 91.6875C2.5181 91.6602 2.5181 91.6327 2.5181 91.6051C2.5181 91.5775 2.5181 91.5496 2.5181 91.5217C2.5181 91.4937 2.5181 91.4655 2.5181 91.4372C2.5181 91.4088 2.5181 91.3803 2.5181 91.3516C2.5181 91.3229 2.5181 91.2941 2.5181 91.2651C2.5181 91.236 2.5181 91.2068 2.5181 91.1774C2.5181 91.1481 2.5181 91.1185 2.5181 91.0888C2.5181 91.0591 2.5181 91.0292 2.5181 90.9992C2.5181 90.9691 2.5181 90.9389 2.5181 90.9085C2.5181 90.8781 2.5181 90.8475 2.5181 90.8168C2.5181 90.786 2.5181 90.7551 2.5181 90.7241C2.5181 90.693 2.5181 90.6617 2.5181 90.6303C2.5181 90.5989 2.5181 90.5673 2.5181 90.5356C2.5181 90.5038 2.5181 90.4719 2.5181 90.4399C2.5181 90.4078 2.5181 90.3755 2.5181 90.3431C2.5181 90.3107 2.5181 90.2781 2.5181 90.2454C2.5181 90.2126 2.5181 90.1797 2.5181 90.1466C2.5181 90.1135 2.5181 90.0803 2.5181 90.0469C2.5181 90.0135 2.5181 89.9799 2.5181 89.9462C2.5181 89.9124 2.5181 89.8785 2.5181 89.8445C2.5181 89.8104 2.5181 89.7762 2.5181 89.7418C2.5181 89.7074 2.5181 89.6728 2.5181 89.6381C2.5181 89.6034 2.5181 89.5685 2.5181 89.5335C2.5181 89.4985 2.5181 89.4633 2.5181 89.4279C2.5181 89.3925 2.5181 89.357 2.5181 89.3213C2.5181 89.2856 2.5181 89.2498 2.5181 89.2138C2.5181 89.1778 2.5181 89.1416 2.5181 89.1053C2.5181 89.0689 2.5181 89.0325 2.5181 88.9958C2.5181 88.9592 2.5181 88.9224 2.5181 88.8854C2.5181 88.8484 2.5181 88.8113 2.5181 88.774C2.5181 88.7368 2.5181 88.6993 2.5181 88.6617C2.5181 88.6241 2.5181 88.5864 2.5181 88.5485C2.5181 88.5106 2.5181 88.4725 2.5181 88.4343C2.5181 88.3961 2.5181 88.3577 2.5181 88.3191C2.5181 88.2806 2.5181 88.2419 2.5181 88.2031C2.5181 88.1642 2.5181 88.1252 2.5181 88.0861C2.5181 88.0469 2.5181 88.0076 2.5181 87.9682C2.5181 87.9287 2.5181 87.8891 2.5181 87.8493C2.5181 87.8096 2.5181 87.7696 2.5181 87.7296C2.5181 87.6895 2.5181 87.6493 2.5181 87.6089C2.5181 87.5685 2.5181 87.528 2.5181 87.4873C2.5181 87.4466 2.5181 87.4058 2.5181 87.3648C2.5181 87.3238 2.5181 87.2827 2.5181 87.2414C2.5181 87.2001 2.5181 87.1586 2.5181 87.1171C2.5181 87.0755 2.5181 87.0337 2.5181 86.9918C2.5181 86.95 2.5181 86.9079 2.5181 86.8657C2.5181 86.8236 2.5181 86.7812 2.5181 86.7387C2.5181 86.6963 2.5181 86.6536 2.5181 86.6108C2.5181 86.5681 2.5181 86.5251 2.5181 86.4821C2.5181 86.439 2.5181 86.3958 2.5181 86.3524C2.5181 86.3091 2.5181 86.2655 2.5181 86.2219C2.5181 86.1782 2.5181 86.1344 2.5181 86.0905C2.5181 86.0465 2.5181 86.0024 2.5181 85.9582C2.5181 85.9139 2.5181 85.8696 2.5181 85.825C2.5181 85.7805 2.5181 85.7358 2.5181 85.691C2.5181 85.6462 2.5181 85.6012 2.5181 85.5561C2.5181 85.511 2.5181 85.4658 2.5181 85.4204C2.5181 85.375 2.5181 85.3295 2.5181 85.2838C2.5181 85.2381 2.5181 85.1923 2.5181 85.1464C2.5181 85.1004 2.5181 85.0543 2.5181 85.0081C2.5181 84.9618 2.5181 84.9155 2.5181 84.869C2.5181 84.8224 2.5181 84.7758 2.5181 84.729C2.5181 84.6822 2.5181 84.6352 2.5181 84.5882C2.5181 84.5411 2.5181 84.4939 2.5181 84.4465C2.5181 84.3992 2.5181 84.3517 2.5181 84.304C2.5181 84.2564 2.5181 84.2086 2.5181 84.1607C2.5181 84.1128 2.5181 84.0648 2.5181 84.0166C2.5181 83.9684 2.5181 83.9201 2.5181 83.8717C2.5181 83.8232 2.5181 83.7746 2.5181 83.7259C2.5181 83.6772 2.5181 83.6283 2.5181 83.5793C2.5181 83.5303 2.5181 83.4812 2.5181 83.4319C2.5181 83.3826 2.5181 83.3332 2.5181 83.2837C2.5181 83.2342 2.5181 83.1845 2.5181 83.1347C2.5181 83.0849 2.5181 83.035 2.5181 82.9849C2.5181 82.9348 2.5181 82.8846 2.5181 82.8343C2.5181 82.784 2.5181 82.7335 2.5181 82.6829C2.5181 82.6323 2.5181 82.5816 2.5181 82.5307C2.5181 82.4799 2.5181 82.4289 2.5181 82.3778C2.5181 82.3267 2.5181 82.2754 2.5181 82.224C2.5181 82.1726 2.5181 82.1211 2.5181 82.0695C2.5181 82.0179 2.5181 81.9661 2.5181 81.9142C2.5181 81.8623 2.5181 81.8103 2.5181 81.7581C2.5181 81.706 2.5181 81.6537 2.5181 81.6013C2.5181 81.5489 2.5181 81.4963 2.5181 81.4437C2.5181 81.391 2.5181 81.3382 2.5181 81.2853C2.5181 81.2324 2.5181 81.1793 2.5181 81.1261C2.5181 81.073 2.5181 81.0197 2.5181 80.9663C2.5181 80.9128 2.5181 80.8593 2.5181 80.8056C2.5181 80.7519 2.5181 80.6981 2.5181 80.6442C2.5181 80.5903 2.5181 80.5363 2.5181 80.4821C2.5181 80.4279 2.5181 80.3736 2.5181 80.3192C2.5181 80.2648 2.5181 80.2103 2.5181 80.1556C2.5181 80.1009 2.5181 80.0462 2.5181 79.9912C2.5181 79.9363 2.5181 79.8813 2.5181 79.8262C2.5181 79.771 2.5181 79.7157 2.5181 79.6604C2.5181 79.605 2.5181 79.5494 2.5181 79.4938C2.5181 79.4382 2.5181 79.3824 2.5181 79.3266C2.5181 79.2707 2.5181 79.2147 2.5181 79.1586C2.5181 79.1025 2.5181 79.0462 2.5181 78.9899C2.5181 78.9336 2.5181 78.8771 2.5181 78.8205C2.5181 78.7639 2.5181 78.7072 2.5181 78.6504C2.5181 78.5936 2.5181 78.5366 2.5181 78.4796C2.5181 78.4225 2.5181 78.3654 2.5181 78.3081C2.5181 78.2508 2.5181 78.1934 2.5181 78.1359C2.5181 78.0783 2.5181 78.0207 2.5181 77.963C2.5181 77.9052 2.5181 77.8473 2.5181 77.7894C2.5181 77.7314 2.5181 77.6733 2.5181 77.6151C2.5181 77.5569 2.5181 77.4986 2.5181 77.4401C2.5181 77.3817 2.5181 77.3231 2.5181 77.2645C2.5181 77.2058 2.5181 77.147 2.5181 77.0882C2.5181 77.0293 2.5181 76.9703 2.5181 76.9112C2.5181 76.8521 2.5181 76.7928 2.5181 76.7335C2.5181 76.6742 2.5181 76.6147 2.5181 76.5552C2.5181 76.4956 2.5181 76.4359 2.5181 76.3762C2.5181 76.3164 2.5181 76.2565 2.5181 76.1965C2.5181 76.1365 2.5181 76.0764 2.5181 76.0162C2.5181 75.956 2.5181 75.8957 2.5181 75.8352C2.5181 75.7748 2.5181 75.7143 2.5181 75.6536C2.5181 75.593 2.5181 75.5322 2.5181 75.4714C2.5181 75.4105 2.5181 75.3496 2.5181 75.2885C2.5181 75.2274 2.5181 75.1662 2.5181 75.1049C2.5181 75.0437 2.5181 74.9823 2.5181 74.9208C2.5181 74.8593 2.5181 74.7977 2.5181 74.736C2.5181 74.6743 2.5181 74.6124 2.5181 74.5505C2.5181 74.4886 2.5181 74.4266 2.5181 74.3645C2.5181 74.3023 2.5181 74.2401 2.5181 74.1778C2.5181 74.1154 2.5181 74.053 2.5181 73.9905C2.5181 73.9279 2.5181 73.8653 2.5181 73.8026C2.5181 73.7398 2.5181 73.677 2.5181 73.614C2.5181 73.5511 2.5181 73.488 2.5181 73.4249C2.5181 73.3617 2.5181 73.2985 2.5181 73.2352C2.5181 73.1718 2.5181 73.1084 2.5181 73.0448C2.5181 72.9813 2.5181 72.9176 2.5181 72.8539C2.5181 72.7901 2.5181 72.7263 2.5181 72.6623C2.5181 72.5984 2.5181 72.5343 2.5181 72.4702C2.5181 72.4061 2.5181 72.3418 2.5181 72.2775C2.5181 72.2132 2.5181 72.1487 2.5181 72.0842C2.5181 72.0197 2.5181 71.955 2.5181 71.8903C2.5181 71.8256 2.5181 71.7608 2.5181 71.6959C2.5181 71.6309 2.5181 71.5659 2.5181 71.5008C2.5181 71.4357 2.5181 71.3705 2.5181 71.3052C2.5181 71.2399 2.5181 71.1745 2.5181 71.1091C2.5181 71.0436 2.5181 70.978 2.5181 70.9123C2.5181 70.8466 2.5181 70.7809 2.5181 70.715C2.5181 70.6492 2.5181 70.5832 2.5181 70.5172C2.5181 70.4511 2.5181 70.385 2.5181 70.3188C2.5181 70.2525 2.5181 70.1862 2.5181 70.1198C2.5181 70.0534 2.5181 69.9869 2.5181 69.9203C2.5181 69.8537 2.5181 69.787 2.5181 69.7203C2.5181 69.6535 2.5181 69.5866 2.5181 69.5197C2.5181 69.4527 2.5181 69.3857 2.5181 69.3186C2.5181 69.2514 2.5181 69.1842 2.5181 69.1169C2.5181 69.0496 2.5181 68.9822 2.5181 68.9147C2.5181 68.8473 2.5181 68.7797 2.5181 68.712C2.5181 68.6444 2.5181 68.5766 2.5181 68.5088C2.5181 68.441 2.5181 68.373 2.5181 68.305C2.5181 68.237 2.5181 68.169 2.5181 68.1008C2.5181 68.0326 2.5181 67.9643 2.5181 67.896C2.5181 67.8277 2.5181 67.7592 2.5181 67.6907C2.5181 67.6222 2.5181 67.5536 2.5181 67.4849C2.5181 67.4162 2.5181 67.3475 2.5181 67.2786C2.5181 67.2098 2.5181 67.1408 2.5181 67.0718C2.5181 67.0028 2.5181 66.9337 2.5181 66.8645C2.5181 66.7954 2.5181 66.7261 2.5181 66.6568C2.5181 66.5874 2.5181 66.518 2.5181 66.4485C2.5181 66.379 2.5181 66.3094 2.5181 66.2397C2.5181 66.1701 2.5181 66.1003 2.5181 66.0305C2.5181 65.9607 2.5181 65.8908 2.5181 65.8208C2.5181 65.7508 2.5181 65.6807 2.5181 65.6106C2.5181 65.5405 2.5181 65.4702 2.5181 65.3999C2.5181 65.3296 2.5181 65.2593 2.5181 65.1888C2.5181 65.1183 2.5181 65.0478 2.5181 64.9772C2.5181 64.9066 2.5181 64.8359 2.5181 64.7652C2.5181 64.6944 2.5181 64.6236 2.5181 64.5526C2.5181 64.4817 2.5181 64.4107 2.5181 64.3397C2.5181 64.2686 2.5181 64.1975 2.5181 64.1263C2.5181 64.055 2.5181 63.9838 2.5181 63.9124C2.5181 63.841 2.5181 63.7696 2.5181 63.6981C2.5181 63.6266 2.5181 63.555 2.5181 63.4833C2.5181 63.4117 2.5181 63.34 2.5181 63.2682C2.5181 63.1964 2.5181 63.1245 2.5181 63.0525C2.5181 62.9806 2.5181 62.9086 2.5181 62.8365C2.5181 62.7644 2.5181 62.6922 2.5181 62.62C2.5181 62.5478 2.5181 62.4755 2.5181 62.4031C2.5181 62.3307 2.5181 62.2583 2.5181 62.1858C2.5181 62.1133 2.5181 62.0407 2.5181 61.9681C2.5181 61.8954 2.5181 61.8227 2.5181 61.7499C2.5181 61.6771 2.5181 61.6043 2.5181 61.5313C2.5181 61.4584 2.5181 61.3854 2.5181 61.3124C2.5181 61.2393 2.5181 61.1662 2.5181 61.093C2.5181 61.0198 2.5181 60.9466 2.5181 60.8732C2.5181 60.7999 2.5181 60.7265 2.5181 60.6531C2.5181 60.5796 2.5181 60.5061 2.5181 60.4325C2.5181 60.3589 2.5181 60.2853 2.5181 60.2116C2.5181 60.1379 2.5181 60.0641 2.5181 59.9902C2.5181 59.9164 2.5181 59.8425 2.5181 59.7685C2.5181 59.6946 2.5181 59.6205 2.5181 59.5464C2.5181 59.4723 2.5181 59.3982 2.5181 59.324C2.5181 59.2497 2.5181 59.1755 2.5181 59.1011C2.5181 59.0268 2.5181 58.9524 2.5181 58.8779C2.5181 58.8035 2.5181 58.7289 2.5181 58.6543C2.5181 58.5798 2.5181 58.5051 2.5181 58.4304C2.5181 58.3557 2.5181 58.2809 2.5181 58.2061C2.5181 58.1313 2.5181 58.0564 2.5181 57.9815C2.5181 57.9065 2.5181 57.8315 2.5181 57.7565C2.5181 57.6814 2.5181 57.6063 2.5181 57.5311C2.5181 57.4559 2.5181 57.3807 2.5181 57.3054C2.5181 57.2301 2.5181 57.1548 2.5181 57.0794C2.5181 57.004 2.5181 56.9285 2.5181 56.853C2.5181 56.7775 2.5181 56.7019 2.5181 56.6263C2.5181 56.5507 2.5181 56.475 2.5181 56.3993C2.5181 56.3235 2.5181 56.2477 2.5181 56.1719C2.5181 56.0961 2.5181 56.0202 2.5181 55.9442C2.5181 55.8683 2.5181 55.7923 2.5181 55.7162C2.5181 55.6401 2.5181 55.564 2.5181 55.4879C2.5181 55.4117 2.5181 55.3355 2.5181 55.2592C2.5181 55.183 2.5181 55.1066 2.5181 55.0303C2.5181 54.9539 2.5181 54.8775 2.5181 54.801C2.5181 54.7245 2.5181 54.648 2.5181 54.5715C2.5181 54.4949 2.5181 54.4183 2.5181 54.3416C2.5181 54.2649 2.5181 54.1882 2.5181 54.1114C2.5181 54.0347 2.5181 53.9578 2.5181 53.881C2.5181 53.8041 2.5181 53.7272 2.5181 53.6502C2.5181 53.5733 2.5181 53.4963 2.5181 53.4192C2.5181 53.3422 2.5181 53.265 2.5181 53.1879C2.5181 53.1107 2.5181 53.0336 2.5181 52.9563C2.5181 52.8791 2.5181 52.8018 2.5181 52.7244C2.5181 52.6471 2.5181 52.5697 2.5181 52.4923C2.5181 52.4149 2.5181 52.3374 2.5181 52.2599C2.5181 52.1824 2.5181 52.1048 2.5181 52.0272C2.5181 51.9496 2.5181 51.872 2.5181 51.7943C2.5181 51.7166 2.5181 51.6388 2.5181 51.5611C2.5181 51.4833 2.5181 51.4055 2.5181 51.3276C2.5181 51.2498 2.5181 51.1719 2.5181 51.0939C2.5181 51.016 2.5181 50.938 2.5181 50.86C2.5181 50.7819 2.5181 50.7039 2.5181 50.6258C2.5181 50.5477 2.5181 50.4695 2.5181 50.3913C2.5181 50.3131 2.5181 50.2349 2.5181 50.1566C2.5181 50.0784 2.5181 50.0001 2.5181 49.9217C2.5181 49.8434 2.5181 49.765 2.5181 49.6866C2.5181 49.6082 2.5181 49.5297 2.5181 49.4512C2.5181 49.3727 2.5181 49.2942 2.5181 49.2156C2.5181 49.137 2.5181 49.0584 2.5181 48.9798C2.5181 48.9011 2.5181 48.8225 2.5181 48.7437C2.5181 48.665 2.5181 48.5863 2.5181 48.5075C2.5181 48.4287 2.5181 48.3499 2.5181 48.271C2.5181 48.1922 2.5181 48.1133 2.5181 48.0343C2.5181 47.9554 2.5181 47.8765 2.5181 47.7975C2.5181 47.7185 2.5181 47.6394 2.5181 47.5604C2.5181 47.4813 2.5181 47.4022 2.5181 47.3231C2.5181 47.244 2.5181 47.1648 2.5181 47.0856C2.5181 47.0065 2.5181 46.9272 2.5181 46.848C2.5181 46.7687 2.5181 46.6894 2.5181 46.6101C2.5181 46.5308 2.5181 46.4515 2.5181 46.3721C2.5181 46.2927 2.5181 46.2133 2.5181 46.1339C2.5181 46.0545 2.5181 45.975 2.5181 45.8955C2.5181 45.816 2.5181 45.7365 2.5181 45.6569C2.5181 45.5774 2.5181 45.4978 2.5181 45.4182C2.5181 45.3386 2.5181 45.259 2.5181 45.1793C2.5181 45.0996 2.5181 45.02 2.5181 44.9402C2.5181 44.8605 2.5181 44.7808 2.5181 44.701C2.5181 44.6213 2.5181 44.5415 2.5181 44.4616C2.5181 44.3818 2.5181 44.302 2.5181 44.2221C2.5181 44.1422 2.5181 44.0624 2.5181 43.9824C2.5181 43.9025 2.5181 43.8226 2.5181 43.7426C2.5181 43.6626 2.5181 43.5826 2.5181 43.5026C2.5181 43.4226 2.5181 43.3426 2.5181 43.2625C2.5181 43.1825 2.5181 43.1024 2.5181 43.0223C2.5181 42.9422 2.5181 42.8621 2.5181 42.7819C2.5181 42.7018 2.5181 42.6216 2.5181 42.5414C2.5181 42.4612 2.5181 42.381 2.5181 42.3008C2.5181 42.2205 2.5181 42.1403 2.5181 42.06C2.5181 41.9797 2.5181 41.8994 2.5181 41.8191C2.5181 41.7388 2.5181 41.6585 2.5181 41.5782C2.5181 41.4978 2.5181 41.4174 2.5181 41.3371C2.5181 41.2567 2.5181 41.1763 2.5181 41.0958C2.5181 41.0154 2.5181 40.935 2.5181 40.8545C2.5181 40.7741 2.5181 40.6936 2.5181 40.6131C2.5181 40.5326 2.5181 40.4521 2.5181 40.3716C2.5181 40.2911 2.5181 40.2105 2.5181 40.13C2.5181 40.0494 2.5181 39.9689 2.5181 39.8883C2.5181 39.8077 2.5181 39.7271 2.5181 39.6465C2.5181 39.5659 2.5181 39.4853 2.5181 39.4046C2.5181 39.324 2.5181 39.2433 2.5181 39.1627C2.5181 39.082 2.5181 39.0013 2.5181 38.9207C2.5181 38.84 2.5181 38.7593 2.5181 38.6785C2.5181 38.5978 2.5181 38.5171 2.5181 38.4364C2.5181 38.3556 2.5181 38.2749 2.5181 38.1941C2.5181 38.1134 2.5181 38.0326 2.5181 37.9518C2.5181 37.871 2.5181 37.7903 2.5181 37.7095C2.5181 37.6287 2.5181 37.5478 2.5181 37.467C2.5181 37.3862 2.5181 37.3054 2.5181 37.2246C2.5181 37.1437 2.5181 37.0629 2.5181 36.982C2.5181 36.9012 2.5181 36.8203 2.5181 36.7394C2.5181 36.6586 2.5181 36.5777 2.5181 36.4968C2.5181 36.416 2.5181 36.3351 2.5181 36.2542C2.5181 36.1733 2.5181 36.0924 2.5181 36.0115C2.5181 35.9306 2.5181 35.8497 2.5181 35.7687C2.5181 35.6878 2.5181 35.6069 2.5181 35.526C2.5181 35.4451 2.5181 35.3641 2.5181 35.2832C2.5181 35.2023 2.5181 35.1213 2.5181 35.0404C2.5181 34.9595 2.5181 34.8785 2.5181 34.7976C2.5181 34.7166 2.5181 34.6357 2.5181 34.5547C2.5181 34.4738 2.5181 34.3928 2.5181 34.3119C2.5181 34.2309 2.5181 34.15 2.5181 34.069C2.5181 33.9881 2.5181 33.9071 2.5181 33.8261C2.5181 33.7452 2.5181 33.6642 2.5181 33.5833C2.5181 33.5023 2.5181 33.4214 2.5181 33.3404C2.5181 33.2594 2.5181 33.1785 2.5181 33.0975C2.5181 33.0166 2.5181 32.9356 2.5181 32.8547C2.5181 32.7737 2.5181 32.6928 2.5181 32.6118C2.5181 32.5309 2.5181 32.4499 2.5181 32.369C2.5181 32.2881 2.5181 32.2071 2.5181 32.1262C2.5181 32.0452 2.5181 31.9643 2.5181 31.8834C2.5181 31.8025 2.5181 31.7215 2.5181 31.6406C2.5181 31.5597 2.5181 31.4788 2.5181 31.3979C2.5181 31.317 2.5181 31.2361 2.5181 31.1552C2.5181 31.0743 2.5181 30.9934 2.5181 30.9125C2.5181 30.8316 2.5181 30.7507 2.5181 30.6699C2.5181 30.589 2.5181 30.5081 2.5181 30.4273C2.5181 30.3464 2.5181 30.2656 2.5181 30.1847C2.5181 30.1039 2.5181 30.0231 2.5181 29.9422C2.5181 29.8614 2.5181 29.7806 2.5181 29.6998C2.5181 29.619 2.5181 29.5382 2.5181 29.4574C2.5181 29.3766 2.5181 29.2958 2.5181 29.2151C2.5181 29.1343 2.5181 29.0536 2.5181 28.9728C2.5181 28.8921 2.5181 28.8113 2.5181 28.7306C2.5181 28.6499 2.5181 28.5692 2.5181 28.4885C2.5181 28.4078 2.5181 28.3271 2.5181 28.2464C2.5181 28.1657 2.5181 28.0851 2.5181 28.0044C2.5181 27.9238 2.5181 27.8432 2.5181 27.7625C2.5181 27.6819 2.5181 27.6013 2.5181 27.5207C2.5181 27.4401 2.5181 27.3596 2.5181 27.279C2.5181 27.1984 2.5181 27.1179 2.5181 27.0373C2.5181 26.9568 2.5181 26.8763 2.5181 26.7958C2.5181 26.7153 2.5181 26.6348 2.5181 26.5543C2.5181 26.4739 2.5181 26.3934 2.5181 26.313C2.5181 26.2326 2.5181 26.1521 2.5181 26.0718C2.5181 25.9914 2.5181 25.911 2.5181 25.8306C2.5181 25.7503 2.5181 25.6699 2.5181 25.5896C2.5181 25.5093 2.5181 25.429 2.5181 25.3487C2.5181 25.2684 2.5181 25.1881 2.5181 25.1079C2.5181 25.0276 2.5181 24.9474 2.5181 24.8672C2.5181 24.787 2.5181 24.7068 2.5181 24.6266C2.5181 24.5465 2.5181 24.4663 2.5181 24.3862C2.5181 24.3061 2.5181 24.226 2.5181 24.1459C2.5181 24.0658 2.5181 23.9858 2.5181 23.9058C2.5181 23.8257 2.5181 23.7457 2.5181 23.6657C2.5181 23.5858 2.5181 23.5058 2.5181 23.4259C2.5181 23.3459 2.5181 23.266 2.5181 23.1861C2.5181 23.1062 2.5181 23.0264 2.5181 22.9465C2.5181 22.8667 2.5181 22.7869 2.5181 22.7071C2.5181 22.6273 2.5181 22.5476 2.5181 22.4678C2.5181 22.3881 2.5181 22.3084 2.5181 22.2287C2.5181 22.149 2.5181 22.0694 2.5181 21.9898C2.5181 21.9101 2.5181 21.8305 2.5181 21.751C2.5181 21.6714 2.5181 21.5919 2.5181 21.5123C2.5181 21.4328 2.5181 21.3533 2.5181 21.2739C2.5181 21.1944 2.5181 21.115 2.5181 21.0356C2.5181 20.9562 2.5181 20.8769 2.5181 20.7975C2.5181 20.7182 2.5181 20.6389 2.5181 20.5596C2.5181 20.4803 2.5181 20.4011 2.5181 20.3219C2.5181 20.2427 2.5181 20.1635 2.5181 20.0843C2.5181 20.0052 2.5181 19.9261 2.5181 19.847C2.5181 19.7679 2.5181 19.6889 2.5181 19.6098C2.5181 19.5308 2.5181 19.4518 2.5181 19.3729C2.5181 19.2939 2.5181 19.215 2.5181 19.1361C2.5181 19.0573 2.5181 18.9784 2.5181 18.8996C2.5181 18.8208 2.5181 18.742 2.5181 18.6633C2.5181 18.5845 2.5181 18.5058 2.5181 18.4272C2.5181 18.3485 2.5181 18.2699 2.5181 18.1913C2.5181 18.1127 2.5181 18.0341 2.5181 17.9556C2.5181 17.8771 2.5181 17.7986 2.5181 17.7201C2.5181 17.6417 2.5181 17.5633 2.5181 17.4849C2.5181 17.4065 2.5181 17.3282 2.5181 17.2499C2.5181 17.1716 2.5181 17.0933 2.5181 17.0151C2.5181 16.9369 2.5181 16.8587 2.5181 16.7806C2.5181 16.7025 2.5181 16.6244 2.5181 16.5463C2.5181 16.4683 2.5181 16.3902 2.5181 16.3123C2.5181 16.2343 2.5181 16.1564 2.5181 16.0785C2.5181 16.0006 2.5181 15.9227 2.5181 15.8449C2.5181 15.7671 2.5181 15.6894 2.5181 15.6116C2.5181 15.5339 2.5181 15.4562 2.5181 15.3786C2.5181 15.301 2.5181 15.2234 2.5181 15.1458C2.5181 15.0683 2.5181 14.9908 2.5181 14.9133C2.5181 14.8359 2.5181 14.7585 2.5181 14.6811C2.5181 14.6037 2.5181 14.5264 2.5181 14.4491C2.5181 14.3718 2.5181 14.2946 2.5181 14.2174C2.5181 14.1403 2.5181 14.0631 2.5181 13.986C2.5181 13.9089 2.5181 13.8319 2.5181 13.7549C2.5181 13.6779 2.5181 13.6009 2.5181 13.524C2.5181 13.4471 2.5181 13.3703 2.5181 13.2935C2.5181 13.2167 2.5181 13.1399 2.5181 13.0632C2.5181 12.9865 2.5181 12.9099 2.5181 12.8333C2.5181 12.7566 2.5181 12.6801 2.5181 12.6036C2.5181 12.5271 2.5181 12.4506 2.5181 12.3742C2.5181 12.2978 2.5181 12.2215 2.5181 12.1451C2.5181 12.0688 2.5181 11.9926 2.5181 11.9164C2.5181 11.8402 2.5181 11.764 2.5181 11.688C2.5181 11.6119 2.5181 11.5358 2.5181 11.4598C2.5181 11.3838 2.5181 11.3079 2.5181 11.232C2.5181 11.1561 2.5181 11.0803 2.5181 11.0045C2.5181 10.9288 2.5181 10.8531 2.5181 10.7774C2.5181 10.7017 2.5181 10.6261 2.5181 10.5506C2.5181 10.475 2.5181 10.3995 2.5181 10.3241C2.5181 10.2486 2.5181 10.1732 2.5181 10.0979C2.5181 10.0226 2.5181 9.9473 2.5181 9.87209C2.5181 9.79688 2.5181 9.72172 2.5181 9.64662C2.5181 9.57152 2.5181 9.49648 2.5181 9.42149C2.5181 9.34651 2.5181 9.27158 2.5181 9.19672C2.5181 9.12185 2.5181 9.04704 2.5181 8.9723C2.5181 8.89754 2.5181 8.82286 2.5181 8.74823C2.5181 8.6736 2.5181 8.59903 2.5181 8.52452C2.5181 8.45002 2.5181 8.37557 2.5181 8.30119C2.5181 8.2268 2.5181 8.15247 2.5181 8.07821C2.5181 8.00394 2.5181 7.92975 2.5181 7.85561C2.5181 7.78147 2.5181 7.70739 2.5181 7.63338C2.5181 7.55936 2.5181 7.48542 2.5181 7.41153C2.5181 7.33765 2.5181 7.26382 2.5181 7.19006C2.5181 7.1163 2.5181 7.0426 2.5181 6.96898C2.5181 6.89535 2.5181 6.82178 2.5181 6.74828C2.5181 6.67478 2.5181 6.60134 2.5181 6.52798C2.5181 6.45461 2.5181 6.3813 2.5181 6.30806C2.5181 6.23483 2.5181 6.16165 2.5181 6.08855C2.5181 6.01545 2.5181 5.94241 2.5181 5.86944C2.5181 5.79647 2.5181 5.72356 2.5181 5.65073C2.5181 5.5779 2.5181 5.50513 2.5181 5.43243C2.5181 5.35974 2.5181 5.28711 2.5181 5.21455C2.5181 5.14199 2.5181 5.0695 2.5181 4.99708C2.5181 4.92466 2.5181 4.85231 2.5181 4.78003C2.5181 4.70775 2.5181 4.63554 2.5181 4.5634C2.5181 4.49126 2.5181 4.4192 2.5181 4.3472C2.5181 4.2752 2.5181 4.20328 2.5181 4.13142C2.5181 4.05957 2.5181 3.98779 2.5181 3.91608C2.5181 3.84438 2.5181 3.77274 2.5181 3.70117C2.5181 3.62962 2.5181 3.55812 2.5181 3.48671C2.5181 3.41529 2.5181 3.34395 2.5181 3.27268C2.5181 3.20142 2.5181 3.13023 2.5181 3.0591C2.5181 2.98799 2.5181 2.91695 2.5181 2.84598C2.5181 2.77501 2.5181 2.70412 2.5181 2.6333C2.5181 2.56248 2.5181 2.49174 2.5181 2.42108C2.5181 2.35042 2.5181 2.27983 2.5181 2.20933L1.90182 2.20933C1.90182 2.27983 1.90182 2.35042 1.90182 2.42108C1.90182 2.49174 1.90182 2.56248 1.90182 2.6333C1.90182 2.70412 1.90182 2.77501 1.90182 2.84598C1.90182 2.91695 1.90182 2.98799 1.90182 3.0591C1.90182 3.13023 1.90182 3.20142 1.90182 3.27268C1.90182 3.34395 1.90182 3.41529 1.90182 3.48671C1.90182 3.55812 1.90182 3.62962 1.90182 3.70117C1.90182 3.77274 1.90182 3.84438 1.90182 3.91608C1.90182 3.98779 1.90182 4.05957 1.90182 4.13142C1.90182 4.20328 1.90182 4.2752 1.90182 4.3472C1.90182 4.4192 1.90182 4.49126 1.90182 4.5634C1.90182 4.63554 1.90182 4.70775 1.90182 4.78003C1.90182 4.85231 1.90182 4.92466 1.90182 4.99708C1.90182 5.0695 1.90182 5.14199 1.90182 5.21455C1.90182 5.28711 1.90182 5.35974 1.90182 5.43243C1.90182 5.50513 1.90182 5.5779 1.90182 5.65073C1.90182 5.72356 1.90182 5.79647 1.90182 5.86944C1.90182 5.94241 1.90182 6.01545 1.90182 6.08855C1.90182 6.16165 1.90182 6.23483 1.90182 6.30806C1.90182 6.3813 1.90182 6.45461 1.90182 6.52798C1.90182 6.60134 1.90182 6.67478 1.90182 6.74828C1.90182 6.82178 1.90182 6.89535 1.90182 6.96898C1.90182 7.0426 1.90182 7.1163 1.90182 7.19006C1.90182 7.26382 1.90182 7.33765 1.90182 7.41153C1.90182 7.48542 1.90182 7.55936 1.90182 7.63338C1.90182 7.70739 1.90182 7.78147 1.90182 7.85561C1.90182 7.92975 1.90182 8.00394 1.90182 8.07821C1.90182 8.15247 1.90182 8.2268 1.90182 8.30119C1.90182 8.37557 1.90182 8.45002 1.90182 8.52452C1.90182 8.59903 1.90182 8.6736 1.90182 8.74823C1.90182 8.82286 1.90182 8.89754 1.90182 8.9723C1.90182 9.04704 1.90182 9.12185 1.90182 9.19672C1.90182 9.27158 1.90182 9.34651 1.90182 9.42149C1.90182 9.49648 1.90182 9.57152 1.90182 9.64662C1.90182 9.72172 1.90182 9.79687 1.90182 9.87209C1.90182 9.9473 1.90182 10.0226 1.90182 10.0979C1.90182 10.1732 1.90182 10.2486 1.90182 10.3241C1.90182 10.3995 1.90182 10.475 1.90182 10.5506C1.90182 10.6261 1.90182 10.7017 1.90182 10.7774C1.90182 10.8531 1.90182 10.9288 1.90182 11.0045C1.90182 11.0803 1.90182 11.1561 1.90182 11.232C1.90182 11.3079 1.90182 11.3838 1.90182 11.4598C1.90182 11.5358 1.90182 11.6119 1.90182 11.688C1.90182 11.764 1.90182 11.8402 1.90182 11.9164C1.90182 11.9926 1.90182 12.0688 1.90182 12.1451C1.90182 12.2215 1.90182 12.2978 1.90182 12.3742C1.90182 12.4506 1.90182 12.5271 1.90182 12.6036C1.90182 12.6801 1.90182 12.7566 1.90182 12.8333C1.90182 12.9099 1.90182 12.9865 1.90182 13.0632C1.90182 13.1399 1.90182 13.2167 1.90182 13.2935C1.90182 13.3703 1.90182 13.4471 1.90182 13.524C1.90182 13.6009 1.90182 13.6779 1.90182 13.7549C1.90182 13.8319 1.90182 13.9089 1.90182 13.986C1.90182 14.0631 1.90182 14.1403 1.90182 14.2174C1.90182 14.2946 1.90182 14.3718 1.90182 14.4491C1.90182 14.5264 1.90182 14.6037 1.90182 14.6811C1.90182 14.7585 1.90182 14.8359 1.90182 14.9133C1.90182 14.9908 1.90182 15.0683 1.90182 15.1458C1.90182 15.2234 1.90182 15.301 1.90182 15.3786C1.90182 15.4562 1.90182 15.5339 1.90182 15.6116C1.90182 15.6894 1.90182 15.7671 1.90182 15.8449C1.90182 15.9227 1.90182 16.0006 1.90182 16.0785C1.90182 16.1564 1.90182 16.2343 1.90182 16.3123C1.90182 16.3902 1.90182 16.4683 1.90182 16.5463C1.90182 16.6244 1.90182 16.7025 1.90182 16.7806C1.90182 16.8587 1.90182 16.9369 1.90182 17.0151C1.90182 17.0933 1.90182 17.1716 1.90182 17.2499C1.90182 17.3282 1.90182 17.4065 1.90182 17.4849C1.90182 17.5633 1.90182 17.6417 1.90182 17.7201C1.90182 17.7986 1.90182 17.8771 1.90182 17.9556C1.90182 18.0341 1.90182 18.1127 1.90182 18.1913C1.90182 18.2699 1.90182 18.3485 1.90182 18.4272C1.90182 18.5058 1.90182 18.5845 1.90182 18.6633C1.90182 18.742 1.90182 18.8208 1.90182 18.8996C1.90182 18.9784 1.90182 19.0573 1.90182 19.1361C1.90182 19.215 1.90182 19.2939 1.90182 19.3729C1.90182 19.4518 1.90182 19.5308 1.90182 19.6098C1.90182 19.6889 1.90182 19.7679 1.90182 19.847C1.90182 19.9261 1.90182 20.0052 1.90182 20.0843C1.90182 20.1635 1.90182 20.2427 1.90182 20.3219C1.90182 20.4011 1.90182 20.4803 1.90182 20.5596C1.90182 20.6389 1.90182 20.7182 1.90182 20.7975C1.90182 20.8769 1.90182 20.9562 1.90182 21.0356C1.90182 21.115 1.90182 21.1944 1.90182 21.2739C1.90182 21.3533 1.90182 21.4328 1.90182 21.5123C1.90182 21.5919 1.90182 21.6714 1.90182 21.751C1.90182 21.8305 1.90182 21.9101 1.90182 21.9898C1.90182 22.0694 1.90182 22.149 1.90182 22.2287C1.90182 22.3084 1.90182 22.3881 1.90182 22.4678C1.90182 22.5476 1.90182 22.6273 1.90182 22.7071C1.90182 22.7869 1.90182 22.8667 1.90182 22.9465C1.90182 23.0264 1.90182 23.1062 1.90182 23.1861C1.90182 23.266 1.90182 23.3459 1.90182 23.4259C1.90182 23.5058 1.90182 23.5858 1.90182 23.6657C1.90182 23.7457 1.90182 23.8257 1.90182 23.9058C1.90182 23.9858 1.90182 24.0658 1.90182 24.1459C1.90182 24.226 1.90182 24.3061 1.90182 24.3862C1.90182 24.4663 1.90182 24.5465 1.90182 24.6266C1.90182 24.7068 1.90182 24.787 1.90182 24.8672C1.90182 24.9474 1.90182 25.0276 1.90182 25.1079C1.90182 25.1881 1.90182 25.2684 1.90182 25.3487C1.90182 25.429 1.90182 25.5093 1.90182 25.5896C1.90182 25.6699 1.90182 25.7503 1.90182 25.8306C1.90182 25.911 1.90182 25.9914 1.90182 26.0718C1.90182 26.1521 1.90182 26.2326 1.90182 26.313C1.90182 26.3934 1.90182 26.4739 1.90182 26.5543C1.90182 26.6348 1.90182 26.7153 1.90182 26.7958C1.90182 26.8763 1.90182 26.9568 1.90182 27.0373C1.90182 27.1179 1.90182 27.1984 1.90182 27.279C1.90182 27.3596 1.90182 27.4401 1.90182 27.5207C1.90182 27.6013 1.90182 27.6819 1.90182 27.7625C1.90182 27.8432 1.90182 27.9238 1.90182 28.0044C1.90182 28.0851 1.90182 28.1657 1.90182 28.2464C1.90182 28.3271 1.90182 28.4078 1.90182 28.4885C1.90182 28.5692 1.90182 28.6499 1.90182 28.7306C1.90182 28.8113 1.90182 28.8921 1.90182 28.9728C1.90182 29.0536 1.90182 29.1343 1.90182 29.2151C1.90182 29.2958 1.90182 29.3766 1.90182 29.4574C1.90182 29.5382 1.90182 29.619 1.90182 29.6998C1.90182 29.7806 1.90182 29.8614 1.90182 29.9422C1.90182 30.0231 1.90182 30.1039 1.90182 30.1847C1.90182 30.2656 1.90182 30.3464 1.90182 30.4273C1.90182 30.5081 1.90182 30.589 1.90182 30.6699C1.90182 30.7507 1.90182 30.8316 1.90182 30.9125C1.90182 30.9934 1.90182 31.0743 1.90182 31.1552C1.90182 31.2361 1.90182 31.317 1.90182 31.3979C1.90182 31.4788 1.90182 31.5597 1.90182 31.6406C1.90182 31.7215 1.90182 31.8025 1.90182 31.8834C1.90182 31.9643 1.90182 32.0452 1.90182 32.1262C1.90182 32.2071 1.90182 32.2881 1.90182 32.369C1.90182 32.4499 1.90182 32.5309 1.90182 32.6118C1.90182 32.6928 1.90182 32.7737 1.90182 32.8547C1.90182 32.9356 1.90182 33.0166 1.90182 33.0975C1.90182 33.1785 1.90182 33.2594 1.90182 33.3404C1.90182 33.4214 1.90182 33.5023 1.90182 33.5833C1.90182 33.6642 1.90182 33.7452 1.90182 33.8261C1.90182 33.9071 1.90182 33.9881 1.90182 34.069C1.90182 34.15 1.90182 34.2309 1.90182 34.3119C1.90182 34.3928 1.90182 34.4738 1.90182 34.5547C1.90182 34.6357 1.90182 34.7166 1.90182 34.7976C1.90182 34.8785 1.90182 34.9595 1.90182 35.0404C1.90182 35.1213 1.90182 35.2023 1.90182 35.2832C1.90182 35.3641 1.90182 35.4451 1.90182 35.526C1.90182 35.6069 1.90182 35.6878 1.90182 35.7687C1.90182 35.8497 1.90182 35.9306 1.90182 36.0115C1.90182 36.0924 1.90182 36.1733 1.90182 36.2542C1.90182 36.3351 1.90182 36.416 1.90182 36.4968C1.90182 36.5777 1.90182 36.6586 1.90182 36.7394C1.90182 36.8203 1.90182 36.9012 1.90182 36.982C1.90182 37.0629 1.90182 37.1437 1.90182 37.2246C1.90182 37.3054 1.90182 37.3862 1.90182 37.467C1.90182 37.5478 1.90182 37.6287 1.90182 37.7095C1.90182 37.7903 1.90182 37.871 1.90182 37.9518C1.90182 38.0326 1.90182 38.1134 1.90182 38.1941C1.90182 38.2749 1.90182 38.3556 1.90182 38.4364C1.90182 38.5171 1.90182 38.5978 1.90182 38.6785C1.90182 38.7593 1.90182 38.84 1.90182 38.9207C1.90182 39.0013 1.90182 39.082 1.90182 39.1627C1.90182 39.2433 1.90182 39.324 1.90182 39.4046C1.90182 39.4853 1.90182 39.5659 1.90182 39.6465C1.90182 39.7271 1.90182 39.8077 1.90182 39.8883C1.90182 39.9689 1.90182 40.0494 1.90182 40.13C1.90182 40.2105 1.90182 40.2911 1.90182 40.3716C1.90182 40.4521 1.90182 40.5326 1.90182 40.6131C1.90182 40.6936 1.90182 40.7741 1.90182 40.8545C1.90182 40.935 1.90182 41.0154 1.90182 41.0958C1.90182 41.1763 1.90182 41.2567 1.90182 41.3371C1.90182 41.4174 1.90182 41.4978 1.90182 41.5782C1.90182 41.6585 1.90182 41.7388 1.90182 41.8191C1.90182 41.8994 1.90182 41.9797 1.90182 42.06C1.90182 42.1403 1.90182 42.2205 1.90182 42.3008C1.90182 42.381 1.90182 42.4612 1.90182 42.5414C1.90182 42.6216 1.90182 42.7018 1.90182 42.7819C1.90182 42.8621 1.90182 42.9422 1.90182 43.0223C1.90182 43.1024 1.90182 43.1825 1.90182 43.2625C1.90182 43.3426 1.90182 43.4226 1.90182 43.5026C1.90182 43.5826 1.90182 43.6626 1.90182 43.7426C1.90182 43.8226 1.90182 43.9025 1.90182 43.9824C1.90182 44.0624 1.90182 44.1422 1.90182 44.2221C1.90182 44.302 1.90182 44.3818 1.90182 44.4616C1.90182 44.5415 1.90182 44.6213 1.90182 44.701C1.90182 44.7808 1.90182 44.8605 1.90182 44.9402C1.90182 45.02 1.90182 45.0996 1.90182 45.1793C1.90182 45.259 1.90182 45.3386 1.90182 45.4182C1.90182 45.4978 1.90182 45.5774 1.90182 45.6569C1.90182 45.7365 1.90182 45.816 1.90182 45.8955C1.90182 45.975 1.90182 46.0545 1.90182 46.1339C1.90182 46.2133 1.90182 46.2927 1.90182 46.3721C1.90182 46.4515 1.90182 46.5308 1.90182 46.6101C1.90182 46.6894 1.90182 46.7687 1.90182 46.848C1.90182 46.9272 1.90182 47.0065 1.90182 47.0856C1.90182 47.1648 1.90182 47.244 1.90182 47.3231C1.90182 47.4022 1.90182 47.4813 1.90182 47.5604C1.90182 47.6394 1.90182 47.7185 1.90182 47.7975C1.90182 47.8765 1.90182 47.9554 1.90182 48.0343C1.90182 48.1133 1.90182 48.1922 1.90182 48.271C1.90182 48.3499 1.90182 48.4287 1.90182 48.5075C1.90182 48.5863 1.90182 48.665 1.90182 48.7437C1.90182 48.8225 1.90182 48.9011 1.90182 48.9798C1.90182 49.0584 1.90182 49.137 1.90182 49.2156C1.90182 49.2942 1.90182 49.3727 1.90182 49.4512C1.90182 49.5297 1.90182 49.6082 1.90182 49.6866C1.90182 49.765 1.90182 49.8434 1.90182 49.9217C1.90182 50.0001 1.90182 50.0784 1.90182 50.1566C1.90182 50.2349 1.90182 50.3131 1.90182 50.3913C1.90182 50.4695 1.90182 50.5477 1.90182 50.6258C1.90182 50.7039 1.90182 50.7819 1.90182 50.86C1.90182 50.938 1.90182 51.016 1.90182 51.0939C1.90182 51.1719 1.90182 51.2498 1.90182 51.3276C1.90182 51.4055 1.90182 51.4833 1.90182 51.5611C1.90182 51.6388 1.90182 51.7166 1.90182 51.7943C1.90182 51.872 1.90182 51.9496 1.90182 52.0272C1.90182 52.1048 1.90182 52.1824 1.90182 52.2599C1.90182 52.3374 1.90182 52.4149 1.90182 52.4923C1.90182 52.5697 1.90182 52.6471 1.90182 52.7244C1.90182 52.8018 1.90182 52.8791 1.90182 52.9563C1.90182 53.0336 1.90182 53.1107 1.90182 53.1879C1.90182 53.265 1.90182 53.3422 1.90182 53.4192C1.90182 53.4963 1.90182 53.5733 1.90182 53.6502C1.90182 53.7272 1.90182 53.8041 1.90182 53.881C1.90182 53.9578 1.90182 54.0347 1.90182 54.1114C1.90182 54.1882 1.90182 54.2649 1.90182 54.3416C1.90182 54.4183 1.90182 54.4949 1.90182 54.5715C1.90182 54.648 1.90182 54.7245 1.90182 54.801C1.90182 54.8775 1.90182 54.9539 1.90182 55.0303C1.90182 55.1066 1.90182 55.183 1.90182 55.2592C1.90182 55.3355 1.90182 55.4117 1.90182 55.4879C1.90182 55.564 1.90182 55.6401 1.90182 55.7162C1.90182 55.7923 1.90182 55.8683 1.90182 55.9442C1.90182 56.0202 1.90182 56.0961 1.90182 56.1719C1.90182 56.2477 1.90182 56.3235 1.90182 56.3993C1.90182 56.475 1.90182 56.5507 1.90182 56.6263C1.90182 56.7019 1.90182 56.7775 1.90182 56.853C1.90182 56.9285 1.90182 57.004 1.90182 57.0794C1.90182 57.1548 1.90182 57.2301 1.90182 57.3054C1.90182 57.3807 1.90182 57.4559 1.90182 57.5311C1.90182 57.6063 1.90182 57.6814 1.90182 57.7565C1.90182 57.8315 1.90182 57.9065 1.90182 57.9815C1.90182 58.0564 1.90182 58.1313 1.90182 58.2061C1.90182 58.2809 1.90182 58.3557 1.90182 58.4304C1.90182 58.5051 1.90182 58.5798 1.90182 58.6543C1.90182 58.7289 1.90182 58.8035 1.90182 58.8779C1.90182 58.9524 1.90182 59.0268 1.90182 59.1011C1.90182 59.1755 1.90182 59.2497 1.90182 59.324C1.90182 59.3982 1.90182 59.4723 1.90182 59.5464C1.90182 59.6205 1.90182 59.6946 1.90182 59.7685C1.90182 59.8425 1.90182 59.9164 1.90182 59.9902C1.90182 60.0641 1.90182 60.1379 1.90182 60.2116C1.90182 60.2853 1.90182 60.3589 1.90182 60.4325C1.90182 60.5061 1.90182 60.5796 1.90182 60.6531C1.90182 60.7265 1.90182 60.7999 1.90182 60.8732C1.90182 60.9466 1.90182 61.0198 1.90182 61.093C1.90182 61.1662 1.90182 61.2393 1.90182 61.3124C1.90182 61.3854 1.90182 61.4584 1.90182 61.5313C1.90182 61.6043 1.90182 61.6771 1.90182 61.7499C1.90182 61.8227 1.90182 61.8954 1.90182 61.9681C1.90182 62.0407 1.90182 62.1133 1.90182 62.1858C1.90182 62.2583 1.90182 62.3307 1.90182 62.4031C1.90182 62.4755 1.90182 62.5478 1.90182 62.62C1.90182 62.6922 1.90182 62.7644 1.90182 62.8365C1.90182 62.9086 1.90182 62.9806 1.90182 63.0525C1.90182 63.1245 1.90182 63.1964 1.90182 63.2682C1.90182 63.34 1.90182 63.4117 1.90182 63.4833C1.90182 63.555 1.90182 63.6266 1.90182 63.6981C1.90182 63.7696 1.90182 63.841 1.90182 63.9124C1.90182 63.9838 1.90182 64.055 1.90182 64.1263C1.90182 64.1975 1.90182 64.2686 1.90182 64.3397C1.90182 64.4107 1.90182 64.4817 1.90182 64.5526C1.90182 64.6236 1.90182 64.6944 1.90182 64.7652C1.90182 64.8359 1.90182 64.9066 1.90182 64.9772C1.90182 65.0478 1.90182 65.1183 1.90182 65.1888C1.90182 65.2593 1.90182 65.3296 1.90182 65.3999C1.90182 65.4702 1.90182 65.5405 1.90182 65.6106C1.90182 65.6807 1.90182 65.7508 1.90182 65.8208C1.90182 65.8908 1.90182 65.9607 1.90182 66.0305C1.90182 66.1003 1.90182 66.1701 1.90182 66.2397C1.90182 66.3094 1.90182 66.379 1.90182 66.4485C1.90182 66.518 1.90182 66.5874 1.90182 66.6568C1.90182 66.7261 1.90182 66.7954 1.90182 66.8645C1.90182 66.9337 1.90182 67.0028 1.90182 67.0718C1.90182 67.1408 1.90182 67.2098 1.90182 67.2786C1.90182 67.3475 1.90182 67.4162 1.90182 67.4849C1.90182 67.5536 1.90182 67.6222 1.90182 67.6907C1.90182 67.7592 1.90182 67.8277 1.90182 67.896C1.90182 67.9643 1.90182 68.0326 1.90182 68.1008C1.90182 68.169 1.90182 68.237 1.90182 68.305C1.90182 68.373 1.90182 68.441 1.90182 68.5088C1.90182 68.5766 1.90182 68.6444 1.90182 68.712C1.90182 68.7797 1.90182 68.8473 1.90182 68.9147C1.90182 68.9822 1.90182 69.0496 1.90182 69.1169C1.90182 69.1842 1.90182 69.2514 1.90182 69.3186C1.90182 69.3857 1.90182 69.4527 1.90182 69.5197C1.90182 69.5866 1.90182 69.6535 1.90182 69.7203C1.90182 69.787 1.90182 69.8537 1.90182 69.9203C1.90182 69.9869 1.90182 70.0534 1.90182 70.1198C1.90182 70.1862 1.90182 70.2525 1.90182 70.3188C1.90182 70.385 1.90182 70.4511 1.90182 70.5172C1.90182 70.5832 1.90182 70.6492 1.90182 70.715C1.90182 70.7809 1.90182 70.8466 1.90182 70.9123C1.90182 70.978 1.90182 71.0436 1.90182 71.1091C1.90182 71.1745 1.90182 71.2399 1.90182 71.3052C1.90182 71.3705 1.90182 71.4357 1.90182 71.5008C1.90182 71.5659 1.90182 71.6309 1.90182 71.6959C1.90182 71.7608 1.90182 71.8256 1.90182 71.8903C1.90182 71.955 1.90182 72.0197 1.90182 72.0842C1.90182 72.1487 1.90182 72.2132 1.90182 72.2775C1.90182 72.3418 1.90182 72.4061 1.90182 72.4702C1.90182 72.5343 1.90182 72.5984 1.90182 72.6623C1.90182 72.7263 1.90182 72.7901 1.90182 72.8539C1.90182 72.9176 1.90182 72.9813 1.90182 73.0448C1.90182 73.1084 1.90182 73.1718 1.90182 73.2352C1.90182 73.2985 1.90182 73.3617 1.90182 73.4249C1.90182 73.488 1.90182 73.5511 1.90182 73.614C1.90182 73.677 1.90182 73.7398 1.90182 73.8026C1.90182 73.8653 1.90182 73.9279 1.90182 73.9905C1.90182 74.053 1.90182 74.1154 1.90182 74.1778C1.90182 74.2401 1.90182 74.3023 1.90182 74.3645C1.90182 74.4266 1.90182 74.4886 1.90182 74.5505C1.90182 74.6124 1.90182 74.6743 1.90182 74.736C1.90182 74.7977 1.90182 74.8593 1.90182 74.9208C1.90182 74.9823 1.90182 75.0437 1.90182 75.1049C1.90182 75.1662 1.90182 75.2274 1.90182 75.2885C1.90182 75.3496 1.90182 75.4105 1.90182 75.4714C1.90182 75.5322 1.90182 75.593 1.90182 75.6536C1.90182 75.7143 1.90182 75.7748 1.90182 75.8352C1.90182 75.8957 1.90182 75.956 1.90182 76.0162C1.90182 76.0764 1.90182 76.1365 1.90182 76.1965C1.90182 76.2565 1.90182 76.3164 1.90182 76.3762C1.90182 76.4359 1.90182 76.4956 1.90182 76.5552C1.90182 76.6147 1.90182 76.6742 1.90182 76.7335C1.90182 76.7928 1.90182 76.8521 1.90182 76.9112C1.90182 76.9703 1.90182 77.0293 1.90182 77.0882C1.90182 77.147 1.90182 77.2058 1.90182 77.2645C1.90182 77.3231 1.90182 77.3817 1.90182 77.4401C1.90182 77.4986 1.90182 77.5569 1.90182 77.6151C1.90182 77.6733 1.90182 77.7314 1.90182 77.7894C1.90182 77.8473 1.90182 77.9052 1.90182 77.963C1.90182 78.0207 1.90182 78.0783 1.90182 78.1359C1.90182 78.1934 1.90182 78.2508 1.90182 78.3081C1.90182 78.3654 1.90182 78.4225 1.90182 78.4796C1.90182 78.5366 1.90182 78.5936 1.90182 78.6504C1.90182 78.7072 1.90182 78.7639 1.90182 78.8205C1.90182 78.8771 1.90182 78.9336 1.90182 78.9899C1.90182 79.0462 1.90182 79.1025 1.90182 79.1586C1.90182 79.2147 1.90182 79.2707 1.90182 79.3266C1.90182 79.3824 1.90182 79.4382 1.90182 79.4938C1.90182 79.5494 1.90182 79.605 1.90182 79.6604C1.90182 79.7157 1.90182 79.771 1.90182 79.8262C1.90182 79.8813 1.90182 79.9363 1.90182 79.9912C1.90182 80.0462 1.90182 80.1009 1.90182 80.1556C1.90182 80.2103 1.90182 80.2648 1.90182 80.3192C1.90182 80.3736 1.90182 80.4279 1.90182 80.4821C1.90182 80.5363 1.90182 80.5903 1.90182 80.6442C1.90182 80.6981 1.90182 80.7519 1.90182 80.8056C1.90182 80.8593 1.90182 80.9128 1.90182 80.9663C1.90182 81.0197 1.90182 81.073 1.90182 81.1261C1.90182 81.1793 1.90182 81.2324 1.90182 81.2853C1.90182 81.3382 1.90182 81.391 1.90182 81.4437C1.90182 81.4963 1.90182 81.5489 1.90182 81.6013C1.90182 81.6537 1.90182 81.706 1.90182 81.7581C1.90182 81.8103 1.90182 81.8623 1.90182 81.9142C1.90182 81.9661 1.90182 82.0179 1.90182 82.0695C1.90182 82.1211 1.90182 82.1726 1.90182 82.224C1.90182 82.2754 1.90182 82.3267 1.90182 82.3778C1.90182 82.4289 1.90182 82.4799 1.90182 82.5307C1.90182 82.5816 1.90182 82.6323 1.90182 82.6829C1.90182 82.7335 1.90182 82.784 1.90182 82.8343C1.90182 82.8846 1.90182 82.9348 1.90182 82.9849C1.90182 83.035 1.90182 83.0849 1.90182 83.1347C1.90182 83.1845 1.90182 83.2342 1.90182 83.2837C1.90182 83.3332 1.90182 83.3826 1.90182 83.4319C1.90182 83.4812 1.90182 83.5303 1.90182 83.5793C1.90182 83.6283 1.90182 83.6772 1.90182 83.7259C1.90182 83.7746 1.90182 83.8232 1.90182 83.8717C1.90182 83.9201 1.90182 83.9684 1.90182 84.0166C1.90182 84.0648 1.90182 84.1128 1.90182 84.1607C1.90182 84.2086 1.90182 84.2564 1.90182 84.304C1.90182 84.3517 1.90182 84.3992 1.90182 84.4465C1.90182 84.4939 1.90182 84.5411 1.90182 84.5882C1.90182 84.6352 1.90182 84.6822 1.90182 84.729C1.90182 84.7758 1.90182 84.8224 1.90182 84.869C1.90182 84.9155 1.90182 84.9618 1.90182 85.0081C1.90182 85.0543 1.90182 85.1004 1.90182 85.1464C1.90182 85.1923 1.90182 85.2381 1.90182 85.2838C1.90182 85.3295 1.90182 85.375 1.90182 85.4204C1.90182 85.4658 1.90182 85.511 1.90182 85.5561C1.90182 85.6012 1.90182 85.6462 1.90182 85.691C1.90182 85.7358 1.90182 85.7805 1.90182 85.825C1.90182 85.8696 1.90182 85.9139 1.90182 85.9582C1.90182 86.0024 1.90182 86.0465 1.90182 86.0905C1.90182 86.1344 1.90182 86.1782 1.90182 86.2219C1.90182 86.2655 1.90182 86.3091 1.90182 86.3524C1.90182 86.3958 1.90182 86.439 1.90182 86.4821C1.90182 86.5251 1.90182 86.5681 1.90182 86.6108C1.90182 86.6536 1.90182 86.6963 1.90182 86.7387C1.90182 86.7812 1.90182 86.8236 1.90182 86.8657C1.90182 86.9079 1.90182 86.95 1.90182 86.9918C1.90182 87.0337 1.90182 87.0755 1.90182 87.1171C1.90182 87.1586 1.90182 87.2001 1.90182 87.2414C1.90182 87.2827 1.90182 87.3238 1.90182 87.3648C1.90182 87.4058 1.90182 87.4466 1.90182 87.4873C1.90182 87.528 1.90182 87.5685 1.90182 87.6089C1.90182 87.6493 1.90182 87.6895 1.90182 87.7296C1.90182 87.7696 1.90182 87.8096 1.90182 87.8493C1.90182 87.8891 1.90182 87.9287 1.90182 87.9682C1.90182 88.0076 1.90182 88.0469 1.90182 88.0861C1.90182 88.1252 1.90182 88.1642 1.90182 88.2031C1.90182 88.2419 1.90182 88.2806 1.90182 88.3191C1.90182 88.3577 1.90182 88.3961 1.90182 88.4343C1.90182 88.4725 1.90182 88.5106 1.90182 88.5485C1.90182 88.5864 1.90182 88.6241 1.90182 88.6617C1.90182 88.6993 1.90182 88.7368 1.90182 88.774C1.90182 88.8113 1.90182 88.8484 1.90182 88.8854C1.90182 88.9224 1.90182 88.9592 1.90182 88.9958C1.90182 89.0325 1.90182 89.0689 1.90182 89.1053C1.90182 89.1416 1.90182 89.1778 1.90182 89.2138C1.90182 89.2498 1.90182 89.2856 1.90182 89.3213C1.90182 89.357 1.90182 89.3925 1.90182 89.4279C1.90182 89.4633 1.90182 89.4985 1.90182 89.5335C1.90182 89.5685 1.90182 89.6034 1.90182 89.6381C1.90182 89.6728 1.90182 89.7074 1.90182 89.7418C1.90182 89.7762 1.90182 89.8104 1.90182 89.8445C1.90182 89.8785 1.90182 89.9124 1.90182 89.9462C1.90182 89.9799 1.90182 90.0135 1.90182 90.0469C1.90182 90.0803 1.90182 90.1135 1.90182 90.1466C1.90182 90.1797 1.90182 90.2126 1.90182 90.2454C1.90182 90.2781 1.90182 90.3107 1.90182 90.3431C1.90182 90.3755 1.90182 90.4078 1.90182 90.4399C1.90182 90.4719 1.90182 90.5038 1.90182 90.5356C1.90182 90.5673 1.90182 90.5989 1.90182 90.6303C1.90182 90.6617 1.90182 90.693 1.90182 90.7241C1.90182 90.7551 1.90182 90.786 1.90182 90.8168C1.90182 90.8475 1.90182 90.8781 1.90182 90.9085C1.90182 90.9389 1.90182 90.9691 1.90182 90.9992C1.90182 91.0292 1.90182 91.0591 1.90182 91.0888C1.90182 91.1185 1.90182 91.1481 1.90182 91.1774C1.90182 91.2068 1.90182 91.236 1.90182 91.2651C1.90182 91.2941 1.90182 91.3229 1.90182 91.3516C1.90182 91.3803 1.90182 91.4088 1.90182 91.4372C1.90182 91.4655 1.90182 91.4937 1.90182 91.5217C1.90182 91.5496 1.90182 91.5775 1.90182 91.6051C1.90182 91.6327 1.90182 91.6602 1.90182 91.6875C1.90182 91.7148 1.90182 91.7419 1.90182 91.7689C1.90182 91.7958 1.90182 91.8226 1.90182 91.8492C1.90182 91.8758 1.90182 91.9022 1.90182 91.9284C1.90182 91.9546 1.90182 91.9807 1.90182 92.0066C1.90182 92.0325 1.90182 92.0582 1.90182 92.0837C1.90182 92.1092 1.90182 92.1346 1.90182 92.1598C1.90182 92.1849 1.90182 92.2099 1.90182 92.2348C1.90182 92.2596 1.90182 92.2842 1.90182 92.3087C1.90182 92.3331 1.90182 92.3574 1.90182 92.3815C1.90182 92.4056 1.90182 92.4295 1.90182 92.4532C1.90182 92.477 1.90182 92.5005 1.90182 92.5239C1.90182 92.5473 1.90182 92.5705 1.90182 92.5935C1.90182 92.6165 1.90182 92.6393 1.90182 92.662C1.90182 92.6846 1.90182 92.7071 1.90182 92.7294C1.90182 92.7517 1.90182 92.7738 1.90182 92.7957C1.90182 92.8176 1.90182 92.8393 1.90182 92.8609C1.90182 92.8824 1.90182 92.9038 1.90182 92.925C1.90182 92.9461 1.90182 92.9671 1.90182 92.9879C1.90182 93.0088 1.90182 93.0294 1.90182 93.0498C1.90182 93.0703 1.90182 93.0905 1.90182 93.1106C1.90182 93.1306 1.90182 93.1505 1.90182 93.1702C1.90182 93.1899 1.90182 93.2094 1.90182 93.2287C1.90182 93.248 1.90182 93.2672 1.90182 93.2861C1.90182 93.3051 1.90182 93.3238 1.90182 93.3424C1.90182 93.3609 1.90182 93.3793 1.90182 93.3975C1.90182 93.4157 1.90182 93.4337 1.90182 93.4515C1.90182 93.4693 1.90182 93.4869 1.90182 93.5044C1.90182 93.5218 1.90182 93.539 1.90182 93.5561C1.90182 93.5731 1.90182 93.59 1.90182 93.6066C1.90182 93.6233 1.90182 93.6398 1.90182 93.6561C1.90182 93.6723 1.90182 93.6884 1.90182 93.7043C1.90182 93.7202 1.90182 93.7359 1.90182 93.7514C1.90182 93.767 1.90182 93.7823 1.90182 93.7974C1.90182 93.8125 1.90182 93.8274 1.90182 93.8422C1.90182 93.8569 1.90182 93.8715 1.90182 93.8858C1.90182 93.9001 1.90182 93.9143 1.90182 93.9283C1.90182 93.9422 1.90182 93.956 1.90182 93.9695C1.90182 93.9831 1.90182 93.9965 1.90182 94.0096C1.90182 94.0228 1.90182 94.0358 1.90182 94.0486C1.90182 94.0613 1.90182 94.0739 1.90182 94.0863C1.90182 94.0987 1.90182 94.1109 1.90182 94.1228C1.90182 94.1348 1.90182 94.1466 1.90182 94.1582C1.90182 94.1698 1.90182 94.1812 1.90182 94.1924C1.90182 94.2036 1.90182 94.2146 1.90182 94.2253C1.90182 94.2361 1.90182 94.2467 1.90182 94.2571C1.90182 94.2675 1.90182 94.2777 1.90182 94.2877C1.90182 94.2977 1.90182 94.3075 1.90182 94.317C1.90182 94.3266 1.90182 94.336 1.90182 94.3452C1.90182 94.3544 1.90182 94.3633 1.90182 94.3721C1.90182 94.3809 1.90182 94.3895 1.90182 94.3978C1.90182 94.4062 1.90182 94.4144 1.90182 94.4223C1.90182 94.4303 1.90182 94.4381 1.90182 94.4456C1.90182 94.4532 1.90182 94.4605 1.90182 94.4676C1.90182 94.4748 1.90182 94.4817 1.90182 94.4885C1.90182 94.4952 1.90182 94.5017 1.90182 94.508C1.90182 94.5144 1.90182 94.5205 1.90182 94.5264C1.90182 94.5323 1.90182 94.538 1.90182 94.5435C1.90182 94.549 1.90182 94.5542 1.90182 94.5593C1.90182 94.5644 1.90182 94.5693 1.90182 94.5739C1.90182 94.5786 1.90182 94.583 1.90182 94.5873C1.90182 94.5915 1.90182 94.5956 1.90182 94.5994C1.90182 94.6032 1.90182 94.6068 1.90182 94.6102C1.90182 94.6136 1.90182 94.6168 1.90182 94.6198C1.90182 94.6228 1.90182 94.6255 1.90182 94.6281C1.90182 94.6307 1.90182 94.633 1.90182 94.6351C1.90182 94.6373 1.90182 94.6392 1.90182 94.6409C1.90182 94.6426 1.90182 94.6441 1.90182 94.6454C1.90182 94.6467 1.90182 94.6478 1.90182 94.6486C1.90182 94.6495 1.90182 94.6501 1.90182 94.6505C1.90182 94.651 1.90182 94.6512 2.20996 94.6512ZM2.20996 2.51746L94.6518 2.51746L94.6518 1.90119L2.20996 1.90118L2.20996 2.51746Z" fill="#660066"/>
</svg>
