<svg width="127" height="131" viewBox="0 0 127 131" fill="none" xmlns="http://www.w3.org/2000/svg">
<path opacity="0.4" d="M126.015 128.721C126.015 127.813 125.28 127.078 124.372 127.078C123.464 127.078 122.729 127.813 122.729 128.721C122.729 129.629 123.464 130.364 124.372 130.364C125.28 130.364 126.015 129.629 126.015 128.721ZM3.99223 2.38373C3.99223 1.4761 3.25644 0.740323 2.34882 0.740323C1.44119 0.740323 0.705402 1.4761 0.705402 2.38373C0.705402 3.29136 1.44119 4.02714 2.34882 4.02714C3.25644 4.02714 3.99223 3.29136 3.99223 2.38373ZM124.372 128.721C124.372 128.413 124.372 128.413 124.372 128.413C124.371 128.413 124.371 128.413 124.37 128.413C124.37 128.413 124.369 128.413 124.368 128.413C124.368 128.413 124.367 128.413 124.366 128.413C124.365 128.413 124.363 128.413 124.362 128.413C124.361 128.413 124.359 128.413 124.358 128.413C124.356 128.413 124.354 128.413 124.352 128.413C124.351 128.413 124.349 128.413 124.346 128.413C124.344 128.413 124.342 128.413 124.34 128.413C124.337 128.413 124.335 128.413 124.332 128.413C124.329 128.413 124.327 128.413 124.324 128.413C124.321 128.413 124.318 128.413 124.314 128.413C124.311 128.413 124.308 128.413 124.304 128.413C124.301 128.413 124.297 128.413 124.294 128.413C124.29 128.413 124.286 128.413 124.282 128.413C124.278 128.413 124.274 128.413 124.27 128.413C124.266 128.413 124.261 128.413 124.257 128.413C124.252 128.413 124.248 128.413 124.243 128.413C124.238 128.413 124.233 128.413 124.228 128.413C124.223 128.413 124.218 128.413 124.213 128.413C124.208 128.413 124.202 128.413 124.197 128.413C124.191 128.413 124.185 128.413 124.18 128.413C124.174 128.413 124.168 128.413 124.162 128.413C124.156 128.413 124.15 128.413 124.143 128.413C124.137 128.413 124.131 128.413 124.124 128.413C124.117 128.413 124.111 128.413 124.104 128.413C124.097 128.413 124.09 128.413 124.083 128.413C124.076 128.413 124.069 128.413 124.061 128.413C124.054 128.413 124.047 128.413 124.039 128.413C124.031 128.413 124.024 128.413 124.016 128.413C124.008 128.413 124 128.413 123.992 128.413C123.984 128.413 123.976 128.413 123.967 128.413C123.959 128.413 123.951 128.413 123.942 128.413C123.933 128.413 123.925 128.413 123.916 128.413C123.907 128.413 123.898 128.413 123.889 128.413C123.88 128.413 123.87 128.413 123.861 128.413C123.852 128.413 123.842 128.413 123.833 128.413C123.823 128.413 123.813 128.413 123.803 128.413C123.794 128.413 123.784 128.413 123.774 128.413C123.763 128.413 123.753 128.413 123.743 128.413C123.732 128.413 123.722 128.413 123.711 128.413C123.701 128.413 123.69 128.413 123.679 128.413C123.668 128.413 123.657 128.413 123.646 128.413C123.635 128.413 123.624 128.413 123.613 128.413C123.601 128.413 123.59 128.413 123.578 128.413C123.567 128.413 123.555 128.413 123.543 128.413C123.531 128.413 123.519 128.413 123.507 128.413C123.495 128.413 123.483 128.413 123.47 128.413C123.458 128.413 123.446 128.413 123.433 128.413C123.421 128.413 123.408 128.413 123.395 128.413C123.382 128.413 123.369 128.413 123.356 128.413C123.343 128.413 123.33 128.413 123.317 128.413C123.303 128.413 123.29 128.413 123.276 128.413C123.263 128.413 123.249 128.413 123.235 128.413C123.221 128.413 123.208 128.413 123.194 128.413C123.18 128.413 123.165 128.413 123.151 128.413C123.137 128.413 123.122 128.413 123.108 128.413C123.093 128.413 123.079 128.413 123.064 128.413C123.049 128.413 123.034 128.413 123.019 128.413C123.004 128.413 122.989 128.413 122.974 128.413C122.959 128.413 122.943 128.413 122.928 128.413C122.912 128.413 122.897 128.413 122.881 128.413C122.865 128.413 122.85 128.413 122.834 128.413C122.818 128.413 122.802 128.413 122.785 128.413C122.769 128.413 122.753 128.413 122.736 128.413C122.72 128.413 122.703 128.413 122.687 128.413C122.67 128.413 122.653 128.413 122.636 128.413C122.619 128.413 122.602 128.413 122.585 128.413C122.568 128.413 122.551 128.413 122.534 128.413C122.516 128.413 122.499 128.413 122.481 128.413C122.463 128.413 122.446 128.413 122.428 128.413C122.41 128.413 122.392 128.413 122.374 128.413C122.356 128.413 122.338 128.413 122.319 128.413C122.301 128.413 122.283 128.413 122.264 128.413C122.246 128.413 122.227 128.413 122.208 128.413C122.189 128.413 122.171 128.413 122.152 128.413C122.133 128.413 122.113 128.413 122.094 128.413C122.075 128.413 122.056 128.413 122.036 128.413C122.017 128.413 121.997 128.413 121.977 128.413C121.958 128.413 121.938 128.413 121.918 128.413C121.898 128.413 121.878 128.413 121.858 128.413C121.838 128.413 121.817 128.413 121.797 128.413C121.777 128.413 121.756 128.413 121.735 128.413C121.715 128.413 121.694 128.413 121.673 128.413C121.652 128.413 121.632 128.413 121.61 128.413C121.589 128.413 121.568 128.413 121.547 128.413C121.526 128.413 121.504 128.413 121.483 128.413C121.461 128.413 121.44 128.413 121.418 128.413C121.396 128.413 121.374 128.413 121.352 128.413C121.33 128.413 121.308 128.413 121.286 128.413C121.264 128.413 121.241 128.413 121.219 128.413C121.197 128.413 121.174 128.413 121.151 128.413C121.129 128.413 121.106 128.413 121.083 128.413C121.06 128.413 121.037 128.413 121.014 128.413C120.991 128.413 120.968 128.413 120.945 128.413C120.921 128.413 120.898 128.413 120.874 128.413C120.851 128.413 120.827 128.413 120.803 128.413C120.78 128.413 120.756 128.413 120.732 128.413C120.708 128.413 120.684 128.413 120.66 128.413C120.635 128.413 120.611 128.413 120.587 128.413C120.562 128.413 120.538 128.413 120.513 128.413C120.488 128.413 120.464 128.413 120.439 128.413C120.414 128.413 120.389 128.413 120.364 128.413C120.339 128.413 120.314 128.413 120.288 128.413C120.263 128.413 120.238 128.413 120.212 128.413C120.187 128.413 120.161 128.413 120.135 128.413C120.11 128.413 120.084 128.413 120.058 128.413C120.032 128.413 120.006 128.413 119.98 128.413C119.953 128.413 119.927 128.413 119.901 128.413C119.874 128.413 119.848 128.413 119.821 128.413C119.795 128.413 119.768 128.413 119.741 128.413C119.714 128.413 119.688 128.413 119.661 128.413C119.633 128.413 119.606 128.413 119.579 128.413C119.552 128.413 119.525 128.413 119.497 128.413C119.47 128.413 119.442 128.413 119.414 128.413C119.387 128.413 119.359 128.413 119.331 128.413C119.303 128.413 119.275 128.413 119.247 128.413C119.219 128.413 119.191 128.413 119.163 128.413C119.134 128.413 119.106 128.413 119.077 128.413C119.049 128.413 119.02 128.413 118.992 128.413C118.963 128.413 118.934 128.413 118.905 128.413C118.876 128.413 118.847 128.413 118.818 128.413C118.789 128.413 118.76 128.413 118.73 128.413C118.701 128.413 118.672 128.413 118.642 128.413C118.613 128.413 118.583 128.413 118.553 128.413C118.523 128.413 118.494 128.413 118.464 128.413C118.434 128.413 118.404 128.413 118.373 128.413C118.343 128.413 118.313 128.413 118.283 128.413C118.252 128.413 118.222 128.413 118.191 128.413C118.161 128.413 118.13 128.413 118.099 128.413C118.068 128.413 118.037 128.413 118.006 128.413C117.975 128.413 117.944 128.413 117.913 128.413C117.882 128.413 117.851 128.413 117.819 128.413C117.788 128.413 117.756 128.413 117.725 128.413C117.693 128.413 117.661 128.413 117.63 128.413C117.598 128.413 117.566 128.413 117.534 128.413C117.502 128.413 117.47 128.413 117.438 128.413C117.405 128.413 117.373 128.413 117.341 128.413C117.308 128.413 117.276 128.413 117.243 128.413C117.21 128.413 117.178 128.413 117.145 128.413C117.112 128.413 117.079 128.413 117.046 128.413C117.013 128.413 116.98 128.413 116.947 128.413C116.914 128.413 116.88 128.413 116.847 128.413C116.814 128.413 116.78 128.413 116.746 128.413C116.713 128.413 116.679 128.413 116.645 128.413C116.612 128.413 116.578 128.413 116.544 128.413C116.51 128.413 116.476 128.413 116.441 128.413C116.407 128.413 116.373 128.413 116.338 128.413C116.304 128.413 116.27 128.413 116.235 128.413C116.2 128.413 116.166 128.413 116.131 128.413C116.096 128.413 116.061 128.413 116.026 128.413C115.991 128.413 115.956 128.413 115.921 128.413C115.886 128.413 115.851 128.413 115.815 128.413C115.78 128.413 115.744 128.413 115.709 128.413C115.673 128.413 115.638 128.413 115.602 128.413C115.566 128.413 115.53 128.413 115.494 128.413C115.458 128.413 115.422 128.413 115.386 128.413C115.35 128.413 115.314 128.413 115.277 128.413C115.241 128.413 115.205 128.413 115.168 128.413C115.132 128.413 115.095 128.413 115.058 128.413C115.022 128.413 114.985 128.413 114.948 128.413C114.911 128.413 114.874 128.413 114.837 128.413C114.8 128.413 114.763 128.413 114.725 128.413C114.688 128.413 114.651 128.413 114.613 128.413C114.576 128.413 114.538 128.413 114.501 128.413C114.463 128.413 114.425 128.413 114.387 128.413C114.349 128.413 114.311 128.413 114.273 128.413C114.235 128.413 114.197 128.413 114.159 128.413C114.121 128.413 114.083 128.413 114.044 128.413C114.006 128.413 113.967 128.413 113.929 128.413C113.89 128.413 113.851 128.413 113.813 128.413C113.774 128.413 113.735 128.413 113.696 128.413C113.657 128.413 113.618 128.413 113.579 128.413C113.54 128.413 113.5 128.413 113.461 128.413C113.422 128.413 113.382 128.413 113.343 128.413C113.303 128.413 113.264 128.413 113.224 128.413C113.184 128.413 113.145 128.413 113.105 128.413C113.065 128.413 113.025 128.413 112.985 128.413C112.945 128.413 112.905 128.413 112.864 128.413C112.824 128.413 112.784 128.413 112.743 128.413C112.703 128.413 112.662 128.413 112.622 128.413C112.581 128.413 112.541 128.413 112.5 128.413C112.459 128.413 112.418 128.413 112.377 128.413C112.336 128.413 112.295 128.413 112.254 128.413C112.213 128.413 112.172 128.413 112.13 128.413C112.089 128.413 112.048 128.413 112.006 128.413C111.965 128.413 111.923 128.413 111.881 128.413C111.84 128.413 111.798 128.413 111.756 128.413C111.714 128.413 111.672 128.413 111.63 128.413C111.588 128.413 111.546 128.413 111.504 128.413C111.462 128.413 111.42 128.413 111.377 128.413C111.335 128.413 111.292 128.413 111.25 128.413C111.207 128.413 111.165 128.413 111.122 128.413C111.079 128.413 111.036 128.413 110.993 128.413C110.951 128.413 110.908 128.413 110.865 128.413C110.821 128.413 110.778 128.413 110.735 128.413C110.692 128.413 110.649 128.413 110.605 128.413C110.562 128.413 110.518 128.413 110.475 128.413C110.431 128.413 110.387 128.413 110.344 128.413C110.3 128.413 110.256 128.413 110.212 128.413C110.168 128.413 110.124 128.413 110.08 128.413C110.036 128.413 109.992 128.413 109.947 128.413C109.903 128.413 109.859 128.413 109.814 128.413C109.77 128.413 109.725 128.413 109.681 128.413C109.636 128.413 109.592 128.413 109.547 128.413C109.502 128.413 109.457 128.413 109.412 128.413C109.367 128.413 109.322 128.413 109.277 128.413C109.232 128.413 109.187 128.413 109.142 128.413C109.096 128.413 109.051 128.413 109.006 128.413C108.96 128.413 108.915 128.413 108.869 128.413C108.823 128.413 108.778 128.413 108.732 128.413C108.686 128.413 108.64 128.413 108.594 128.413C108.548 128.413 108.502 128.413 108.456 128.413C108.41 128.413 108.364 128.413 108.318 128.413C108.271 128.413 108.225 128.413 108.179 128.413C108.132 128.413 108.086 128.413 108.039 128.413C107.993 128.413 107.946 128.413 107.899 128.413C107.852 128.413 107.805 128.413 107.759 128.413C107.712 128.413 107.665 128.413 107.618 128.413C107.571 128.413 107.523 128.413 107.476 128.413C107.429 128.413 107.382 128.413 107.334 128.413C107.287 128.413 107.239 128.413 107.192 128.413C107.144 128.413 107.097 128.413 107.049 128.413C107.001 128.413 106.953 128.413 106.905 128.413C106.858 128.413 106.81 128.413 106.762 128.413C106.713 128.413 106.665 128.413 106.617 128.413C106.569 128.413 106.521 128.413 106.472 128.413C106.424 128.413 106.376 128.413 106.327 128.413C106.279 128.413 106.23 128.413 106.181 128.413C106.133 128.413 106.084 128.413 106.035 128.413C105.986 128.413 105.937 128.413 105.888 128.413C105.839 128.413 105.79 128.413 105.741 128.413C105.692 128.413 105.643 128.413 105.594 128.413C105.544 128.413 105.495 128.413 105.445 128.413C105.396 128.413 105.347 128.413 105.297 128.413C105.247 128.413 105.198 128.413 105.148 128.413C105.098 128.413 105.048 128.413 104.998 128.413C104.949 128.413 104.899 128.413 104.849 128.413C104.798 128.413 104.748 128.413 104.698 128.413C104.648 128.413 104.598 128.413 104.547 128.413C104.497 128.413 104.446 128.413 104.396 128.413C104.345 128.413 104.295 128.413 104.244 128.413C104.194 128.413 104.143 128.413 104.092 128.413C104.041 128.413 103.99 128.413 103.939 128.413C103.888 128.413 103.837 128.413 103.786 128.413C103.735 128.413 103.684 128.413 103.633 128.413C103.582 128.413 103.53 128.413 103.479 128.413C103.427 128.413 103.376 128.413 103.324 128.413C103.273 128.413 103.221 128.413 103.17 128.413C103.118 128.413 103.066 128.413 103.014 128.413C102.962 128.413 102.91 128.413 102.858 128.413C102.807 128.413 102.754 128.413 102.702 128.413C102.65 128.413 102.598 128.413 102.546 128.413C102.493 128.413 102.441 128.413 102.389 128.413C102.336 128.413 102.284 128.413 102.231 128.413C102.179 128.413 102.126 128.413 102.073 128.413C102.021 128.413 101.968 128.413 101.915 128.413C101.862 128.413 101.809 128.413 101.756 128.413C101.703 128.413 101.65 128.413 101.597 128.413C101.544 128.413 101.491 128.413 101.437 128.413C101.384 128.413 101.331 128.413 101.277 128.413C101.224 128.413 101.17 128.413 101.117 128.413C101.063 128.413 101.01 128.413 100.956 128.413C100.902 128.413 100.849 128.413 100.795 128.413C100.741 128.413 100.687 128.413 100.633 128.413C100.579 128.413 100.525 128.413 100.471 128.413C100.417 128.413 100.363 128.413 100.308 128.413C100.254 128.413 100.2 128.413 100.145 128.413C100.091 128.413 100.037 128.413 99.982 128.413C99.9275 128.413 99.8729 128.413 99.8182 128.413C99.7635 128.413 99.7088 128.413 99.654 128.413C99.5992 128.413 99.5444 128.413 99.4894 128.413C99.4345 128.413 99.3795 128.413 99.3244 128.413C99.2694 128.413 99.2142 128.413 99.159 128.413C99.1038 128.413 99.0485 128.413 98.9932 128.413C98.9379 128.413 98.8825 128.413 98.827 128.413C98.7715 128.413 98.716 128.413 98.6604 128.413C98.6048 128.413 98.5491 128.413 98.4934 128.413C98.4377 128.413 98.3819 128.413 98.326 128.413C98.2701 128.413 98.2142 128.413 98.1582 128.413C98.1022 128.413 98.0461 128.413 97.99 128.413C97.9339 128.413 97.8777 128.413 97.8214 128.413C97.7651 128.413 97.7088 128.413 97.6524 128.413C97.596 128.413 97.5396 128.413 97.4831 128.413C97.4265 128.413 97.37 128.413 97.3133 128.413C97.2567 128.413 97.2 128.413 97.1432 128.413C97.0864 128.413 97.0296 128.413 96.9727 128.413C96.9157 128.413 96.8588 128.413 96.8017 128.413C96.7447 128.413 96.6876 128.413 96.6305 128.413C96.5733 128.413 96.5161 128.413 96.4588 128.413C96.4015 128.413 96.3441 128.413 96.2867 128.413C96.2293 128.413 96.1718 128.413 96.1143 128.413C96.0568 128.413 95.9992 128.413 95.9415 128.413C95.8838 128.413 95.8261 128.413 95.7683 128.413C95.7105 128.413 95.6527 128.413 95.5948 128.413C95.5369 128.413 95.4789 128.413 95.4209 128.413C95.3628 128.413 95.3047 128.413 95.2466 128.413C95.1884 128.413 95.1302 128.413 95.0719 128.413C95.0136 128.413 94.9553 128.413 94.8969 128.413C94.8385 128.413 94.78 128.413 94.7215 128.413C94.663 128.413 94.6044 128.413 94.5457 128.413C94.4871 128.413 94.4284 128.413 94.3696 128.413C94.3108 128.413 94.252 128.413 94.1931 128.413C94.1342 128.413 94.0753 128.413 94.0163 128.413C93.9573 128.413 93.8982 128.413 93.8391 128.413C93.7799 128.413 93.7208 128.413 93.6615 128.413C93.6023 128.413 93.543 128.413 93.4836 128.413C93.4242 128.413 93.3648 128.413 93.3053 128.413C93.2459 128.413 93.1863 128.413 93.1267 128.413C93.0671 128.413 93.0075 128.413 92.9477 128.413C92.888 128.413 92.8283 128.413 92.7684 128.413C92.7086 128.413 92.6487 128.413 92.5888 128.413C92.5288 128.413 92.4688 128.413 92.4087 128.413C92.3487 128.413 92.2886 128.413 92.2284 128.413C92.1682 128.413 92.108 128.413 92.0477 128.413C91.9874 128.413 91.927 128.413 91.8666 128.413C91.8062 128.413 91.7458 128.413 91.6852 128.413C91.6247 128.413 91.5641 128.413 91.5035 128.413C91.4429 128.413 91.3822 128.413 91.3214 128.413C91.2607 128.413 91.1999 128.413 91.139 128.413C91.0782 128.413 91.0173 128.413 90.9563 128.413C90.8953 128.413 90.8343 128.413 90.7732 128.413C90.7122 128.413 90.651 128.413 90.5898 128.413C90.5287 128.413 90.4674 128.413 90.4061 128.413C90.3448 128.413 90.2835 128.413 90.2221 128.413C90.1606 128.413 90.0992 128.413 90.0377 128.413C89.9761 128.413 89.9146 128.413 89.853 128.413C89.7913 128.413 89.7296 128.413 89.6679 128.413C89.6062 128.413 89.5444 128.413 89.4826 128.413C89.4207 128.413 89.3588 128.413 89.2969 128.413C89.2349 128.413 89.1729 128.413 89.1109 128.413C89.0488 128.413 88.9867 128.413 88.9245 128.413C88.8624 128.413 88.8002 128.413 88.7379 128.413C88.6756 128.413 88.6133 128.413 88.5509 128.413C88.4886 128.413 88.4262 128.413 88.3637 128.413C88.3012 128.413 88.2387 128.413 88.1761 128.413C88.1135 128.413 88.0509 128.413 87.9882 128.413C87.9255 128.413 87.8628 128.413 87.8 128.413C87.7372 128.413 87.6744 128.413 87.6115 128.413C87.5486 128.413 87.4857 128.413 87.4227 128.413C87.3597 128.413 87.2966 128.413 87.2336 128.413C87.1705 128.413 87.1073 128.413 87.0441 128.413C86.9809 128.413 86.9177 128.413 86.8544 128.413C86.7911 128.413 86.7278 128.413 86.6644 128.413C86.601 128.413 86.5375 128.413 86.474 128.413C86.4105 128.413 86.347 128.413 86.2834 128.413C86.2198 128.413 86.1562 128.413 86.0925 128.413C86.0288 128.413 85.965 128.413 85.9013 128.413C85.8375 128.413 85.7736 128.413 85.7097 128.413C85.6459 128.413 85.5819 128.413 85.5179 128.413C85.454 128.413 85.3899 128.413 85.3258 128.413C85.2618 128.413 85.1976 128.413 85.1335 128.413C85.0693 128.413 85.0051 128.413 84.9408 128.413C84.8765 128.413 84.8122 128.413 84.7478 128.413C84.6835 128.413 84.619 128.413 84.5546 128.413C84.4901 128.413 84.4256 128.413 84.3611 128.413C84.2965 128.413 84.2319 128.413 84.1672 128.413C84.1026 128.413 84.0379 128.413 83.9732 128.413C83.9084 128.413 83.8436 128.413 83.7788 128.413C83.714 128.413 83.6491 128.413 83.5841 128.413C83.5192 128.413 83.4542 128.413 83.3892 128.413C83.3242 128.413 83.2591 128.413 83.194 128.413C83.1289 128.413 83.0638 128.413 82.9986 128.413C82.9334 128.413 82.8681 128.413 82.8028 128.413C82.7375 128.413 82.6722 128.413 82.6068 128.413C82.5414 128.413 82.476 128.413 82.4105 128.413C82.3451 128.413 82.2795 128.413 82.214 128.413C82.1484 128.413 82.0828 128.413 82.0172 128.413C81.9515 128.413 81.8858 128.413 81.8201 128.413C81.7544 128.413 81.6886 128.413 81.6227 128.413C81.5569 128.413 81.4911 128.413 81.4251 128.413C81.3592 128.413 81.2933 128.413 81.2273 128.413C81.1613 128.413 81.0953 128.413 81.0292 128.413C80.9631 128.413 80.897 128.413 80.8308 128.413C80.7646 128.413 80.6984 128.413 80.6322 128.413C80.5659 128.413 80.4996 128.413 80.4333 128.413C80.3669 128.413 80.3006 128.413 80.2341 128.413C80.1677 128.413 80.1013 128.413 80.0348 128.413C79.9683 128.413 79.9017 128.413 79.8351 128.413C79.7685 128.413 79.7019 128.413 79.6352 128.413C79.5686 128.413 79.5019 128.413 79.4351 128.413C79.3684 128.413 79.3016 128.413 79.2347 128.413C79.1679 128.413 79.101 128.413 79.0341 128.413C78.9672 128.413 78.9002 128.413 78.8332 128.413C78.7663 128.413 78.6992 128.413 78.6321 128.413C78.5651 128.413 78.498 128.413 78.4308 128.413C78.3636 128.413 78.2965 128.413 78.2292 128.413C78.162 128.413 78.0947 128.413 78.0274 128.413C77.9601 128.413 77.8927 128.413 77.8254 128.413C77.758 128.413 77.6905 128.413 77.6231 128.413C77.5556 128.413 77.4881 128.413 77.4206 128.413C77.353 128.413 77.2854 128.413 77.2178 128.413C77.1502 128.413 77.0825 128.413 77.0148 128.413C76.9471 128.413 76.8794 128.413 76.8116 128.413C76.7439 128.413 76.6761 128.413 76.6082 128.413C76.5404 128.413 76.4725 128.413 76.4046 128.413C76.3366 128.413 76.2687 128.413 76.2007 128.413C76.1327 128.413 76.0647 128.413 75.9966 128.413C75.9285 128.413 75.8604 128.413 75.7923 128.413C75.7241 128.413 75.6559 128.413 75.5877 128.413C75.5195 128.413 75.4513 128.413 75.383 128.413C75.3147 128.413 75.2464 128.413 75.178 128.413C75.1097 128.413 75.0413 128.413 74.9728 128.413C74.9044 128.413 74.8359 128.413 74.7674 128.413C74.6989 128.413 74.6304 128.413 74.5618 128.413C74.4933 128.413 74.4247 128.413 74.356 128.413C74.2874 128.413 74.2187 128.413 74.15 128.413C74.0813 128.413 74.0125 128.413 73.9438 128.413C73.875 128.413 73.8062 128.413 73.7373 128.413C73.6685 128.413 73.5996 128.413 73.5307 128.413C73.4618 128.413 73.3928 128.413 73.3239 128.413C73.2549 128.413 73.1859 128.413 73.1168 128.413C73.0478 128.413 72.9787 128.413 72.9096 128.413C72.8405 128.413 72.7713 128.413 72.7021 128.413C72.6329 128.413 72.5637 128.413 72.4945 128.413C72.4253 128.413 72.356 128.413 72.2867 128.413C72.2174 128.413 72.148 128.413 72.0786 128.413C72.0093 128.413 71.9399 128.413 71.8704 128.413C71.801 128.413 71.7315 128.413 71.662 128.413C71.5925 128.413 71.523 128.413 71.4534 128.413C71.3839 128.413 71.3143 128.413 71.2446 128.413C71.175 128.413 71.1054 128.413 71.0357 128.413C70.966 128.413 70.8963 128.413 70.8265 128.413C70.7568 128.413 70.687 128.413 70.6172 128.413C70.5474 128.413 70.4775 128.413 70.4077 128.413C70.3378 128.413 70.2679 128.413 70.198 128.413C70.128 128.413 70.0581 128.413 69.9881 128.413C69.9181 128.413 69.8481 128.413 69.778 128.413C69.708 128.413 69.6379 128.413 69.5678 128.413C69.4977 128.413 69.4276 128.413 69.3574 128.413C69.2872 128.413 69.217 128.413 69.1468 128.413C69.0766 128.413 69.0063 128.413 68.9361 128.413C68.8658 128.413 68.7955 128.413 68.7252 128.413C68.6548 128.413 68.5845 128.413 68.5141 128.413C68.4437 128.413 68.3733 128.413 68.3028 128.413C68.2324 128.413 68.1619 128.413 68.0914 128.413C68.0209 128.413 67.9504 128.413 67.8798 128.413C67.8093 128.413 67.7387 128.413 67.6681 128.413C67.5975 128.413 67.5268 128.413 67.4562 128.413C67.3855 128.413 67.3148 128.413 67.2441 128.413C67.1734 128.413 67.1026 128.413 67.0319 128.413C66.9611 128.413 66.8903 128.413 66.8195 128.413C66.7487 128.413 66.6778 128.413 66.6069 128.413C66.5361 128.413 66.4652 128.413 66.3943 128.413C66.3233 128.413 66.2524 128.413 66.1814 128.413C66.1104 128.413 66.0394 128.413 65.9684 128.413C65.8974 128.413 65.8264 128.413 65.7553 128.413C65.6842 128.413 65.6131 128.413 65.542 128.413C65.4709 128.413 65.3997 128.413 65.3286 128.413C65.2574 128.413 65.1862 128.413 65.115 128.413C65.0438 128.413 64.9725 128.413 64.9012 128.413C64.83 128.413 64.7587 128.413 64.6874 128.413C64.6161 128.413 64.5447 128.413 64.4734 128.413C64.402 128.413 64.3306 128.413 64.2592 128.413C64.1878 128.413 64.1164 128.413 64.0449 128.413C63.9735 128.413 63.902 128.413 63.8305 128.413C63.759 128.413 63.6875 128.413 63.616 128.413C63.5444 128.413 63.4729 128.413 63.4013 128.413C63.3297 128.413 63.2581 128.413 63.1865 128.413C63.1148 128.413 63.0432 128.413 62.9715 128.413C62.8998 128.413 62.8281 128.413 62.7564 128.413C62.6847 128.413 62.613 128.413 62.5412 128.413C62.4695 128.413 62.3977 128.413 62.3259 128.413C62.2541 128.413 62.1823 128.413 62.1104 128.413C62.0386 128.413 61.9667 128.413 61.8949 128.413C61.823 128.413 61.7511 128.413 61.6792 128.413C61.6073 128.413 61.5353 128.413 61.4633 128.413C61.3914 128.413 61.3194 128.413 61.2474 128.413C61.1754 128.413 61.1034 128.413 61.0314 128.413C60.9593 128.413 60.8873 128.413 60.8152 128.413C60.7431 128.413 60.671 128.413 60.5989 128.413C60.5268 128.413 60.4547 128.413 60.3825 128.413C60.3104 128.413 60.2382 128.413 60.166 128.413C60.0938 128.413 60.0216 128.413 59.9494 128.413C59.8772 128.413 59.8049 128.413 59.7327 128.413C59.6604 128.413 59.5881 128.413 59.5158 128.413C59.4435 128.413 59.3712 128.413 59.2989 128.413C59.2266 128.413 59.1542 128.413 59.0819 128.413C59.0095 128.413 58.9371 128.413 58.8647 128.413C58.7923 128.413 58.7199 128.413 58.6475 128.413C58.5751 128.413 58.5026 128.413 58.4301 128.413C58.3577 128.413 58.2852 128.413 58.2127 128.413C58.1402 128.413 58.0677 128.413 57.9952 128.413C57.9226 128.413 57.8501 128.413 57.7775 128.413C57.705 128.413 57.6324 128.413 57.5598 128.413C57.4872 128.413 57.4146 128.413 57.342 128.413C57.2694 128.413 57.1967 128.413 57.1241 128.413C57.0514 128.413 56.9788 128.413 56.9061 128.413C56.8334 128.413 56.7607 128.413 56.688 128.413C56.6153 128.413 56.5426 128.413 56.4698 128.413C56.3971 128.413 56.3244 128.413 56.2516 128.413C56.1788 128.413 56.106 128.413 56.0333 128.413C55.9605 128.413 55.8877 128.413 55.8148 128.413C55.742 128.413 55.6692 128.413 55.5963 128.413C55.5235 128.413 55.4506 128.413 55.3778 128.413C55.3049 128.413 55.232 128.413 55.1591 128.413C55.0862 128.413 55.0133 128.413 54.9404 128.413C54.8675 128.413 54.7945 128.413 54.7216 128.413C54.6486 128.413 54.5757 128.413 54.5027 128.413C54.4297 128.413 54.3568 128.413 54.2838 128.413C54.2108 128.413 54.1378 128.413 54.0648 128.413C53.9917 128.413 53.9187 128.413 53.8457 128.413C53.7726 128.413 53.6996 128.413 53.6265 128.413C53.5535 128.413 53.4804 128.413 53.4073 128.413C53.3342 128.413 53.2611 128.413 53.188 128.413C53.1149 128.413 53.0418 128.413 52.9687 128.413C52.8956 128.413 52.8224 128.413 52.7493 128.413C52.6761 128.413 52.603 128.413 52.5298 128.413C52.4566 128.413 52.3835 128.413 52.3103 128.413C52.2371 128.413 52.1639 128.413 52.0907 128.413C52.0175 128.413 51.9443 128.413 51.8711 128.413C51.7979 128.413 51.7246 128.413 51.6514 128.413L51.6514 129.029C51.7246 129.029 51.7979 129.029 51.8711 129.029C51.9443 129.029 52.0175 129.029 52.0907 129.029C52.1639 129.029 52.2371 129.029 52.3103 129.029C52.3835 129.029 52.4566 129.029 52.5298 129.029C52.603 129.029 52.6761 129.029 52.7493 129.029C52.8224 129.029 52.8956 129.029 52.9687 129.029C53.0418 129.029 53.1149 129.029 53.188 129.029C53.2611 129.029 53.3342 129.029 53.4073 129.029C53.4804 129.029 53.5535 129.029 53.6265 129.029C53.6996 129.029 53.7726 129.029 53.8457 129.029C53.9187 129.029 53.9917 129.029 54.0648 129.029C54.1378 129.029 54.2108 129.029 54.2838 129.029C54.3568 129.029 54.4297 129.029 54.5027 129.029C54.5757 129.029 54.6486 129.029 54.7216 129.029C54.7945 129.029 54.8675 129.029 54.9404 129.029C55.0133 129.029 55.0862 129.029 55.1591 129.029C55.232 129.029 55.3049 129.029 55.3778 129.029C55.4506 129.029 55.5235 129.029 55.5963 129.029C55.6692 129.029 55.742 129.029 55.8148 129.029C55.8877 129.029 55.9605 129.029 56.0333 129.029C56.106 129.029 56.1788 129.029 56.2516 129.029C56.3244 129.029 56.3971 129.029 56.4698 129.029C56.5426 129.029 56.6153 129.029 56.688 129.029C56.7607 129.029 56.8334 129.029 56.9061 129.029C56.9788 129.029 57.0514 129.029 57.1241 129.029C57.1967 129.029 57.2694 129.029 57.342 129.029C57.4146 129.029 57.4872 129.029 57.5598 129.029C57.6324 129.029 57.705 129.029 57.7775 129.029C57.8501 129.029 57.9226 129.029 57.9952 129.029C58.0677 129.029 58.1402 129.029 58.2127 129.029C58.2852 129.029 58.3577 129.029 58.4301 129.029C58.5026 129.029 58.5751 129.029 58.6475 129.029C58.7199 129.029 58.7923 129.029 58.8647 129.029C58.9371 129.029 59.0095 129.029 59.0819 129.029C59.1542 129.029 59.2266 129.029 59.2989 129.029C59.3712 129.029 59.4435 129.029 59.5158 129.029C59.5881 129.029 59.6604 129.029 59.7327 129.029C59.8049 129.029 59.8772 129.029 59.9494 129.029C60.0216 129.029 60.0938 129.029 60.166 129.029C60.2382 129.029 60.3104 129.029 60.3825 129.029C60.4547 129.029 60.5268 129.029 60.5989 129.029C60.671 129.029 60.7431 129.029 60.8152 129.029C60.8873 129.029 60.9593 129.029 61.0314 129.029C61.1034 129.029 61.1754 129.029 61.2474 129.029C61.3194 129.029 61.3914 129.029 61.4633 129.029C61.5353 129.029 61.6073 129.029 61.6792 129.029C61.7511 129.029 61.823 129.029 61.8949 129.029C61.9667 129.029 62.0386 129.029 62.1104 129.029C62.1823 129.029 62.2541 129.029 62.3259 129.029C62.3977 129.029 62.4695 129.029 62.5412 129.029C62.613 129.029 62.6847 129.029 62.7564 129.029C62.8281 129.029 62.8998 129.029 62.9715 129.029C63.0432 129.029 63.1148 129.029 63.1865 129.029C63.2581 129.029 63.3297 129.029 63.4013 129.029C63.4729 129.029 63.5444 129.029 63.616 129.029C63.6875 129.029 63.759 129.029 63.8305 129.029C63.902 129.029 63.9735 129.029 64.0449 129.029C64.1164 129.029 64.1878 129.029 64.2592 129.029C64.3306 129.029 64.402 129.029 64.4734 129.029C64.5447 129.029 64.6161 129.029 64.6874 129.029C64.7587 129.029 64.83 129.029 64.9012 129.029C64.9725 129.029 65.0438 129.029 65.115 129.029C65.1862 129.029 65.2574 129.029 65.3286 129.029C65.3997 129.029 65.4709 129.029 65.542 129.029C65.6131 129.029 65.6842 129.029 65.7553 129.029C65.8264 129.029 65.8974 129.029 65.9684 129.029C66.0394 129.029 66.1104 129.029 66.1814 129.029C66.2524 129.029 66.3233 129.029 66.3943 129.029C66.4652 129.029 66.5361 129.029 66.6069 129.029C66.6778 129.029 66.7487 129.029 66.8195 129.029C66.8903 129.029 66.9611 129.029 67.0319 129.029C67.1026 129.029 67.1734 129.029 67.2441 129.029C67.3148 129.029 67.3855 129.029 67.4562 129.029C67.5268 129.029 67.5975 129.029 67.6681 129.029C67.7387 129.029 67.8093 129.029 67.8798 129.029C67.9504 129.029 68.0209 129.029 68.0914 129.029C68.1619 129.029 68.2324 129.029 68.3028 129.029C68.3733 129.029 68.4437 129.029 68.5141 129.029C68.5845 129.029 68.6548 129.029 68.7252 129.029C68.7955 129.029 68.8658 129.029 68.9361 129.029C69.0063 129.029 69.0766 129.029 69.1468 129.029C69.217 129.029 69.2872 129.029 69.3574 129.029C69.4276 129.029 69.4977 129.029 69.5678 129.029C69.6379 129.029 69.708 129.029 69.778 129.029C69.8481 129.029 69.9181 129.029 69.9881 129.029C70.0581 129.029 70.128 129.029 70.198 129.029C70.2679 129.029 70.3378 129.029 70.4077 129.029C70.4775 129.029 70.5474 129.029 70.6172 129.029C70.687 129.029 70.7568 129.029 70.8265 129.029C70.8963 129.029 70.966 129.029 71.0357 129.029C71.1054 129.029 71.175 129.029 71.2446 129.029C71.3143 129.029 71.3839 129.029 71.4534 129.029C71.523 129.029 71.5925 129.029 71.662 129.029C71.7315 129.029 71.801 129.029 71.8704 129.029C71.9399 129.029 72.0093 129.029 72.0786 129.029C72.148 129.029 72.2174 129.029 72.2867 129.029C72.356 129.029 72.4253 129.029 72.4945 129.029C72.5637 129.029 72.6329 129.029 72.7021 129.029C72.7713 129.029 72.8405 129.029 72.9096 129.029C72.9787 129.029 73.0478 129.029 73.1168 129.029C73.1859 129.029 73.2549 129.029 73.3239 129.029C73.3928 129.029 73.4618 129.029 73.5307 129.029C73.5996 129.029 73.6685 129.029 73.7373 129.029C73.8062 129.029 73.875 129.029 73.9438 129.029C74.0125 129.029 74.0813 129.029 74.15 129.029C74.2187 129.029 74.2874 129.029 74.356 129.029C74.4247 129.029 74.4933 129.029 74.5618 129.029C74.6304 129.029 74.6989 129.029 74.7674 129.029C74.8359 129.029 74.9044 129.029 74.9728 129.029C75.0413 129.029 75.1097 129.029 75.178 129.029C75.2464 129.029 75.3147 129.029 75.383 129.029C75.4513 129.029 75.5195 129.029 75.5877 129.029C75.6559 129.029 75.7241 129.029 75.7923 129.029C75.8604 129.029 75.9285 129.029 75.9966 129.029C76.0647 129.029 76.1327 129.029 76.2007 129.029C76.2687 129.029 76.3366 129.029 76.4046 129.029C76.4725 129.029 76.5404 129.029 76.6082 129.029C76.6761 129.029 76.7439 129.029 76.8116 129.029C76.8794 129.029 76.9471 129.029 77.0148 129.029C77.0825 129.029 77.1502 129.029 77.2178 129.029C77.2854 129.029 77.353 129.029 77.4206 129.029C77.4881 129.029 77.5556 129.029 77.6231 129.029C77.6905 129.029 77.758 129.029 77.8254 129.029C77.8927 129.029 77.9601 129.029 78.0274 129.029C78.0947 129.029 78.162 129.029 78.2292 129.029C78.2965 129.029 78.3636 129.029 78.4308 129.029C78.498 129.029 78.5651 129.029 78.6321 129.029C78.6992 129.029 78.7663 129.029 78.8332 129.029C78.9002 129.029 78.9672 129.029 79.0341 129.029C79.101 129.029 79.1679 129.029 79.2347 129.029C79.3016 129.029 79.3684 129.029 79.4351 129.029C79.5019 129.029 79.5686 129.029 79.6352 129.029C79.7019 129.029 79.7685 129.029 79.8351 129.029C79.9017 129.029 79.9683 129.029 80.0348 129.029C80.1013 129.029 80.1677 129.029 80.2341 129.029C80.3006 129.029 80.3669 129.029 80.4333 129.029C80.4996 129.029 80.5659 129.029 80.6322 129.029C80.6984 129.029 80.7646 129.029 80.8308 129.029C80.897 129.029 80.9631 129.029 81.0292 129.029C81.0953 129.029 81.1613 129.029 81.2273 129.029C81.2933 129.029 81.3592 129.029 81.4251 129.029C81.4911 129.029 81.5569 129.029 81.6227 129.029C81.6886 129.029 81.7544 129.029 81.8201 129.029C81.8858 129.029 81.9515 129.029 82.0172 129.029C82.0828 129.029 82.1484 129.029 82.214 129.029C82.2795 129.029 82.3451 129.029 82.4105 129.029C82.476 129.029 82.5414 129.029 82.6068 129.029C82.6722 129.029 82.7375 129.029 82.8028 129.029C82.8681 129.029 82.9334 129.029 82.9986 129.029C83.0638 129.029 83.1289 129.029 83.194 129.029C83.2591 129.029 83.3242 129.029 83.3892 129.029C83.4542 129.029 83.5192 129.029 83.5841 129.029C83.6491 129.029 83.714 129.029 83.7788 129.029C83.8436 129.029 83.9084 129.029 83.9732 129.029C84.0379 129.029 84.1026 129.029 84.1672 129.029C84.2319 129.029 84.2965 129.029 84.3611 129.029C84.4256 129.029 84.4901 129.029 84.5546 129.029C84.619 129.029 84.6835 129.029 84.7478 129.029C84.8122 129.029 84.8765 129.029 84.9408 129.029C85.0051 129.029 85.0693 129.029 85.1335 129.029C85.1976 129.029 85.2618 129.029 85.3258 129.029C85.3899 129.029 85.454 129.029 85.5179 129.029C85.5819 129.029 85.6459 129.029 85.7097 129.029C85.7736 129.029 85.8375 129.029 85.9013 129.029C85.965 129.029 86.0288 129.029 86.0925 129.029C86.1562 129.029 86.2198 129.029 86.2834 129.029C86.347 129.029 86.4105 129.029 86.474 129.029C86.5375 129.029 86.601 129.029 86.6644 129.029C86.7278 129.029 86.7911 129.029 86.8544 129.029C86.9177 129.029 86.9809 129.029 87.0441 129.029C87.1073 129.029 87.1705 129.029 87.2336 129.029C87.2966 129.029 87.3597 129.029 87.4227 129.029C87.4857 129.029 87.5486 129.029 87.6115 129.029C87.6744 129.029 87.7372 129.029 87.8 129.029C87.8628 129.029 87.9255 129.029 87.9882 129.029C88.0509 129.029 88.1135 129.029 88.1761 129.029C88.2387 129.029 88.3012 129.029 88.3637 129.029C88.4262 129.029 88.4886 129.029 88.5509 129.029C88.6133 129.029 88.6756 129.029 88.7379 129.029C88.8002 129.029 88.8624 129.029 88.9245 129.029C88.9867 129.029 89.0488 129.029 89.1109 129.029C89.1729 129.029 89.2349 129.029 89.2969 129.029C89.3588 129.029 89.4207 129.029 89.4826 129.029C89.5444 129.029 89.6062 129.029 89.6679 129.029C89.7296 129.029 89.7913 129.029 89.853 129.029C89.9146 129.029 89.9761 129.029 90.0377 129.029C90.0992 129.029 90.1606 129.029 90.2221 129.029C90.2835 129.029 90.3448 129.029 90.4061 129.029C90.4674 129.029 90.5287 129.029 90.5898 129.029C90.651 129.029 90.7122 129.029 90.7732 129.029C90.8343 129.029 90.8953 129.029 90.9563 129.029C91.0173 129.029 91.0782 129.029 91.139 129.029C91.1999 129.029 91.2607 129.029 91.3214 129.029C91.3822 129.029 91.4429 129.029 91.5035 129.029C91.5641 129.029 91.6247 129.029 91.6852 129.029C91.7458 129.029 91.8062 129.029 91.8666 129.029C91.927 129.029 91.9874 129.029 92.0477 129.029C92.108 129.029 92.1682 129.029 92.2284 129.029C92.2886 129.029 92.3487 129.029 92.4087 129.029C92.4688 129.029 92.5288 129.029 92.5888 129.029C92.6487 129.029 92.7086 129.029 92.7684 129.029C92.8283 129.029 92.888 129.029 92.9477 129.029C93.0075 129.029 93.0671 129.029 93.1267 129.029C93.1863 129.029 93.2459 129.029 93.3053 129.029C93.3648 129.029 93.4242 129.029 93.4836 129.029C93.543 129.029 93.6023 129.029 93.6615 129.029C93.7208 129.029 93.7799 129.029 93.8391 129.029C93.8982 129.029 93.9573 129.029 94.0163 129.029C94.0753 129.029 94.1342 129.029 94.1931 129.029C94.252 129.029 94.3108 129.029 94.3696 129.029C94.4284 129.029 94.4871 129.029 94.5457 129.029C94.6044 129.029 94.663 129.029 94.7215 129.029C94.78 129.029 94.8385 129.029 94.8969 129.029C94.9553 129.029 95.0136 129.029 95.0719 129.029C95.1302 129.029 95.1884 129.029 95.2466 129.029C95.3047 129.029 95.3628 129.029 95.4209 129.029C95.4789 129.029 95.5369 129.029 95.5948 129.029C95.6527 129.029 95.7105 129.029 95.7683 129.029C95.8261 129.029 95.8838 129.029 95.9415 129.029C95.9992 129.029 96.0568 129.029 96.1143 129.029C96.1718 129.029 96.2293 129.029 96.2867 129.029C96.3441 129.029 96.4015 129.029 96.4588 129.029C96.5161 129.029 96.5733 129.029 96.6305 129.029C96.6876 129.029 96.7447 129.029 96.8017 129.029C96.8588 129.029 96.9157 129.029 96.9727 129.029C97.0296 129.029 97.0864 129.029 97.1432 129.029C97.2 129.029 97.2567 129.029 97.3133 129.029C97.37 129.029 97.4265 129.029 97.4831 129.029C97.5396 129.029 97.596 129.029 97.6524 129.029C97.7088 129.029 97.7651 129.029 97.8214 129.029C97.8777 129.029 97.9339 129.029 97.99 129.029C98.0461 129.029 98.1022 129.029 98.1582 129.029C98.2142 129.029 98.2701 129.029 98.326 129.029C98.3819 129.029 98.4377 129.029 98.4934 129.029C98.5491 129.029 98.6048 129.029 98.6604 129.029C98.716 129.029 98.7715 129.029 98.827 129.029C98.8825 129.029 98.9379 129.029 98.9932 129.029C99.0485 129.029 99.1038 129.029 99.159 129.029C99.2142 129.029 99.2694 129.029 99.3244 129.029C99.3795 129.029 99.4345 129.029 99.4894 129.029C99.5444 129.029 99.5992 129.029 99.654 129.029C99.7088 129.029 99.7635 129.029 99.8182 129.029C99.8729 129.029 99.9275 129.029 99.982 129.029C100.037 129.029 100.091 129.029 100.145 129.029C100.2 129.029 100.254 129.029 100.308 129.029C100.363 129.029 100.417 129.029 100.471 129.029C100.525 129.029 100.579 129.029 100.633 129.029C100.687 129.029 100.741 129.029 100.795 129.029C100.849 129.029 100.902 129.029 100.956 129.029C101.01 129.029 101.063 129.029 101.117 129.029C101.17 129.029 101.224 129.029 101.277 129.029C101.331 129.029 101.384 129.029 101.437 129.029C101.491 129.029 101.544 129.029 101.597 129.029C101.65 129.029 101.703 129.029 101.756 129.029C101.809 129.029 101.862 129.029 101.915 129.029C101.968 129.029 102.021 129.029 102.073 129.029C102.126 129.029 102.179 129.029 102.231 129.029C102.284 129.029 102.336 129.029 102.389 129.029C102.441 129.029 102.493 129.029 102.546 129.029C102.598 129.029 102.65 129.029 102.702 129.029C102.754 129.029 102.807 129.029 102.858 129.029C102.91 129.029 102.962 129.029 103.014 129.029C103.066 129.029 103.118 129.029 103.17 129.029C103.221 129.029 103.273 129.029 103.324 129.029C103.376 129.029 103.427 129.029 103.479 129.029C103.53 129.029 103.582 129.029 103.633 129.029C103.684 129.029 103.735 129.029 103.786 129.029C103.837 129.029 103.888 129.029 103.939 129.029C103.99 129.029 104.041 129.029 104.092 129.029C104.143 129.029 104.194 129.029 104.244 129.029C104.295 129.029 104.345 129.029 104.396 129.029C104.446 129.029 104.497 129.029 104.547 129.029C104.598 129.029 104.648 129.029 104.698 129.029C104.748 129.029 104.798 129.029 104.849 129.029C104.899 129.029 104.949 129.029 104.998 129.029C105.048 129.029 105.098 129.029 105.148 129.029C105.198 129.029 105.247 129.029 105.297 129.029C105.347 129.029 105.396 129.029 105.445 129.029C105.495 129.029 105.544 129.029 105.594 129.029C105.643 129.029 105.692 129.029 105.741 129.029C105.79 129.029 105.839 129.029 105.888 129.029C105.937 129.029 105.986 129.029 106.035 129.029C106.084 129.029 106.133 129.029 106.181 129.029C106.23 129.029 106.279 129.029 106.327 129.029C106.376 129.029 106.424 129.029 106.472 129.029C106.521 129.029 106.569 129.029 106.617 129.029C106.665 129.029 106.713 129.029 106.762 129.029C106.81 129.029 106.858 129.029 106.905 129.029C106.953 129.029 107.001 129.029 107.049 129.029C107.097 129.029 107.144 129.029 107.192 129.029C107.239 129.029 107.287 129.029 107.334 129.029C107.382 129.029 107.429 129.029 107.476 129.029C107.523 129.029 107.571 129.029 107.618 129.029C107.665 129.029 107.712 129.029 107.759 129.029C107.805 129.029 107.852 129.029 107.899 129.029C107.946 129.029 107.993 129.029 108.039 129.029C108.086 129.029 108.132 129.029 108.179 129.029C108.225 129.029 108.271 129.029 108.318 129.029C108.364 129.029 108.41 129.029 108.456 129.029C108.502 129.029 108.548 129.029 108.594 129.029C108.64 129.029 108.686 129.029 108.732 129.029C108.778 129.029 108.823 129.029 108.869 129.029C108.915 129.029 108.96 129.029 109.006 129.029C109.051 129.029 109.096 129.029 109.142 129.029C109.187 129.029 109.232 129.029 109.277 129.029C109.322 129.029 109.367 129.029 109.412 129.029C109.457 129.029 109.502 129.029 109.547 129.029C109.592 129.029 109.636 129.029 109.681 129.029C109.725 129.029 109.77 129.029 109.814 129.029C109.859 129.029 109.903 129.029 109.947 129.029C109.992 129.029 110.036 129.029 110.08 129.029C110.124 129.029 110.168 129.029 110.212 129.029C110.256 129.029 110.3 129.029 110.344 129.029C110.387 129.029 110.431 129.029 110.475 129.029C110.518 129.029 110.562 129.029 110.605 129.029C110.649 129.029 110.692 129.029 110.735 129.029C110.778 129.029 110.821 129.029 110.865 129.029C110.908 129.029 110.951 129.029 110.993 129.029C111.036 129.029 111.079 129.029 111.122 129.029C111.165 129.029 111.207 129.029 111.25 129.029C111.292 129.029 111.335 129.029 111.377 129.029C111.42 129.029 111.462 129.029 111.504 129.029C111.546 129.029 111.588 129.029 111.63 129.029C111.672 129.029 111.714 129.029 111.756 129.029C111.798 129.029 111.84 129.029 111.881 129.029C111.923 129.029 111.965 129.029 112.006 129.029C112.048 129.029 112.089 129.029 112.13 129.029C112.172 129.029 112.213 129.029 112.254 129.029C112.295 129.029 112.336 129.029 112.377 129.029C112.418 129.029 112.459 129.029 112.5 129.029C112.541 129.029 112.581 129.029 112.622 129.029C112.662 129.029 112.703 129.029 112.743 129.029C112.784 129.029 112.824 129.029 112.864 129.029C112.905 129.029 112.945 129.029 112.985 129.029C113.025 129.029 113.065 129.029 113.105 129.029C113.145 129.029 113.184 129.029 113.224 129.029C113.264 129.029 113.303 129.029 113.343 129.029C113.382 129.029 113.422 129.029 113.461 129.029C113.5 129.029 113.54 129.029 113.579 129.029C113.618 129.029 113.657 129.029 113.696 129.029C113.735 129.029 113.774 129.029 113.813 129.029C113.851 129.029 113.89 129.029 113.929 129.029C113.967 129.029 114.006 129.029 114.044 129.029C114.083 129.029 114.121 129.029 114.159 129.029C114.197 129.029 114.235 129.029 114.273 129.029C114.311 129.029 114.349 129.029 114.387 129.029C114.425 129.029 114.463 129.029 114.501 129.029C114.538 129.029 114.576 129.029 114.613 129.029C114.651 129.029 114.688 129.029 114.725 129.029C114.763 129.029 114.8 129.029 114.837 129.029C114.874 129.029 114.911 129.029 114.948 129.029C114.985 129.029 115.022 129.029 115.058 129.029C115.095 129.029 115.132 129.029 115.168 129.029C115.205 129.029 115.241 129.029 115.277 129.029C115.314 129.029 115.35 129.029 115.386 129.029C115.422 129.029 115.458 129.029 115.494 129.029C115.53 129.029 115.566 129.029 115.602 129.029C115.638 129.029 115.673 129.029 115.709 129.029C115.744 129.029 115.78 129.029 115.815 129.029C115.851 129.029 115.886 129.029 115.921 129.029C115.956 129.029 115.991 129.029 116.026 129.029C116.061 129.029 116.096 129.029 116.131 129.029C116.166 129.029 116.2 129.029 116.235 129.029C116.27 129.029 116.304 129.029 116.338 129.029C116.373 129.029 116.407 129.029 116.441 129.029C116.476 129.029 116.51 129.029 116.544 129.029C116.578 129.029 116.612 129.029 116.645 129.029C116.679 129.029 116.713 129.029 116.746 129.029C116.78 129.029 116.814 129.029 116.847 129.029C116.88 129.029 116.914 129.029 116.947 129.029C116.98 129.029 117.013 129.029 117.046 129.029C117.079 129.029 117.112 129.029 117.145 129.029C117.178 129.029 117.21 129.029 117.243 129.029C117.276 129.029 117.308 129.029 117.341 129.029C117.373 129.029 117.405 129.029 117.438 129.029C117.47 129.029 117.502 129.029 117.534 129.029C117.566 129.029 117.598 129.029 117.63 129.029C117.661 129.029 117.693 129.029 117.725 129.029C117.756 129.029 117.788 129.029 117.819 129.029C117.851 129.029 117.882 129.029 117.913 129.029C117.944 129.029 117.975 129.029 118.006 129.029C118.037 129.029 118.068 129.029 118.099 129.029C118.13 129.029 118.161 129.029 118.191 129.029C118.222 129.029 118.252 129.029 118.283 129.029C118.313 129.029 118.343 129.029 118.373 129.029C118.404 129.029 118.434 129.029 118.464 129.029C118.494 129.029 118.523 129.029 118.553 129.029C118.583 129.029 118.613 129.029 118.642 129.029C118.672 129.029 118.701 129.029 118.73 129.029C118.76 129.029 118.789 129.029 118.818 129.029C118.847 129.029 118.876 129.029 118.905 129.029C118.934 129.029 118.963 129.029 118.992 129.029C119.02 129.029 119.049 129.029 119.077 129.029C119.106 129.029 119.134 129.029 119.163 129.029C119.191 129.029 119.219 129.029 119.247 129.029C119.275 129.029 119.303 129.029 119.331 129.029C119.359 129.029 119.387 129.029 119.414 129.029C119.442 129.029 119.47 129.029 119.497 129.029C119.525 129.029 119.552 129.029 119.579 129.029C119.606 129.029 119.633 129.029 119.661 129.029C119.688 129.029 119.714 129.029 119.741 129.029C119.768 129.029 119.795 129.029 119.821 129.029C119.848 129.029 119.874 129.029 119.901 129.029C119.927 129.029 119.953 129.029 119.98 129.029C120.006 129.029 120.032 129.029 120.058 129.029C120.084 129.029 120.11 129.029 120.135 129.029C120.161 129.029 120.187 129.029 120.212 129.029C120.238 129.029 120.263 129.029 120.288 129.029C120.314 129.029 120.339 129.029 120.364 129.029C120.389 129.029 120.414 129.029 120.439 129.029C120.464 129.029 120.488 129.029 120.513 129.029C120.538 129.029 120.562 129.029 120.587 129.029C120.611 129.029 120.635 129.029 120.66 129.029C120.684 129.029 120.708 129.029 120.732 129.029C120.756 129.029 120.78 129.029 120.803 129.029C120.827 129.029 120.851 129.029 120.874 129.029C120.898 129.029 120.921 129.029 120.945 129.029C120.968 129.029 120.991 129.029 121.014 129.029C121.037 129.029 121.06 129.029 121.083 129.029C121.106 129.029 121.129 129.029 121.151 129.029C121.174 129.029 121.197 129.029 121.219 129.029C121.241 129.029 121.264 129.029 121.286 129.029C121.308 129.029 121.33 129.029 121.352 129.029C121.374 129.029 121.396 129.029 121.418 129.029C121.44 129.029 121.461 129.029 121.483 129.029C121.504 129.029 121.526 129.029 121.547 129.029C121.568 129.029 121.589 129.029 121.61 129.029C121.632 129.029 121.652 129.029 121.673 129.029C121.694 129.029 121.715 129.029 121.735 129.029C121.756 129.029 121.777 129.029 121.797 129.029C121.817 129.029 121.838 129.029 121.858 129.029C121.878 129.029 121.898 129.029 121.918 129.029C121.938 129.029 121.958 129.029 121.977 129.029C121.997 129.029 122.017 129.029 122.036 129.029C122.056 129.029 122.075 129.029 122.094 129.029C122.113 129.029 122.133 129.029 122.152 129.029C122.171 129.029 122.189 129.029 122.208 129.029C122.227 129.029 122.246 129.029 122.264 129.029C122.283 129.029 122.301 129.029 122.319 129.029C122.338 129.029 122.356 129.029 122.374 129.029C122.392 129.029 122.41 129.029 122.428 129.029C122.446 129.029 122.463 129.029 122.481 129.029C122.499 129.029 122.516 129.029 122.534 129.029C122.551 129.029 122.568 129.029 122.585 129.029C122.602 129.029 122.619 129.029 122.636 129.029C122.653 129.029 122.67 129.029 122.687 129.029C122.703 129.029 122.72 129.029 122.736 129.029C122.753 129.029 122.769 129.029 122.785 129.029C122.802 129.029 122.818 129.029 122.834 129.029C122.85 129.029 122.865 129.029 122.881 129.029C122.897 129.029 122.912 129.029 122.928 129.029C122.943 129.029 122.959 129.029 122.974 129.029C122.989 129.029 123.004 129.029 123.019 129.029C123.034 129.029 123.049 129.029 123.064 129.029C123.079 129.029 123.093 129.029 123.108 129.029C123.122 129.029 123.137 129.029 123.151 129.029C123.165 129.029 123.18 129.029 123.194 129.029C123.208 129.029 123.221 129.029 123.235 129.029C123.249 129.029 123.263 129.029 123.276 129.029C123.29 129.029 123.303 129.029 123.317 129.029C123.33 129.029 123.343 129.029 123.356 129.029C123.369 129.029 123.382 129.029 123.395 129.029C123.408 129.029 123.421 129.029 123.433 129.029C123.446 129.029 123.458 129.029 123.47 129.029C123.483 129.029 123.495 129.029 123.507 129.029C123.519 129.029 123.531 129.029 123.543 129.029C123.555 129.029 123.567 129.029 123.578 129.029C123.59 129.029 123.601 129.029 123.613 129.029C123.624 129.029 123.635 129.029 123.646 129.029C123.657 129.029 123.668 129.029 123.679 129.029C123.69 129.029 123.701 129.029 123.711 129.029C123.722 129.029 123.732 129.029 123.743 129.029C123.753 129.029 123.763 129.029 123.774 129.029C123.784 129.029 123.794 129.029 123.803 129.029C123.813 129.029 123.823 129.029 123.833 129.029C123.842 129.029 123.852 129.029 123.861 129.029C123.87 129.029 123.88 129.029 123.889 129.029C123.898 129.029 123.907 129.029 123.916 129.029C123.925 129.029 123.933 129.029 123.942 129.029C123.951 129.029 123.959 129.029 123.967 129.029C123.976 129.029 123.984 129.029 123.992 129.029C124 129.029 124.008 129.029 124.016 129.029C124.024 129.029 124.031 129.029 124.039 129.029C124.047 129.029 124.054 129.029 124.061 129.029C124.069 129.029 124.076 129.029 124.083 129.029C124.09 129.029 124.097 129.029 124.104 129.029C124.111 129.029 124.117 129.029 124.124 129.029C124.131 129.029 124.137 129.029 124.143 129.029C124.15 129.029 124.156 129.029 124.162 129.029C124.168 129.029 124.174 129.029 124.18 129.029C124.185 129.029 124.191 129.029 124.197 129.029C124.202 129.029 124.208 129.029 124.213 129.029C124.218 129.029 124.223 129.029 124.228 129.029C124.233 129.029 124.238 129.029 124.243 129.029C124.248 129.029 124.252 129.029 124.257 129.029C124.261 129.029 124.266 129.029 124.27 129.029C124.274 129.029 124.278 129.029 124.282 129.029C124.286 129.029 124.29 129.029 124.294 129.029C124.297 129.029 124.301 129.029 124.304 129.029C124.308 129.029 124.311 129.029 124.314 129.029C124.318 129.029 124.321 129.029 124.324 129.029C124.327 129.029 124.329 129.029 124.332 129.029C124.335 129.029 124.337 129.029 124.34 129.029C124.342 129.029 124.344 129.029 124.346 129.029C124.349 129.029 124.351 129.029 124.352 129.029C124.354 129.029 124.356 129.029 124.358 129.029C124.359 129.029 124.361 129.029 124.362 129.029C124.363 129.029 124.365 129.029 124.366 129.029C124.367 129.029 124.368 129.029 124.368 129.029C124.369 129.029 124.37 129.029 124.37 129.029C124.371 129.029 124.371 129.029 124.372 129.029C124.372 129.029 124.372 129.029 124.372 128.721ZM2.65695 79.4186L2.65696 2.38373L2.04068 2.38373L2.04067 79.4186L2.65695 79.4186ZM51.6514 128.413C24.5927 128.413 2.65695 106.477 2.65695 79.4186L2.04067 79.4186C2.04067 106.818 24.2523 129.029 51.6514 129.029L51.6514 128.413Z" fill="#660066"/>
</svg>
