<svg width="97" height="97" viewBox="0 0 97 97" fill="none" xmlns="http://www.w3.org/2000/svg">
<path opacity="0.4" d="M94.5107 0.879859C93.6031 0.879859 92.8673 1.61564 92.8673 2.52327C92.8673 3.4309 93.6031 4.16668 94.5107 4.16668C95.4184 4.16668 96.1542 3.4309 96.1542 2.52327C96.1542 1.61564 95.4184 0.879859 94.5107 0.879859ZM94.5107 94.9651L94.5107 95.2733L94.8189 95.2733L94.8189 94.9651L94.5107 94.9651ZM2.06889 93.3217C1.16126 93.3217 0.425477 94.0575 0.425477 94.9651C0.425477 95.8728 1.16126 96.6085 2.06889 96.6085C2.97652 96.6085 3.7123 95.8728 3.7123 94.9651C3.7123 94.0575 2.97652 93.3217 2.06889 93.3217ZM94.5107 2.52327C94.2026 2.52327 94.2026 2.52348 94.2026 2.52391C94.2026 2.52434 94.2026 2.52499 94.2026 2.52584C94.2026 2.5267 94.2026 2.52777 94.2026 2.52906C94.2026 2.53034 94.2026 2.53184 94.2026 2.53355C94.2026 2.53526 94.2026 2.53718 94.2026 2.53932C94.2026 2.54145 94.2026 2.5438 94.2026 2.54636C94.2026 2.54892 94.2026 2.55169 94.2026 2.55467C94.2026 2.55765 94.2026 2.56084 94.2026 2.56424C94.2026 2.56765 94.2026 2.57126 94.2026 2.57508C94.2026 2.5789 94.2026 2.58293 94.2026 2.58718C94.2026 2.59142 94.2026 2.59587 94.2026 2.60053C94.2026 2.60519 94.2026 2.61005 94.2026 2.61513C94.2026 2.62021 94.2026 2.62549 94.2026 2.63098C94.2026 2.63647 94.2026 2.64217 94.2026 2.64808C94.2026 2.65399 94.2026 2.6601 94.2026 2.66642C94.2026 2.67274 94.2026 2.67926 94.2026 2.68599C94.2026 2.69273 94.2026 2.69966 94.2026 2.70681C94.2026 2.71395 94.2026 2.7213 94.2026 2.72885C94.2026 2.7364 94.2026 2.74416 94.2026 2.75212C94.2026 2.76008 94.2026 2.76825 94.2026 2.77661C94.2026 2.78498 94.2026 2.79355 94.2026 2.80233C94.2026 2.81111 94.2026 2.82008 94.2026 2.82926C94.2026 2.83844 94.2026 2.84783 94.2026 2.85741C94.2026 2.867 94.2026 2.87678 94.2026 2.88677C94.2026 2.89676 94.2026 2.90695 94.2026 2.91734C94.2026 2.92773 94.2026 2.93832 94.2026 2.94911C94.2026 2.9599 94.2026 2.97089 94.2026 2.98208C94.2026 2.99327 94.2026 3.00466 94.2026 3.01625C94.2026 3.02783 94.2026 3.03962 94.2026 3.05161C94.2026 3.06359 94.2026 3.07578 94.2026 3.08816C94.2026 3.10054 94.2026 3.11312 94.2026 3.1259C94.2026 3.13867 94.2026 3.15165 94.2026 3.16482C94.2026 3.17799 94.2026 3.19136 94.2026 3.20492C94.2026 3.21849 94.2026 3.23225 94.2026 3.2462C94.2026 3.26016 94.2026 3.27431 94.2026 3.28865C94.2026 3.303 94.2026 3.31754 94.2026 3.33227C94.2026 3.34701 94.2026 3.36194 94.2026 3.37706C94.2026 3.39218 94.2026 3.4075 94.2026 3.42301C94.2026 3.43852 94.2026 3.45423 94.2026 3.47012C94.2026 3.48602 94.2026 3.50211 94.2026 3.51839C94.2026 3.53467 94.2026 3.55114 94.2026 3.56781C94.2026 3.58447 94.2026 3.60133 94.2026 3.61838C94.2026 3.63542 94.2026 3.65266 94.2026 3.67009C94.2026 3.68752 94.2026 3.70514 94.2026 3.72295C94.2026 3.74075 94.2026 3.75875 94.2026 3.77694C94.2026 3.79513 94.2026 3.8135 94.2026 3.83207C94.2026 3.85064 94.2026 3.86939 94.2026 3.88833C94.2026 3.90728 94.2026 3.92641 94.2026 3.94572C94.2026 3.96504 94.2026 3.98455 94.2026 4.00424C94.2026 4.02393 94.2026 4.04381 94.2026 4.06388C94.2026 4.08394 94.2026 4.1042 94.2026 4.12464C94.2026 4.14507 94.2026 4.1657 94.2026 4.18651C94.2026 4.20732 94.2026 4.22831 94.2026 4.24949C94.2026 4.27067 94.2026 4.29203 94.2026 4.31358C94.2026 4.33513 94.2026 4.35686 94.2026 4.37878C94.2026 4.40069 94.2026 4.42279 94.2026 4.44507C94.2026 4.46736 94.2026 4.48982 94.2026 4.51247C94.2026 4.53512 94.2026 4.55795 94.2026 4.58096C94.2026 4.60397 94.2026 4.62716 94.2026 4.65054C94.2026 4.67391 94.2026 4.69747 94.2026 4.72121C94.2026 4.74494 94.2026 4.76886 94.2026 4.79296C94.2026 4.81706 94.2026 4.84133 94.2026 4.86579C94.2026 4.89025 94.2026 4.91488 94.2026 4.9397C94.2026 4.96452 94.2026 4.98951 94.2026 5.01468C94.2026 5.03986 94.2026 5.06521 94.2026 5.09074C94.2026 5.11627 94.2026 5.14198 94.2026 5.16786C94.2026 5.19374 94.2026 5.21981 94.2026 5.24604C94.2026 5.27228 94.2026 5.2987 94.2026 5.32529C94.2026 5.35188 94.2026 5.37865 94.2026 5.40559C94.2026 5.43253 94.2026 5.45965 94.2026 5.48695C94.2026 5.51424 94.2026 5.54171 94.2026 5.56935C94.2026 5.59699 94.2026 5.62481 94.2026 5.6528C94.2026 5.68079 94.2026 5.70896 94.2026 5.7373C94.2026 5.76564 94.2026 5.79415 94.2026 5.82283C94.2026 5.85152 94.2026 5.88037 94.2026 5.9094C94.2026 5.93843 94.2026 5.96763 94.2026 5.99701C94.2026 6.02638 94.2026 6.05592 94.2026 6.08564C94.2026 6.11535 94.2026 6.14524 94.2026 6.1753C94.2026 6.20535 94.2026 6.23558 94.2026 6.26598C94.2026 6.29638 94.2026 6.32694 94.2026 6.35768C94.2026 6.38841 94.2026 6.41932 94.2026 6.45039C94.2026 6.48147 94.2026 6.51271 94.2026 6.54412C94.2026 6.57553 94.2026 6.60711 94.2026 6.63886C94.2026 6.67061 94.2026 6.70252 94.2026 6.7346C94.2026 6.76668 94.2026 6.79893 94.2026 6.83135C94.2026 6.86376 94.2026 6.89634 94.2026 6.92909C94.2026 6.96183 94.2026 6.99475 94.2026 7.02783C94.2026 7.0609 94.2026 7.09415 94.2026 7.12756C94.2026 7.16096 94.2026 7.19454 94.2026 7.22827C94.2026 7.26201 94.2026 7.29591 94.2026 7.32998C94.2026 7.36404 94.2026 7.39827 94.2026 7.43266C94.2026 7.46705 94.2026 7.50161 94.2026 7.53632C94.2026 7.57104 94.2026 7.60592 94.2026 7.64096C94.2026 7.676 94.2026 7.7112 94.2026 7.74657C94.2026 7.78193 94.2026 7.81746 94.2026 7.85314C94.2026 7.88883 94.2026 7.92468 94.2026 7.96068C94.2026 7.99669 94.2026 8.03286 94.2026 8.06918C94.2026 8.10551 94.2026 8.142 94.2026 8.17864C94.2026 8.21529 94.2026 8.25209 94.2026 8.28905C94.2026 8.32602 94.2026 8.36314 94.2026 8.40042C94.2026 8.4377 94.2026 8.47513 94.2026 8.51273C94.2026 8.55032 94.2026 8.58807 94.2026 8.62598C94.2026 8.66389 94.2026 8.70196 94.2026 8.74018C94.2026 8.7784 94.2026 8.81677 94.2026 8.85531C94.2026 8.89384 94.2026 8.93253 94.2026 8.97137C94.2026 9.01022 94.2026 9.04921 94.2026 9.08837C94.2026 9.12752 94.2026 9.16683 94.2026 9.20629C94.2026 9.24575 94.2026 9.28537 94.2026 9.32513C94.2026 9.3649 94.2026 9.40482 94.2026 9.4449C94.2026 9.48497 94.2026 9.5252 94.2026 9.56558C94.2026 9.60596 94.2026 9.64649 94.2026 9.68717C94.2026 9.72786 94.2026 9.76869 94.2026 9.80968C94.2026 9.85066 94.2026 9.8918 94.2026 9.93309C94.2026 9.97437 94.2026 10.0158 94.2026 10.0574C94.2026 10.099 94.2026 10.1407 94.2026 10.1826C94.2026 10.2245 94.2026 10.2665 94.2026 10.3087C94.2026 10.3509 94.2026 10.3932 94.2026 10.4357C94.2026 10.4782 94.2026 10.5208 94.2026 10.5636C94.2026 10.6064 94.2026 10.6493 94.2026 10.6924C94.2026 10.7355 94.2026 10.7787 94.2026 10.822C94.2026 10.8654 94.2026 10.9089 94.2026 10.9526C94.2026 10.9962 94.2026 11.04 94.2026 11.084C94.2026 11.1279 94.2026 11.172 94.2026 11.2163C94.2026 11.2605 94.2026 11.3049 94.2026 11.3494C94.2026 11.3939 94.2026 11.4386 94.2026 11.4834C94.2026 11.5282 94.2026 11.5732 94.2026 11.6183C94.2026 11.6634 94.2026 11.7087 94.2026 11.754C94.2026 11.7994 94.2026 11.845 94.2026 11.8906C94.2026 11.9363 94.2026 11.9821 94.2026 12.0281C94.2026 12.074 94.2026 12.1201 94.2026 12.1664C94.2026 12.2126 94.2026 12.259 94.2026 12.3055C94.2026 12.352 94.2026 12.3987 94.2026 12.4455C94.2026 12.4923 94.2026 12.5392 94.2026 12.5863C94.2026 12.6334 94.2026 12.6806 94.2026 12.7279C94.2026 12.7753 94.2026 12.8228 94.2026 12.8704C94.2026 12.918 94.2026 12.9658 94.2026 13.0137C94.2026 13.0616 94.2026 13.1097 94.2026 13.1579C94.2026 13.206 94.2026 13.2543 94.2026 13.3028C94.2026 13.3513 94.2026 13.3998 94.2026 13.4486C94.2026 13.4973 94.2026 13.5462 94.2026 13.5951C94.2026 13.6441 94.2026 13.6933 94.2026 13.7425C94.2026 13.7918 94.2026 13.8412 94.2026 13.8907C94.2026 13.9403 94.2026 13.9899 94.2026 14.0397C94.2026 14.0895 94.2026 14.1395 94.2026 14.1895C94.2026 14.2396 94.2026 14.2898 94.2026 14.3401C94.2026 14.3905 94.2026 14.4409 94.2026 14.4915C94.2026 14.5421 94.2026 14.5929 94.2026 14.6437C94.2026 14.6946 94.2026 14.7456 94.2026 14.7967C94.2026 14.8478 94.2026 14.899 94.2026 14.9504C94.2026 15.0018 94.2026 15.0533 94.2026 15.105C94.2026 15.1566 94.2026 15.2084 94.2026 15.2603C94.2026 15.3122 94.2026 15.3642 94.2026 15.4163C94.2026 15.4685 94.2026 15.5208 94.2026 15.5732C94.2026 15.6256 94.2026 15.6781 94.2026 15.7308C94.2026 15.7835 94.2026 15.8363 94.2026 15.8892C94.2026 15.9421 94.2026 15.9951 94.2026 16.0483C94.2026 16.1015 94.2026 16.1548 94.2026 16.2082C94.2026 16.2616 94.2026 16.3152 94.2026 16.3688C94.2026 16.4225 94.2026 16.4763 94.2026 16.5302C94.2026 16.5842 94.2026 16.6382 94.2026 16.6924C94.2026 16.7465 94.2026 16.8008 94.2026 16.8552C94.2026 16.9097 94.2026 16.9642 94.2026 17.0189C94.2026 17.0735 94.2026 17.1283 94.2026 17.1832C94.2026 17.2381 94.2026 17.2931 94.2026 17.3483C94.2026 17.4034 94.2026 17.4587 94.2026 17.5141C94.2026 17.5695 94.2026 17.625 94.2026 17.6806C94.2026 17.7363 94.2026 17.792 94.2026 17.8479C94.2026 17.9038 94.2026 17.9598 94.2026 18.0159C94.2026 18.072 94.2026 18.1282 94.2026 18.1846C94.2026 18.2409 94.2026 18.2974 94.2026 18.354C94.2026 18.4105 94.2026 18.4672 94.2026 18.5241C94.2026 18.5809 94.2026 18.6378 94.2026 18.6949C94.2026 18.7519 94.2026 18.8091 94.2026 18.8664C94.2026 18.9237 94.2026 18.9811 94.2026 19.0386C94.2026 19.0961 94.2026 19.1537 94.2026 19.2115C94.2026 19.2692 94.2026 19.3271 94.2026 19.3851C94.2026 19.4431 94.2026 19.5012 94.2026 19.5594C94.2026 19.6176 94.2026 19.6759 94.2026 19.7343C94.2026 19.7928 94.2026 19.8513 94.2026 19.91C94.2026 19.9686 94.2026 20.0274 94.2026 20.0863C94.2026 20.1452 94.2026 20.2042 94.2026 20.2633C94.2026 20.3224 94.2026 20.3816 94.2026 20.441C94.2026 20.5003 94.2026 20.5597 94.2026 20.6193C94.2026 20.6788 94.2026 20.7385 94.2026 20.7983C94.2026 20.8581 94.2026 20.9179 94.2026 20.9779C94.2026 21.0379 94.2026 21.098 94.2026 21.1582C94.2026 21.2185 94.2026 21.2788 94.2026 21.3392C94.2026 21.3996 94.2026 21.4602 94.2026 21.5208C94.2026 21.5815 94.2026 21.6422 94.2026 21.7031C94.2026 21.7639 94.2026 21.8249 94.2026 21.886C94.2026 21.947 94.2026 22.0082 94.2026 22.0695C94.2026 22.1308 94.2026 22.1922 94.2026 22.2537C94.2026 22.3152 94.2026 22.3768 94.2026 22.4385C94.2026 22.5002 94.2026 22.562 94.2026 22.6239C94.2026 22.6858 94.2026 22.7479 94.2026 22.81C94.2026 22.8721 94.2026 22.9343 94.2026 22.9967C94.2026 23.059 94.2026 23.1214 94.2026 23.184C94.2026 23.2465 94.2026 23.3092 94.2026 23.3719C94.2026 23.4346 94.2026 23.4975 94.2026 23.5604C94.2026 23.6234 94.2026 23.6864 94.2026 23.7496C94.2026 23.8127 94.2026 23.876 94.2026 23.9393C94.2026 24.0026 94.2026 24.0661 94.2026 24.1296C94.2026 24.1932 94.2026 24.2568 94.2026 24.3206C94.2026 24.3843 94.2026 24.4482 94.2026 24.5121C94.2026 24.5761 94.2026 24.6401 94.2026 24.7042C94.2026 24.7684 94.2026 24.8326 94.2026 24.897C94.2026 24.9613 94.2026 25.0257 94.2026 25.0903C94.2026 25.1548 94.2026 25.2194 94.2026 25.2841C94.2026 25.3489 94.2026 25.4137 94.2026 25.4786C94.2026 25.5435 94.2026 25.6085 94.2026 25.6736C94.2026 25.7387 94.2026 25.8039 94.2026 25.8692C94.2026 25.9345 94.2026 25.9999 94.2026 26.0654C94.2026 26.1309 94.2026 26.1965 94.2026 26.2621C94.2026 26.3278 94.2026 26.3936 94.2026 26.4594C94.2026 26.5253 94.2026 26.5912 94.2026 26.6573C94.2026 26.7233 94.2026 26.7895 94.2026 26.8557C94.2026 26.9219 94.2026 26.9882 94.2026 27.0546C94.2026 27.121 94.2026 27.1875 94.2026 27.2541C94.2026 27.3207 94.2026 27.3874 94.2026 27.4542C94.2026 27.521 94.2026 27.5878 94.2026 27.6548C94.2026 27.7217 94.2026 27.7888 94.2026 27.8559C94.2026 27.923 94.2026 27.9902 94.2026 28.0575C94.2026 28.1248 94.2026 28.1922 94.2026 28.2597C94.2026 28.3272 94.2026 28.3948 94.2026 28.4624C94.2026 28.5301 94.2026 28.5978 94.2026 28.6657C94.2026 28.7335 94.2026 28.8014 94.2026 28.8694C94.2026 28.9374 94.2026 29.0055 94.2026 29.0737C94.2026 29.1418 94.2026 29.2101 94.2026 29.2785C94.2026 29.3468 94.2026 29.4152 94.2026 29.4837C94.2026 29.5523 94.2026 29.6209 94.2026 29.6895C94.2026 29.7582 94.2026 29.827 94.2026 29.8958C94.2026 29.9647 94.2026 30.0336 94.2026 30.1026C94.2026 30.1716 94.2026 30.2407 94.2026 30.3099C94.2026 30.3791 94.2026 30.4484 94.2026 30.5177C94.2026 30.587 94.2026 30.6565 94.2026 30.726C94.2026 30.7955 94.2026 30.8651 94.2026 30.9347C94.2026 31.0044 94.2026 31.0741 94.2026 31.144C94.2026 31.2138 94.2026 31.2837 94.2026 31.3537C94.2026 31.4237 94.2026 31.4937 94.2026 31.5639C94.2026 31.634 94.2026 31.7042 94.2026 31.7745C94.2026 31.8448 94.2026 31.9152 94.2026 31.9857C94.2026 32.0561 94.2026 32.1266 94.2026 32.1972C94.2026 32.2679 94.2026 32.3385 94.2026 32.4093C94.2026 32.4801 94.2026 32.5509 94.2026 32.6218C94.2026 32.6927 94.2026 32.7637 94.2026 32.8348C94.2026 32.9058 94.2026 32.977 94.2026 33.0482C94.2026 33.1194 94.2026 33.1907 94.2026 33.2621C94.2026 33.3334 94.2026 33.4049 94.2026 33.4764C94.2026 33.5479 94.2026 33.6195 94.2026 33.6911C94.2026 33.7628 94.2026 33.8345 94.2026 33.9063C94.2026 33.9781 94.2026 34.05 94.2026 34.1219C94.2026 34.1939 94.2026 34.2659 94.2026 34.338C94.2026 34.4101 94.2026 34.4822 94.2026 34.5544C94.2026 34.6267 94.2026 34.699 94.2026 34.7713C94.2026 34.8437 94.2026 34.9162 94.2026 34.9887C94.2026 35.0612 94.2026 35.1338 94.2026 35.2064C94.2026 35.2791 94.2026 35.3518 94.2026 35.4246C94.2026 35.4973 94.2026 35.5702 94.2026 35.6431C94.2026 35.716 94.2026 35.789 94.2026 35.8621C94.2026 35.9351 94.2026 36.0083 94.2026 36.0814C94.2026 36.1546 94.2026 36.2279 94.2026 36.3012C94.2026 36.3745 94.2026 36.4479 94.2026 36.5214C94.2026 36.5948 94.2026 36.6684 94.2026 36.7419C94.2026 36.8155 94.2026 36.8892 94.2026 36.9629C94.2026 37.0366 94.2026 37.1104 94.2026 37.1842C94.2026 37.2581 94.2026 37.332 94.2026 37.4059C94.2026 37.4799 94.2026 37.5539 94.2026 37.628C94.2026 37.7021 94.2026 37.7763 94.2026 37.8505C94.2026 37.9247 94.2026 37.999 94.2026 38.0733C94.2026 38.1477 94.2026 38.2221 94.2026 38.2965C94.2026 38.371 94.2026 38.4455 94.2026 38.5201C94.2026 38.5947 94.2026 38.6693 94.2026 38.744C94.2026 38.8188 94.2026 38.8935 94.2026 38.9683C94.2026 39.0432 94.2026 39.118 94.2026 39.193C94.2026 39.2679 94.2026 39.3429 94.2026 39.418C94.2026 39.493 94.2026 39.5682 94.2026 39.6433C94.2026 39.7185 94.2026 39.7937 94.2026 39.869C94.2026 39.9443 94.2026 40.0197 94.2026 40.0951C94.2026 40.1705 94.2026 40.2459 94.2026 40.3214C94.2026 40.397 94.2026 40.4725 94.2026 40.5481C94.2026 40.6238 94.2026 40.6995 94.2026 40.7752C94.2026 40.8509 94.2026 40.9267 94.2026 41.0026C94.2026 41.0784 94.2026 41.1543 94.2026 41.2302C94.2026 41.3062 94.2026 41.3822 94.2026 41.4583C94.2026 41.5343 94.2026 41.6104 94.2026 41.6866C94.2026 41.7627 94.2026 41.839 94.2026 41.9152C94.2026 41.9915 94.2026 42.0678 94.2026 42.1442C94.2026 42.2205 94.2026 42.297 94.2026 42.3734C94.2026 42.4499 94.2026 42.5264 94.2026 42.603C94.2026 42.6796 94.2026 42.7562 94.2026 42.8329C94.2026 42.9095 94.2026 42.9863 94.2026 43.063C94.2026 43.1398 94.2026 43.2166 94.2026 43.2935C94.2026 43.3703 94.2026 43.4473 94.2026 43.5242C94.2026 43.6012 94.2026 43.6782 94.2026 43.7552C94.2026 43.8323 94.2026 43.9094 94.2026 43.9866C94.2026 44.0637 94.2026 44.1409 94.2026 44.2181C94.2026 44.2954 94.2026 44.3727 94.2026 44.45C94.2026 44.5274 94.2026 44.6047 94.2026 44.6822C94.2026 44.7596 94.2026 44.8371 94.2026 44.9146C94.2026 44.9921 94.2026 45.0696 94.2026 45.1472C94.2026 45.2248 94.2026 45.3025 94.2026 45.3802C94.2026 45.4579 94.2026 45.5356 94.2026 45.6134C94.2026 45.6912 94.2026 45.769 94.2026 45.8468C94.2026 45.9247 94.2026 46.0026 94.2026 46.0805C94.2026 46.1585 94.2026 46.2365 94.2026 46.3145C94.2026 46.3925 94.2026 46.4706 94.2026 46.5487C94.2026 46.6268 94.2026 46.7049 94.2026 46.7831C94.2026 46.8613 94.2026 46.9395 94.2026 47.0178C94.2026 47.0961 94.2026 47.1744 94.2026 47.2527C94.2026 47.3311 94.2026 47.4095 94.2026 47.4879C94.2026 47.5663 94.2026 47.6448 94.2026 47.7233C94.2026 47.8018 94.2026 47.8803 94.2026 47.9589C94.2026 48.0374 94.2026 48.116 94.2026 48.1947C94.2026 48.2733 94.2026 48.352 94.2026 48.4307C94.2026 48.5094 94.2026 48.5882 94.2026 48.667C94.2026 48.7458 94.2026 48.8246 94.2026 48.9034C94.2026 48.9823 94.2026 49.0612 94.2026 49.1401C94.2026 49.219 94.2026 49.298 94.2026 49.377C94.2026 49.456 94.2026 49.535 94.2026 49.6141C94.2026 49.6931 94.2026 49.7722 94.2026 49.8513C94.2026 49.9305 94.2026 50.0096 94.2026 50.0888C94.2026 50.168 94.2026 50.2472 94.2026 50.3265C94.2026 50.4057 94.2026 50.485 94.2026 50.5643C94.2026 50.6436 94.2026 50.723 94.2026 50.8024C94.2026 50.8817 94.2026 50.9611 94.2026 51.0406C94.2026 51.12 94.2026 51.1995 94.2026 51.279C94.2026 51.3584 94.2026 51.438 94.2026 51.5175C94.2026 51.5971 94.2026 51.6766 94.2026 51.7562C94.2026 51.8359 94.2026 51.9155 94.2026 51.9951C94.2026 52.0748 94.2026 52.1545 94.2026 52.2342C94.2026 52.3139 94.2026 52.3937 94.2026 52.4734C94.2026 52.5532 94.2026 52.633 94.2026 52.7128C94.2026 52.7926 94.2026 52.8725 94.2026 52.9523C94.2026 53.0322 94.2026 53.1121 94.2026 53.192C94.2026 53.2719 94.2026 53.3519 94.2026 53.4318C94.2026 53.5118 94.2026 53.5918 94.2026 53.6718C94.2026 53.7518 94.2026 53.8319 94.2026 53.9119C94.2026 53.992 94.2026 54.0721 94.2026 54.1522C94.2026 54.2323 94.2026 54.3124 94.2026 54.3925C94.2026 54.4727 94.2026 54.5529 94.2026 54.6331C94.2026 54.7132 94.2026 54.7935 94.2026 54.8737C94.2026 54.9539 94.2026 55.0342 94.2026 55.1144C94.2026 55.1947 94.2026 55.275 94.2026 55.3553C94.2026 55.4356 94.2026 55.516 94.2026 55.5963C94.2026 55.6767 94.2026 55.757 94.2026 55.8374C94.2026 55.9178 94.2026 55.9982 94.2026 56.0786C94.2026 56.159 94.2026 56.2395 94.2026 56.3199C94.2026 56.4004 94.2026 56.4809 94.2026 56.5613C94.2026 56.6418 94.2026 56.7223 94.2026 56.8029C94.2026 56.8834 94.2026 56.9639 94.2026 57.0445C94.2026 57.125 94.2026 57.2056 94.2026 57.2862C94.2026 57.3667 94.2026 57.4473 94.2026 57.5279C94.2026 57.6086 94.2026 57.6892 94.2026 57.7698C94.2026 57.8505 94.2026 57.9311 94.2026 58.0118C94.2026 58.0924 94.2026 58.1731 94.2026 58.2538C94.2026 58.3345 94.2026 58.4152 94.2026 58.4959C94.2026 58.5766 94.2026 58.6573 94.2026 58.7381C94.2026 58.8188 94.2026 58.8996 94.2026 58.9803C94.2026 59.0611 94.2026 59.1418 94.2026 59.2226C94.2026 59.3034 94.2026 59.3842 94.2026 59.465C94.2026 59.5458 94.2026 59.6266 94.2026 59.7074C94.2026 59.7882 94.2026 59.8691 94.2026 59.9499C94.2026 60.0307 94.2026 60.1116 94.2026 60.1924C94.2026 60.2733 94.2026 60.3541 94.2026 60.435C94.2026 60.5159 94.2026 60.5967 94.2026 60.6776C94.2026 60.7585 94.2026 60.8394 94.2026 60.9203C94.2026 61.0012 94.2026 61.0821 94.2026 61.163C94.2026 61.2439 94.2026 61.3248 94.2026 61.4057C94.2026 61.4866 94.2026 61.5675 94.2026 61.6485C94.2026 61.7294 94.2026 61.8103 94.2026 61.8912C94.2026 61.9722 94.2026 62.0531 94.2026 62.1341C94.2026 62.215 94.2026 62.2959 94.2026 62.3769C94.2026 62.4578 94.2026 62.5388 94.2026 62.6197C94.2026 62.7007 94.2026 62.7816 94.2026 62.8626C94.2026 62.9435 94.2026 63.0245 94.2026 63.1054C94.2026 63.1864 94.2026 63.2674 94.2026 63.3483C94.2026 63.4293 94.2026 63.5102 94.2026 63.5912C94.2026 63.6721 94.2026 63.7531 94.2026 63.8341C94.2026 63.915 94.2026 63.996 94.2026 64.0769C94.2026 64.1579 94.2026 64.2388 94.2026 64.3198C94.2026 64.4007 94.2026 64.4817 94.2026 64.5626C94.2026 64.6436 94.2026 64.7245 94.2026 64.8055C94.2026 64.8864 94.2026 64.9673 94.2026 65.0483C94.2026 65.1292 94.2026 65.2101 94.2026 65.2911C94.2026 65.372 94.2026 65.4529 94.2026 65.5338C94.2026 65.6148 94.2026 65.6957 94.2026 65.7766C94.2026 65.8575 94.2026 65.9384 94.2026 66.0193C94.2026 66.1002 94.2026 66.1811 94.2026 66.262C94.2026 66.3428 94.2026 66.4237 94.2026 66.5046C94.2026 66.5855 94.2026 66.6663 94.2026 66.7472C94.2026 66.828 94.2026 66.9089 94.2026 66.9897C94.2026 67.0706 94.2026 67.1514 94.2026 67.2322C94.2026 67.313 94.2026 67.3939 94.2026 67.4747C94.2026 67.5555 94.2026 67.6363 94.2026 67.717C94.2026 67.7978 94.2026 67.8786 94.2026 67.9594C94.2026 68.0401 94.2026 68.1209 94.2026 68.2016C94.2026 68.2824 94.2026 68.3631 94.2026 68.4438C94.2026 68.5246 94.2026 68.6053 94.2026 68.686C94.2026 68.7667 94.2026 68.8474 94.2026 68.928C94.2026 69.0087 94.2026 69.0894 94.2026 69.17C94.2026 69.2507 94.2026 69.3313 94.2026 69.4119C94.2026 69.4925 94.2026 69.5731 94.2026 69.6537C94.2026 69.7343 94.2026 69.8149 94.2026 69.8955C94.2026 69.976 94.2026 70.0566 94.2026 70.1371C94.2026 70.2176 94.2026 70.2982 94.2026 70.3787C94.2026 70.4592 94.2026 70.5396 94.2026 70.6201C94.2026 70.7006 94.2026 70.781 94.2026 70.8615C94.2026 70.9419 94.2026 71.0223 94.2026 71.1027C94.2026 71.1831 94.2026 71.2635 94.2026 71.3438C94.2026 71.4242 94.2026 71.5045 94.2026 71.5849C94.2026 71.6652 94.2026 71.7455 94.2026 71.8258C94.2026 71.9061 94.2026 71.9863 94.2026 72.0666C94.2026 72.1468 94.2026 72.2271 94.2026 72.3073C94.2026 72.3875 94.2026 72.4676 94.2026 72.5478C94.2026 72.628 94.2026 72.7081 94.2026 72.7882C94.2026 72.8684 94.2026 72.9484 94.2026 73.0285C94.2026 73.1086 94.2026 73.1887 94.2026 73.2687C94.2026 73.3487 94.2026 73.4287 94.2026 73.5087C94.2026 73.5887 94.2026 73.6686 94.2026 73.7486C94.2026 73.8285 94.2026 73.9084 94.2026 73.9883C94.2026 74.0682 94.2026 74.1481 94.2026 74.2279C94.2026 74.3077 94.2026 74.3876 94.2026 74.4673C94.2026 74.5471 94.2026 74.6269 94.2026 74.7066C94.2026 74.7863 94.2026 74.8661 94.2026 74.9457C94.2026 75.0254 94.2026 75.1051 94.2026 75.1847C94.2026 75.2643 94.2026 75.3439 94.2026 75.4235C94.2026 75.5031 94.2026 75.5826 94.2026 75.6621C94.2026 75.7416 94.2026 75.8211 94.2026 75.9006C94.2026 75.98 94.2026 76.0594 94.2026 76.1388C94.2026 76.2182 94.2026 76.2976 94.2026 76.3769C94.2026 76.4563 94.2026 76.5356 94.2026 76.6148C94.2026 76.6941 94.2026 76.7734 94.2026 76.8526C94.2026 76.9318 94.2026 77.011 94.2026 77.0901C94.2026 77.1693 94.2026 77.2484 94.2026 77.3275C94.2026 77.4065 94.2026 77.4856 94.2026 77.5646C94.2026 77.6436 94.2026 77.7226 94.2026 77.8016C94.2026 77.8805 94.2026 77.9594 94.2026 78.0383C94.2026 78.1172 94.2026 78.196 94.2026 78.2748C94.2026 78.3537 94.2026 78.4324 94.2026 78.5112C94.2026 78.5899 94.2026 78.6686 94.2026 78.7473C94.2026 78.826 94.2026 78.9046 94.2026 78.9832C94.2026 79.0618 94.2026 79.1404 94.2026 79.2189C94.2026 79.2974 94.2026 79.3759 94.2026 79.4543C94.2026 79.5328 94.2026 79.6112 94.2026 79.6896C94.2026 79.7679 94.2026 79.8463 94.2026 79.9246C94.2026 80.0029 94.2026 80.0811 94.2026 80.1593C94.2026 80.2375 94.2026 80.3157 94.2026 80.3939C94.2026 80.472 94.2026 80.5501 94.2026 80.6281C94.2026 80.7062 94.2026 80.7842 94.2026 80.8622C94.2026 80.9402 94.2026 81.0181 94.2026 81.096C94.2026 81.1739 94.2026 81.2517 94.2026 81.3295C94.2026 81.4073 94.2026 81.4851 94.2026 81.5628C94.2026 81.6405 94.2026 81.7182 94.2026 81.7958C94.2026 81.8735 94.2026 81.9511 94.2026 82.0286C94.2026 82.1062 94.2026 82.1837 94.2026 82.2611C94.2026 82.3386 94.2026 82.416 94.2026 82.4934C94.2026 82.5707 94.2026 82.6481 94.2026 82.7253C94.2026 82.8026 94.2026 82.8798 94.2026 82.957C94.2026 83.0342 94.2026 83.1113 94.2026 83.1884C94.2026 83.2655 94.2026 83.3426 94.2026 83.4196C94.2026 83.4966 94.2026 83.5735 94.2026 83.6504C94.2026 83.7273 94.2026 83.8042 94.2026 83.881C94.2026 83.9578 94.2026 84.0345 94.2026 84.1112C94.2026 84.1879 94.2026 84.2646 94.2026 84.3412C94.2026 84.4178 94.2026 84.4944 94.2026 84.5709C94.2026 84.6474 94.2026 84.7238 94.2026 84.8002C94.2026 84.8766 94.2026 84.953 94.2026 85.0293C94.2026 85.1056 94.2026 85.1819 94.2026 85.2581C94.2026 85.3343 94.2026 85.4104 94.2026 85.4865C94.2026 85.5626 94.2026 85.6386 94.2026 85.7146C94.2026 85.7906 94.2026 85.8665 94.2026 85.9424C94.2026 86.0183 94.2026 86.0941 94.2026 86.1699C94.2026 86.2457 94.2026 86.3214 94.2026 86.3971C94.2026 86.4727 94.2026 86.5483 94.2026 86.6239C94.2026 86.6994 94.2026 86.7749 94.2026 86.8504C94.2026 86.9258 94.2026 87.0012 94.2026 87.0765C94.2026 87.1519 94.2026 87.2271 94.2026 87.3024C94.2026 87.3776 94.2026 87.4527 94.2026 87.5278C94.2026 87.6029 94.2026 87.678 94.2026 87.753C94.2026 87.8279 94.2026 87.9029 94.2026 87.9777C94.2026 88.0526 94.2026 88.1274 94.2026 88.2022C94.2026 88.2769 94.2026 88.3516 94.2026 88.4262C94.2026 88.5009 94.2026 88.5754 94.2026 88.6499C94.2026 88.7244 94.2026 88.7989 94.2026 88.8733C94.2026 88.9477 94.2026 89.022 94.2026 89.0962C94.2026 89.1705 94.2026 89.2447 94.2026 89.3188C94.2026 89.393 94.2026 89.4671 94.2026 89.5411C94.2026 89.6151 94.2026 89.689 94.2026 89.7629C94.2026 89.8368 94.2026 89.9106 94.2026 89.9844C94.2026 90.0582 94.2026 90.1319 94.2026 90.2055C94.2026 90.2791 94.2026 90.3527 94.2026 90.4262C94.2026 90.4997 94.2026 90.5731 94.2026 90.6465C94.2026 90.7198 94.2026 90.7932 94.2026 90.8664C94.2026 90.9396 94.2026 91.0128 94.2026 91.0859C94.2026 91.159 94.2026 91.232 94.2026 91.305C94.2026 91.378 94.2026 91.4509 94.2026 91.5237C94.2026 91.5966 94.2026 91.6693 94.2026 91.742C94.2026 91.8147 94.2026 91.8873 94.2026 91.9599C94.2026 92.0325 94.2026 92.1049 94.2026 92.1774C94.2026 92.2498 94.2026 92.3221 94.2026 92.3944C94.2026 92.4667 94.2026 92.5389 94.2026 92.6111C94.2026 92.6832 94.2026 92.7553 94.2026 92.8273C94.2026 92.8993 94.2026 92.9712 94.2026 93.043C94.2026 93.1149 94.2026 93.1867 94.2026 93.2584C94.2026 93.3301 94.2026 93.4017 94.2026 93.4733C94.2026 93.5448 94.2026 93.6163 94.2026 93.6877C94.2026 93.7592 94.2026 93.8305 94.2026 93.9018C94.2026 93.973 94.2026 94.0442 94.2026 94.1153C94.2026 94.1865 94.2026 94.2575 94.2026 94.3285C94.2026 94.3994 94.2026 94.4703 94.2026 94.5412C94.2026 94.612 94.2026 94.6827 94.2026 94.7534C94.2026 94.824 94.2026 94.8946 94.2026 94.9651L94.8189 94.9651C94.8189 94.8946 94.8189 94.824 94.8189 94.7534C94.8189 94.6827 94.8189 94.612 94.8189 94.5412C94.8189 94.4703 94.8189 94.3994 94.8189 94.3285C94.8189 94.2575 94.8189 94.1865 94.8189 94.1153C94.8189 94.0442 94.8189 93.973 94.8189 93.9018C94.8189 93.8305 94.8189 93.7592 94.8189 93.6877C94.8189 93.6163 94.8189 93.5448 94.8189 93.4733C94.8189 93.4017 94.8189 93.3301 94.8189 93.2584C94.8189 93.1867 94.8189 93.1149 94.8189 93.043C94.8189 92.9712 94.8189 92.8993 94.8189 92.8273C94.8189 92.7553 94.8189 92.6832 94.8189 92.6111C94.8189 92.5389 94.8189 92.4667 94.8189 92.3944C94.8189 92.3221 94.8189 92.2498 94.8189 92.1774C94.8189 92.1049 94.8189 92.0325 94.8189 91.9599C94.8189 91.8873 94.8189 91.8147 94.8189 91.742C94.8189 91.6693 94.8189 91.5966 94.8189 91.5237C94.8189 91.4509 94.8189 91.378 94.8189 91.305C94.8189 91.232 94.8189 91.159 94.8189 91.0859C94.8189 91.0128 94.8189 90.9396 94.8189 90.8664C94.8189 90.7932 94.8189 90.7198 94.8189 90.6465C94.8189 90.5731 94.8189 90.4997 94.8189 90.4262C94.8189 90.3527 94.8189 90.2791 94.8189 90.2055C94.8189 90.1319 94.8189 90.0582 94.8189 89.9844C94.8189 89.9106 94.8189 89.8368 94.8189 89.7629C94.8189 89.689 94.8189 89.6151 94.8189 89.5411C94.8189 89.4671 94.8189 89.393 94.8189 89.3188C94.8189 89.2447 94.8189 89.1705 94.8189 89.0962C94.8189 89.022 94.8189 88.9477 94.8189 88.8733C94.8189 88.7989 94.8189 88.7244 94.8189 88.6499C94.8189 88.5754 94.8189 88.5009 94.8189 88.4262C94.8189 88.3516 94.8189 88.2769 94.8189 88.2022C94.8189 88.1274 94.8189 88.0526 94.8189 87.9777C94.8189 87.9029 94.8189 87.8279 94.8189 87.753C94.8189 87.678 94.8189 87.6029 94.8189 87.5278C94.8189 87.4527 94.8189 87.3776 94.8189 87.3024C94.8189 87.2271 94.8189 87.1519 94.8189 87.0765C94.8189 87.0012 94.8189 86.9258 94.8189 86.8504C94.8189 86.7749 94.8189 86.6994 94.8189 86.6239C94.8189 86.5483 94.8189 86.4727 94.8189 86.3971C94.8189 86.3214 94.8189 86.2457 94.8189 86.1699C94.8189 86.0941 94.8189 86.0183 94.8189 85.9424C94.8189 85.8665 94.8189 85.7906 94.8189 85.7146C94.8189 85.6386 94.8189 85.5626 94.8189 85.4865C94.8189 85.4104 94.8189 85.3343 94.8189 85.2581C94.8189 85.1819 94.8189 85.1056 94.8189 85.0293C94.8189 84.953 94.8189 84.8766 94.8189 84.8002C94.8189 84.7238 94.8189 84.6474 94.8189 84.5709C94.8189 84.4944 94.8189 84.4178 94.8189 84.3412C94.8189 84.2646 94.8189 84.1879 94.8189 84.1112C94.8189 84.0345 94.8189 83.9578 94.8189 83.881C94.8189 83.8042 94.8189 83.7273 94.8189 83.6504C94.8189 83.5735 94.8189 83.4966 94.8189 83.4196C94.8189 83.3426 94.8189 83.2655 94.8189 83.1884C94.8189 83.1113 94.8189 83.0342 94.8189 82.957C94.8189 82.8798 94.8189 82.8026 94.8189 82.7253C94.8189 82.6481 94.8189 82.5707 94.8189 82.4934C94.8189 82.416 94.8189 82.3386 94.8189 82.2611C94.8189 82.1837 94.8189 82.1062 94.8189 82.0286C94.8189 81.9511 94.8189 81.8735 94.8189 81.7958C94.8189 81.7182 94.8189 81.6405 94.8189 81.5628C94.8189 81.4851 94.8189 81.4073 94.8189 81.3295C94.8189 81.2517 94.8189 81.1739 94.8189 81.096C94.8189 81.0181 94.8189 80.9402 94.8189 80.8622C94.8189 80.7842 94.8189 80.7062 94.8189 80.6281C94.8189 80.5501 94.8189 80.472 94.8189 80.3939C94.8189 80.3157 94.8189 80.2375 94.8189 80.1593C94.8189 80.0811 94.8189 80.0029 94.8189 79.9246C94.8189 79.8463 94.8189 79.7679 94.8189 79.6896C94.8189 79.6112 94.8189 79.5328 94.8189 79.4543C94.8189 79.3759 94.8189 79.2974 94.8189 79.2189C94.8189 79.1404 94.8189 79.0618 94.8189 78.9832C94.8189 78.9046 94.8189 78.826 94.8189 78.7473C94.8189 78.6686 94.8189 78.5899 94.8189 78.5112C94.8189 78.4324 94.8189 78.3537 94.8189 78.2748C94.8189 78.196 94.8189 78.1172 94.8189 78.0383C94.8189 77.9594 94.8189 77.8805 94.8189 77.8016C94.8189 77.7226 94.8189 77.6436 94.8189 77.5646C94.8189 77.4856 94.8189 77.4065 94.8189 77.3275C94.8189 77.2484 94.8189 77.1693 94.8189 77.0901C94.8189 77.011 94.8189 76.9318 94.8189 76.8526C94.8189 76.7734 94.8189 76.6941 94.8189 76.6148C94.8189 76.5356 94.8189 76.4563 94.8189 76.3769C94.8189 76.2976 94.8189 76.2182 94.8189 76.1388C94.8189 76.0594 94.8189 75.98 94.8189 75.9006C94.8189 75.8211 94.8189 75.7416 94.8189 75.6621C94.8189 75.5826 94.8189 75.5031 94.8189 75.4235C94.8189 75.3439 94.8189 75.2643 94.8189 75.1847C94.8189 75.1051 94.8189 75.0254 94.8189 74.9457C94.8189 74.8661 94.8189 74.7863 94.8189 74.7066C94.8189 74.6269 94.8189 74.5471 94.8189 74.4673C94.8189 74.3876 94.8189 74.3077 94.8189 74.2279C94.8189 74.1481 94.8189 74.0682 94.8189 73.9883C94.8189 73.9084 94.8189 73.8285 94.8189 73.7486C94.8189 73.6686 94.8189 73.5887 94.8189 73.5087C94.8189 73.4287 94.8189 73.3487 94.8189 73.2687C94.8189 73.1887 94.8189 73.1086 94.8189 73.0285C94.8189 72.9484 94.8189 72.8684 94.8189 72.7882C94.8189 72.7081 94.8189 72.628 94.8189 72.5478C94.8189 72.4676 94.8189 72.3875 94.8189 72.3073C94.8189 72.2271 94.8189 72.1468 94.8189 72.0666C94.8189 71.9863 94.8189 71.9061 94.8189 71.8258C94.8189 71.7455 94.8189 71.6652 94.8189 71.5849C94.8189 71.5045 94.8189 71.4242 94.8189 71.3438C94.8189 71.2635 94.8189 71.1831 94.8189 71.1027C94.8189 71.0223 94.8189 70.9419 94.8189 70.8615C94.8189 70.781 94.8189 70.7006 94.8189 70.6201C94.8189 70.5396 94.8189 70.4592 94.8189 70.3787C94.8189 70.2982 94.8189 70.2176 94.8189 70.1371C94.8189 70.0566 94.8189 69.976 94.8189 69.8955C94.8189 69.8149 94.8189 69.7343 94.8189 69.6537C94.8189 69.5731 94.8189 69.4925 94.8189 69.4119C94.8189 69.3313 94.8189 69.2507 94.8189 69.17C94.8189 69.0894 94.8189 69.0087 94.8189 68.928C94.8189 68.8474 94.8189 68.7667 94.8189 68.686C94.8189 68.6053 94.8189 68.5246 94.8189 68.4438C94.8189 68.3631 94.8189 68.2824 94.8189 68.2016C94.8189 68.1209 94.8189 68.0401 94.8189 67.9594C94.8189 67.8786 94.8189 67.7978 94.8189 67.717C94.8189 67.6363 94.8189 67.5555 94.8189 67.4747C94.8189 67.3939 94.8189 67.313 94.8189 67.2322C94.8189 67.1514 94.8189 67.0706 94.8189 66.9897C94.8189 66.9089 94.8189 66.828 94.8189 66.7472C94.8189 66.6663 94.8189 66.5855 94.8189 66.5046C94.8189 66.4237 94.8189 66.3428 94.8189 66.262C94.8189 66.1811 94.8189 66.1002 94.8189 66.0193C94.8189 65.9384 94.8189 65.8575 94.8189 65.7766C94.8189 65.6957 94.8189 65.6148 94.8189 65.5338C94.8189 65.4529 94.8189 65.372 94.8189 65.2911C94.8189 65.2101 94.8189 65.1292 94.8189 65.0483C94.8189 64.9673 94.8189 64.8864 94.8189 64.8055C94.8189 64.7245 94.8189 64.6436 94.8189 64.5626C94.8189 64.4817 94.8189 64.4007 94.8189 64.3198C94.8189 64.2388 94.8189 64.1579 94.8189 64.0769C94.8189 63.996 94.8189 63.915 94.8189 63.8341C94.8189 63.7531 94.8189 63.6721 94.8189 63.5912C94.8189 63.5102 94.8189 63.4293 94.8189 63.3483C94.8189 63.2674 94.8189 63.1864 94.8189 63.1054C94.8189 63.0245 94.8189 62.9435 94.8189 62.8626C94.8189 62.7816 94.8189 62.7007 94.8189 62.6197C94.8189 62.5388 94.8189 62.4578 94.8189 62.3769C94.8189 62.2959 94.8189 62.215 94.8189 62.1341C94.8189 62.0531 94.8189 61.9722 94.8189 61.8912C94.8189 61.8103 94.8189 61.7294 94.8189 61.6485C94.8189 61.5675 94.8189 61.4866 94.8189 61.4057C94.8189 61.3248 94.8189 61.2439 94.8189 61.163C94.8189 61.0821 94.8189 61.0012 94.8189 60.9203C94.8189 60.8394 94.8189 60.7585 94.8189 60.6776C94.8189 60.5967 94.8189 60.5159 94.8189 60.435C94.8189 60.3541 94.8189 60.2733 94.8189 60.1924C94.8189 60.1116 94.8189 60.0307 94.8189 59.9499C94.8189 59.8691 94.8189 59.7882 94.8189 59.7074C94.8189 59.6266 94.8189 59.5458 94.8189 59.465C94.8189 59.3842 94.8189 59.3034 94.8189 59.2226C94.8189 59.1418 94.8189 59.0611 94.8189 58.9803C94.8189 58.8996 94.8189 58.8188 94.8189 58.7381C94.8189 58.6573 94.8189 58.5766 94.8189 58.4959C94.8189 58.4152 94.8189 58.3345 94.8189 58.2538C94.8189 58.1731 94.8189 58.0924 94.8189 58.0118C94.8189 57.9311 94.8189 57.8505 94.8189 57.7698C94.8189 57.6892 94.8189 57.6086 94.8189 57.5279C94.8189 57.4473 94.8189 57.3667 94.8189 57.2862C94.8189 57.2056 94.8189 57.125 94.8189 57.0445C94.8189 56.9639 94.8189 56.8834 94.8189 56.8029C94.8189 56.7223 94.8189 56.6418 94.8189 56.5613C94.8189 56.4809 94.8189 56.4004 94.8189 56.3199C94.8189 56.2395 94.8189 56.159 94.8189 56.0786C94.8189 55.9982 94.8189 55.9178 94.8189 55.8374C94.8189 55.757 94.8189 55.6767 94.8189 55.5963C94.8189 55.516 94.8189 55.4356 94.8189 55.3553C94.8189 55.275 94.8189 55.1947 94.8189 55.1144C94.8189 55.0342 94.8189 54.9539 94.8189 54.8737C94.8189 54.7935 94.8189 54.7132 94.8189 54.6331C94.8189 54.5529 94.8189 54.4727 94.8189 54.3925C94.8189 54.3124 94.8189 54.2323 94.8189 54.1522C94.8189 54.0721 94.8189 53.992 94.8189 53.9119C94.8189 53.8319 94.8189 53.7518 94.8189 53.6718C94.8189 53.5918 94.8189 53.5118 94.8189 53.4318C94.8189 53.3519 94.8189 53.2719 94.8189 53.192C94.8189 53.1121 94.8189 53.0322 94.8189 52.9523C94.8189 52.8725 94.8189 52.7926 94.8189 52.7128C94.8189 52.633 94.8189 52.5532 94.8189 52.4734C94.8189 52.3937 94.8189 52.3139 94.8189 52.2342C94.8189 52.1545 94.8189 52.0748 94.8189 51.9951C94.8189 51.9155 94.8189 51.8359 94.8189 51.7562C94.8189 51.6766 94.8189 51.5971 94.8189 51.5175C94.8189 51.438 94.8189 51.3584 94.8189 51.279C94.8189 51.1995 94.8189 51.12 94.8189 51.0406C94.8189 50.9611 94.8189 50.8817 94.8189 50.8024C94.8189 50.723 94.8189 50.6436 94.8189 50.5643C94.8189 50.485 94.8189 50.4057 94.8189 50.3265C94.8189 50.2472 94.8189 50.168 94.8189 50.0888C94.8189 50.0096 94.8189 49.9305 94.8189 49.8513C94.8189 49.7722 94.8189 49.6931 94.8189 49.6141C94.8189 49.535 94.8189 49.456 94.8189 49.377C94.8189 49.298 94.8189 49.219 94.8189 49.1401C94.8189 49.0612 94.8189 48.9823 94.8189 48.9034C94.8189 48.8246 94.8189 48.7458 94.8189 48.667C94.8189 48.5882 94.8189 48.5094 94.8189 48.4307C94.8189 48.352 94.8189 48.2733 94.8189 48.1947C94.8189 48.116 94.8189 48.0374 94.8189 47.9589C94.8189 47.8803 94.8189 47.8018 94.8189 47.7233C94.8189 47.6448 94.8189 47.5663 94.8189 47.4879C94.8189 47.4095 94.8189 47.3311 94.8189 47.2527C94.8189 47.1744 94.8189 47.0961 94.8189 47.0178C94.8189 46.9395 94.8189 46.8613 94.8189 46.7831C94.8189 46.7049 94.8189 46.6268 94.8189 46.5487C94.8189 46.4706 94.8189 46.3925 94.8189 46.3145C94.8189 46.2365 94.8189 46.1585 94.8189 46.0805C94.8189 46.0026 94.8189 45.9247 94.8189 45.8468C94.8189 45.769 94.8189 45.6912 94.8189 45.6134C94.8189 45.5356 94.8189 45.4579 94.8189 45.3802C94.8189 45.3025 94.8189 45.2248 94.8189 45.1472C94.8189 45.0696 94.8189 44.9921 94.8189 44.9146C94.8189 44.8371 94.8189 44.7596 94.8189 44.6822C94.8189 44.6047 94.8189 44.5274 94.8189 44.45C94.8189 44.3727 94.8189 44.2954 94.8189 44.2181C94.8189 44.1409 94.8189 44.0637 94.8189 43.9866C94.8189 43.9094 94.8189 43.8323 94.8189 43.7552C94.8189 43.6782 94.8189 43.6012 94.8189 43.5242C94.8189 43.4473 94.8189 43.3703 94.8189 43.2935C94.8189 43.2166 94.8189 43.1398 94.8189 43.063C94.8189 42.9863 94.8189 42.9095 94.8189 42.8329C94.8189 42.7562 94.8189 42.6796 94.8189 42.603C94.8189 42.5264 94.8189 42.4499 94.8189 42.3734C94.8189 42.297 94.8189 42.2205 94.8189 42.1442C94.8189 42.0678 94.8189 41.9915 94.8189 41.9152C94.8189 41.839 94.8189 41.7627 94.8189 41.6866C94.8189 41.6104 94.8189 41.5343 94.8189 41.4583C94.8189 41.3822 94.8189 41.3062 94.8189 41.2302C94.8189 41.1543 94.8189 41.0784 94.8189 41.0026C94.8189 40.9267 94.8189 40.8509 94.8189 40.7752C94.8189 40.6995 94.8189 40.6238 94.8189 40.5481C94.8189 40.4725 94.8189 40.397 94.8189 40.3214C94.8189 40.2459 94.8189 40.1705 94.8189 40.0951C94.8189 40.0197 94.8189 39.9443 94.8189 39.869C94.8189 39.7937 94.8189 39.7185 94.8189 39.6433C94.8189 39.5682 94.8189 39.493 94.8189 39.418C94.8189 39.3429 94.8189 39.2679 94.8189 39.193C94.8189 39.118 94.8189 39.0432 94.8189 38.9683C94.8189 38.8935 94.8189 38.8188 94.8189 38.744C94.8189 38.6693 94.8189 38.5947 94.8189 38.5201C94.8189 38.4455 94.8189 38.371 94.8189 38.2965C94.8189 38.2221 94.8189 38.1477 94.8189 38.0733C94.8189 37.999 94.8189 37.9247 94.8189 37.8505C94.8189 37.7763 94.8189 37.7021 94.8189 37.628C94.8189 37.5539 94.8189 37.4799 94.8189 37.4059C94.8189 37.332 94.8189 37.2581 94.8189 37.1842C94.8189 37.1104 94.8189 37.0366 94.8189 36.9629C94.8189 36.8892 94.8189 36.8155 94.8189 36.7419C94.8189 36.6684 94.8189 36.5948 94.8189 36.5214C94.8189 36.4479 94.8189 36.3745 94.8189 36.3012C94.8189 36.2279 94.8189 36.1546 94.8189 36.0814C94.8189 36.0083 94.8189 35.9351 94.8189 35.8621C94.8189 35.789 94.8189 35.716 94.8189 35.6431C94.8189 35.5702 94.8189 35.4973 94.8189 35.4246C94.8189 35.3518 94.8189 35.2791 94.8189 35.2064C94.8189 35.1338 94.8189 35.0612 94.8189 34.9887C94.8189 34.9162 94.8189 34.8437 94.8189 34.7713C94.8189 34.699 94.8189 34.6267 94.8189 34.5544C94.8189 34.4822 94.8189 34.4101 94.8189 34.338C94.8189 34.2659 94.8189 34.1939 94.8189 34.1219C94.8189 34.05 94.8189 33.9781 94.8189 33.9063C94.8189 33.8345 94.8189 33.7628 94.8189 33.6911C94.8189 33.6195 94.8189 33.5479 94.8189 33.4764C94.8189 33.4049 94.8189 33.3334 94.8189 33.2621C94.8189 33.1907 94.8189 33.1194 94.8189 33.0482C94.8189 32.977 94.8189 32.9058 94.8189 32.8348C94.8189 32.7637 94.8189 32.6927 94.8189 32.6218C94.8189 32.5509 94.8189 32.4801 94.8189 32.4093C94.8189 32.3385 94.8189 32.2679 94.8189 32.1972C94.8189 32.1266 94.8189 32.0561 94.8189 31.9857C94.8189 31.9152 94.8189 31.8448 94.8189 31.7745C94.8189 31.7042 94.8189 31.634 94.8189 31.5639C94.8189 31.4937 94.8189 31.4237 94.8189 31.3537C94.8189 31.2837 94.8189 31.2138 94.8189 31.144C94.8189 31.0741 94.8189 31.0044 94.8189 30.9347C94.8189 30.8651 94.8189 30.7955 94.8189 30.726C94.8189 30.6565 94.8189 30.587 94.8189 30.5177C94.8189 30.4484 94.8189 30.3791 94.8189 30.3099C94.8189 30.2407 94.8189 30.1716 94.8189 30.1026C94.8189 30.0336 94.8189 29.9647 94.8189 29.8958C94.8189 29.827 94.8189 29.7582 94.8189 29.6895C94.8189 29.6209 94.8189 29.5523 94.8189 29.4837C94.8189 29.4152 94.8189 29.3468 94.8189 29.2785C94.8189 29.2101 94.8189 29.1418 94.8189 29.0737C94.8189 29.0055 94.8189 28.9374 94.8189 28.8694C94.8189 28.8014 94.8189 28.7335 94.8189 28.6657C94.8189 28.5978 94.8189 28.5301 94.8189 28.4624C94.8189 28.3948 94.8189 28.3272 94.8189 28.2597C94.8189 28.1922 94.8189 28.1248 94.8189 28.0575C94.8189 27.9902 94.8189 27.923 94.8189 27.8559C94.8189 27.7888 94.8189 27.7217 94.8189 27.6548C94.8189 27.5878 94.8189 27.521 94.8189 27.4542C94.8189 27.3874 94.8189 27.3207 94.8189 27.2541C94.8189 27.1875 94.8189 27.121 94.8189 27.0546C94.8189 26.9882 94.8189 26.9219 94.8189 26.8557C94.8189 26.7895 94.8189 26.7233 94.8189 26.6573C94.8189 26.5912 94.8189 26.5253 94.8189 26.4594C94.8189 26.3936 94.8189 26.3278 94.8189 26.2621C94.8189 26.1965 94.8189 26.1309 94.8189 26.0654C94.8189 25.9999 94.8189 25.9345 94.8189 25.8692C94.8189 25.8039 94.8189 25.7387 94.8189 25.6736C94.8189 25.6085 94.8189 25.5435 94.8189 25.4786C94.8189 25.4137 94.8189 25.3489 94.8189 25.2841C94.8189 25.2194 94.8189 25.1548 94.8189 25.0903C94.8189 25.0257 94.8189 24.9613 94.8189 24.897C94.8189 24.8326 94.8189 24.7684 94.8189 24.7042C94.8189 24.6401 94.8189 24.5761 94.8189 24.5121C94.8189 24.4482 94.8189 24.3843 94.8189 24.3206C94.8189 24.2568 94.8189 24.1932 94.8189 24.1296C94.8189 24.0661 94.8189 24.0026 94.8189 23.9393C94.8189 23.876 94.8189 23.8127 94.8189 23.7496C94.8189 23.6864 94.8189 23.6234 94.8189 23.5604C94.8189 23.4975 94.8189 23.4346 94.8189 23.3719C94.8189 23.3092 94.8189 23.2465 94.8189 23.184C94.8189 23.1214 94.8189 23.059 94.8189 22.9967C94.8189 22.9343 94.8189 22.8721 94.8189 22.81C94.8189 22.7479 94.8189 22.6858 94.8189 22.6239C94.8189 22.562 94.8189 22.5002 94.8189 22.4385C94.8189 22.3768 94.8189 22.3152 94.8189 22.2537C94.8189 22.1922 94.8189 22.1308 94.8189 22.0695C94.8189 22.0082 94.8189 21.947 94.8189 21.886C94.8189 21.8249 94.8189 21.7639 94.8189 21.7031C94.8189 21.6422 94.8189 21.5815 94.8189 21.5208C94.8189 21.4602 94.8189 21.3996 94.8189 21.3392C94.8189 21.2788 94.8189 21.2185 94.8189 21.1582C94.8189 21.098 94.8189 21.0379 94.8189 20.9779C94.8189 20.9179 94.8189 20.8581 94.8189 20.7983C94.8189 20.7385 94.8189 20.6788 94.8189 20.6193C94.8189 20.5597 94.8189 20.5003 94.8189 20.441C94.8189 20.3816 94.8189 20.3224 94.8189 20.2633C94.8189 20.2042 94.8189 20.1452 94.8189 20.0863C94.8189 20.0274 94.8189 19.9686 94.8189 19.91C94.8189 19.8513 94.8189 19.7928 94.8189 19.7343C94.8189 19.6759 94.8189 19.6176 94.8189 19.5594C94.8189 19.5012 94.8189 19.4431 94.8189 19.3851C94.8189 19.3271 94.8189 19.2692 94.8189 19.2115C94.8189 19.1537 94.8189 19.0961 94.8189 19.0386C94.8189 18.9811 94.8189 18.9237 94.8189 18.8664C94.8189 18.8091 94.8189 18.7519 94.8189 18.6949C94.8189 18.6378 94.8189 18.5809 94.8189 18.5241C94.8189 18.4672 94.8189 18.4105 94.8189 18.354C94.8189 18.2974 94.8189 18.2409 94.8189 18.1846C94.8189 18.1282 94.8189 18.072 94.8189 18.0159C94.8189 17.9598 94.8189 17.9038 94.8189 17.8479C94.8189 17.792 94.8189 17.7363 94.8189 17.6806C94.8189 17.625 94.8189 17.5695 94.8189 17.5141C94.8189 17.4587 94.8189 17.4034 94.8189 17.3483C94.8189 17.2931 94.8189 17.2381 94.8189 17.1832C94.8189 17.1283 94.8189 17.0735 94.8189 17.0189C94.8189 16.9642 94.8189 16.9097 94.8189 16.8552C94.8189 16.8008 94.8189 16.7465 94.8189 16.6924C94.8189 16.6382 94.8189 16.5842 94.8189 16.5302C94.8189 16.4763 94.8189 16.4225 94.8189 16.3688C94.8189 16.3152 94.8189 16.2616 94.8189 16.2082C94.8189 16.1548 94.8189 16.1015 94.8189 16.0483C94.8189 15.9951 94.8189 15.9421 94.8189 15.8892C94.8189 15.8363 94.8189 15.7835 94.8189 15.7308C94.8189 15.6781 94.8189 15.6256 94.8189 15.5732C94.8189 15.5208 94.8189 15.4685 94.8189 15.4163C94.8189 15.3642 94.8189 15.3122 94.8189 15.2603C94.8189 15.2084 94.8189 15.1566 94.8189 15.105C94.8189 15.0533 94.8189 15.0018 94.8189 14.9504C94.8189 14.899 94.8189 14.8478 94.8189 14.7967C94.8189 14.7456 94.8189 14.6946 94.8189 14.6437C94.8189 14.5929 94.8189 14.5421 94.8189 14.4915C94.8189 14.4409 94.8189 14.3905 94.8189 14.3401C94.8189 14.2898 94.8189 14.2396 94.8189 14.1895C94.8189 14.1395 94.8189 14.0895 94.8189 14.0397C94.8189 13.9899 94.8189 13.9403 94.8189 13.8907C94.8189 13.8412 94.8189 13.7918 94.8189 13.7425C94.8189 13.6933 94.8189 13.6441 94.8189 13.5951C94.8189 13.5462 94.8189 13.4973 94.8189 13.4486C94.8189 13.3998 94.8189 13.3513 94.8189 13.3028C94.8189 13.2543 94.8189 13.206 94.8189 13.1579C94.8189 13.1097 94.8189 13.0616 94.8189 13.0137C94.8189 12.9658 94.8189 12.918 94.8189 12.8704C94.8189 12.8228 94.8189 12.7753 94.8189 12.7279C94.8189 12.6806 94.8189 12.6334 94.8189 12.5863C94.8189 12.5392 94.8189 12.4923 94.8189 12.4455C94.8189 12.3987 94.8189 12.352 94.8189 12.3055C94.8189 12.259 94.8189 12.2126 94.8189 12.1664C94.8189 12.1201 94.8189 12.074 94.8189 12.0281C94.8189 11.9821 94.8189 11.9363 94.8189 11.8906C94.8189 11.845 94.8189 11.7994 94.8189 11.754C94.8189 11.7087 94.8189 11.6634 94.8189 11.6183C94.8189 11.5732 94.8189 11.5282 94.8189 11.4834C94.8189 11.4386 94.8189 11.3939 94.8189 11.3494C94.8189 11.3049 94.8189 11.2605 94.8189 11.2163C94.8189 11.172 94.8189 11.1279 94.8189 11.084C94.8189 11.04 94.8189 10.9962 94.8189 10.9526C94.8189 10.9089 94.8189 10.8654 94.8189 10.822C94.8189 10.7787 94.8189 10.7355 94.8189 10.6924C94.8189 10.6493 94.8189 10.6064 94.8189 10.5636C94.8189 10.5208 94.8189 10.4782 94.8189 10.4357C94.8189 10.3932 94.8189 10.3509 94.8189 10.3087C94.8189 10.2665 94.8189 10.2245 94.8189 10.1826C94.8189 10.1407 94.8189 10.099 94.8189 10.0574C94.8189 10.0158 94.8189 9.97437 94.8189 9.93309C94.8189 9.8918 94.8189 9.85066 94.8189 9.80968C94.8189 9.76869 94.8189 9.72786 94.8189 9.68717C94.8189 9.64649 94.8189 9.60596 94.8189 9.56558C94.8189 9.5252 94.8189 9.48497 94.8189 9.4449C94.8189 9.40482 94.8189 9.3649 94.8189 9.32513C94.8189 9.28537 94.8189 9.24575 94.8189 9.20629C94.8189 9.16683 94.8189 9.12752 94.8189 9.08837C94.8189 9.04921 94.8189 9.01022 94.8189 8.97137C94.8189 8.93253 94.8189 8.89384 94.8189 8.85531C94.8189 8.81677 94.8189 8.7784 94.8189 8.74018C94.8189 8.70196 94.8189 8.66389 94.8189 8.62598C94.8189 8.58807 94.8189 8.55032 94.8189 8.51273C94.8189 8.47513 94.8189 8.4377 94.8189 8.40042C94.8189 8.36314 94.8189 8.32602 94.8189 8.28905C94.8189 8.25209 94.8189 8.21529 94.8189 8.17864C94.8189 8.142 94.8189 8.10551 94.8189 8.06918C94.8189 8.03286 94.8189 7.99669 94.8189 7.96068C94.8189 7.92468 94.8189 7.88883 94.8189 7.85314C94.8189 7.81746 94.8189 7.78193 94.8189 7.74657C94.8189 7.7112 94.8189 7.676 94.8189 7.64096C94.8189 7.60592 94.8189 7.57104 94.8189 7.53632C94.8189 7.50161 94.8189 7.46705 94.8189 7.43266C94.8189 7.39827 94.8189 7.36404 94.8189 7.32998C94.8189 7.29591 94.8189 7.26201 94.8189 7.22827C94.8189 7.19454 94.8189 7.16096 94.8189 7.12756C94.8189 7.09415 94.8189 7.0609 94.8189 7.02783C94.8189 6.99475 94.8189 6.96183 94.8189 6.92909C94.8189 6.89634 94.8189 6.86376 94.8189 6.83135C94.8189 6.79893 94.8189 6.76668 94.8189 6.7346C94.8189 6.70252 94.8189 6.67061 94.8189 6.63886C94.8189 6.60711 94.8189 6.57553 94.8189 6.54412C94.8189 6.51271 94.8189 6.48147 94.8189 6.45039C94.8189 6.41932 94.8189 6.38841 94.8189 6.35768C94.8189 6.32694 94.8189 6.29638 94.8189 6.26598C94.8189 6.23558 94.8189 6.20535 94.8189 6.1753C94.8189 6.14524 94.8189 6.11535 94.8189 6.08564C94.8189 6.05592 94.8189 6.02638 94.8189 5.99701C94.8189 5.96763 94.8189 5.93843 94.8189 5.9094C94.8189 5.88037 94.8189 5.85152 94.8189 5.82283C94.8189 5.79415 94.8189 5.76564 94.8189 5.7373C94.8189 5.70896 94.8189 5.68079 94.8189 5.6528C94.8189 5.62481 94.8189 5.59699 94.8189 5.56935C94.8189 5.54171 94.8189 5.51424 94.8189 5.48695C94.8189 5.45965 94.8189 5.43253 94.8189 5.40559C94.8189 5.37865 94.8189 5.35188 94.8189 5.32529C94.8189 5.2987 94.8189 5.27228 94.8189 5.24604C94.8189 5.21981 94.8189 5.19374 94.8189 5.16786C94.8189 5.14198 94.8189 5.11627 94.8189 5.09074C94.8189 5.06521 94.8189 5.03986 94.8189 5.01468C94.8189 4.98951 94.8189 4.96452 94.8189 4.9397C94.8189 4.91488 94.8189 4.89025 94.8189 4.86579C94.8189 4.84133 94.8189 4.81706 94.8189 4.79296C94.8189 4.76886 94.8189 4.74494 94.8189 4.72121C94.8189 4.69747 94.8189 4.67391 94.8189 4.65054C94.8189 4.62716 94.8189 4.60397 94.8189 4.58096C94.8189 4.55795 94.8189 4.53512 94.8189 4.51247C94.8189 4.48982 94.8189 4.46736 94.8189 4.44507C94.8189 4.42279 94.8189 4.40069 94.8189 4.37878C94.8189 4.35686 94.8189 4.33513 94.8189 4.31358C94.8189 4.29203 94.8189 4.27067 94.8189 4.24949C94.8189 4.22831 94.8189 4.20732 94.8189 4.18651C94.8189 4.1657 94.8189 4.14507 94.8189 4.12464C94.8189 4.1042 94.8189 4.08394 94.8189 4.06388C94.8189 4.04381 94.8189 4.02393 94.8189 4.00424C94.8189 3.98455 94.8189 3.96504 94.8189 3.94572C94.8189 3.92641 94.8189 3.90728 94.8189 3.88833C94.8189 3.86939 94.8189 3.85064 94.8189 3.83207C94.8189 3.8135 94.8189 3.79513 94.8189 3.77694C94.8189 3.75875 94.8189 3.74075 94.8189 3.72295C94.8189 3.70514 94.8189 3.68752 94.8189 3.67009C94.8189 3.65266 94.8189 3.63542 94.8189 3.61838C94.8189 3.60133 94.8189 3.58447 94.8189 3.56781C94.8189 3.55114 94.8189 3.53467 94.8189 3.51839C94.8189 3.50211 94.8189 3.48602 94.8189 3.47012C94.8189 3.45423 94.8189 3.43852 94.8189 3.42301C94.8189 3.4075 94.8189 3.39218 94.8189 3.37706C94.8189 3.36194 94.8189 3.34701 94.8189 3.33227C94.8189 3.31754 94.8189 3.303 94.8189 3.28865C94.8189 3.27431 94.8189 3.26016 94.8189 3.2462C94.8189 3.23225 94.8189 3.21849 94.8189 3.20492C94.8189 3.19136 94.8189 3.17799 94.8189 3.16482C94.8189 3.15165 94.8189 3.13867 94.8189 3.1259C94.8189 3.11312 94.8189 3.10054 94.8189 3.08816C94.8189 3.07578 94.8189 3.06359 94.8189 3.05161C94.8189 3.03962 94.8189 3.02783 94.8189 3.01625C94.8189 3.00466 94.8189 2.99327 94.8189 2.98208C94.8189 2.97089 94.8189 2.9599 94.8189 2.94911C94.8189 2.93832 94.8189 2.92773 94.8189 2.91734C94.8189 2.90695 94.8189 2.89676 94.8189 2.88677C94.8189 2.87678 94.8189 2.867 94.8189 2.85741C94.8189 2.84783 94.8189 2.83844 94.8189 2.82926C94.8189 2.82008 94.8189 2.81111 94.8189 2.80233C94.8189 2.79355 94.8189 2.78498 94.8189 2.77661C94.8189 2.76825 94.8189 2.76008 94.8189 2.75212C94.8189 2.74416 94.8189 2.7364 94.8189 2.72885C94.8189 2.7213 94.8189 2.71395 94.8189 2.70681C94.8189 2.69966 94.8189 2.69273 94.8189 2.68599C94.8189 2.67926 94.8189 2.67274 94.8189 2.66642C94.8189 2.6601 94.8189 2.65399 94.8189 2.64808C94.8189 2.64217 94.8189 2.63647 94.8189 2.63098C94.8189 2.62549 94.8189 2.62021 94.8189 2.61513C94.8189 2.61005 94.8189 2.60519 94.8189 2.60053C94.8189 2.59587 94.8189 2.59142 94.8189 2.58718C94.8189 2.58293 94.8189 2.5789 94.8189 2.57508C94.8189 2.57126 94.8189 2.56765 94.8189 2.56424C94.8189 2.56084 94.8189 2.55765 94.8189 2.55467C94.8189 2.55169 94.8189 2.54892 94.8189 2.54636C94.8189 2.5438 94.8189 2.54145 94.8189 2.53932C94.8189 2.53718 94.8189 2.53526 94.8189 2.53355C94.8189 2.53184 94.8189 2.53034 94.8189 2.52906C94.8189 2.52777 94.8189 2.5267 94.8189 2.52584C94.8189 2.52499 94.8189 2.52434 94.8189 2.52391C94.8189 2.52348 94.8189 2.52327 94.5107 2.52327ZM94.5107 94.657L2.06889 94.657L2.06889 95.2733L94.5107 95.2733L94.5107 94.657Z" fill="#660066"/>
</svg>
