<svg width="118" height="101" viewBox="0 0 118 101" fill="none" xmlns="http://www.w3.org/2000/svg">
<path opacity="0.4" d="M0.542136 1.89536C0.542136 2.80299 1.27792 3.53877 2.18555 3.53877C3.09318 3.53877 3.82896 2.80299 3.82896 1.89536C3.82896 0.987724 3.09318 0.251944 2.18555 0.251944C1.27792 0.251944 0.542136 0.987724 0.542136 1.89536ZM114.554 98.6512C114.554 99.5588 115.29 100.295 116.197 100.295C117.105 100.295 117.841 99.5588 117.841 98.6512C117.841 97.7435 117.105 97.0078 116.197 97.0078C115.29 97.0078 114.554 97.7435 114.554 98.6512ZM2.18555 1.89536C2.18555 2.20349 2.18566 2.20349 2.1859 2.20349C2.18614 2.20349 2.18649 2.20349 2.18696 2.20349C2.18743 2.20349 2.18802 2.20349 2.18872 2.20349C2.18943 2.20349 2.19025 2.20349 2.19119 2.20349C2.19213 2.20349 2.19319 2.20349 2.19436 2.20349C2.19554 2.20349 2.19683 2.20349 2.19824 2.20349C2.19964 2.20349 2.20117 2.20349 2.20281 2.20349C2.20445 2.20349 2.2062 2.20349 2.20808 2.20349C2.20995 2.20349 2.21194 2.20349 2.21405 2.20349C2.21615 2.20349 2.21837 2.20349 2.22071 2.20349C2.22305 2.20349 2.2255 2.20349 2.22807 2.20349C2.23064 2.20349 2.23332 2.20349 2.23612 2.20349C2.23892 2.20349 2.24184 2.20349 2.24487 2.20349C2.2479 2.20349 2.25104 2.20349 2.2543 2.20349C2.25756 2.20349 2.26094 2.20349 2.26443 2.20349C2.26792 2.20349 2.27152 2.20349 2.27524 2.20349C2.27896 2.20349 2.2828 2.20349 2.28674 2.20349C2.29069 2.20349 2.29476 2.20349 2.29893 2.20349C2.30311 2.20349 2.3074 2.20349 2.31181 2.20349C2.31621 2.20349 2.32073 2.20349 2.32536 2.20349C2.33 2.20349 2.33474 2.20349 2.3396 2.20349C2.34446 2.20349 2.34944 2.20349 2.35452 2.20349C2.35961 2.20349 2.36481 2.20349 2.37012 2.20349C2.37544 2.20349 2.38086 2.20349 2.3864 2.20349C2.39194 2.20349 2.39759 2.20349 2.40336 2.20349C2.40912 2.20349 2.415 2.20349 2.42099 2.20349C2.42698 2.20349 2.43308 2.20349 2.4393 2.20349C2.44551 2.20349 2.45184 2.20349 2.45828 2.20349C2.46472 2.20349 2.47127 2.20349 2.47793 2.20349C2.48459 2.20349 2.49137 2.20349 2.49825 2.20349C2.50514 2.20349 2.51214 2.20349 2.51925 2.20349C2.52636 2.20349 2.53358 2.20349 2.54091 2.20349C2.54824 2.20349 2.55569 2.20349 2.56324 2.20349C2.57079 2.20349 2.57846 2.20349 2.58624 2.20349C2.59401 2.20349 2.6019 2.20349 2.6099 2.20349C2.61789 2.20349 2.626 2.20349 2.63422 2.20349C2.64244 2.20349 2.65077 2.20349 2.65921 2.20349C2.66765 2.20349 2.6762 2.20349 2.68486 2.20349C2.69352 2.20349 2.70229 2.20349 2.71116 2.20349C2.72004 2.20349 2.72903 2.20349 2.73813 2.20349C2.74723 2.20349 2.75644 2.20349 2.76575 2.20349C2.77507 2.20349 2.7845 2.20349 2.79403 2.20349C2.80357 2.20349 2.81321 2.20349 2.82297 2.20349C2.83272 2.20349 2.84258 2.20349 2.85256 2.20349C2.86253 2.20349 2.87261 2.20349 2.8828 2.20349C2.89299 2.20349 2.90328 2.20349 2.91369 2.20349C2.92409 2.20349 2.93461 2.20349 2.94523 2.20349C2.95585 2.20349 2.96658 2.20349 2.97742 2.20349C2.98826 2.20349 2.9992 2.20349 3.01026 2.20349C3.02131 2.20349 3.03247 2.20349 3.04374 2.20349C3.05501 2.20349 3.06638 2.20349 3.07787 2.20349C3.08935 2.20349 3.10094 2.20349 3.11264 2.20349C3.12434 2.20349 3.13614 2.20349 3.14805 2.20349C3.15996 2.20349 3.17198 2.20349 3.18411 2.20349C3.19623 2.20349 3.20846 2.20349 3.2208 2.20349C3.23314 2.20349 3.24559 2.20349 3.25814 2.20349C3.27069 2.20349 3.28334 2.20349 3.29611 2.20349C3.30887 2.20349 3.32174 2.20349 3.33471 2.20349C3.34769 2.20349 3.36077 2.20349 3.37395 2.20349C3.38714 2.20349 3.40043 2.20349 3.41383 2.20349C3.42723 2.20349 3.44073 2.20349 3.45434 2.20349C3.46794 2.20349 3.48166 2.20349 3.49547 2.20349C3.50929 2.20349 3.52322 2.20349 3.53724 2.20349C3.55127 2.20349 3.5654 2.20349 3.57964 2.20349C3.59388 2.20349 3.60822 2.20349 3.62266 2.20349C3.63711 2.20349 3.65166 2.20349 3.66631 2.20349C3.68097 2.20349 3.69572 2.20349 3.71059 2.20349C3.72545 2.20349 3.74042 2.20349 3.75548 2.20349C3.77055 2.20349 3.78573 2.20349 3.80101 2.20349C3.81628 2.20349 3.83166 2.20349 3.84715 2.20349C3.86263 2.20349 3.87822 2.20349 3.89391 2.20349C3.9096 2.20349 3.92539 2.20349 3.94129 2.20349C3.95718 2.20349 3.97318 2.20349 3.98928 2.20349C4.00539 2.20349 4.02159 2.20349 4.0379 2.20349C4.0542 2.20349 4.07061 2.20349 4.08712 2.20349C4.10364 2.20349 4.12025 2.20349 4.13697 2.20349C4.15368 2.20349 4.1705 2.20349 4.18742 2.20349C4.20434 2.20349 4.22136 2.20349 4.23848 2.20349C4.25561 2.20349 4.27283 2.20349 4.29016 2.20349C4.30748 2.20349 4.32491 2.20349 4.34244 2.20349C4.35997 2.20349 4.3776 2.20349 4.39533 2.20349C4.41306 2.20349 4.43089 2.20349 4.44882 2.20349C4.46676 2.20349 4.48479 2.20349 4.50292 2.20349C4.52106 2.20349 4.53929 2.20349 4.55763 2.20349C4.57596 2.20349 4.5944 2.20349 4.61293 2.20349C4.63147 2.20349 4.65011 2.20349 4.66884 2.20349C4.68758 2.20349 4.70641 2.20349 4.72535 2.20349C4.74428 2.20349 4.76332 2.20349 4.78245 2.20349C4.80159 2.20349 4.82082 2.20349 4.84016 2.20349C4.85949 2.20349 4.87892 2.20349 4.89845 2.20349C4.91799 2.20349 4.93762 2.20349 4.95735 2.20349C4.97708 2.20349 4.99691 2.20349 5.01683 2.20349C5.03676 2.20349 5.05679 2.20349 5.07691 2.20349C5.09704 2.20349 5.11726 2.20349 5.13758 2.20349C5.1579 2.20349 5.17832 2.20349 5.19884 2.20349C5.21936 2.20349 5.23997 2.20349 5.26069 2.20349C5.2814 2.20349 5.30221 2.20349 5.32312 2.20349C5.34403 2.20349 5.36504 2.20349 5.38614 2.20349C5.40725 2.20349 5.42845 2.20349 5.44975 2.20349C5.47105 2.20349 5.49245 2.20349 5.51394 2.20349C5.53543 2.20349 5.55702 2.20349 5.57871 2.20349C5.6004 2.20349 5.62218 2.20349 5.64406 2.20349C5.66594 2.20349 5.68792 2.20349 5.70999 2.20349C5.73207 2.20349 5.75424 2.20349 5.7765 2.20349C5.79877 2.20349 5.82113 2.20349 5.84359 2.20349C5.86605 2.20349 5.8886 2.20349 5.91125 2.20349C5.93391 2.20349 5.95665 2.20349 5.97949 2.20349C6.00233 2.20349 6.02527 2.20349 6.0483 2.20349C6.07134 2.20349 6.09446 2.20349 6.11769 2.20349C6.14091 2.20349 6.16423 2.20349 6.18764 2.20349C6.21105 2.20349 6.23456 2.20349 6.25817 2.20349C6.28177 2.20349 6.30547 2.20349 6.32926 2.20349C6.35305 2.20349 6.37694 2.20349 6.40092 2.20349C6.4249 2.20349 6.44897 2.20349 6.47314 2.20349C6.49731 2.20349 6.52158 2.20349 6.54593 2.20349C6.57029 2.20349 6.59474 2.20349 6.61929 2.20349C6.64383 2.20349 6.66847 2.20349 6.6932 2.20349C6.71793 2.20349 6.74276 2.20349 6.76768 2.20349C6.7926 2.20349 6.81761 2.20349 6.84271 2.20349C6.86782 2.20349 6.89302 2.20349 6.91831 2.20349C6.9436 2.20349 6.96898 2.20349 6.99446 2.20349C7.01994 2.20349 7.04551 2.20349 7.07117 2.20349C7.09683 2.20349 7.12258 2.20349 7.14843 2.20349C7.17428 2.20349 7.20022 2.20349 7.22625 2.20349C7.25228 2.20349 7.2784 2.20349 7.30461 2.20349C7.33083 2.20349 7.35713 2.20349 7.38353 2.20349C7.40993 2.20349 7.43642 2.20349 7.463 2.20349C7.48958 2.20349 7.51625 2.20349 7.54302 2.20349C7.56978 2.20349 7.59663 2.20349 7.62358 2.20349C7.65053 2.20349 7.67756 2.20349 7.70469 2.20349C7.73182 2.20349 7.75903 2.20349 7.78634 2.20349C7.81365 2.20349 7.84105 2.20349 7.86854 2.20349C7.89603 2.20349 7.92361 2.20349 7.95128 2.20349C7.97895 2.20349 8.00671 2.20349 8.03456 2.20349C8.06241 2.20349 8.09035 2.20349 8.11838 2.20349C8.14641 2.20349 8.17453 2.20349 8.20274 2.20349C8.23095 2.20349 8.25925 2.20349 8.28763 2.20349C8.31602 2.20349 8.3445 2.20349 8.37306 2.20349C8.40163 2.20349 8.43029 2.20349 8.45903 2.20349C8.48777 2.20349 8.51661 2.20349 8.54553 2.20349C8.57445 2.20349 8.60346 2.20349 8.63256 2.20349C8.66166 2.20349 8.69085 2.20349 8.72012 2.20349C8.7494 2.20349 8.77876 2.20349 8.80821 2.20349C8.83767 2.20349 8.86721 2.20349 8.89683 2.20349C8.92646 2.20349 8.95618 2.20349 8.98598 2.20349C9.01578 2.20349 9.04567 2.20349 9.07565 2.20349C9.10563 2.20349 9.1357 2.20349 9.16585 2.20349C9.196 2.20349 9.22624 2.20349 9.25657 2.20349C9.2869 2.20349 9.31731 2.20349 9.34781 2.20349C9.37831 2.20349 9.4089 2.20349 9.43958 2.20349C9.47025 2.20349 9.50101 2.20349 9.53186 2.20349C9.56271 2.20349 9.59364 2.20349 9.62466 2.20349C9.65568 2.20349 9.68679 2.20349 9.71798 2.20349C9.74917 2.20349 9.78045 2.20349 9.81181 2.20349C9.84318 2.20349 9.87463 2.20349 9.90616 2.20349C9.9377 2.20349 9.96932 2.20349 10.001 2.20349C10.0327 2.20349 10.0645 2.20349 10.0964 2.20349C10.1283 2.20349 10.1602 2.20349 10.1923 2.20349C10.2243 2.20349 10.2565 2.20349 10.2887 2.20349C10.3209 2.20349 10.3532 2.20349 10.3856 2.20349C10.418 2.20349 10.4504 2.20349 10.483 2.20349C10.5155 2.20349 10.5482 2.20349 10.5809 2.20349C10.6136 2.20349 10.6464 2.20349 10.6793 2.20349C10.7122 2.20349 10.7452 2.20349 10.7782 2.20349C10.8113 2.20349 10.8444 2.20349 10.8777 2.20349C10.9109 2.20349 10.9442 2.20349 10.9776 2.20349C11.011 2.20349 11.0445 2.20349 11.078 2.20349C11.1116 2.20349 11.1452 2.20349 11.1789 2.20349C11.2127 2.20349 11.2465 2.20349 11.2804 2.20349C11.3143 2.20349 11.3482 2.20349 11.3823 2.20349C11.4163 2.20349 11.4505 2.20349 11.4847 2.20349C11.5189 2.20349 11.5532 2.20349 11.5876 2.20349C11.622 2.20349 11.6564 2.20349 11.691 2.20349C11.7255 2.20349 11.7602 2.20349 11.7949 2.20349C11.8296 2.20349 11.8644 2.20349 11.8993 2.20349C11.9341 2.20349 11.9691 2.20349 12.0041 2.20349C12.0392 2.20349 12.0743 2.20349 12.1095 2.20349C12.1447 2.20349 12.1799 2.20349 12.2153 2.20349C12.2507 2.20349 12.2861 2.20349 12.3216 2.20349C12.3572 2.20349 12.3928 2.20349 12.4284 2.20349C12.4641 2.20349 12.4999 2.20349 12.5357 2.20349C12.5716 2.20349 12.6075 2.20349 12.6435 2.20349C12.6795 2.20349 12.7156 2.20349 12.7517 2.20349C12.7879 2.20349 12.8241 2.20349 12.8605 2.20349C12.8968 2.20349 12.9332 2.20349 12.9697 2.20349C13.0061 2.20349 13.0427 2.20349 13.0793 2.20349C13.116 2.20349 13.1527 2.20349 13.1895 2.20349C13.2263 2.20349 13.2632 2.20349 13.3001 2.20349C13.3371 2.20349 13.3741 2.20349 13.4112 2.20349C13.4483 2.20349 13.4855 2.20349 13.5228 2.20349C13.5601 2.20349 13.5974 2.20349 13.6348 2.20349C13.6722 2.20349 13.7098 2.20349 13.7473 2.20349C13.7849 2.20349 13.8226 2.20349 13.8603 2.20349C13.898 2.20349 13.9359 2.20349 13.9737 2.20349C14.0116 2.20349 14.0496 2.20349 14.0876 2.20349C14.1257 2.20349 14.1638 2.20349 14.202 2.20349C14.2402 2.20349 14.2785 2.20349 14.3168 2.20349C14.3552 2.20349 14.3936 2.20349 14.4321 2.20349C14.4706 2.20349 14.5092 2.20349 14.5479 2.20349C14.5865 2.20349 14.6253 2.20349 14.6641 2.20349C14.7029 2.20349 14.7418 2.20349 14.7807 2.20349C14.8197 2.20349 14.8588 2.20349 14.8979 2.20349C14.937 2.20349 14.9762 2.20349 15.0154 2.20349C15.0547 2.20349 15.094 2.20349 15.1335 2.20349C15.1729 2.20349 15.2124 2.20349 15.2519 2.20349C15.2915 2.20349 15.3312 2.20349 15.3709 2.20349C15.4106 2.20349 15.4504 2.20349 15.4903 2.20349C15.5301 2.20349 15.5701 2.20349 15.6101 2.20349C15.6501 2.20349 15.6902 2.20349 15.7304 2.20349C15.7705 2.20349 15.8108 2.20349 15.8511 2.20349C15.8914 2.20349 15.9318 2.20349 15.9722 2.20349C16.0127 2.20349 16.0532 2.20349 16.0938 2.20349C16.1344 2.20349 16.1751 2.20349 16.2159 2.20349C16.2566 2.20349 16.2975 2.20349 16.3384 2.20349C16.3793 2.20349 16.4203 2.20349 16.4613 2.20349C16.5024 2.20349 16.5435 2.20349 16.5847 2.20349C16.6259 2.20349 16.6671 2.20349 16.7085 2.20349C16.7498 2.20349 16.7912 2.20349 16.8327 2.20349C16.8742 2.20349 16.9158 2.20349 16.9574 2.20349C16.999 2.20349 17.0407 2.20349 17.0825 2.20349C17.1243 2.20349 17.1661 2.20349 17.208 2.20349C17.25 2.20349 17.2919 2.20349 17.334 2.20349C17.3761 2.20349 17.4182 2.20349 17.4604 2.20349C17.5026 2.20349 17.5449 2.20349 17.5872 2.20349C17.6296 2.20349 17.672 2.20349 17.7145 2.20349C17.757 2.20349 17.7995 2.20349 17.8422 2.20349C17.8848 2.20349 17.9275 2.20349 17.9703 2.20349C18.013 2.20349 18.0559 2.20349 18.0988 2.20349C18.1417 2.20349 18.1847 2.20349 18.2277 2.20349C18.2708 2.20349 18.3139 2.20349 18.3571 2.20349C18.4003 2.20349 18.4436 2.20349 18.4869 2.20349C18.5302 2.20349 18.5736 2.20349 18.6171 2.20349C18.6606 2.20349 18.7041 2.20349 18.7477 2.20349C18.7913 2.20349 18.835 2.20349 18.8788 2.20349C18.9225 2.20349 18.9663 2.20349 19.0102 2.20349C19.0541 2.20349 19.0981 2.20349 19.1421 2.20349C19.1861 2.20349 19.2302 2.20349 19.2744 2.20349C19.3185 2.20349 19.3628 2.20349 19.4071 2.20349C19.4514 2.20349 19.4957 2.20349 19.5402 2.20349C19.5846 2.20349 19.6291 2.20349 19.6737 2.20349C19.7182 2.20349 19.7629 2.20349 19.8076 2.20349C19.8523 2.20349 19.8971 2.20349 19.9419 2.20349C19.9867 2.20349 20.0316 2.20349 20.0766 2.20349C20.1216 2.20349 20.1666 2.20349 20.2117 2.20349C20.2568 2.20349 20.302 2.20349 20.3473 2.20349C20.3925 2.20349 20.4378 2.20349 20.4832 2.20349C20.5286 2.20349 20.574 2.20349 20.6195 2.20349C20.665 2.20349 20.7106 2.20349 20.7563 2.20349C20.8019 2.20349 20.8476 2.20349 20.8934 2.20349C20.9391 2.20349 20.985 2.20349 21.0309 2.20349C21.0768 2.20349 21.1228 2.20349 21.1688 2.20349C21.2148 2.20349 21.2609 2.20349 21.3071 2.20349C21.3533 2.20349 21.3995 2.20349 21.4458 2.20349C21.4921 2.20349 21.5385 2.20349 21.5849 2.20349C21.6313 2.20349 21.6778 2.20349 21.7244 2.20349C21.7709 2.20349 21.8175 2.20349 21.8642 2.20349C21.9109 2.20349 21.9577 2.20349 22.0045 2.20349C22.0513 2.20349 22.0982 2.20349 22.1451 2.20349C22.1921 2.20349 22.2391 2.20349 22.2861 2.20349C22.3332 2.20349 22.3804 2.20349 22.4275 2.20349C22.4747 2.20349 22.522 2.20349 22.5693 2.20349C22.6167 2.20349 22.6641 2.20349 22.7115 2.20349C22.759 2.20349 22.8065 2.20349 22.854 2.20349C22.9016 2.20349 22.9493 2.20349 22.997 2.20349C23.0447 2.20349 23.0924 2.20349 23.1403 2.20349C23.1881 2.20349 23.236 2.20349 23.284 2.20349C23.3319 2.20349 23.3799 2.20349 23.428 2.20349C23.4761 2.20349 23.5242 2.20349 23.5724 2.20349C23.6206 2.20349 23.6689 2.20349 23.7172 2.20349C23.7655 2.20349 23.8139 2.20349 23.8624 2.20349C23.9108 2.20349 23.9593 2.20349 24.0079 2.20349C24.0565 2.20349 24.1051 2.20349 24.1538 2.20349C24.2025 2.20349 24.2513 2.20349 24.3001 2.20349C24.3489 2.20349 24.3978 2.20349 24.4467 2.20349C24.4957 2.20349 24.5447 2.20349 24.5937 2.20349C24.6428 2.20349 24.6919 2.20349 24.7411 2.20349C24.7903 2.20349 24.8395 2.20349 24.8888 2.20349C24.9381 2.20349 24.9875 2.20349 25.0369 2.20349C25.0863 2.20349 25.1358 2.20349 25.1853 2.20349C25.2349 2.20349 25.2845 2.20349 25.3341 2.20349C25.3838 2.20349 25.4335 2.20349 25.4833 2.20349C25.5331 2.20349 25.5829 2.20349 25.6328 2.20349C25.6827 2.20349 25.7327 2.20349 25.7827 2.20349C25.8327 2.20349 25.8828 2.20349 25.9329 2.20349C25.983 2.20349 26.0332 2.20349 26.0835 2.20349C26.1337 2.20349 26.184 2.20349 26.2344 2.20349C26.2848 2.20349 26.3352 2.20349 26.3857 2.20349C26.4362 2.20349 26.4867 2.20349 26.5373 2.20349C26.5879 2.20349 26.6386 2.20349 26.6893 2.20349C26.74 2.20349 26.7908 2.20349 26.8416 2.20349C26.8924 2.20349 26.9433 2.20349 26.9942 2.20349C27.0452 2.20349 27.0962 2.20349 27.1472 2.20349C27.1983 2.20349 27.2494 2.20349 27.3006 2.20349C27.3517 2.20349 27.403 2.20349 27.4543 2.20349C27.5055 2.20349 27.5569 2.20349 27.6083 2.20349C27.6597 2.20349 27.7111 2.20349 27.7626 2.20349C27.8141 2.20349 27.8657 2.20349 27.9173 2.20349C27.969 2.20349 28.0206 2.20349 28.0724 2.20349C28.1241 2.20349 28.1759 2.20349 28.2277 2.20349C28.2796 2.20349 28.3315 2.20349 28.3834 2.20349C28.4354 2.20349 28.4874 2.20349 28.5395 2.20349C28.5915 2.20349 28.6436 2.20349 28.6958 2.20349C28.748 2.20349 28.8002 2.20349 28.8525 2.20349C28.9048 2.20349 28.9571 2.20349 29.0095 2.20349C29.0619 2.20349 29.1144 2.20349 29.1669 2.20349C29.2194 2.20349 29.2719 2.20349 29.3245 2.20349C29.3772 2.20349 29.4298 2.20349 29.4825 2.20349C29.5353 2.20349 29.588 2.20349 29.6409 2.20349C29.6937 2.20349 29.7466 2.20349 29.7995 2.20349C29.8524 2.20349 29.9054 2.20349 29.9584 2.20349C30.0115 2.20349 30.0646 2.20349 30.1177 2.20349C30.1709 2.20349 30.2241 2.20349 30.2773 2.20349C30.3306 2.20349 30.3839 2.20349 30.4372 2.20349C30.4906 2.20349 30.544 2.20349 30.5975 2.20349C30.6509 2.20349 30.7044 2.20349 30.758 2.20349C30.8116 2.20349 30.8652 2.20349 30.9189 2.20349C30.9725 2.20349 31.0262 2.20349 31.08 2.20349C31.1338 2.20349 31.1876 2.20349 31.2415 2.20349C31.2954 2.20349 31.3493 2.20349 31.4033 2.20349C31.4573 2.20349 31.5113 2.20349 31.5654 2.20349C31.6195 2.20349 31.6736 2.20349 31.7278 2.20349C31.782 2.20349 31.8362 2.20349 31.8905 2.20349C31.9448 2.20349 31.9991 2.20349 32.0535 2.20349C32.1079 2.20349 32.1623 2.20349 32.2168 2.20349C32.2713 2.20349 32.3258 2.20349 32.3804 2.20349C32.435 2.20349 32.4896 2.20349 32.5443 2.20349C32.599 2.20349 32.6538 2.20349 32.7085 2.20349C32.7633 2.20349 32.8182 2.20349 32.8731 2.20349C32.9279 2.20349 32.9829 2.20349 33.0379 2.20349C33.0929 2.20349 33.1479 2.20349 33.203 2.20349C33.2581 2.20349 33.3132 2.20349 33.3684 2.20349C33.4235 2.20349 33.4788 2.20349 33.5341 2.20349C33.5893 2.20349 33.6447 2.20349 33.7 2.20349C33.7554 2.20349 33.8108 2.20349 33.8663 2.20349C33.9218 2.20349 33.9773 2.20349 34.0329 2.20349C34.0884 2.20349 34.1441 2.20349 34.1997 2.20349C34.2554 2.20349 34.3111 2.20349 34.3669 2.20349C34.4226 2.20349 34.4784 2.20349 34.5343 2.20349C34.5901 2.20349 34.646 2.20349 34.702 2.20349C34.7579 2.20349 34.8139 2.20349 34.87 2.20349C34.926 2.20349 34.9821 2.20349 35.0382 2.20349C35.0944 2.20349 35.1506 2.20349 35.2068 2.20349C35.263 2.20349 35.3193 2.20349 35.3756 2.20349C35.4319 2.20349 35.4883 2.20349 35.5447 2.20349C35.6011 2.20349 35.6576 2.20349 35.7141 2.20349C35.7706 2.20349 35.8272 2.20349 35.8838 2.20349C35.9404 2.20349 35.997 2.20349 36.0537 2.20349C36.1104 2.20349 36.1671 2.20349 36.2239 2.20349C36.2807 2.20349 36.3375 2.20349 36.3944 2.20349C36.4513 2.20349 36.5082 2.20349 36.5651 2.20349C36.6221 2.20349 36.6791 2.20349 36.7361 2.20349C36.7932 2.20349 36.8503 2.20349 36.9074 2.20349C36.9646 2.20349 37.0218 2.20349 37.079 2.20349C37.1362 2.20349 37.1935 2.20349 37.2508 2.20349C37.3081 2.20349 37.3655 2.20349 37.4229 2.20349C37.4803 2.20349 37.5377 2.20349 37.5952 2.20349C37.6527 2.20349 37.7102 2.20349 37.7678 2.20349C37.8254 2.20349 37.883 2.20349 37.9407 2.20349C37.9984 2.20349 38.0561 2.20349 38.1138 2.20349C38.1716 2.20349 38.2294 2.20349 38.2872 2.20349C38.345 2.20349 38.4029 2.20349 38.4608 2.20349C38.5188 2.20349 38.5767 2.20349 38.6347 2.20349C38.6927 2.20349 38.7508 2.20349 38.8089 2.20349C38.867 2.20349 38.9251 2.20349 38.9833 2.20349C39.0414 2.20349 39.0997 2.20349 39.1579 2.20349C39.2162 2.20349 39.2745 2.20349 39.3328 2.20349C39.3912 2.20349 39.4496 2.20349 39.508 2.20349C39.5664 2.20349 39.6249 2.20349 39.6834 2.20349C39.7419 2.20349 39.8004 2.20349 39.859 2.20349C39.9176 2.20349 39.9762 2.20349 40.0349 2.20349C40.0936 2.20349 40.1523 2.20349 40.211 2.20349C40.2698 2.20349 40.3286 2.20349 40.3874 2.20349C40.4463 2.20349 40.5051 2.20349 40.564 2.20349C40.6229 2.20349 40.6819 2.20349 40.7409 2.20349C40.7999 2.20349 40.8589 2.20349 40.918 2.20349C40.9771 2.20349 41.0362 2.20349 41.0953 2.20349C41.1545 2.20349 41.2137 2.20349 41.2729 2.20349C41.3321 2.20349 41.3914 2.20349 41.4507 2.20349C41.51 2.20349 41.5694 2.20349 41.6287 2.20349C41.6881 2.20349 41.7476 2.20349 41.807 2.20349C41.8665 2.20349 41.926 2.20349 41.9855 2.20349C42.0451 2.20349 42.1046 2.20349 42.1643 2.20349C42.2239 2.20349 42.2835 2.20349 42.3432 2.20349C42.4029 2.20349 42.4626 2.20349 42.5224 2.20349C42.5822 2.20349 42.642 2.20349 42.7018 2.20349C42.7617 2.20349 42.8216 2.20349 42.8815 2.20349C42.9414 2.20349 43.0014 2.20349 43.0613 2.20349C43.1213 2.20349 43.1814 2.20349 43.2414 2.20349C43.3015 2.20349 43.3616 2.20349 43.4217 2.20349C43.4819 2.20349 43.5421 2.20349 43.6023 2.20349C43.6625 2.20349 43.7227 2.20349 43.783 2.20349C43.8433 2.20349 43.9036 2.20349 43.964 2.20349C44.0244 2.20349 44.0848 2.20349 44.1452 2.20349C44.2056 2.20349 44.2661 2.20349 44.3266 2.20349C44.3871 2.20349 44.4476 2.20349 44.5082 2.20349C44.5688 2.20349 44.6294 2.20349 44.69 2.20349C44.7507 2.20349 44.8113 2.20349 44.8721 2.20349C44.9328 2.20349 44.9935 2.20349 45.0543 2.20349C45.1151 2.20349 45.1759 2.20349 45.2368 2.20349C45.2976 2.20349 45.3585 2.20349 45.4194 2.20349C45.4804 2.20349 45.5413 2.20349 45.6023 2.20349C45.6633 2.20349 45.7243 2.20349 45.7854 2.20349C45.8464 2.20349 45.9075 2.20349 45.9687 2.20349C46.0298 2.20349 46.0909 2.20349 46.1521 2.20349C46.2133 2.20349 46.2746 2.20349 46.3358 2.20349C46.3971 2.20349 46.4584 2.20349 46.5197 2.20349C46.581 2.20349 46.6424 2.20349 46.7038 2.20349C46.7652 2.20349 46.8266 2.20349 46.8881 2.20349C46.9495 2.20349 47.011 2.20349 47.0725 2.20349C47.1341 2.20349 47.1956 2.20349 47.2572 2.20349C47.3188 2.20349 47.3804 2.20349 47.4421 2.20349C47.5037 2.20349 47.5654 2.20349 47.6271 2.20349C47.6889 2.20349 47.7506 2.20349 47.8124 2.20349C47.8742 2.20349 47.936 2.20349 47.9978 2.20349C48.0597 2.20349 48.1216 2.20349 48.1835 2.20349C48.2454 2.20349 48.3073 2.20349 48.3693 2.20349C48.4313 2.20349 48.4933 2.20349 48.5553 2.20349C48.6173 2.20349 48.6794 2.20349 48.7415 2.20349C48.8036 2.20349 48.8657 2.20349 48.9278 2.20349C48.99 2.20349 49.0522 2.20349 49.1144 2.20349C49.1766 2.20349 49.2389 2.20349 49.3011 2.20349C49.3634 2.20349 49.4257 2.20349 49.4881 2.20349C49.5504 2.20349 49.6128 2.20349 49.6752 2.20349C49.7375 2.20349 49.8 2.20349 49.8624 2.20349C49.9249 2.20349 49.9874 2.20349 50.0499 2.20349C50.1124 2.20349 50.1749 2.20349 50.2375 2.20349C50.3001 2.20349 50.3627 2.20349 50.4253 2.20349C50.4879 2.20349 50.5506 2.20349 50.6133 2.20349C50.676 2.20349 50.7387 2.20349 50.8014 2.20349C50.8642 2.20349 50.9269 2.20349 50.9897 2.20349C51.0525 2.20349 51.1153 2.20349 51.1782 2.20349C51.2411 2.20349 51.3039 2.20349 51.3668 2.20349C51.4298 2.20349 51.4927 2.20349 51.5557 2.20349C51.6186 2.20349 51.6816 2.20349 51.7446 2.20349C51.8077 2.20349 51.8707 2.20349 51.9338 2.20349C51.9969 2.20349 52.06 2.20349 52.1231 2.20349C52.1862 2.20349 52.2494 2.20349 52.3126 2.20349C52.3757 2.20349 52.439 2.20349 52.5022 2.20349C52.5654 2.20349 52.6287 2.20349 52.692 2.20349C52.7553 2.20349 52.8186 2.20349 52.8819 2.20349C52.9453 2.20349 53.0086 2.20349 53.072 2.20349C53.1354 2.20349 53.1988 2.20349 53.2623 2.20349C53.3257 2.20349 53.3892 2.20349 53.4527 2.20349C53.5162 2.20349 53.5797 2.20349 53.6432 2.20349C53.7068 2.20349 53.7704 2.20349 53.834 2.20349C53.8976 2.20349 53.9612 2.20349 54.0248 2.20349C54.0885 2.20349 54.1521 2.20349 54.2158 2.20349C54.2795 2.20349 54.3433 2.20349 54.407 2.20349C54.4707 2.20349 54.5345 2.20349 54.5983 2.20349C54.6621 2.20349 54.7259 2.20349 54.7898 2.20349C54.8536 2.20349 54.9175 2.20349 54.9813 2.20349C55.0452 2.20349 55.1091 2.20349 55.1731 2.20349C55.237 2.20349 55.301 2.20349 55.365 2.20349C55.4289 2.20349 55.493 2.20349 55.557 2.20349C55.621 2.20349 55.6851 2.20349 55.7491 2.20349C55.8132 2.20349 55.8773 2.20349 55.9414 2.20349C56.0056 2.20349 56.0697 2.20349 56.1339 2.20349C56.198 2.20349 56.2622 2.20349 56.3264 2.20349C56.3906 2.20349 56.4549 2.20349 56.5191 2.20349C56.5834 2.20349 56.6477 2.20349 56.712 2.20349C56.7763 2.20349 56.8406 2.20349 56.9049 2.20349C56.9693 2.20349 57.0336 2.20349 57.098 2.20349C57.1624 2.20349 57.2268 2.20349 57.2912 2.20349C57.3557 2.20349 57.4201 2.20349 57.4846 2.20349C57.5491 2.20349 57.6136 2.20349 57.6781 2.20349C57.7426 2.20349 57.8071 2.20349 57.8717 2.20349C57.9362 2.20349 58.0008 2.20349 58.0654 2.20349C58.13 2.20349 58.1946 2.20349 58.2592 2.20349C58.3239 2.20349 58.3885 2.20349 58.4532 2.20349C58.5179 2.20349 58.5826 2.20349 58.6473 2.20349C58.712 2.20349 58.7767 2.20349 58.8415 2.20349C58.9063 2.20349 58.971 2.20349 59.0358 2.20349C59.1006 2.20349 59.1654 2.20349 59.2303 2.20349C59.2951 2.20349 59.36 2.20349 59.4248 2.20349C59.4897 2.20349 59.5546 2.20349 59.6195 2.20349C59.6844 2.20349 59.7493 2.20349 59.8143 2.20349C59.8792 2.20349 59.9442 2.20349 60.0092 2.20349C60.0742 2.20349 60.1392 2.20349 60.2042 2.20349C60.2692 2.20349 60.3342 2.20349 60.3993 2.20349C60.4643 2.20349 60.5294 2.20349 60.5945 2.20349C60.6596 2.20349 60.7247 2.20349 60.7898 2.20349C60.855 2.20349 60.9201 2.20349 60.9853 2.20349C61.0504 2.20349 61.1156 2.20349 61.1808 2.20349C61.246 2.20349 61.3112 2.20349 61.3764 2.20349C61.4417 2.20349 61.5069 2.20349 61.5722 2.20349C61.6374 2.20349 61.7027 2.20349 61.768 2.20349C61.8333 2.20349 61.8986 2.20349 61.9639 2.20349C62.0293 2.20349 62.0946 2.20349 62.16 2.20349C62.2253 2.20349 62.2907 2.20349 62.3561 2.20349C62.4215 2.20349 62.4869 2.20349 62.5523 2.20349C62.6178 2.20349 62.6832 2.20349 62.7487 2.20349C62.8141 2.20349 62.8796 2.20349 62.9451 2.20349C63.0106 2.20349 63.0761 2.20349 63.1416 2.20349C63.2071 2.20349 63.2726 2.20349 63.3382 2.20349C63.4037 2.20349 63.4693 2.20349 63.5348 2.20349C63.6004 2.20349 63.666 2.20349 63.7316 2.20349C63.7972 2.20349 63.8628 2.20349 63.9285 2.20349C63.9941 2.20349 64.0597 2.20349 64.1254 2.20349C64.1911 2.20349 64.2567 2.20349 64.3224 2.20349C64.3881 2.20349 64.4538 2.20349 64.5195 2.20349C64.5852 2.20349 64.651 2.20349 64.7167 2.20349C64.7825 2.20349 64.8482 2.20349 64.914 2.20349C64.9798 2.20349 65.0455 2.20349 65.1113 2.20349C65.1771 2.20349 65.2429 2.20349 65.3088 2.20349C65.3746 2.20349 65.4404 2.20349 65.5063 2.20349C65.5721 2.20349 65.638 2.20349 65.7038 2.20349C65.7697 2.20349 65.8356 2.20349 65.9015 2.20349C65.9674 2.20349 66.0333 2.20349 66.0992 2.20349C66.1651 2.20349 66.231 2.20349 66.297 2.20349C66.3629 2.20349 66.4289 2.20349 66.4948 2.20349C66.5608 2.20349 66.6268 2.20349 66.6928 2.20349C66.7588 2.20349 66.8248 2.20349 66.8908 2.20349V1.58722C66.8248 1.58722 66.7588 1.58722 66.6928 1.58722C66.6268 1.58722 66.5608 1.58722 66.4948 1.58722C66.4289 1.58722 66.3629 1.58722 66.297 1.58722C66.231 1.58722 66.1651 1.58722 66.0992 1.58722C66.0333 1.58722 65.9674 1.58722 65.9015 1.58722C65.8356 1.58722 65.7697 1.58722 65.7038 1.58722C65.638 1.58722 65.5721 1.58722 65.5063 1.58722C65.4404 1.58722 65.3746 1.58722 65.3088 1.58722C65.2429 1.58722 65.1771 1.58722 65.1113 1.58722C65.0455 1.58722 64.9798 1.58722 64.914 1.58722C64.8482 1.58722 64.7825 1.58722 64.7167 1.58722C64.651 1.58722 64.5852 1.58722 64.5195 1.58722C64.4538 1.58722 64.3881 1.58722 64.3224 1.58722C64.2567 1.58722 64.1911 1.58722 64.1254 1.58722C64.0597 1.58722 63.9941 1.58722 63.9285 1.58722C63.8628 1.58722 63.7972 1.58722 63.7316 1.58722C63.666 1.58722 63.6004 1.58722 63.5348 1.58722C63.4693 1.58722 63.4037 1.58722 63.3382 1.58722C63.2726 1.58722 63.2071 1.58722 63.1416 1.58722C63.0761 1.58722 63.0106 1.58722 62.9451 1.58722C62.8796 1.58722 62.8141 1.58722 62.7487 1.58722C62.6832 1.58722 62.6178 1.58722 62.5523 1.58722C62.4869 1.58722 62.4215 1.58722 62.3561 1.58722C62.2907 1.58722 62.2253 1.58722 62.16 1.58722C62.0946 1.58722 62.0293 1.58722 61.9639 1.58722C61.8986 1.58722 61.8333 1.58722 61.768 1.58722C61.7027 1.58722 61.6374 1.58722 61.5722 1.58722C61.5069 1.58722 61.4417 1.58722 61.3764 1.58722C61.3112 1.58722 61.246 1.58722 61.1808 1.58722C61.1156 1.58722 61.0504 1.58722 60.9853 1.58722C60.9201 1.58722 60.855 1.58722 60.7898 1.58722C60.7247 1.58722 60.6596 1.58722 60.5945 1.58722C60.5294 1.58722 60.4643 1.58722 60.3993 1.58722C60.3342 1.58722 60.2692 1.58722 60.2042 1.58722C60.1392 1.58722 60.0742 1.58722 60.0092 1.58722C59.9442 1.58722 59.8792 1.58722 59.8143 1.58722C59.7493 1.58722 59.6844 1.58722 59.6195 1.58722C59.5546 1.58722 59.4897 1.58722 59.4248 1.58722C59.36 1.58722 59.2951 1.58722 59.2303 1.58722C59.1654 1.58722 59.1006 1.58722 59.0358 1.58722C58.971 1.58722 58.9063 1.58722 58.8415 1.58722C58.7767 1.58722 58.712 1.58722 58.6473 1.58722C58.5826 1.58722 58.5179 1.58722 58.4532 1.58722C58.3885 1.58722 58.3239 1.58722 58.2592 1.58722C58.1946 1.58722 58.13 1.58722 58.0654 1.58722C58.0008 1.58722 57.9362 1.58722 57.8717 1.58722C57.8071 1.58722 57.7426 1.58722 57.6781 1.58722C57.6136 1.58722 57.5491 1.58722 57.4846 1.58722C57.4201 1.58722 57.3557 1.58722 57.2912 1.58722C57.2268 1.58722 57.1624 1.58722 57.098 1.58722C57.0336 1.58722 56.9693 1.58722 56.9049 1.58722C56.8406 1.58722 56.7763 1.58722 56.712 1.58722C56.6477 1.58722 56.5834 1.58722 56.5191 1.58722C56.4549 1.58722 56.3906 1.58722 56.3264 1.58722C56.2622 1.58722 56.198 1.58722 56.1339 1.58722C56.0697 1.58722 56.0056 1.58722 55.9414 1.58722C55.8773 1.58722 55.8132 1.58722 55.7491 1.58722C55.6851 1.58722 55.621 1.58722 55.557 1.58722C55.493 1.58722 55.4289 1.58722 55.365 1.58722C55.301 1.58722 55.237 1.58722 55.1731 1.58722C55.1091 1.58722 55.0452 1.58722 54.9813 1.58722C54.9175 1.58722 54.8536 1.58722 54.7898 1.58722C54.7259 1.58722 54.6621 1.58722 54.5983 1.58722C54.5345 1.58722 54.4707 1.58722 54.407 1.58722C54.3433 1.58722 54.2795 1.58722 54.2158 1.58722C54.1521 1.58722 54.0885 1.58722 54.0248 1.58722C53.9612 1.58722 53.8976 1.58722 53.834 1.58722C53.7704 1.58722 53.7068 1.58722 53.6432 1.58722C53.5797 1.58722 53.5162 1.58722 53.4527 1.58722C53.3892 1.58722 53.3257 1.58722 53.2623 1.58722C53.1988 1.58722 53.1354 1.58722 53.072 1.58722C53.0086 1.58722 52.9453 1.58722 52.8819 1.58722C52.8186 1.58722 52.7553 1.58722 52.692 1.58722C52.6287 1.58722 52.5654 1.58722 52.5022 1.58722C52.439 1.58722 52.3757 1.58722 52.3126 1.58722C52.2494 1.58722 52.1862 1.58722 52.1231 1.58722C52.06 1.58722 51.9969 1.58722 51.9338 1.58722C51.8707 1.58722 51.8077 1.58722 51.7446 1.58722C51.6816 1.58722 51.6186 1.58722 51.5557 1.58722C51.4927 1.58722 51.4298 1.58722 51.3668 1.58722C51.3039 1.58722 51.2411 1.58722 51.1782 1.58722C51.1153 1.58722 51.0525 1.58722 50.9897 1.58722C50.9269 1.58722 50.8642 1.58722 50.8014 1.58722C50.7387 1.58722 50.676 1.58722 50.6133 1.58722C50.5506 1.58722 50.4879 1.58722 50.4253 1.58722C50.3627 1.58722 50.3001 1.58722 50.2375 1.58722C50.1749 1.58722 50.1124 1.58722 50.0499 1.58722C49.9874 1.58722 49.9249 1.58722 49.8624 1.58722C49.8 1.58722 49.7375 1.58722 49.6752 1.58722C49.6128 1.58722 49.5504 1.58722 49.4881 1.58722C49.4257 1.58722 49.3634 1.58722 49.3011 1.58722C49.2389 1.58722 49.1766 1.58722 49.1144 1.58722C49.0522 1.58722 48.99 1.58722 48.9278 1.58722C48.8657 1.58722 48.8036 1.58722 48.7415 1.58722C48.6794 1.58722 48.6173 1.58722 48.5553 1.58722C48.4933 1.58722 48.4313 1.58722 48.3693 1.58722C48.3073 1.58722 48.2454 1.58722 48.1835 1.58722C48.1216 1.58722 48.0597 1.58722 47.9978 1.58722C47.936 1.58722 47.8742 1.58722 47.8124 1.58722C47.7506 1.58722 47.6889 1.58722 47.6271 1.58722C47.5654 1.58722 47.5037 1.58722 47.4421 1.58722C47.3804 1.58722 47.3188 1.58722 47.2572 1.58722C47.1956 1.58722 47.1341 1.58722 47.0725 1.58722C47.011 1.58722 46.9495 1.58722 46.8881 1.58722C46.8266 1.58722 46.7652 1.58722 46.7038 1.58722C46.6424 1.58722 46.581 1.58722 46.5197 1.58722C46.4584 1.58722 46.3971 1.58722 46.3358 1.58722C46.2746 1.58722 46.2133 1.58722 46.1521 1.58722C46.0909 1.58722 46.0298 1.58722 45.9687 1.58722C45.9075 1.58722 45.8464 1.58722 45.7854 1.58722C45.7243 1.58722 45.6633 1.58722 45.6023 1.58722C45.5413 1.58722 45.4804 1.58722 45.4194 1.58722C45.3585 1.58722 45.2976 1.58722 45.2368 1.58722C45.1759 1.58722 45.1151 1.58722 45.0543 1.58722C44.9935 1.58722 44.9328 1.58722 44.8721 1.58722C44.8113 1.58722 44.7507 1.58722 44.69 1.58722C44.6294 1.58722 44.5688 1.58722 44.5082 1.58722C44.4476 1.58722 44.3871 1.58722 44.3266 1.58722C44.2661 1.58722 44.2056 1.58722 44.1452 1.58722C44.0848 1.58722 44.0244 1.58722 43.964 1.58722C43.9036 1.58722 43.8433 1.58722 43.783 1.58722C43.7227 1.58722 43.6625 1.58722 43.6023 1.58722C43.5421 1.58722 43.4819 1.58722 43.4217 1.58722C43.3616 1.58722 43.3015 1.58722 43.2414 1.58722C43.1814 1.58722 43.1213 1.58722 43.0613 1.58722C43.0014 1.58722 42.9414 1.58722 42.8815 1.58722C42.8216 1.58722 42.7617 1.58722 42.7018 1.58722C42.642 1.58722 42.5822 1.58722 42.5224 1.58722C42.4626 1.58722 42.4029 1.58722 42.3432 1.58722C42.2835 1.58722 42.2239 1.58722 42.1643 1.58722C42.1046 1.58722 42.0451 1.58722 41.9855 1.58722C41.926 1.58722 41.8665 1.58722 41.807 1.58722C41.7476 1.58722 41.6881 1.58722 41.6287 1.58722C41.5694 1.58722 41.51 1.58722 41.4507 1.58722C41.3914 1.58722 41.3321 1.58722 41.2729 1.58722C41.2137 1.58722 41.1545 1.58722 41.0953 1.58722C41.0362 1.58722 40.9771 1.58722 40.918 1.58722C40.8589 1.58722 40.7999 1.58722 40.7409 1.58722C40.6819 1.58722 40.6229 1.58722 40.564 1.58722C40.5051 1.58722 40.4463 1.58722 40.3874 1.58722C40.3286 1.58722 40.2698 1.58722 40.211 1.58722C40.1523 1.58722 40.0936 1.58722 40.0349 1.58722C39.9762 1.58722 39.9176 1.58722 39.859 1.58722C39.8004 1.58722 39.7419 1.58722 39.6834 1.58722C39.6249 1.58722 39.5664 1.58722 39.508 1.58722C39.4496 1.58722 39.3912 1.58722 39.3328 1.58722C39.2745 1.58722 39.2162 1.58722 39.1579 1.58722C39.0997 1.58722 39.0414 1.58722 38.9833 1.58722C38.9251 1.58722 38.867 1.58722 38.8089 1.58722C38.7508 1.58722 38.6927 1.58722 38.6347 1.58722C38.5767 1.58722 38.5188 1.58722 38.4608 1.58722C38.4029 1.58722 38.345 1.58722 38.2872 1.58722C38.2294 1.58722 38.1716 1.58722 38.1138 1.58722C38.0561 1.58722 37.9984 1.58722 37.9407 1.58722C37.883 1.58722 37.8254 1.58722 37.7678 1.58722C37.7102 1.58722 37.6527 1.58722 37.5952 1.58722C37.5377 1.58722 37.4803 1.58722 37.4229 1.58722C37.3655 1.58722 37.3081 1.58722 37.2508 1.58722C37.1935 1.58722 37.1362 1.58722 37.079 1.58722C37.0218 1.58722 36.9646 1.58722 36.9074 1.58722C36.8503 1.58722 36.7932 1.58722 36.7361 1.58722C36.6791 1.58722 36.6221 1.58722 36.5651 1.58722C36.5082 1.58722 36.4513 1.58722 36.3944 1.58722C36.3375 1.58722 36.2807 1.58722 36.2239 1.58722C36.1671 1.58722 36.1104 1.58722 36.0537 1.58722C35.997 1.58722 35.9404 1.58722 35.8838 1.58722C35.8272 1.58722 35.7706 1.58722 35.7141 1.58722C35.6576 1.58722 35.6011 1.58722 35.5447 1.58722C35.4883 1.58722 35.4319 1.58722 35.3756 1.58722C35.3193 1.58722 35.263 1.58722 35.2068 1.58722C35.1506 1.58722 35.0944 1.58722 35.0382 1.58722C34.9821 1.58722 34.926 1.58722 34.87 1.58722C34.8139 1.58722 34.7579 1.58722 34.702 1.58722C34.646 1.58722 34.5901 1.58722 34.5343 1.58722C34.4784 1.58722 34.4226 1.58722 34.3669 1.58722C34.3111 1.58722 34.2554 1.58722 34.1997 1.58722C34.1441 1.58722 34.0884 1.58722 34.0329 1.58722C33.9773 1.58722 33.9218 1.58722 33.8663 1.58722C33.8108 1.58722 33.7554 1.58722 33.7 1.58722C33.6447 1.58722 33.5893 1.58722 33.5341 1.58722C33.4788 1.58722 33.4235 1.58722 33.3684 1.58722C33.3132 1.58722 33.2581 1.58722 33.203 1.58722C33.1479 1.58722 33.0929 1.58722 33.0379 1.58722C32.9829 1.58722 32.9279 1.58722 32.8731 1.58722C32.8182 1.58722 32.7633 1.58722 32.7085 1.58722C32.6538 1.58722 32.599 1.58722 32.5443 1.58722C32.4896 1.58722 32.435 1.58722 32.3804 1.58722C32.3258 1.58722 32.2713 1.58722 32.2168 1.58722C32.1623 1.58722 32.1079 1.58722 32.0535 1.58722C31.9991 1.58722 31.9448 1.58722 31.8905 1.58722C31.8362 1.58722 31.782 1.58722 31.7278 1.58722C31.6736 1.58722 31.6195 1.58722 31.5654 1.58722C31.5113 1.58722 31.4573 1.58722 31.4033 1.58722C31.3493 1.58722 31.2954 1.58722 31.2415 1.58722C31.1876 1.58722 31.1338 1.58722 31.08 1.58722C31.0262 1.58722 30.9725 1.58722 30.9189 1.58722C30.8652 1.58722 30.8116 1.58722 30.758 1.58722C30.7044 1.58722 30.6509 1.58722 30.5975 1.58722C30.544 1.58722 30.4906 1.58722 30.4372 1.58722C30.3839 1.58722 30.3306 1.58722 30.2773 1.58722C30.2241 1.58722 30.1709 1.58722 30.1177 1.58722C30.0646 1.58722 30.0115 1.58722 29.9584 1.58722C29.9054 1.58722 29.8524 1.58722 29.7995 1.58722C29.7466 1.58722 29.6937 1.58722 29.6409 1.58722C29.588 1.58722 29.5353 1.58722 29.4825 1.58722C29.4298 1.58722 29.3772 1.58722 29.3245 1.58722C29.2719 1.58722 29.2194 1.58722 29.1669 1.58722C29.1144 1.58722 29.0619 1.58722 29.0095 1.58722C28.9571 1.58722 28.9048 1.58722 28.8525 1.58722C28.8002 1.58722 28.748 1.58722 28.6958 1.58722C28.6436 1.58722 28.5915 1.58722 28.5395 1.58722C28.4874 1.58722 28.4354 1.58722 28.3834 1.58722C28.3315 1.58722 28.2796 1.58722 28.2277 1.58722C28.1759 1.58722 28.1241 1.58722 28.0724 1.58722C28.0206 1.58722 27.969 1.58722 27.9173 1.58722C27.8657 1.58722 27.8141 1.58722 27.7626 1.58722C27.7111 1.58722 27.6597 1.58722 27.6083 1.58722C27.5569 1.58722 27.5055 1.58722 27.4543 1.58722C27.403 1.58722 27.3517 1.58722 27.3006 1.58722C27.2494 1.58722 27.1983 1.58722 27.1472 1.58722C27.0962 1.58722 27.0452 1.58722 26.9942 1.58722C26.9433 1.58722 26.8924 1.58722 26.8416 1.58722C26.7908 1.58722 26.74 1.58722 26.6893 1.58722C26.6386 1.58722 26.5879 1.58722 26.5373 1.58722C26.4867 1.58722 26.4362 1.58722 26.3857 1.58722C26.3352 1.58722 26.2848 1.58722 26.2344 1.58722C26.184 1.58722 26.1337 1.58722 26.0835 1.58722C26.0332 1.58722 25.983 1.58722 25.9329 1.58722C25.8828 1.58722 25.8327 1.58722 25.7827 1.58722C25.7327 1.58722 25.6827 1.58722 25.6328 1.58722C25.5829 1.58722 25.5331 1.58722 25.4833 1.58722C25.4335 1.58722 25.3838 1.58722 25.3341 1.58722C25.2845 1.58722 25.2349 1.58722 25.1853 1.58722C25.1358 1.58722 25.0863 1.58722 25.0369 1.58722C24.9875 1.58722 24.9381 1.58722 24.8888 1.58722C24.8395 1.58722 24.7903 1.58722 24.7411 1.58722C24.6919 1.58722 24.6428 1.58722 24.5937 1.58722C24.5447 1.58722 24.4957 1.58722 24.4467 1.58722C24.3978 1.58722 24.3489 1.58722 24.3001 1.58722C24.2513 1.58722 24.2025 1.58722 24.1538 1.58722C24.1051 1.58722 24.0565 1.58722 24.0079 1.58722C23.9593 1.58722 23.9108 1.58722 23.8624 1.58722C23.8139 1.58722 23.7655 1.58722 23.7172 1.58722C23.6689 1.58722 23.6206 1.58722 23.5724 1.58722C23.5242 1.58722 23.4761 1.58722 23.428 1.58722C23.3799 1.58722 23.3319 1.58722 23.284 1.58722C23.236 1.58722 23.1881 1.58722 23.1403 1.58722C23.0924 1.58722 23.0447 1.58722 22.997 1.58722C22.9493 1.58722 22.9016 1.58722 22.854 1.58722C22.8065 1.58722 22.759 1.58722 22.7115 1.58722C22.6641 1.58722 22.6167 1.58722 22.5693 1.58722C22.522 1.58722 22.4747 1.58722 22.4275 1.58722C22.3804 1.58722 22.3332 1.58722 22.2861 1.58722C22.2391 1.58722 22.1921 1.58722 22.1451 1.58722C22.0982 1.58722 22.0513 1.58722 22.0045 1.58722C21.9577 1.58722 21.9109 1.58722 21.8642 1.58722C21.8175 1.58722 21.7709 1.58722 21.7244 1.58722C21.6778 1.58722 21.6313 1.58722 21.5849 1.58722C21.5385 1.58722 21.4921 1.58722 21.4458 1.58722C21.3995 1.58722 21.3533 1.58722 21.3071 1.58722C21.2609 1.58722 21.2148 1.58722 21.1688 1.58722C21.1228 1.58722 21.0768 1.58722 21.0309 1.58722C20.985 1.58722 20.9391 1.58722 20.8934 1.58722C20.8476 1.58722 20.8019 1.58722 20.7563 1.58722C20.7106 1.58722 20.665 1.58722 20.6195 1.58722C20.574 1.58722 20.5286 1.58722 20.4832 1.58722C20.4378 1.58722 20.3925 1.58722 20.3473 1.58722C20.302 1.58722 20.2568 1.58722 20.2117 1.58722C20.1666 1.58722 20.1216 1.58722 20.0766 1.58722C20.0316 1.58722 19.9867 1.58722 19.9419 1.58722C19.8971 1.58722 19.8523 1.58722 19.8076 1.58722C19.7629 1.58722 19.7182 1.58722 19.6737 1.58722C19.6291 1.58722 19.5846 1.58722 19.5402 1.58722C19.4957 1.58722 19.4514 1.58722 19.4071 1.58722C19.3628 1.58722 19.3185 1.58722 19.2744 1.58722C19.2302 1.58722 19.1861 1.58722 19.1421 1.58722C19.0981 1.58722 19.0541 1.58722 19.0102 1.58722C18.9663 1.58722 18.9225 1.58722 18.8788 1.58722C18.835 1.58722 18.7913 1.58722 18.7477 1.58722C18.7041 1.58722 18.6606 1.58722 18.6171 1.58722C18.5736 1.58722 18.5302 1.58722 18.4869 1.58722C18.4436 1.58722 18.4003 1.58722 18.3571 1.58722C18.3139 1.58722 18.2708 1.58722 18.2277 1.58722C18.1847 1.58722 18.1417 1.58722 18.0988 1.58722C18.0559 1.58722 18.013 1.58722 17.9703 1.58722C17.9275 1.58722 17.8848 1.58722 17.8422 1.58722C17.7995 1.58722 17.757 1.58722 17.7145 1.58722C17.672 1.58722 17.6296 1.58722 17.5872 1.58722C17.5449 1.58722 17.5026 1.58722 17.4604 1.58722C17.4182 1.58722 17.3761 1.58722 17.334 1.58722C17.2919 1.58722 17.25 1.58722 17.208 1.58722C17.1661 1.58722 17.1243 1.58722 17.0825 1.58722C17.0407 1.58722 16.999 1.58722 16.9574 1.58722C16.9158 1.58722 16.8742 1.58722 16.8327 1.58722C16.7912 1.58722 16.7498 1.58722 16.7085 1.58722C16.6671 1.58722 16.6259 1.58722 16.5847 1.58722C16.5435 1.58722 16.5024 1.58722 16.4613 1.58722C16.4203 1.58722 16.3793 1.58722 16.3384 1.58722C16.2975 1.58722 16.2566 1.58722 16.2159 1.58722C16.1751 1.58722 16.1344 1.58722 16.0938 1.58722C16.0532 1.58722 16.0127 1.58722 15.9722 1.58722C15.9318 1.58722 15.8914 1.58722 15.8511 1.58722C15.8108 1.58722 15.7705 1.58722 15.7304 1.58722C15.6902 1.58722 15.6501 1.58722 15.6101 1.58722C15.5701 1.58722 15.5301 1.58722 15.4903 1.58722C15.4504 1.58722 15.4106 1.58722 15.3709 1.58722C15.3312 1.58722 15.2915 1.58722 15.2519 1.58722C15.2124 1.58722 15.1729 1.58722 15.1335 1.58722C15.094 1.58722 15.0547 1.58722 15.0154 1.58722C14.9762 1.58722 14.937 1.58722 14.8979 1.58722C14.8588 1.58722 14.8197 1.58722 14.7807 1.58722C14.7418 1.58722 14.7029 1.58722 14.6641 1.58722C14.6253 1.58722 14.5865 1.58722 14.5479 1.58722C14.5092 1.58722 14.4706 1.58722 14.4321 1.58722C14.3936 1.58722 14.3552 1.58722 14.3168 1.58722C14.2785 1.58722 14.2402 1.58722 14.202 1.58722C14.1638 1.58722 14.1257 1.58722 14.0876 1.58722C14.0496 1.58722 14.0116 1.58722 13.9737 1.58722C13.9359 1.58722 13.898 1.58722 13.8603 1.58722C13.8226 1.58722 13.7849 1.58722 13.7473 1.58722C13.7098 1.58722 13.6722 1.58722 13.6348 1.58722C13.5974 1.58722 13.5601 1.58722 13.5228 1.58722C13.4855 1.58722 13.4483 1.58722 13.4112 1.58722C13.3741 1.58722 13.3371 1.58722 13.3001 1.58722C13.2632 1.58722 13.2263 1.58722 13.1895 1.58722C13.1527 1.58722 13.116 1.58722 13.0793 1.58722C13.0427 1.58722 13.0061 1.58722 12.9697 1.58722C12.9332 1.58722 12.8968 1.58722 12.8605 1.58722C12.8241 1.58722 12.7879 1.58722 12.7517 1.58722C12.7156 1.58722 12.6795 1.58722 12.6435 1.58722C12.6075 1.58722 12.5716 1.58722 12.5357 1.58722C12.4999 1.58722 12.4641 1.58722 12.4284 1.58722C12.3928 1.58722 12.3572 1.58722 12.3216 1.58722C12.2861 1.58722 12.2507 1.58722 12.2153 1.58722C12.1799 1.58722 12.1447 1.58722 12.1095 1.58722C12.0743 1.58722 12.0392 1.58722 12.0041 1.58722C11.9691 1.58722 11.9341 1.58722 11.8993 1.58722C11.8644 1.58722 11.8296 1.58722 11.7949 1.58722C11.7602 1.58722 11.7255 1.58722 11.691 1.58722C11.6564 1.58722 11.622 1.58722 11.5876 1.58722C11.5532 1.58722 11.5189 1.58722 11.4847 1.58722C11.4505 1.58722 11.4163 1.58722 11.3823 1.58722C11.3482 1.58722 11.3143 1.58722 11.2804 1.58722C11.2465 1.58722 11.2127 1.58722 11.1789 1.58722C11.1452 1.58722 11.1116 1.58722 11.078 1.58722C11.0445 1.58722 11.011 1.58722 10.9776 1.58722C10.9442 1.58722 10.9109 1.58722 10.8777 1.58722C10.8444 1.58722 10.8113 1.58722 10.7782 1.58722C10.7452 1.58722 10.7122 1.58722 10.6793 1.58722C10.6464 1.58722 10.6136 1.58722 10.5809 1.58722C10.5482 1.58722 10.5155 1.58722 10.483 1.58722C10.4504 1.58722 10.418 1.58722 10.3856 1.58722C10.3532 1.58722 10.3209 1.58722 10.2887 1.58722C10.2565 1.58722 10.2243 1.58722 10.1923 1.58722C10.1602 1.58722 10.1283 1.58722 10.0964 1.58722C10.0645 1.58722 10.0327 1.58722 10.001 1.58722C9.96932 1.58722 9.9377 1.58722 9.90616 1.58722C9.87463 1.58722 9.84318 1.58722 9.81181 1.58722C9.78045 1.58722 9.74917 1.58722 9.71798 1.58722C9.68679 1.58722 9.65568 1.58722 9.62466 1.58722C9.59364 1.58722 9.56271 1.58722 9.53186 1.58722C9.50101 1.58722 9.47025 1.58722 9.43958 1.58722C9.4089 1.58722 9.37831 1.58722 9.34781 1.58722C9.31731 1.58722 9.2869 1.58722 9.25657 1.58722C9.22624 1.58722 9.196 1.58722 9.16585 1.58722C9.1357 1.58722 9.10563 1.58722 9.07565 1.58722C9.04567 1.58722 9.01578 1.58722 8.98598 1.58722C8.95618 1.58722 8.92646 1.58722 8.89683 1.58722C8.86721 1.58722 8.83767 1.58722 8.80821 1.58722C8.77876 1.58722 8.7494 1.58722 8.72012 1.58722C8.69085 1.58722 8.66166 1.58722 8.63256 1.58722C8.60346 1.58722 8.57445 1.58722 8.54553 1.58722C8.51661 1.58722 8.48777 1.58722 8.45903 1.58722C8.43029 1.58722 8.40163 1.58722 8.37306 1.58722C8.3445 1.58722 8.31602 1.58722 8.28763 1.58722C8.25925 1.58722 8.23095 1.58722 8.20274 1.58722C8.17453 1.58722 8.14641 1.58722 8.11838 1.58722C8.09035 1.58722 8.06241 1.58722 8.03456 1.58722C8.00671 1.58722 7.97895 1.58722 7.95128 1.58722C7.92361 1.58722 7.89603 1.58722 7.86854 1.58722C7.84105 1.58722 7.81365 1.58722 7.78634 1.58722C7.75903 1.58722 7.73182 1.58722 7.70469 1.58722C7.67756 1.58722 7.65053 1.58722 7.62358 1.58722C7.59663 1.58722 7.56978 1.58722 7.54302 1.58722C7.51625 1.58722 7.48958 1.58722 7.463 1.58722C7.43642 1.58722 7.40993 1.58722 7.38353 1.58722C7.35713 1.58722 7.33083 1.58722 7.30461 1.58722C7.2784 1.58722 7.25228 1.58722 7.22625 1.58722C7.20022 1.58722 7.17428 1.58722 7.14843 1.58722C7.12258 1.58722 7.09683 1.58722 7.07117 1.58722C7.04551 1.58722 7.01994 1.58722 6.99446 1.58722C6.96898 1.58722 6.9436 1.58722 6.91831 1.58722C6.89302 1.58722 6.86782 1.58722 6.84271 1.58722C6.81761 1.58722 6.7926 1.58722 6.76768 1.58722C6.74276 1.58722 6.71793 1.58722 6.6932 1.58722C6.66847 1.58722 6.64383 1.58722 6.61929 1.58722C6.59474 1.58722 6.57029 1.58722 6.54593 1.58722C6.52158 1.58722 6.49731 1.58722 6.47314 1.58722C6.44897 1.58722 6.4249 1.58722 6.40092 1.58722C6.37694 1.58722 6.35305 1.58722 6.32926 1.58722C6.30547 1.58722 6.28177 1.58722 6.25817 1.58722C6.23456 1.58722 6.21105 1.58722 6.18764 1.58722C6.16423 1.58722 6.14091 1.58722 6.11769 1.58722C6.09446 1.58722 6.07134 1.58722 6.0483 1.58722C6.02527 1.58722 6.00233 1.58722 5.97949 1.58722C5.95665 1.58722 5.93391 1.58722 5.91125 1.58722C5.8886 1.58722 5.86605 1.58722 5.84359 1.58722C5.82113 1.58722 5.79877 1.58722 5.7765 1.58722C5.75424 1.58722 5.73207 1.58722 5.70999 1.58722C5.68792 1.58722 5.66594 1.58722 5.64406 1.58722C5.62218 1.58722 5.6004 1.58722 5.57871 1.58722C5.55702 1.58722 5.53543 1.58722 5.51394 1.58722C5.49245 1.58722 5.47105 1.58722 5.44975 1.58722C5.42845 1.58722 5.40725 1.58722 5.38614 1.58722C5.36504 1.58722 5.34403 1.58722 5.32312 1.58722C5.30221 1.58722 5.2814 1.58722 5.26069 1.58722C5.23997 1.58722 5.21936 1.58722 5.19884 1.58722C5.17832 1.58722 5.1579 1.58722 5.13758 1.58722C5.11726 1.58722 5.09704 1.58722 5.07691 1.58722C5.05679 1.58722 5.03676 1.58722 5.01683 1.58722C4.99691 1.58722 4.97708 1.58722 4.95735 1.58722C4.93762 1.58722 4.91799 1.58722 4.89845 1.58722C4.87892 1.58722 4.85949 1.58722 4.84016 1.58722C4.82082 1.58722 4.80159 1.58722 4.78245 1.58722C4.76332 1.58722 4.74428 1.58722 4.72535 1.58722C4.70641 1.58722 4.68758 1.58722 4.66884 1.58722C4.65011 1.58722 4.63147 1.58722 4.61293 1.58722C4.5944 1.58722 4.57596 1.58722 4.55763 1.58722C4.53929 1.58722 4.52106 1.58722 4.50292 1.58722C4.48479 1.58722 4.46676 1.58722 4.44882 1.58722C4.43089 1.58722 4.41306 1.58722 4.39533 1.58722C4.3776 1.58722 4.35997 1.58722 4.34244 1.58722C4.32491 1.58722 4.30748 1.58722 4.29016 1.58722C4.27283 1.58722 4.25561 1.58722 4.23848 1.58722C4.22136 1.58722 4.20434 1.58722 4.18742 1.58722C4.1705 1.58722 4.15368 1.58722 4.13697 1.58722C4.12025 1.58722 4.10364 1.58722 4.08712 1.58722C4.07061 1.58722 4.0542 1.58722 4.0379 1.58722C4.02159 1.58722 4.00539 1.58722 3.98928 1.58722C3.97318 1.58722 3.95718 1.58722 3.94129 1.58722C3.92539 1.58722 3.9096 1.58722 3.89391 1.58722C3.87822 1.58722 3.86263 1.58722 3.84715 1.58722C3.83166 1.58722 3.81628 1.58722 3.80101 1.58722C3.78573 1.58722 3.77055 1.58722 3.75548 1.58722C3.74042 1.58722 3.72545 1.58722 3.71059 1.58722C3.69572 1.58722 3.68097 1.58722 3.66631 1.58722C3.65166 1.58722 3.63711 1.58722 3.62266 1.58722C3.60822 1.58722 3.59388 1.58722 3.57964 1.58722C3.5654 1.58722 3.55127 1.58722 3.53724 1.58722C3.52322 1.58722 3.50929 1.58722 3.49547 1.58722C3.48166 1.58722 3.46794 1.58722 3.45434 1.58722C3.44073 1.58722 3.42723 1.58722 3.41383 1.58722C3.40043 1.58722 3.38714 1.58722 3.37395 1.58722C3.36077 1.58722 3.34769 1.58722 3.33471 1.58722C3.32174 1.58722 3.30887 1.58722 3.29611 1.58722C3.28334 1.58722 3.27069 1.58722 3.25814 1.58722C3.24559 1.58722 3.23314 1.58722 3.2208 1.58722C3.20846 1.58722 3.19623 1.58722 3.18411 1.58722C3.17198 1.58722 3.15996 1.58722 3.14805 1.58722C3.13614 1.58722 3.12434 1.58722 3.11264 1.58722C3.10094 1.58722 3.08935 1.58722 3.07787 1.58722C3.06638 1.58722 3.05501 1.58722 3.04374 1.58722C3.03247 1.58722 3.02131 1.58722 3.01026 1.58722C2.9992 1.58722 2.98826 1.58722 2.97742 1.58722C2.96658 1.58722 2.95585 1.58722 2.94523 1.58722C2.93461 1.58722 2.92409 1.58722 2.91369 1.58722C2.90328 1.58722 2.89299 1.58722 2.8828 1.58722C2.87261 1.58722 2.86253 1.58722 2.85256 1.58722C2.84258 1.58722 2.83272 1.58722 2.82297 1.58722C2.81321 1.58722 2.80357 1.58722 2.79403 1.58722C2.7845 1.58722 2.77507 1.58722 2.76575 1.58722C2.75644 1.58722 2.74723 1.58722 2.73813 1.58722C2.72903 1.58722 2.72004 1.58722 2.71116 1.58722C2.70229 1.58722 2.69352 1.58722 2.68486 1.58722C2.6762 1.58722 2.66765 1.58722 2.65921 1.58722C2.65077 1.58722 2.64244 1.58722 2.63422 1.58722C2.626 1.58722 2.61789 1.58722 2.6099 1.58722C2.6019 1.58722 2.59401 1.58722 2.58624 1.58722C2.57846 1.58722 2.57079 1.58722 2.56324 1.58722C2.55569 1.58722 2.54824 1.58722 2.54091 1.58722C2.53358 1.58722 2.52636 1.58722 2.51925 1.58722C2.51214 1.58722 2.50514 1.58722 2.49825 1.58722C2.49137 1.58722 2.48459 1.58722 2.47793 1.58722C2.47127 1.58722 2.46472 1.58722 2.45828 1.58722C2.45184 1.58722 2.44551 1.58722 2.4393 1.58722C2.43308 1.58722 2.42698 1.58722 2.42099 1.58722C2.415 1.58722 2.40912 1.58722 2.40336 1.58722C2.39759 1.58722 2.39194 1.58722 2.3864 1.58722C2.38086 1.58722 2.37544 1.58722 2.37012 1.58722C2.36481 1.58722 2.35961 1.58722 2.35452 1.58722C2.34944 1.58722 2.34446 1.58722 2.3396 1.58722C2.33474 1.58722 2.33 1.58722 2.32536 1.58722C2.32073 1.58722 2.31621 1.58722 2.31181 1.58722C2.3074 1.58722 2.30311 1.58722 2.29893 1.58722C2.29476 1.58722 2.29069 1.58722 2.28674 1.58722C2.2828 1.58722 2.27896 1.58722 2.27524 1.58722C2.27152 1.58722 2.26792 1.58722 2.26443 1.58722C2.26094 1.58722 2.25756 1.58722 2.2543 1.58722C2.25104 1.58722 2.2479 1.58722 2.24487 1.58722C2.24184 1.58722 2.23892 1.58722 2.23612 1.58722C2.23332 1.58722 2.23064 1.58722 2.22807 1.58722C2.2255 1.58722 2.22305 1.58722 2.22071 1.58722C2.21837 1.58722 2.21615 1.58722 2.21405 1.58722C2.21194 1.58722 2.20995 1.58722 2.20808 1.58722C2.2062 1.58722 2.20445 1.58722 2.20281 1.58722C2.20117 1.58722 2.19964 1.58722 2.19824 1.58722C2.19683 1.58722 2.19554 1.58722 2.19436 1.58722C2.19319 1.58722 2.19213 1.58722 2.19119 1.58722C2.19025 1.58722 2.18943 1.58722 2.18872 1.58722C2.18802 1.58722 2.18743 1.58722 2.18696 1.58722C2.18649 1.58722 2.18614 1.58722 2.1859 1.58722C2.18566 1.58722 2.18555 1.58722 2.18555 1.89536ZM115.889 51.1977V98.6512H116.505V51.1977H115.889ZM66.8908 2.20349C93.9495 2.20349 115.889 24.139 115.889 51.1977H116.505C116.505 23.7985 94.2898 1.58722 66.8908 1.58722V2.20349Z" fill="#660066"/>
</svg>
