<svg width="16" height="24" viewBox="0 0 16 24" fill="none" xmlns="http://www.w3.org/2000/svg">
<path d="M0.90509 8.24636C0.90509 7.78206 6.75324 6.78013 10.6754 6.78013C12.3763 6.78013 13.7148 6.96857 14.0572 7.47086C15.8232 9.80294 3.39078 24.4339 2.35483 23.9901C1.52405 23.7682 8.98313 14.4555 7.73975 10.6849C7.11906 8.69097 0.90509 8.91276 0.90509 8.24636Z" fill="#ED342B"/>
<path d="M10.4771 2.88145C10.4771 1.28886 11.6831 3.76701e-05 13.1695 3.76701e-05C14.6574 3.76701e-05 15.8618 1.28886 15.8618 2.88145C15.8618 4.47485 14.6574 5.76367 13.1695 5.76367C11.6831 5.76367 10.4771 4.47485 10.4771 2.88145Z" fill="#ED342B"/>
</svg>
