<svg width="137" height="137" viewBox="0 0 137 137" fill="none" xmlns="http://www.w3.org/2000/svg">
<ellipse cx="113.613" cy="5.66082" rx="4.99786" ry="4.99787" transform="rotate(90.3363 113.613 5.66082)" fill="#660066" fill-opacity="0.3"/>
<ellipse cx="131.973" cy="6.02655" rx="4.99786" ry="4.99787" transform="rotate(90.3363 131.973 6.02655)" fill="#660066" fill-opacity="0.3"/>
<ellipse cx="113.98" cy="24.019" rx="4.99786" ry="4.99787" transform="rotate(90.3363 113.98 24.019)" fill="#660066" fill-opacity="0.3"/>
<ellipse cx="95.9878" cy="42.0114" rx="4.99786" ry="4.99787" transform="rotate(90.3363 95.9878 42.0114)" fill="#660066" fill-opacity="0.3"/>
<ellipse cx="77.9958" cy="60.0036" rx="4.99786" ry="4.99787" transform="rotate(90.3363 77.9958 60.0036)" fill="#660066" fill-opacity="0.3"/>
<ellipse cx="60.0039" cy="77.9958" rx="4.99786" ry="4.99787" transform="rotate(90.3363 60.0039 77.9958)" fill="#660066" fill-opacity="0.3"/>
<ellipse cx="42.011" cy="95.9882" rx="4.99786" ry="4.99787" transform="rotate(90.3363 42.011 95.9882)" fill="#660066" fill-opacity="0.3"/>
<ellipse cx="24.0188" cy="113.981" rx="4.99786" ry="4.99787" transform="rotate(90.3363 24.0188 113.981)" fill="#660066" fill-opacity="0.3"/>
<ellipse cx="6.02708" cy="131.973" rx="4.99786" ry="4.99787" transform="rotate(90.3363 6.02708 131.973)" fill="#660066" fill-opacity="0.3"/>
<ellipse rx="4.99786" ry="4.99787" transform="matrix(-0.00586727 0.999983 -0.999983 -0.00587227 95.6206 5.55534)" fill="#660066" fill-opacity="0.3"/>
<ellipse cx="95.5156" cy="23.5471" rx="4.99786" ry="4.99787" transform="rotate(90.3363 95.5156 23.5471)" fill="#660066" fill-opacity="0.3"/>
<ellipse rx="4.99786" ry="4.99787" transform="matrix(-0.00586727 0.999983 -0.999983 -0.00587227 77.6287 5.44963)" fill="#660066" fill-opacity="0.3"/>
<ellipse cx="77.5227" cy="23.4416" rx="4.99786" ry="4.99787" transform="rotate(90.3363 77.5227 23.4416)" fill="#660066" fill-opacity="0.3"/>
<ellipse cx="77.4172" cy="41.4335" rx="4.99786" ry="4.99787" transform="rotate(90.3363 77.4172 41.4335)" fill="#660066" fill-opacity="0.3"/>
<ellipse rx="4.99786" ry="4.99787" transform="matrix(-0.00586727 0.999983 -0.999983 -0.00587227 59.6367 5.34416)" fill="#660066" fill-opacity="0.3"/>
<ellipse cx="59.5312" cy="23.3359" rx="4.99786" ry="4.99787" transform="rotate(90.3363 59.5312 23.3359)" fill="#660066" fill-opacity="0.3"/>
<ellipse cx="59.4263" cy="41.3278" rx="4.99786" ry="4.99787" transform="rotate(90.3363 59.4263 41.3278)" fill="#660066" fill-opacity="0.3"/>
<ellipse cx="59.3205" cy="59.32" rx="4.99786" ry="4.99787" transform="rotate(90.3363 59.3205 59.32)" fill="#660066" fill-opacity="0.3"/>
<ellipse rx="4.99786" ry="4.99787" transform="matrix(-0.00586727 0.999983 -0.999983 -0.00587227 41.6445 5.23845)" fill="#660066" fill-opacity="0.3"/>
<ellipse cx="41.5398" cy="23.2304" rx="4.99786" ry="4.99787" transform="rotate(90.3363 41.5398 23.2304)" fill="#660066" fill-opacity="0.3"/>
<ellipse cx="41.4338" cy="41.2223" rx="4.99786" ry="4.99787" transform="rotate(90.3363 41.4338 41.2223)" fill="#660066" fill-opacity="0.3"/>
<ellipse cx="41.3279" cy="59.2143" rx="4.99786" ry="4.99787" transform="rotate(90.3363 41.3279 59.2143)" fill="#660066" fill-opacity="0.3"/>
<ellipse cx="41.2224" cy="77.2062" rx="4.99786" ry="4.99787" transform="rotate(90.3363 41.2224 77.2062)" fill="#660066" fill-opacity="0.3"/>
<ellipse rx="4.99786" ry="4.99787" transform="matrix(-0.00586727 0.999983 -0.999983 -0.00587227 23.6536 5.13274)" fill="#660066" fill-opacity="0.3"/>
<ellipse cx="23.5471" cy="23.1247" rx="4.99786" ry="4.99787" transform="rotate(90.3363 23.5471 23.1247)" fill="#660066" fill-opacity="0.3"/>
<ellipse cx="23.4416" cy="41.1166" rx="4.99786" ry="4.99787" transform="rotate(90.3363 23.4416 41.1166)" fill="#660066" fill-opacity="0.3"/>
<ellipse cx="23.3357" cy="59.1086" rx="4.99786" ry="4.99787" transform="rotate(90.3363 23.3357 59.1086)" fill="#660066" fill-opacity="0.3"/>
<ellipse cx="23.23" cy="77.1008" rx="4.99786" ry="4.99787" transform="rotate(90.3363 23.23 77.1008)" fill="#660066" fill-opacity="0.3"/>
<ellipse cx="23.125" cy="95.0927" rx="4.99786" ry="4.99787" transform="rotate(90.3363 23.125 95.0927)" fill="#660066" fill-opacity="0.3"/>
<ellipse rx="4.99786" ry="4.99787" transform="matrix(-0.00586727 0.999983 -0.999983 -0.00587227 5.66064 5.02702)" fill="#660066" fill-opacity="0.3"/>
<ellipse cx="5.5554" cy="23.0192" rx="4.99786" ry="4.99787" transform="rotate(90.3363 5.5554 23.0192)" fill="#660066" fill-opacity="0.3"/>
<ellipse cx="5.44993" cy="41.0112" rx="4.99786" ry="4.99787" transform="rotate(90.3363 5.44993 41.0112)" fill="#660066" fill-opacity="0.3"/>
<ellipse cx="5.34398" cy="59.0031" rx="4.99786" ry="4.99787" transform="rotate(90.3363 5.34398 59.0031)" fill="#660066" fill-opacity="0.3"/>
<ellipse cx="5.239" cy="76.9951" rx="4.99786" ry="4.99787" transform="rotate(90.3363 5.239 76.9951)" fill="#660066" fill-opacity="0.3"/>
<ellipse cx="5.13255" cy="94.987" rx="4.99786" ry="4.99787" transform="rotate(90.3363 5.13255 94.987)" fill="#660066" fill-opacity="0.3"/>
<ellipse cx="5.02708" cy="112.979" rx="4.99786" ry="4.99787" transform="rotate(90.3363 5.02708 112.979)" fill="#660066" fill-opacity="0.3"/>
</svg>
