<svg width="44" height="44" viewBox="0 0 44 44" fill="none" xmlns="http://www.w3.org/2000/svg">
<path opacity="0.9" d="M2.33203 43.1439C3.06841 43.1439 3.66536 42.5469 3.66536 41.8105C3.66536 41.0742 3.06841 40.4772 2.33203 40.4772C1.59565 40.4772 0.998698 41.0742 0.998698 41.8105C0.998698 42.5469 1.59565 43.1439 2.33203 43.1439ZM2.33203 1.5996L2.33203 1.3496L2.08203 1.3496L2.08203 1.5996L2.33203 1.5996ZM42.543 2.93293C43.2794 2.93293 43.8763 2.33598 43.8763 1.5996C43.8763 0.863217 43.2794 0.266263 42.543 0.266263C41.8066 0.266263 41.2096 0.863217 41.2096 1.5996C41.2096 2.33598 41.8066 2.93293 42.543 2.93293ZM2.33203 41.8105C2.58203 41.8105 2.58203 41.8105 2.58203 41.8103C2.58203 41.8101 2.58203 41.8098 2.58203 41.8094C2.58203 41.8091 2.58203 41.8086 2.58203 41.808C2.58203 41.8075 2.58203 41.8068 2.58203 41.8061C2.58203 41.8053 2.58203 41.8045 2.58203 41.8036C2.58203 41.8026 2.58203 41.8016 2.58203 41.8005C2.58203 41.7994 2.58203 41.7982 2.58203 41.7969C2.58203 41.7956 2.58203 41.7942 2.58203 41.7927C2.58203 41.7912 2.58203 41.7897 2.58203 41.788C2.58203 41.7863 2.58203 41.7846 2.58203 41.7827C2.58203 41.7809 2.58203 41.779 2.58203 41.7769C2.58203 41.7749 2.58203 41.7728 2.58203 41.7706C2.58203 41.7684 2.58203 41.7661 2.58203 41.7637C2.58203 41.7613 2.58203 41.7588 2.58203 41.7563C2.58203 41.7537 2.58203 41.751 2.58203 41.7483C2.58203 41.7455 2.58203 41.7427 2.58203 41.7398C2.58203 41.7368 2.58203 41.7338 2.58203 41.7307C2.58203 41.7276 2.58203 41.7244 2.58203 41.7211C2.58203 41.7178 2.58203 41.7145 2.58203 41.711C2.58203 41.7075 2.58203 41.704 2.58203 41.7003C2.58203 41.6967 2.58203 41.693 2.58203 41.6892C2.58203 41.6853 2.58203 41.6814 2.58203 41.6774C2.58203 41.6735 2.58203 41.6694 2.58203 41.6652C2.58203 41.661 2.58203 41.6568 2.58203 41.6524C2.58203 41.6481 2.58203 41.6437 2.58203 41.6391C2.58203 41.6346 2.58203 41.63 2.58203 41.6253C2.58203 41.6206 2.58203 41.6158 2.58203 41.611C2.58203 41.6061 2.58203 41.6011 2.58203 41.5961C2.58203 41.5911 2.58203 41.5859 2.58203 41.5807C2.58203 41.5755 2.58203 41.5702 2.58203 41.5648C2.58203 41.5594 2.58203 41.554 2.58203 41.5484C2.58203 41.5429 2.58203 41.5372 2.58203 41.5315C2.58203 41.5258 2.58203 41.5199 2.58203 41.514C2.58203 41.5081 2.58203 41.5022 2.58203 41.4961C2.58203 41.49 2.58203 41.4839 2.58203 41.4776C2.58203 41.4714 2.58203 41.4651 2.58203 41.4586C2.58203 41.4522 2.58203 41.4457 2.58203 41.4392C2.58203 41.4326 2.58203 41.4259 2.58203 41.4192C2.58203 41.4124 2.58203 41.4056 2.58203 41.3987C2.58203 41.3918 2.58203 41.3848 2.58203 41.3777C2.58203 41.3706 2.58203 41.3634 2.58203 41.3562C2.58203 41.3489 2.58203 41.3416 2.58203 41.3342C2.58203 41.3268 2.58203 41.3193 2.58203 41.3117C2.58203 41.3041 2.58203 41.2965 2.58203 41.2887C2.58203 41.281 2.58203 41.2731 2.58203 41.2652C2.58203 41.2573 2.58203 41.2493 2.58203 41.2412C2.58203 41.2332 2.58203 41.225 2.58203 41.2168C2.58203 41.2085 2.58203 41.2002 2.58203 41.1918C2.58203 41.1834 2.58203 41.1749 2.58203 41.1663C2.58203 41.1578 2.58203 41.1491 2.58203 41.1404C2.58203 41.1317 2.58203 41.1229 2.58203 41.114C2.58203 41.1051 2.58203 41.0961 2.58203 41.0871C2.58203 41.078 2.58203 41.0689 2.58203 41.0597C2.58203 41.0505 2.58203 41.0412 2.58203 41.0318C2.58203 41.0224 2.58203 41.013 2.58203 41.0034C2.58203 40.9939 2.58203 40.9843 2.58203 40.9746C2.58203 40.9649 2.58203 40.9551 2.58203 40.9453C2.58203 40.9354 2.58203 40.9255 2.58203 40.9155C2.58203 40.9055 2.58203 40.8954 2.58203 40.8852C2.58203 40.875 2.58203 40.8648 2.58203 40.8545C2.58203 40.8441 2.58203 40.8337 2.58203 40.8233C2.58203 40.8128 2.58203 40.8022 2.58203 40.7916C2.58203 40.7809 2.58203 40.7702 2.58203 40.7594C2.58203 40.7486 2.58203 40.7378 2.58203 40.7268C2.58203 40.7159 2.58203 40.7048 2.58203 40.6937C2.58203 40.6826 2.58203 40.6714 2.58203 40.6602C2.58203 40.6489 2.58203 40.6376 2.58203 40.6262C2.58203 40.6148 2.58203 40.6033 2.58203 40.5917C2.58203 40.5801 2.58203 40.5685 2.58203 40.5568C2.58203 40.5451 2.58203 40.5333 2.58203 40.5214C2.58203 40.5095 2.58203 40.4976 2.58203 40.4855C2.58203 40.4735 2.58203 40.4614 2.58203 40.4492C2.58203 40.4371 2.58203 40.4248 2.58203 40.4125C2.58203 40.4002 2.58203 40.3878 2.58203 40.3753C2.58203 40.3628 2.58203 40.3503 2.58203 40.3376C2.58203 40.325 2.58203 40.3123 2.58203 40.2995C2.58203 40.2867 2.58203 40.2739 2.58203 40.261C2.58203 40.248 2.58203 40.235 2.58203 40.222C2.58203 40.2089 2.58203 40.1957 2.58203 40.1825C2.58203 40.1693 2.58203 40.156 2.58203 40.1426C2.58203 40.1293 2.58203 40.1158 2.58203 40.1023C2.58203 40.0888 2.58203 40.0752 2.58203 40.0615C2.58203 40.0479 2.58203 40.0341 2.58203 40.0203C2.58203 40.0065 2.58203 39.9926 2.58203 39.9787C2.58203 39.9647 2.58203 39.9507 2.58203 39.9366C2.58203 39.9225 2.58203 39.9083 2.58203 39.8941C2.58203 39.8798 2.58203 39.8655 2.58203 39.8511C2.58203 39.8367 2.58203 39.8223 2.58203 39.8077C2.58203 39.7932 2.58203 39.7786 2.58203 39.7639C2.58203 39.7493 2.58203 39.7345 2.58203 39.7197C2.58203 39.7049 2.58203 39.69 2.58203 39.675C2.58203 39.6601 2.58203 39.645 2.58203 39.6299C2.58203 39.6148 2.58203 39.5997 2.58203 39.5844C2.58203 39.5692 2.58203 39.5539 2.58203 39.5385C2.58203 39.5231 2.58203 39.5076 2.58203 39.4921C2.58203 39.4766 2.58203 39.461 2.58203 39.4453C2.58203 39.4297 2.58203 39.414 2.58203 39.3981C2.58203 39.3823 2.58203 39.3665 2.58203 39.3505C2.58203 39.3346 2.58203 39.3186 2.58203 39.3025C2.58203 39.2864 2.58203 39.2703 2.58203 39.2541C2.58203 39.2379 2.58203 39.2216 2.58203 39.2052C2.58203 39.1889 2.58203 39.1724 2.58203 39.156C2.58203 39.1395 2.58203 39.1229 2.58203 39.1063C2.58203 39.0897 2.58203 39.073 2.58203 39.0562C2.58203 39.0394 2.58203 39.0226 2.58203 39.0057C2.58203 38.9888 2.58203 38.9718 2.58203 38.9548C2.58203 38.9378 2.58203 38.9207 2.58203 38.9035C2.58203 38.8864 2.58203 38.8691 2.58203 38.8518C2.58203 38.8345 2.58203 38.8172 2.58203 38.7997C2.58203 38.7823 2.58203 38.7648 2.58203 38.7472C2.58203 38.7297 2.58203 38.712 2.58203 38.6943C2.58203 38.6766 2.58203 38.6589 2.58203 38.6411C2.58203 38.6232 2.58203 38.6053 2.58203 38.5874C2.58203 38.5694 2.58203 38.5514 2.58203 38.5333C2.58203 38.5152 2.58203 38.4971 2.58203 38.4788C2.58203 38.4606 2.58203 38.4423 2.58203 38.424C2.58203 38.4056 2.58203 38.3872 2.58203 38.3687C2.58203 38.3503 2.58203 38.3317 2.58203 38.3131C2.58203 38.2945 2.58203 38.2758 2.58203 38.2571C2.58203 38.2384 2.58203 38.2196 2.58203 38.2007C2.58203 38.1818 2.58203 38.1629 2.58203 38.1439C2.58203 38.1249 2.58203 38.1059 2.58203 38.0868C2.58203 38.0676 2.58203 38.0485 2.58203 38.0292C2.58203 38.01 2.58203 37.9907 2.58203 37.9713C2.58203 37.9519 2.58203 37.9325 2.58203 37.913C2.58203 37.8935 2.58203 37.8739 2.58203 37.8543C2.58203 37.8347 2.58203 37.815 2.58203 37.7953C2.58203 37.7755 2.58203 37.7557 2.58203 37.7359C2.58203 37.716 2.58203 37.6961 2.58203 37.6761C2.58203 37.6561 2.58203 37.636 2.58203 37.6159C2.58203 37.5958 2.58203 37.5756 2.58203 37.5554C2.58203 37.5352 2.58203 37.5149 2.58203 37.4945C2.58203 37.4742 2.58203 37.4537 2.58203 37.4333C2.58203 37.4128 2.58203 37.3923 2.58203 37.3717C2.58203 37.3511 2.58203 37.3304 2.58203 37.3097C2.58203 37.289 2.58203 37.2682 2.58203 37.2473C2.58203 37.2265 2.58203 37.2056 2.58203 37.1846C2.58203 37.1637 2.58203 37.1427 2.58203 37.1216C2.58203 37.1005 2.58203 37.0794 2.58203 37.0582C2.58203 37.037 2.58203 37.0157 2.58203 36.9944C2.58203 36.9731 2.58203 36.9517 2.58203 36.9303C2.58203 36.9089 2.58203 36.8874 2.58203 36.8659C2.58203 36.8443 2.58203 36.8227 2.58203 36.801C2.58203 36.7794 2.58203 36.7577 2.58203 36.7359C2.58203 36.7141 2.58203 36.6923 2.58203 36.6704C2.58203 36.6485 2.58203 36.6265 2.58203 36.6045C2.58203 36.5825 2.58203 36.5604 2.58203 36.5383C2.58203 36.5162 2.58203 36.494 2.58203 36.4718C2.58203 36.4495 2.58203 36.4273 2.58203 36.4049C2.58203 36.3826 2.58203 36.3601 2.58203 36.3377C2.58203 36.3152 2.58203 36.2927 2.58203 36.2701C2.58203 36.2476 2.58203 36.2249 2.58203 36.2022C2.58203 36.1796 2.58203 36.1568 2.58203 36.134C2.58203 36.1112 2.58203 36.0884 2.58203 36.0655C2.58203 36.0425 2.58203 36.0196 2.58203 35.9966C2.58203 35.9735 2.58203 35.9505 2.58203 35.9273C2.58203 35.9042 2.58203 35.881 2.58203 35.8578C2.58203 35.8346 2.58203 35.8113 2.58203 35.7879C2.58203 35.7646 2.58203 35.7412 2.58203 35.7177C2.58203 35.6943 2.58203 35.6707 2.58203 35.6472C2.58203 35.6236 2.58203 35.6 2.58203 35.5763C2.58203 35.5527 2.58203 35.5289 2.58203 35.5052C2.58203 35.4814 2.58203 35.4576 2.58203 35.4337C2.58203 35.4098 2.58203 35.3859 2.58203 35.3619C2.58203 35.3379 2.58203 35.3138 2.58203 35.2897C2.58203 35.2656 2.58203 35.2415 2.58203 35.2173C2.58203 35.1931 2.58203 35.1688 2.58203 35.1445C2.58203 35.1202 2.58203 35.0959 2.58203 35.0715C2.58203 35.0471 2.58203 35.0226 2.58203 34.9981C2.58203 34.9736 2.58203 34.949 2.58203 34.9244C2.58203 34.8998 2.58203 34.8751 2.58203 34.8504C2.58203 34.8257 2.58203 34.8009 2.58203 34.7761C2.58203 34.7513 2.58203 34.7264 2.58203 34.7015C2.58203 34.6766 2.58203 34.6516 2.58203 34.6266C2.58203 34.6016 2.58203 34.5765 2.58203 34.5514C2.58203 34.5263 2.58203 34.5011 2.58203 34.4759C2.58203 34.4507 2.58203 34.4254 2.58203 34.4001C2.58203 34.3748 2.58203 34.3494 2.58203 34.324C2.58203 34.2986 2.58203 34.2731 2.58203 34.2476C2.58203 34.222 2.58203 34.1965 2.58203 34.1709C2.58203 34.1453 2.58203 34.1196 2.58203 34.0939C2.58203 34.0682 2.58203 34.0424 2.58203 34.0166C2.58203 33.9908 2.58203 33.9649 2.58203 33.939C2.58203 33.9131 2.58203 33.8872 2.58203 33.8612C2.58203 33.8352 2.58203 33.8091 2.58203 33.783C2.58203 33.7569 2.58203 33.7308 2.58203 33.7046C2.58203 33.6784 2.58203 33.6522 2.58203 33.6259C2.58203 33.5996 2.58203 33.5733 2.58203 33.5469C2.58203 33.5205 2.58203 33.4941 2.58203 33.4676C2.58203 33.4411 2.58203 33.4146 2.58203 33.388C2.58203 33.3615 2.58203 33.3349 2.58203 33.3082C2.58203 33.2815 2.58203 33.2548 2.58203 33.2281C2.58203 33.2013 2.58203 33.1745 2.58203 33.1477C2.58203 33.1209 2.58203 33.094 2.58203 33.067C2.58203 33.0401 2.58203 33.0131 2.58203 32.9861C2.58203 32.9591 2.58203 32.932 2.58203 32.9049C2.58203 32.8778 2.58203 32.8506 2.58203 32.8234C2.58203 32.7962 2.58203 32.769 2.58203 32.7417C2.58203 32.7144 2.58203 32.6871 2.58203 32.6597C2.58203 32.6323 2.58203 32.6049 2.58203 32.5774C2.58203 32.5499 2.58203 32.5224 2.58203 32.4949C2.58203 32.4673 2.58203 32.4397 2.58203 32.4121C2.58203 32.3844 2.58203 32.3567 2.58203 32.329C2.58203 32.3013 2.58203 32.2735 2.58203 32.2457C2.58203 32.2179 2.58203 32.19 2.58203 32.1621C2.58203 32.1342 2.58203 32.1063 2.58203 32.0783C2.58203 32.0503 2.58203 32.0223 2.58203 31.9942C2.58203 31.9661 2.58203 31.938 2.58203 31.9099C2.58203 31.8817 2.58203 31.8535 2.58203 31.8253C2.58203 31.7971 2.58203 31.7688 2.58203 31.7405C2.58203 31.7121 2.58203 31.6838 2.58203 31.6554C2.58203 31.627 2.58203 31.5985 2.58203 31.57C2.58203 31.5416 2.58203 31.513 2.58203 31.4845C2.58203 31.4559 2.58203 31.4273 2.58203 31.3986C2.58203 31.37 2.58203 31.3413 2.58203 31.3126C2.58203 31.2839 2.58203 31.2551 2.58203 31.2263C2.58203 31.1975 2.58203 31.1686 2.58203 31.1397C2.58203 31.1108 2.58203 31.0819 2.58203 31.053C2.58203 31.024 2.58203 30.995 2.58203 30.9659C2.58203 30.9369 2.58203 30.9078 2.58203 30.8787C2.58203 30.8496 2.58203 30.8204 2.58203 30.7912C2.58203 30.762 2.58203 30.7328 2.58203 30.7035C2.58203 30.6742 2.58203 30.6449 2.58203 30.6155C2.58203 30.5862 2.58203 30.5568 2.58203 30.5274C2.58203 30.4979 2.58203 30.4685 2.58203 30.439C2.58203 30.4095 2.58203 30.3799 2.58203 30.3503C2.58203 30.3208 2.58203 30.2911 2.58203 30.2615C2.58203 30.2318 2.58203 30.2021 2.58203 30.1724C2.58203 30.1427 2.58203 30.1129 2.58203 30.0831C2.58203 30.0533 2.58203 30.0235 2.58203 29.9936C2.58203 29.9637 2.58203 29.9338 2.58203 29.9039C2.58203 29.8739 2.58203 29.8439 2.58203 29.8139C2.58203 29.7839 2.58203 29.7538 2.58203 29.7237C2.58203 29.6936 2.58203 29.6635 2.58203 29.6334C2.58203 29.6032 2.58203 29.573 2.58203 29.5428C2.58203 29.5125 2.58203 29.4823 2.58203 29.452C2.58203 29.4216 2.58203 29.3913 2.58203 29.3609C2.58203 29.3306 2.58203 29.3002 2.58203 29.2697C2.58203 29.2393 2.58203 29.2088 2.58203 29.1783C2.58203 29.1478 2.58203 29.1172 2.58203 29.0866C2.58203 29.0561 2.58203 29.0255 2.58203 28.9948C2.58203 28.9642 2.58203 28.9335 2.58203 28.9028C2.58203 28.8721 2.58203 28.8413 2.58203 28.8105C2.58203 28.7798 2.58203 28.7489 2.58203 28.7181C2.58203 28.6872 2.58203 28.6564 2.58203 28.6255C2.58203 28.5945 2.58203 28.5636 2.58203 28.5326C2.58203 28.5016 2.58203 28.4706 2.58203 28.4396C2.58203 28.4086 2.58203 28.3775 2.58203 28.3464C2.58203 28.3153 2.58203 28.2841 2.58203 28.253C2.58203 28.2218 2.58203 28.1906 2.58203 28.1594C2.58203 28.1281 2.58203 28.0969 2.58203 28.0656C2.58203 28.0343 2.58203 28.0029 2.58203 27.9716C2.58203 27.9402 2.58203 27.9088 2.58203 27.8774C2.58203 27.846 2.58203 27.8146 2.58203 27.7831C2.58203 27.7516 2.58203 27.7201 2.58203 27.6885C2.58203 27.657 2.58203 27.6254 2.58203 27.5938C2.58203 27.5622 2.58203 27.5306 2.58203 27.4989C2.58203 27.4673 2.58203 27.4356 2.58203 27.4039C2.58203 27.3721 2.58203 27.3404 2.58203 27.3086C2.58203 27.2768 2.58203 27.245 2.58203 27.2132C2.58203 27.1814 2.58203 27.1495 2.58203 27.1176C2.58203 27.0857 2.58203 27.0538 2.58203 27.0218C2.58203 26.9899 2.58203 26.9579 2.58203 26.9259C2.58203 26.8939 2.58203 26.8618 2.58203 26.8298C2.58203 26.7977 2.58203 26.7656 2.58203 26.7335C2.58203 26.7014 2.58203 26.6692 2.58203 26.6371C2.58203 26.6049 2.58203 26.5727 2.58203 26.5405C2.58203 26.5082 2.58203 26.476 2.58203 26.4437C2.58203 26.4114 2.58203 26.3791 2.58203 26.3468C2.58203 26.3144 2.58203 26.2821 2.58203 26.2497C2.58203 26.2173 2.58203 26.1849 2.58203 26.1524C2.58203 26.12 2.58203 26.0875 2.58203 26.055C2.58203 26.0225 2.58203 25.99 2.58203 25.9574C2.58203 25.9249 2.58203 25.8923 2.58203 25.8597C2.58203 25.8271 2.58203 25.7945 2.58203 25.7618C2.58203 25.7292 2.58203 25.6965 2.58203 25.6638C2.58203 25.6311 2.58203 25.5984 2.58203 25.5656C2.58203 25.5329 2.58203 25.5001 2.58203 25.4673C2.58203 25.4345 2.58203 25.4017 2.58203 25.3689C2.58203 25.336 2.58203 25.3031 2.58203 25.2702C2.58203 25.2373 2.58203 25.2044 2.58203 25.1715C2.58203 25.1385 2.58203 25.1056 2.58203 25.0726C2.58203 25.0396 2.58203 25.0066 2.58203 24.9735C2.58203 24.9405 2.58203 24.9074 2.58203 24.8744C2.58203 24.8413 2.58203 24.8082 2.58203 24.775C2.58203 24.7419 2.58203 24.7088 2.58203 24.6756C2.58203 24.6424 2.58203 24.6092 2.58203 24.576C2.58203 24.5428 2.58203 24.5095 2.58203 24.4763C2.58203 24.443 2.58203 24.4097 2.58203 24.3764C2.58203 24.3431 2.58203 24.3098 2.58203 24.2764C2.58203 24.2431 2.58203 24.2097 2.58203 24.1763C2.58203 24.1429 2.58203 24.1095 2.58203 24.0761C2.58203 24.0426 2.58203 24.0092 2.58203 23.9757C2.58203 23.9422 2.58203 23.9087 2.58203 23.8752C2.58203 23.8417 2.58203 23.8081 2.58203 23.7746C2.58203 23.741 2.58203 23.7074 2.58203 23.6738C2.58203 23.6402 2.58203 23.6066 2.58203 23.573C2.58203 23.5393 2.58203 23.5057 2.58203 23.472C2.58203 23.4383 2.58203 23.4046 2.58203 23.3709C2.58203 23.3372 2.58203 23.3035 2.58203 23.2697C2.58203 23.2359 2.58203 23.2022 2.58203 23.1684C2.58203 23.1346 2.58203 23.1008 2.58203 23.0669C2.58203 23.0331 2.58203 22.9993 2.58203 22.9654C2.58203 22.9315 2.58203 22.8976 2.58203 22.8637C2.58203 22.8298 2.58203 22.7959 2.58203 22.762C2.58203 22.728 2.58203 22.6941 2.58203 22.6601C2.58203 22.6261 2.58203 22.5921 2.58203 22.5581C2.58203 22.5241 2.58203 22.4901 2.58203 22.456C2.58203 22.422 2.58203 22.3879 2.58203 22.3538C2.58203 22.3198 2.58203 22.2857 2.58203 22.2516C2.58203 22.2174 2.58203 22.1833 2.58203 22.1492C2.58203 22.115 2.58203 22.0809 2.58203 22.0467C2.58203 22.0125 2.58203 21.9783 2.58203 21.9441C2.58203 21.9099 2.58203 21.8757 2.58203 21.8414C2.58203 21.8072 2.58203 21.7729 2.58203 21.7387C2.58203 21.7044 2.58203 21.6701 2.58203 21.6358C2.58203 21.6015 2.58203 21.5672 2.58203 21.5329C2.58203 21.4985 2.58203 21.4642 2.58203 21.4298C2.58203 21.3955 2.58203 21.3611 2.58203 21.3267C2.58203 21.2923 2.58203 21.2579 2.58203 21.2235C2.58203 21.1891 2.58203 21.1546 2.58203 21.1202C2.58203 21.0857 2.58203 21.0513 2.58203 21.0168C2.58203 20.9823 2.58203 20.9478 2.58203 20.9133C2.58203 20.8788 2.58203 20.8443 2.58203 20.8098C2.58203 20.7753 2.58203 20.7407 2.58203 20.7062C2.58203 20.6716 2.58203 20.6371 2.58203 20.6025C2.58203 20.5679 2.58203 20.5333 2.58203 20.4987C2.58203 20.4641 2.58203 20.4295 2.58203 20.3949C2.58203 20.3602 2.58203 20.3256 2.58203 20.291C2.58203 20.2563 2.58203 20.2216 2.58203 20.187C2.58203 20.1523 2.58203 20.1176 2.58203 20.0829C2.58203 20.0482 2.58203 20.0135 2.58203 19.9788C2.58203 19.9441 2.58203 19.9093 2.58203 19.8746C2.58203 19.8398 2.58203 19.8051 2.58203 19.7703C2.58203 19.7356 2.58203 19.7008 2.58203 19.666C2.58203 19.6312 2.58203 19.5964 2.58203 19.5616C2.58203 19.5268 2.58203 19.492 2.58203 19.4572C2.58203 19.4224 2.58203 19.3875 2.58203 19.3527C2.58203 19.3178 2.58203 19.283 2.58203 19.2481C2.58203 19.2133 2.58203 19.1784 2.58203 19.1435C2.58203 19.1086 2.58203 19.0737 2.58203 19.0388C2.58203 19.0039 2.58203 18.969 2.58203 18.9341C2.58203 18.8992 2.58203 18.8643 2.58203 18.8293C2.58203 18.7944 2.58203 18.7595 2.58203 18.7245C2.58203 18.6896 2.58203 18.6546 2.58203 18.6196C2.58203 18.5847 2.58203 18.5497 2.58203 18.5147C2.58203 18.4797 2.58203 18.4447 2.58203 18.4097C2.58203 18.3747 2.58203 18.3397 2.58203 18.3047C2.58203 18.2697 2.58203 18.2347 2.58203 18.1997C2.58203 18.1646 2.58203 18.1296 2.58203 18.0946C2.58203 18.0595 2.58203 18.0245 2.58203 17.9894C2.58203 17.9544 2.58203 17.9193 2.58203 17.8843C2.58203 17.8492 2.58203 17.8141 2.58203 17.7791C2.58203 17.744 2.58203 17.7089 2.58203 17.6738C2.58203 17.6387 2.58203 17.6036 2.58203 17.5685C2.58203 17.5334 2.58203 17.4983 2.58203 17.4632C2.58203 17.4281 2.58203 17.393 2.58203 17.3579C2.58203 17.3228 2.58203 17.2876 2.58203 17.2525C2.58203 17.2174 2.58203 17.1822 2.58203 17.1471C2.58203 17.112 2.58203 17.0768 2.58203 17.0417C2.58203 17.0065 2.58203 16.9714 2.58203 16.9362C2.58203 16.9011 2.58203 16.8659 2.58203 16.8307C2.58203 16.7956 2.58203 16.7604 2.58203 16.7252C2.58203 16.6901 2.58203 16.6549 2.58203 16.6197C2.58203 16.5846 2.58203 16.5494 2.58203 16.5142C2.58203 16.479 2.58203 16.4438 2.58203 16.4086C2.58203 16.3735 2.58203 16.3383 2.58203 16.3031C2.58203 16.2679 2.58203 16.2327 2.58203 16.1975C2.58203 16.1623 2.58203 16.1271 2.58203 16.0919C2.58203 16.0567 2.58203 16.0215 2.58203 15.9863C2.58203 15.9511 2.58203 15.9159 2.58203 15.8807C2.58203 15.8455 2.58203 15.8103 2.58203 15.775C2.58203 15.7398 2.58203 15.7046 2.58203 15.6694C2.58203 15.6342 2.58203 15.599 2.58203 15.5638C2.58203 15.5286 2.58203 15.4933 2.58203 15.4581C2.58203 15.4229 2.58203 15.3877 2.58203 15.3525C2.58203 15.3173 2.58203 15.2821 2.58203 15.2468C2.58203 15.2116 2.58203 15.1764 2.58203 15.1412C2.58203 15.106 2.58203 15.0708 2.58203 15.0355C2.58203 15.0003 2.58203 14.9651 2.58203 14.9299C2.58203 14.8947 2.58203 14.8595 2.58203 14.8243C2.58203 14.7891 2.58203 14.7539 2.58203 14.7186C2.58203 14.6834 2.58203 14.6482 2.58203 14.613C2.58203 14.5778 2.58203 14.5426 2.58203 14.5074C2.58203 14.4722 2.58203 14.437 2.58203 14.4018C2.58203 14.3666 2.58203 14.3314 2.58203 14.2962C2.58203 14.261 2.58203 14.2258 2.58203 14.1906C2.58203 14.1555 2.58203 14.1203 2.58203 14.0851C2.58203 14.0499 2.58203 14.0147 2.58203 13.9795C2.58203 13.9444 2.58203 13.9092 2.58203 13.874C2.58203 13.8389 2.58203 13.8037 2.58203 13.7685C2.58203 13.7334 2.58203 13.6982 2.58203 13.663C2.58203 13.6279 2.58203 13.5927 2.58203 13.5576C2.58203 13.5224 2.58203 13.4873 2.58203 13.4521C2.58203 13.417 2.58203 13.3819 2.58203 13.3467C2.58203 13.3116 2.58203 13.2765 2.58203 13.2413C2.58203 13.2062 2.58203 13.1711 2.58203 13.136C2.58203 13.1009 2.58203 13.0658 2.58203 13.0307C2.58203 12.9956 2.58203 12.9605 2.58203 12.9254C2.58203 12.8903 2.58203 12.8552 2.58203 12.8201C2.58203 12.785 2.58203 12.75 2.58203 12.7149C2.58203 12.6798 2.58203 12.6448 2.58203 12.6097C2.58203 12.5747 2.58203 12.5396 2.58203 12.5046C2.58203 12.4695 2.58203 12.4345 2.58203 12.3994C2.58203 12.3644 2.58203 12.3294 2.58203 12.2944C2.58203 12.2594 2.58203 12.2244 2.58203 12.1894C2.58203 12.1543 2.58203 12.1194 2.58203 12.0844C2.58203 12.0494 2.58203 12.0144 2.58203 11.9794C2.58203 11.9445 2.58203 11.9095 2.58203 11.8745C2.58203 11.8396 2.58203 11.8046 2.58203 11.7697C2.58203 11.7348 2.58203 11.6998 2.58203 11.6649C2.58203 11.63 2.58203 11.5951 2.58203 11.5602C2.58203 11.5252 2.58203 11.4904 2.58203 11.4555C2.58203 11.4206 2.58203 11.3857 2.58203 11.3508C2.58203 11.316 2.58203 11.2811 2.58203 11.2462C2.58203 11.2114 2.58203 11.1766 2.58203 11.1417C2.58203 11.1069 2.58203 11.0721 2.58203 11.0373C2.58203 11.0024 2.58203 10.9676 2.58203 10.9328C2.58203 10.8981 2.58203 10.8633 2.58203 10.8285C2.58203 10.7937 2.58203 10.759 2.58203 10.7242C2.58203 10.6895 2.58203 10.6547 2.58203 10.62C2.58203 10.5853 2.58203 10.5506 2.58203 10.5159C2.58203 10.4812 2.58203 10.4465 2.58203 10.4118C2.58203 10.3771 2.58203 10.3424 2.58203 10.3078C2.58203 10.2731 2.58203 10.2385 2.58203 10.2038C2.58203 10.1692 2.58203 10.1346 2.58203 10.0999C2.58203 10.0653 2.58203 10.0307 2.58203 9.99615C2.58203 9.96156 2.58203 9.92699 2.58203 9.89242C2.58203 9.85786 2.58203 9.82331 2.58203 9.78878C2.58203 9.75424 2.58203 9.71972 2.58203 9.68521C2.58203 9.6507 2.58203 9.6162 2.58203 9.58172C2.58203 9.54724 2.58203 9.51277 2.58203 9.47831C2.58203 9.44386 2.58203 9.40941 2.58203 9.37498C2.58203 9.34056 2.58203 9.30614 2.58203 9.27174C2.58203 9.23734 2.58203 9.20296 2.58203 9.16859C2.58203 9.13421 2.58203 9.09986 2.58203 9.06551C2.58203 9.03117 2.58203 8.99685 2.58203 8.96253C2.58203 8.92822 2.58203 8.89392 2.58203 8.85964C2.58203 8.82536 2.58203 8.79109 2.58203 8.75684C2.58203 8.72259 2.58203 8.68835 2.58203 8.65413C2.58203 8.61991 2.58203 8.58571 2.58203 8.55152C2.58203 8.51733 2.58203 8.48316 2.58203 8.449C2.58203 8.41484 2.58203 8.38071 2.58203 8.34658C2.58203 8.31246 2.58203 8.27835 2.58203 8.24426C2.58203 8.21017 2.58203 8.17609 2.58203 8.14204C2.58203 8.10798 2.58203 8.07394 2.58203 8.03992C2.58203 8.0059 2.58203 7.97189 2.58203 7.9379C2.58203 7.90392 2.58203 7.86994 2.58203 7.83599C2.58203 7.80204 2.58203 7.7681 2.58203 7.73418C2.58203 7.70027 2.58203 7.66637 2.58203 7.63249C2.58203 7.59861 2.58203 7.56474 2.58203 7.5309C2.58203 7.49706 2.58203 7.46323 2.58203 7.42942C2.58203 7.39561 2.58203 7.36182 2.58203 7.32806C2.58203 7.29428 2.58203 7.26053 2.58203 7.2268C2.58203 7.19307 2.58203 7.15936 2.58203 7.12566C2.58203 7.09197 2.58203 7.0583 2.58203 7.02465C2.58203 6.99099 2.58203 6.95736 2.58203 6.92374C2.58203 6.89013 2.58203 6.85653 2.58203 6.82296C2.58203 6.78939 2.58203 6.75583 2.58203 6.7223C2.58203 6.68877 2.58203 6.65525 2.58203 6.62176C2.58203 6.58827 2.58203 6.55479 2.58203 6.52134C2.58203 6.48789 2.58203 6.45446 2.58203 6.42105C2.58203 6.38765 2.58203 6.35426 2.58203 6.32089C2.58203 6.28753 2.58203 6.25418 2.58203 6.22086C2.58203 6.18754 2.58203 6.15424 2.58203 6.12096C2.58203 6.08768 2.58203 6.05442 2.58203 6.02118C2.58203 5.98795 2.58203 5.95473 2.58203 5.92154C2.58203 5.88836 2.58203 5.85519 2.58203 5.82204C2.58203 5.78889 2.58203 5.75577 2.58203 5.72267C2.58203 5.68957 2.58203 5.65649 2.58203 5.62344C2.58203 5.59039 2.58203 5.55735 2.58203 5.52435C2.58203 5.49134 2.58203 5.45835 2.58203 5.4254C2.58203 5.39244 2.58203 5.3595 2.58203 5.32659C2.58203 5.29367 2.58203 5.26078 2.58203 5.22792C2.58203 5.19506 2.58203 5.16222 2.58203 5.1294C2.58203 5.09658 2.58203 5.06379 2.58203 5.03102C2.58203 4.99826 2.58203 4.96552 2.58203 4.9328C2.58203 4.90008 2.58203 4.86739 2.58203 4.83472C2.58203 4.80205 2.58203 4.76941 2.58203 4.73679C2.58203 4.70417 2.58203 4.67158 2.58203 4.63902C2.58203 4.60645 2.58203 4.57391 2.58203 4.5414C2.58203 4.50888 2.58203 4.47639 2.58203 4.44393C2.58203 4.41147 2.58203 4.37903 2.58203 4.34662C2.58203 4.31421 2.58203 4.28183 2.58203 4.24947C2.58203 4.21712 2.58203 4.18478 2.58203 4.15248C2.58203 4.12018 2.58203 4.0879 2.58203 4.05565C2.58203 4.0234 2.58203 3.99118 2.58203 3.95899C2.58203 3.92679 2.58203 3.89463 2.58203 3.86248C2.58203 3.83035 2.58203 3.79823 2.58203 3.76615C2.58203 3.73407 2.58203 3.70201 2.58203 3.66998C2.58203 3.63795 2.58203 3.60595 2.58203 3.57398C2.58203 3.54201 2.58203 3.51006 2.58203 3.47815C2.58203 3.44624 2.58203 3.41435 2.58203 3.38249C2.58203 3.35064 2.58203 3.31881 2.58203 3.28701C2.58203 3.25521 2.58203 3.22344 2.58203 3.1917C2.58203 3.15996 2.58203 3.12825 2.58203 3.09656C2.58203 3.06488 2.58203 3.03323 2.58203 3.00161C2.58203 2.96999 2.58203 2.93839 2.58203 2.90683C2.58203 2.87527 2.58203 2.84373 2.58203 2.81223C2.58203 2.78073 2.58203 2.74926 2.58203 2.71782C2.58203 2.68638 2.58203 2.65497 2.58203 2.62359C2.58203 2.59221 2.58203 2.56086 2.58203 2.52954C2.58203 2.49823 2.58203 2.46694 2.58203 2.43568C2.58203 2.40443 2.58203 2.3732 2.58203 2.34201C2.58203 2.31082 2.58203 2.27966 2.58203 2.24853C2.58203 2.2174 2.58203 2.18631 2.58203 2.15524C2.58203 2.12418 2.58203 2.09314 2.58203 2.06215C2.58203 2.03114 2.58203 2.00018 2.58203 1.96924C2.58203 1.9383 2.58203 1.9074 2.58203 1.87653C2.58203 1.84566 2.58203 1.81483 2.58203 1.78402C2.58203 1.75322 2.58203 1.72245 2.58203 1.69171C2.58203 1.66097 2.58203 1.63027 2.58203 1.5996L2.08203 1.5996C2.08203 1.63027 2.08203 1.66097 2.08203 1.69171C2.08203 1.72245 2.08203 1.75322 2.08203 1.78402C2.08203 1.81483 2.08203 1.84566 2.08203 1.87653C2.08203 1.9074 2.08203 1.9383 2.08203 1.96924C2.08203 2.00018 2.08203 2.03114 2.08203 2.06215C2.08203 2.09314 2.08203 2.12418 2.08203 2.15524C2.08203 2.18631 2.08203 2.2174 2.08203 2.24853C2.08203 2.27966 2.08203 2.31082 2.08203 2.34201C2.08203 2.3732 2.08203 2.40443 2.08203 2.43568C2.08203 2.46694 2.08203 2.49823 2.08203 2.52954C2.08203 2.56086 2.08203 2.59221 2.08203 2.62359C2.08203 2.65497 2.08203 2.68638 2.08203 2.71782C2.08203 2.74926 2.08203 2.78073 2.08203 2.81223C2.08203 2.84373 2.08203 2.87527 2.08203 2.90683C2.08203 2.93839 2.08203 2.96999 2.08203 3.00161C2.08203 3.03323 2.08203 3.06488 2.08203 3.09656C2.08203 3.12825 2.08203 3.15996 2.08203 3.1917C2.08203 3.22344 2.08203 3.25521 2.08203 3.28701C2.08203 3.31881 2.08203 3.35064 2.08203 3.38249C2.08203 3.41435 2.08203 3.44624 2.08203 3.47815C2.08203 3.51006 2.08203 3.54201 2.08203 3.57398C2.08203 3.60595 2.08203 3.63795 2.08203 3.66998C2.08203 3.70201 2.08203 3.73407 2.08203 3.76615C2.08203 3.79823 2.08203 3.83035 2.08203 3.86248C2.08203 3.89463 2.08203 3.92679 2.08203 3.95899C2.08203 3.99118 2.08203 4.0234 2.08203 4.05565C2.08203 4.0879 2.08203 4.12018 2.08203 4.15248C2.08203 4.18478 2.08203 4.21712 2.08203 4.24947C2.08203 4.28183 2.08203 4.31421 2.08203 4.34662C2.08203 4.37903 2.08203 4.41147 2.08203 4.44393C2.08203 4.47639 2.08203 4.50888 2.08203 4.5414C2.08203 4.57391 2.08203 4.60645 2.08203 4.63902C2.08203 4.67158 2.08203 4.70417 2.08203 4.73679C2.08203 4.76941 2.08203 4.80205 2.08203 4.83472C2.08203 4.86739 2.08203 4.90008 2.08203 4.9328C2.08203 4.96552 2.08203 4.99826 2.08203 5.03102C2.08203 5.06379 2.08203 5.09658 2.08203 5.1294C2.08203 5.16222 2.08203 5.19506 2.08203 5.22792C2.08203 5.26078 2.08203 5.29367 2.08203 5.32659C2.08203 5.3595 2.08203 5.39244 2.08203 5.4254C2.08203 5.45835 2.08203 5.49134 2.08203 5.52435C2.08203 5.55735 2.08203 5.59039 2.08203 5.62344C2.08203 5.65649 2.08203 5.68957 2.08203 5.72267C2.08203 5.75577 2.08203 5.78889 2.08203 5.82204C2.08203 5.85519 2.08203 5.88836 2.08203 5.92154C2.08203 5.95473 2.08203 5.98795 2.08203 6.02118C2.08203 6.05442 2.08203 6.08768 2.08203 6.12096C2.08203 6.15424 2.08203 6.18754 2.08203 6.22086C2.08203 6.25418 2.08203 6.28753 2.08203 6.32089C2.08203 6.35426 2.08203 6.38765 2.08203 6.42105C2.08203 6.45446 2.08203 6.48789 2.08203 6.52134C2.08203 6.55479 2.08203 6.58827 2.08203 6.62176C2.08203 6.65525 2.08203 6.68877 2.08203 6.7223C2.08203 6.75583 2.08203 6.78939 2.08203 6.82296C2.08203 6.85653 2.08203 6.89013 2.08203 6.92374C2.08203 6.95736 2.08203 6.99099 2.08203 7.02465C2.08203 7.0583 2.08203 7.09197 2.08203 7.12566C2.08203 7.15936 2.08203 7.19307 2.08203 7.2268C2.08203 7.26053 2.08203 7.29428 2.08203 7.32806C2.08203 7.36182 2.08203 7.39561 2.08203 7.42942C2.08203 7.46323 2.08203 7.49706 2.08203 7.5309C2.08203 7.56474 2.08203 7.59861 2.08203 7.63249C2.08203 7.66637 2.08203 7.70027 2.08203 7.73418C2.08203 7.7681 2.08203 7.80204 2.08203 7.83599C2.08203 7.86994 2.08203 7.90392 2.08203 7.9379C2.08203 7.97189 2.08203 8.0059 2.08203 8.03992C2.08203 8.07394 2.08203 8.10798 2.08203 8.14204C2.08203 8.17609 2.08203 8.21017 2.08203 8.24426C2.08203 8.27835 2.08203 8.31246 2.08203 8.34658C2.08203 8.38071 2.08203 8.41484 2.08203 8.449C2.08203 8.48316 2.08203 8.51733 2.08203 8.55152C2.08203 8.58571 2.08203 8.61991 2.08203 8.65413C2.08203 8.68835 2.08203 8.72259 2.08203 8.75684C2.08203 8.79109 2.08203 8.82536 2.08203 8.85964C2.08203 8.89392 2.08203 8.92822 2.08203 8.96253C2.08203 8.99685 2.08203 9.03117 2.08203 9.06551C2.08203 9.09986 2.08203 9.13421 2.08203 9.16859C2.08203 9.20296 2.08203 9.23734 2.08203 9.27174C2.08203 9.30614 2.08203 9.34056 2.08203 9.37498C2.08203 9.40941 2.08203 9.44386 2.08203 9.47831C2.08203 9.51277 2.08203 9.54724 2.08203 9.58172C2.08203 9.6162 2.08203 9.6507 2.08203 9.68521C2.08203 9.71972 2.08203 9.75424 2.08203 9.78878C2.08203 9.82331 2.08203 9.85786 2.08203 9.89242C2.08203 9.92699 2.08203 9.96156 2.08203 9.99615C2.08203 10.0307 2.08203 10.0653 2.08203 10.0999C2.08203 10.1346 2.08203 10.1692 2.08203 10.2038C2.08203 10.2385 2.08203 10.2731 2.08203 10.3078C2.08203 10.3424 2.08203 10.3771 2.08203 10.4118C2.08203 10.4465 2.08203 10.4812 2.08203 10.5159C2.08203 10.5506 2.08203 10.5853 2.08203 10.62C2.08203 10.6547 2.08203 10.6895 2.08203 10.7242C2.08203 10.759 2.08203 10.7937 2.08203 10.8285C2.08203 10.8633 2.08203 10.8981 2.08203 10.9328C2.08203 10.9676 2.08203 11.0024 2.08203 11.0373C2.08203 11.0721 2.08203 11.1069 2.08203 11.1417C2.08203 11.1766 2.08203 11.2114 2.08203 11.2462C2.08203 11.2811 2.08203 11.316 2.08203 11.3508C2.08203 11.3857 2.08203 11.4206 2.08203 11.4555C2.08203 11.4904 2.08203 11.5252 2.08203 11.5602C2.08203 11.5951 2.08203 11.63 2.08203 11.6649C2.08203 11.6998 2.08203 11.7348 2.08203 11.7697C2.08203 11.8046 2.08203 11.8396 2.08203 11.8745C2.08203 11.9095 2.08203 11.9445 2.08203 11.9794C2.08203 12.0144 2.08203 12.0494 2.08203 12.0844C2.08203 12.1194 2.08203 12.1543 2.08203 12.1894C2.08203 12.2244 2.08203 12.2594 2.08203 12.2944C2.08203 12.3294 2.08203 12.3644 2.08203 12.3994C2.08203 12.4345 2.08203 12.4695 2.08203 12.5046C2.08203 12.5396 2.08203 12.5747 2.08203 12.6097C2.08203 12.6448 2.08203 12.6798 2.08203 12.7149C2.08203 12.75 2.08203 12.785 2.08203 12.8201C2.08203 12.8552 2.08203 12.8903 2.08203 12.9254C2.08203 12.9605 2.08203 12.9956 2.08203 13.0307C2.08203 13.0658 2.08203 13.1009 2.08203 13.136C2.08203 13.1711 2.08203 13.2062 2.08203 13.2413C2.08203 13.2765 2.08203 13.3116 2.08203 13.3467C2.08203 13.3819 2.08203 13.417 2.08203 13.4521C2.08203 13.4873 2.08203 13.5224 2.08203 13.5576C2.08203 13.5927 2.08203 13.6279 2.08203 13.663C2.08203 13.6982 2.08203 13.7334 2.08203 13.7685C2.08203 13.8037 2.08203 13.8389 2.08203 13.874C2.08203 13.9092 2.08203 13.9444 2.08203 13.9795C2.08203 14.0147 2.08203 14.0499 2.08203 14.0851C2.08203 14.1203 2.08203 14.1555 2.08203 14.1906C2.08203 14.2258 2.08203 14.261 2.08203 14.2962C2.08203 14.3314 2.08203 14.3666 2.08203 14.4018C2.08203 14.437 2.08203 14.4722 2.08203 14.5074C2.08203 14.5426 2.08203 14.5778 2.08203 14.613C2.08203 14.6482 2.08203 14.6834 2.08203 14.7186C2.08203 14.7539 2.08203 14.7891 2.08203 14.8243C2.08203 14.8595 2.08203 14.8947 2.08203 14.9299C2.08203 14.9651 2.08203 15.0003 2.08203 15.0355C2.08203 15.0708 2.08203 15.106 2.08203 15.1412C2.08203 15.1764 2.08203 15.2116 2.08203 15.2468C2.08203 15.2821 2.08203 15.3173 2.08203 15.3525C2.08203 15.3877 2.08203 15.4229 2.08203 15.4581C2.08203 15.4933 2.08203 15.5286 2.08203 15.5638C2.08203 15.599 2.08203 15.6342 2.08203 15.6694C2.08203 15.7046 2.08203 15.7398 2.08203 15.775C2.08203 15.8103 2.08203 15.8455 2.08203 15.8807C2.08203 15.9159 2.08203 15.9511 2.08203 15.9863C2.08203 16.0215 2.08203 16.0567 2.08203 16.0919C2.08203 16.1271 2.08203 16.1623 2.08203 16.1975C2.08203 16.2327 2.08203 16.2679 2.08203 16.3031C2.08203 16.3383 2.08203 16.3735 2.08203 16.4086C2.08203 16.4438 2.08203 16.479 2.08203 16.5142C2.08203 16.5494 2.08203 16.5846 2.08203 16.6197C2.08203 16.6549 2.08203 16.6901 2.08203 16.7252C2.08203 16.7604 2.08203 16.7956 2.08203 16.8307C2.08203 16.8659 2.08203 16.9011 2.08203 16.9362C2.08203 16.9714 2.08203 17.0065 2.08203 17.0417C2.08203 17.0768 2.08203 17.112 2.08203 17.1471C2.08203 17.1822 2.08203 17.2174 2.08203 17.2525C2.08203 17.2876 2.08203 17.3228 2.08203 17.3579C2.08203 17.393 2.08203 17.4281 2.08203 17.4632C2.08203 17.4983 2.08203 17.5334 2.08203 17.5685C2.08203 17.6036 2.08203 17.6387 2.08203 17.6738C2.08203 17.7089 2.08203 17.744 2.08203 17.7791C2.08203 17.8141 2.08203 17.8492 2.08203 17.8843C2.08203 17.9193 2.08203 17.9544 2.08203 17.9894C2.08203 18.0245 2.08203 18.0595 2.08203 18.0946C2.08203 18.1296 2.08203 18.1646 2.08203 18.1997C2.08203 18.2347 2.08203 18.2697 2.08203 18.3047C2.08203 18.3397 2.08203 18.3747 2.08203 18.4097C2.08203 18.4447 2.08203 18.4797 2.08203 18.5147C2.08203 18.5497 2.08203 18.5847 2.08203 18.6196C2.08203 18.6546 2.08203 18.6896 2.08203 18.7245C2.08203 18.7595 2.08203 18.7944 2.08203 18.8293C2.08203 18.8643 2.08203 18.8992 2.08203 18.9341C2.08203 18.969 2.08203 19.0039 2.08203 19.0388C2.08203 19.0737 2.08203 19.1086 2.08203 19.1435C2.08203 19.1784 2.08203 19.2133 2.08203 19.2481C2.08203 19.283 2.08203 19.3178 2.08203 19.3527C2.08203 19.3875 2.08203 19.4224 2.08203 19.4572C2.08203 19.492 2.08203 19.5268 2.08203 19.5616C2.08203 19.5964 2.08203 19.6312 2.08203 19.666C2.08203 19.7008 2.08203 19.7356 2.08203 19.7703C2.08203 19.8051 2.08203 19.8398 2.08203 19.8746C2.08203 19.9093 2.08203 19.9441 2.08203 19.9788C2.08203 20.0135 2.08203 20.0482 2.08203 20.0829C2.08203 20.1176 2.08203 20.1523 2.08203 20.187C2.08203 20.2216 2.08203 20.2563 2.08203 20.291C2.08203 20.3256 2.08203 20.3602 2.08203 20.3949C2.08203 20.4295 2.08203 20.4641 2.08203 20.4987C2.08203 20.5333 2.08203 20.5679 2.08203 20.6025C2.08203 20.6371 2.08203 20.6716 2.08203 20.7062C2.08203 20.7407 2.08203 20.7753 2.08203 20.8098C2.08203 20.8443 2.08203 20.8788 2.08203 20.9133C2.08203 20.9478 2.08203 20.9823 2.08203 21.0168C2.08203 21.0513 2.08203 21.0857 2.08203 21.1202C2.08203 21.1546 2.08203 21.1891 2.08203 21.2235C2.08203 21.2579 2.08203 21.2923 2.08203 21.3267C2.08203 21.3611 2.08203 21.3955 2.08203 21.4298C2.08203 21.4642 2.08203 21.4985 2.08203 21.5329C2.08203 21.5672 2.08203 21.6015 2.08203 21.6358C2.08203 21.6701 2.08203 21.7044 2.08203 21.7387C2.08203 21.7729 2.08203 21.8072 2.08203 21.8414C2.08203 21.8757 2.08203 21.9099 2.08203 21.9441C2.08203 21.9783 2.08203 22.0125 2.08203 22.0467C2.08203 22.0809 2.08203 22.115 2.08203 22.1492C2.08203 22.1833 2.08203 22.2174 2.08203 22.2516C2.08203 22.2857 2.08203 22.3198 2.08203 22.3538C2.08203 22.3879 2.08203 22.422 2.08203 22.456C2.08203 22.4901 2.08203 22.5241 2.08203 22.5581C2.08203 22.5921 2.08203 22.6261 2.08203 22.6601C2.08203 22.6941 2.08203 22.728 2.08203 22.762C2.08203 22.7959 2.08203 22.8298 2.08203 22.8637C2.08203 22.8976 2.08203 22.9315 2.08203 22.9654C2.08203 22.9993 2.08203 23.0331 2.08203 23.0669C2.08203 23.1008 2.08203 23.1346 2.08203 23.1684C2.08203 23.2022 2.08203 23.2359 2.08203 23.2697C2.08203 23.3035 2.08203 23.3372 2.08203 23.3709C2.08203 23.4046 2.08203 23.4383 2.08203 23.472C2.08203 23.5057 2.08203 23.5393 2.08203 23.573C2.08203 23.6066 2.08203 23.6402 2.08203 23.6738C2.08203 23.7074 2.08203 23.741 2.08203 23.7746C2.08203 23.8081 2.08203 23.8417 2.08203 23.8752C2.08203 23.9087 2.08203 23.9422 2.08203 23.9757C2.08203 24.0092 2.08203 24.0426 2.08203 24.0761C2.08203 24.1095 2.08203 24.1429 2.08203 24.1763C2.08203 24.2097 2.08203 24.2431 2.08203 24.2764C2.08203 24.3098 2.08203 24.3431 2.08203 24.3764C2.08203 24.4097 2.08203 24.443 2.08203 24.4763C2.08203 24.5095 2.08203 24.5428 2.08203 24.576C2.08203 24.6092 2.08203 24.6424 2.08203 24.6756C2.08203 24.7088 2.08203 24.7419 2.08203 24.775C2.08203 24.8082 2.08203 24.8413 2.08203 24.8744C2.08203 24.9074 2.08203 24.9405 2.08203 24.9735C2.08203 25.0066 2.08203 25.0396 2.08203 25.0726C2.08203 25.1056 2.08203 25.1385 2.08203 25.1715C2.08203 25.2044 2.08203 25.2373 2.08203 25.2702C2.08203 25.3031 2.08203 25.336 2.08203 25.3689C2.08203 25.4017 2.08203 25.4345 2.08203 25.4673C2.08203 25.5001 2.08203 25.5329 2.08203 25.5656C2.08203 25.5984 2.08203 25.6311 2.08203 25.6638C2.08203 25.6965 2.08203 25.7292 2.08203 25.7618C2.08203 25.7945 2.08203 25.8271 2.08203 25.8597C2.08203 25.8923 2.08203 25.9249 2.08203 25.9574C2.08203 25.99 2.08203 26.0225 2.08203 26.055C2.08203 26.0875 2.08203 26.12 2.08203 26.1524C2.08203 26.1849 2.08203 26.2173 2.08203 26.2497C2.08203 26.2821 2.08203 26.3144 2.08203 26.3468C2.08203 26.3791 2.08203 26.4114 2.08203 26.4437C2.08203 26.476 2.08203 26.5082 2.08203 26.5405C2.08203 26.5727 2.08203 26.6049 2.08203 26.6371C2.08203 26.6692 2.08203 26.7014 2.08203 26.7335C2.08203 26.7656 2.08203 26.7977 2.08203 26.8298C2.08203 26.8618 2.08203 26.8939 2.08203 26.9259C2.08203 26.9579 2.08203 26.9899 2.08203 27.0218C2.08203 27.0538 2.08203 27.0857 2.08203 27.1176C2.08203 27.1495 2.08203 27.1814 2.08203 27.2132C2.08203 27.245 2.08203 27.2768 2.08203 27.3086C2.08203 27.3404 2.08203 27.3721 2.08203 27.4039C2.08203 27.4356 2.08203 27.4673 2.08203 27.4989C2.08203 27.5306 2.08203 27.5622 2.08203 27.5938C2.08203 27.6254 2.08203 27.657 2.08203 27.6885C2.08203 27.7201 2.08203 27.7516 2.08203 27.7831C2.08203 27.8146 2.08203 27.846 2.08203 27.8774C2.08203 27.9088 2.08203 27.9402 2.08203 27.9716C2.08203 28.0029 2.08203 28.0343 2.08203 28.0656C2.08203 28.0969 2.08203 28.1281 2.08203 28.1594C2.08203 28.1906 2.08203 28.2218 2.08203 28.253C2.08203 28.2841 2.08203 28.3153 2.08203 28.3464C2.08203 28.3775 2.08203 28.4086 2.08203 28.4396C2.08203 28.4706 2.08203 28.5016 2.08203 28.5326C2.08203 28.5636 2.08203 28.5945 2.08203 28.6255C2.08203 28.6564 2.08203 28.6872 2.08203 28.7181C2.08203 28.7489 2.08203 28.7798 2.08203 28.8105C2.08203 28.8413 2.08203 28.8721 2.08203 28.9028C2.08203 28.9335 2.08203 28.9642 2.08203 28.9948C2.08203 29.0255 2.08203 29.0561 2.08203 29.0866C2.08203 29.1172 2.08203 29.1478 2.08203 29.1783C2.08203 29.2088 2.08203 29.2393 2.08203 29.2697C2.08203 29.3002 2.08203 29.3306 2.08203 29.3609C2.08203 29.3913 2.08203 29.4216 2.08203 29.452C2.08203 29.4823 2.08203 29.5125 2.08203 29.5428C2.08203 29.573 2.08203 29.6032 2.08203 29.6334C2.08203 29.6635 2.08203 29.6936 2.08203 29.7237C2.08203 29.7538 2.08203 29.7839 2.08203 29.8139C2.08203 29.8439 2.08203 29.8739 2.08203 29.9039C2.08203 29.9338 2.08203 29.9637 2.08203 29.9936C2.08203 30.0235 2.08203 30.0533 2.08203 30.0831C2.08203 30.1129 2.08203 30.1427 2.08203 30.1724C2.08203 30.2021 2.08203 30.2318 2.08203 30.2615C2.08203 30.2911 2.08203 30.3208 2.08203 30.3503C2.08203 30.3799 2.08203 30.4095 2.08203 30.439C2.08203 30.4685 2.08203 30.4979 2.08203 30.5274C2.08203 30.5568 2.08203 30.5862 2.08203 30.6155C2.08203 30.6449 2.08203 30.6742 2.08203 30.7035C2.08203 30.7328 2.08203 30.762 2.08203 30.7912C2.08203 30.8204 2.08203 30.8496 2.08203 30.8787C2.08203 30.9078 2.08203 30.9369 2.08203 30.9659C2.08203 30.995 2.08203 31.024 2.08203 31.053C2.08203 31.0819 2.08203 31.1108 2.08203 31.1397C2.08203 31.1686 2.08203 31.1975 2.08203 31.2263C2.08203 31.2551 2.08203 31.2839 2.08203 31.3126C2.08203 31.3413 2.08203 31.37 2.08203 31.3986C2.08203 31.4273 2.08203 31.4559 2.08203 31.4845C2.08203 31.513 2.08203 31.5416 2.08203 31.57C2.08203 31.5985 2.08203 31.627 2.08203 31.6554C2.08203 31.6838 2.08203 31.7121 2.08203 31.7405C2.08203 31.7688 2.08203 31.7971 2.08203 31.8253C2.08203 31.8535 2.08203 31.8817 2.08203 31.9099C2.08203 31.938 2.08203 31.9661 2.08203 31.9942C2.08203 32.0223 2.08203 32.0503 2.08203 32.0783C2.08203 32.1063 2.08203 32.1342 2.08203 32.1621C2.08203 32.19 2.08203 32.2179 2.08203 32.2457C2.08203 32.2735 2.08203 32.3013 2.08203 32.329C2.08203 32.3567 2.08203 32.3844 2.08203 32.4121C2.08203 32.4397 2.08203 32.4673 2.08203 32.4949C2.08203 32.5224 2.08203 32.5499 2.08203 32.5774C2.08203 32.6049 2.08203 32.6323 2.08203 32.6597C2.08203 32.6871 2.08203 32.7144 2.08203 32.7417C2.08203 32.769 2.08203 32.7962 2.08203 32.8234C2.08203 32.8506 2.08203 32.8778 2.08203 32.9049C2.08203 32.932 2.08203 32.9591 2.08203 32.9861C2.08203 33.0131 2.08203 33.0401 2.08203 33.067C2.08203 33.094 2.08203 33.1209 2.08203 33.1477C2.08203 33.1745 2.08203 33.2013 2.08203 33.2281C2.08203 33.2548 2.08203 33.2815 2.08203 33.3082C2.08203 33.3349 2.08203 33.3615 2.08203 33.388C2.08203 33.4146 2.08203 33.4411 2.08203 33.4676C2.08203 33.4941 2.08203 33.5205 2.08203 33.5469C2.08203 33.5733 2.08203 33.5996 2.08203 33.6259C2.08203 33.6522 2.08203 33.6784 2.08203 33.7046C2.08203 33.7308 2.08203 33.7569 2.08203 33.783C2.08203 33.8091 2.08203 33.8352 2.08203 33.8612C2.08203 33.8872 2.08203 33.9131 2.08203 33.939C2.08203 33.9649 2.08203 33.9908 2.08203 34.0166C2.08203 34.0424 2.08203 34.0682 2.08203 34.0939C2.08203 34.1196 2.08203 34.1453 2.08203 34.1709C2.08203 34.1965 2.08203 34.222 2.08203 34.2476C2.08203 34.2731 2.08203 34.2986 2.08203 34.324C2.08203 34.3494 2.08203 34.3748 2.08203 34.4001C2.08203 34.4254 2.08203 34.4507 2.08203 34.4759C2.08203 34.5011 2.08203 34.5263 2.08203 34.5514C2.08203 34.5765 2.08203 34.6016 2.08203 34.6266C2.08203 34.6516 2.08203 34.6766 2.08203 34.7015C2.08203 34.7264 2.08203 34.7513 2.08203 34.7761C2.08203 34.8009 2.08203 34.8257 2.08203 34.8504C2.08203 34.8751 2.08203 34.8998 2.08203 34.9244C2.08203 34.949 2.08203 34.9736 2.08203 34.9981C2.08203 35.0226 2.08203 35.0471 2.08203 35.0715C2.08203 35.0959 2.08203 35.1202 2.08203 35.1445C2.08203 35.1688 2.08203 35.1931 2.08203 35.2173C2.08203 35.2415 2.08203 35.2656 2.08203 35.2897C2.08203 35.3138 2.08203 35.3379 2.08203 35.3619C2.08203 35.3859 2.08203 35.4098 2.08203 35.4337C2.08203 35.4576 2.08203 35.4814 2.08203 35.5052C2.08203 35.5289 2.08203 35.5527 2.08203 35.5763C2.08203 35.6 2.08203 35.6236 2.08203 35.6472C2.08203 35.6707 2.08203 35.6943 2.08203 35.7177C2.08203 35.7412 2.08203 35.7646 2.08203 35.7879C2.08203 35.8113 2.08203 35.8346 2.08203 35.8578C2.08203 35.881 2.08203 35.9042 2.08203 35.9273C2.08203 35.9505 2.08203 35.9735 2.08203 35.9966C2.08203 36.0196 2.08203 36.0425 2.08203 36.0655C2.08203 36.0884 2.08203 36.1112 2.08203 36.134C2.08203 36.1568 2.08203 36.1796 2.08203 36.2022C2.08203 36.2249 2.08203 36.2476 2.08203 36.2701C2.08203 36.2927 2.08203 36.3152 2.08203 36.3377C2.08203 36.3601 2.08203 36.3826 2.08203 36.4049C2.08203 36.4273 2.08203 36.4495 2.08203 36.4718C2.08203 36.494 2.08203 36.5162 2.08203 36.5383C2.08203 36.5604 2.08203 36.5825 2.08203 36.6045C2.08203 36.6265 2.08203 36.6485 2.08203 36.6704C2.08203 36.6923 2.08203 36.7141 2.08203 36.7359C2.08203 36.7577 2.08203 36.7794 2.08203 36.801C2.08203 36.8227 2.08203 36.8443 2.08203 36.8659C2.08203 36.8874 2.08203 36.9089 2.08203 36.9303C2.08203 36.9517 2.08203 36.9731 2.08203 36.9944C2.08203 37.0157 2.08203 37.037 2.08203 37.0582C2.08203 37.0794 2.08203 37.1005 2.08203 37.1216C2.08203 37.1427 2.08203 37.1637 2.08203 37.1846C2.08203 37.2056 2.08203 37.2265 2.08203 37.2473C2.08203 37.2682 2.08203 37.289 2.08203 37.3097C2.08203 37.3304 2.08203 37.3511 2.08203 37.3717C2.08203 37.3923 2.08203 37.4128 2.08203 37.4333C2.08203 37.4537 2.08203 37.4742 2.08203 37.4945C2.08203 37.5149 2.08203 37.5352 2.08203 37.5554C2.08203 37.5756 2.08203 37.5958 2.08203 37.6159C2.08203 37.636 2.08203 37.6561 2.08203 37.6761C2.08203 37.6961 2.08203 37.716 2.08203 37.7359C2.08203 37.7557 2.08203 37.7755 2.08203 37.7953C2.08203 37.815 2.08203 37.8347 2.08203 37.8543C2.08203 37.8739 2.08203 37.8935 2.08203 37.913C2.08203 37.9325 2.08203 37.9519 2.08203 37.9713C2.08203 37.9907 2.08203 38.01 2.08203 38.0292C2.08203 38.0485 2.08203 38.0676 2.08203 38.0868C2.08203 38.1059 2.08203 38.1249 2.08203 38.1439C2.08203 38.1629 2.08203 38.1818 2.08203 38.2007C2.08203 38.2196 2.08203 38.2384 2.08203 38.2571C2.08203 38.2758 2.08203 38.2945 2.08203 38.3131C2.08203 38.3317 2.08203 38.3503 2.08203 38.3687C2.08203 38.3872 2.08203 38.4056 2.08203 38.424C2.08203 38.4423 2.08203 38.4606 2.08203 38.4788C2.08203 38.4971 2.08203 38.5152 2.08203 38.5333C2.08203 38.5514 2.08203 38.5694 2.08203 38.5874C2.08203 38.6053 2.08203 38.6232 2.08203 38.6411C2.08203 38.6589 2.08203 38.6766 2.08203 38.6943C2.08203 38.712 2.08203 38.7297 2.08203 38.7472C2.08203 38.7648 2.08203 38.7823 2.08203 38.7997C2.08203 38.8172 2.08203 38.8345 2.08203 38.8518C2.08203 38.8691 2.08203 38.8864 2.08203 38.9035C2.08203 38.9207 2.08203 38.9378 2.08203 38.9548C2.08203 38.9718 2.08203 38.9888 2.08203 39.0057C2.08203 39.0226 2.08203 39.0394 2.08203 39.0562C2.08203 39.073 2.08203 39.0897 2.08203 39.1063C2.08203 39.1229 2.08203 39.1395 2.08203 39.156C2.08203 39.1724 2.08203 39.1889 2.08203 39.2052C2.08203 39.2216 2.08203 39.2379 2.08203 39.2541C2.08203 39.2703 2.08203 39.2864 2.08203 39.3025C2.08203 39.3186 2.08203 39.3346 2.08203 39.3505C2.08203 39.3665 2.08203 39.3823 2.08203 39.3981C2.08203 39.414 2.08203 39.4297 2.08203 39.4453C2.08203 39.461 2.08203 39.4766 2.08203 39.4921C2.08203 39.5076 2.08203 39.5231 2.08203 39.5385C2.08203 39.5539 2.08203 39.5692 2.08203 39.5844C2.08203 39.5997 2.08203 39.6148 2.08203 39.6299C2.08203 39.645 2.08203 39.6601 2.08203 39.675C2.08203 39.69 2.08203 39.7049 2.08203 39.7197C2.08203 39.7345 2.08203 39.7493 2.08203 39.7639C2.08203 39.7786 2.08203 39.7932 2.08203 39.8077C2.08203 39.8223 2.08203 39.8367 2.08203 39.8511C2.08203 39.8655 2.08203 39.8798 2.08203 39.8941C2.08203 39.9083 2.08203 39.9225 2.08203 39.9366C2.08203 39.9507 2.08203 39.9647 2.08203 39.9787C2.08203 39.9926 2.08203 40.0065 2.08203 40.0203C2.08203 40.0341 2.08203 40.0479 2.08203 40.0615C2.08203 40.0752 2.08203 40.0888 2.08203 40.1023C2.08203 40.1158 2.08203 40.1293 2.08203 40.1426C2.08203 40.156 2.08203 40.1693 2.08203 40.1825C2.08203 40.1957 2.08203 40.2089 2.08203 40.222C2.08203 40.235 2.08203 40.248 2.08203 40.261C2.08203 40.2739 2.08203 40.2867 2.08203 40.2995C2.08203 40.3123 2.08203 40.325 2.08203 40.3376C2.08203 40.3503 2.08203 40.3628 2.08203 40.3753C2.08203 40.3878 2.08203 40.4002 2.08203 40.4125C2.08203 40.4248 2.08203 40.4371 2.08203 40.4492C2.08203 40.4614 2.08203 40.4735 2.08203 40.4855C2.08203 40.4976 2.08203 40.5095 2.08203 40.5214C2.08203 40.5333 2.08203 40.5451 2.08203 40.5568C2.08203 40.5685 2.08203 40.5801 2.08203 40.5917C2.08203 40.6033 2.08203 40.6148 2.08203 40.6262C2.08203 40.6376 2.08203 40.6489 2.08203 40.6602C2.08203 40.6714 2.08203 40.6826 2.08203 40.6937C2.08203 40.7048 2.08203 40.7159 2.08203 40.7268C2.08203 40.7378 2.08203 40.7486 2.08203 40.7594C2.08203 40.7702 2.08203 40.7809 2.08203 40.7916C2.08203 40.8022 2.08203 40.8128 2.08203 40.8233C2.08203 40.8337 2.08203 40.8441 2.08203 40.8545C2.08203 40.8648 2.08203 40.875 2.08203 40.8852C2.08203 40.8954 2.08203 40.9055 2.08203 40.9155C2.08203 40.9255 2.08203 40.9354 2.08203 40.9453C2.08203 40.9551 2.08203 40.9649 2.08203 40.9746C2.08203 40.9843 2.08203 40.9939 2.08203 41.0034C2.08203 41.013 2.08203 41.0224 2.08203 41.0318C2.08203 41.0412 2.08203 41.0505 2.08203 41.0597C2.08203 41.0689 2.08203 41.078 2.08203 41.0871C2.08203 41.0961 2.08203 41.1051 2.08203 41.114C2.08203 41.1229 2.08203 41.1317 2.08203 41.1404C2.08203 41.1491 2.08203 41.1578 2.08203 41.1663C2.08203 41.1749 2.08203 41.1834 2.08203 41.1918C2.08203 41.2002 2.08203 41.2085 2.08203 41.2168C2.08203 41.225 2.08203 41.2332 2.08203 41.2412C2.08203 41.2493 2.08203 41.2573 2.08203 41.2652C2.08203 41.2731 2.08203 41.281 2.08203 41.2887C2.08203 41.2965 2.08203 41.3041 2.08203 41.3117C2.08203 41.3193 2.08203 41.3268 2.08203 41.3342C2.08203 41.3416 2.08203 41.3489 2.08203 41.3562C2.08203 41.3634 2.08203 41.3706 2.08203 41.3777C2.08203 41.3848 2.08203 41.3918 2.08203 41.3987C2.08203 41.4056 2.08203 41.4124 2.08203 41.4192C2.08203 41.4259 2.08203 41.4326 2.08203 41.4392C2.08203 41.4457 2.08203 41.4522 2.08203 41.4586C2.08203 41.4651 2.08203 41.4714 2.08203 41.4776C2.08203 41.4839 2.08203 41.49 2.08203 41.4961C2.08203 41.5022 2.08203 41.5081 2.08203 41.514C2.08203 41.5199 2.08203 41.5258 2.08203 41.5315C2.08203 41.5372 2.08203 41.5429 2.08203 41.5484C2.08203 41.554 2.08203 41.5594 2.08203 41.5648C2.08203 41.5702 2.08203 41.5755 2.08203 41.5807C2.08203 41.5859 2.08203 41.5911 2.08203 41.5961C2.08203 41.6011 2.08203 41.6061 2.08203 41.611C2.08203 41.6158 2.08203 41.6206 2.08203 41.6253C2.08203 41.63 2.08203 41.6346 2.08203 41.6391C2.08203 41.6437 2.08203 41.6481 2.08203 41.6524C2.08203 41.6568 2.08203 41.661 2.08203 41.6652C2.08203 41.6694 2.08203 41.6735 2.08203 41.6774C2.08203 41.6814 2.08203 41.6853 2.08203 41.6892C2.08203 41.693 2.08203 41.6967 2.08203 41.7003C2.08203 41.704 2.08203 41.7075 2.08203 41.711C2.08203 41.7145 2.08203 41.7178 2.08203 41.7211C2.08203 41.7244 2.08203 41.7276 2.08203 41.7307C2.08203 41.7338 2.08203 41.7368 2.08203 41.7398C2.08203 41.7427 2.08203 41.7455 2.08203 41.7483C2.08203 41.751 2.08203 41.7537 2.08203 41.7563C2.08203 41.7588 2.08203 41.7613 2.08203 41.7637C2.08203 41.7661 2.08203 41.7684 2.08203 41.7706C2.08203 41.7728 2.08203 41.7749 2.08203 41.7769C2.08203 41.779 2.08203 41.7809 2.08203 41.7827C2.08203 41.7846 2.08203 41.7863 2.08203 41.788C2.08203 41.7897 2.08203 41.7912 2.08203 41.7927C2.08203 41.7942 2.08203 41.7956 2.08203 41.7969C2.08203 41.7982 2.08203 41.7994 2.08203 41.8005C2.08203 41.8016 2.08203 41.8026 2.08203 41.8036C2.08203 41.8045 2.08203 41.8053 2.08203 41.8061C2.08203 41.8068 2.08203 41.8075 2.08203 41.808C2.08203 41.8086 2.08203 41.8091 2.08203 41.8094C2.08203 41.8098 2.08203 41.8101 2.08203 41.8103C2.08203 41.8105 2.08203 41.8105 2.33203 41.8105ZM2.33203 1.8496L42.543 1.8496L42.543 1.3496L2.33203 1.3496L2.33203 1.8496Z" fill="#660066"/>
</svg>
