<svg width="44" height="44" viewBox="0 0 44 44" fill="none" xmlns="http://www.w3.org/2000/svg">
<path opacity="0.9" d="M42.1016 0.41276C41.3652 0.41276 40.7682 1.00971 40.7682 1.74609C40.7682 2.48247 41.3652 3.07943 42.1016 3.07943C42.8379 3.07943 43.4349 2.48247 43.4349 1.74609C43.4349 1.00971 42.8379 0.41276 42.1016 0.41276ZM42.1016 41.957L42.1016 42.207L42.3516 42.207L42.3516 41.957L42.1016 41.957ZM1.89061 40.6237C1.15423 40.6237 0.557282 41.2207 0.557282 41.957C0.557282 42.6934 1.15423 43.2904 1.89061 43.2904C2.62699 43.2904 3.22395 42.6934 3.22395 41.957C3.22395 41.2207 2.62699 40.6237 1.89061 40.6237ZM42.1016 1.74609C41.8516 1.74609 41.8516 1.74619 41.8516 1.74637C41.8516 1.74656 41.8516 1.74684 41.8516 1.74721C41.8516 1.74759 41.8516 1.74805 41.8516 1.74861C41.8516 1.74917 41.8516 1.74982 41.8516 1.75057C41.8516 1.75131 41.8516 1.75215 41.8516 1.75307C41.8516 1.754 41.8516 1.75502 41.8516 1.75614C41.8516 1.75725 41.8516 1.75845 41.8516 1.75975C41.8516 1.76105 41.8516 1.76244 41.8516 1.76392C41.8516 1.7654 41.8516 1.76697 41.8516 1.76863C41.8516 1.77029 41.8516 1.77205 41.8516 1.77389C41.8516 1.77574 41.8516 1.77767 41.8516 1.7797C41.8516 1.78173 41.8516 1.78384 41.8516 1.78605C41.8516 1.78826 41.8516 1.79056 41.8516 1.79295C41.8516 1.79534 41.8516 1.79782 41.8516 1.80038C41.8516 1.80295 41.8516 1.80561 41.8516 1.80836C41.8516 1.81111 41.8516 1.81395 41.8516 1.81688C41.8516 1.8198 41.8516 1.82282 41.8516 1.82593C41.8516 1.82904 41.8516 1.83223 41.8516 1.83552C41.8516 1.8388 41.8516 1.84218 41.8516 1.84564C41.8516 1.8491 41.8516 1.85265 41.8516 1.8563C41.8516 1.85994 41.8516 1.86366 41.8516 1.86748C41.8516 1.8713 41.8516 1.8752 41.8516 1.8792C41.8516 1.88319 41.8516 1.88727 41.8516 1.89144C41.8516 1.89561 41.8516 1.89987 41.8516 1.90421C41.8516 1.90856 41.8516 1.91299 41.8516 1.91751C41.8516 1.92203 41.8516 1.92663 41.8516 1.93133C41.8516 1.93602 41.8516 1.9408 41.8516 1.94567C41.8516 1.95054 41.8516 1.95549 41.8516 1.96053C41.8516 1.96557 41.8516 1.9707 41.8516 1.97591C41.8516 1.98113 41.8516 1.98643 41.8516 1.99181C41.8516 1.9972 41.8516 2.00267 41.8516 2.00823C41.8516 2.01379 41.8516 2.01943 41.8516 2.02516C41.8516 2.03089 41.8516 2.0367 41.8516 2.0426C41.8516 2.0485 41.8516 2.05449 41.8516 2.06056C41.8516 2.06663 41.8516 2.07278 41.8516 2.07902C41.8516 2.08527 41.8516 2.09159 41.8516 2.098C41.8516 2.10441 41.8516 2.1109 41.8516 2.11748C41.8516 2.12406 41.8516 2.13072 41.8516 2.13747C41.8516 2.14422 41.8516 2.15105 41.8516 2.15796C41.8516 2.16488 41.8516 2.17187 41.8516 2.17896C41.8516 2.18604 41.8516 2.1932 41.8516 2.20045C41.8516 2.2077 41.8516 2.21503 41.8516 2.22245C41.8516 2.22987 41.8516 2.23736 41.8516 2.24494C41.8516 2.25253 41.8516 2.26019 41.8516 2.26794C41.8516 2.27568 41.8516 2.28351 41.8516 2.29142C41.8516 2.29933 41.8516 2.30733 41.8516 2.3154C41.8516 2.32348 41.8516 2.33164 41.8516 2.33988C41.8516 2.34812 41.8516 2.35644 41.8516 2.36484C41.8516 2.37325 41.8516 2.38173 41.8516 2.3903C41.8516 2.39886 41.8516 2.40751 41.8516 2.41624C41.8516 2.42497 41.8516 2.43378 41.8516 2.44267C41.8516 2.45156 41.8516 2.46053 41.8516 2.46958C41.8516 2.47863 41.8516 2.48776 41.8516 2.49698C41.8516 2.50619 41.8516 2.51548 41.8516 2.52485C41.8516 2.53423 41.8516 2.54368 41.8516 2.55321C41.8516 2.56275 41.8516 2.57236 41.8516 2.58205C41.8516 2.59174 41.8516 2.60152 41.8516 2.61137C41.8516 2.62122 41.8516 2.63115 41.8516 2.64116C41.8516 2.65117 41.8516 2.66126 41.8516 2.67143C41.8516 2.68159 41.8516 2.69184 41.8516 2.70217C41.8516 2.71249 41.8516 2.7229 41.8516 2.73338C41.8516 2.74386 41.8516 2.75442 41.8516 2.76506C41.8516 2.7757 41.8516 2.78641 41.8516 2.79721C41.8516 2.808 41.8516 2.81888 41.8516 2.82983C41.8516 2.84078 41.8516 2.8518 41.8516 2.86291C41.8516 2.87401 41.8516 2.8852 41.8516 2.89645C41.8516 2.90771 41.8516 2.91905 41.8516 2.93046C41.8516 2.94188 41.8516 2.95337 41.8516 2.96493C41.8516 2.9765 41.8516 2.98814 41.8516 2.99986C41.8516 3.01158 41.8516 3.02338 41.8516 3.03525C41.8516 3.04713 41.8516 3.05907 41.8516 3.0711C41.8516 3.08312 41.8516 3.09522 41.8516 3.1074C41.8516 3.11957 41.8516 3.13183 41.8516 3.14415C41.8516 3.15648 41.8516 3.16888 41.8516 3.18136C41.8516 3.19384 41.8516 3.20639 41.8516 3.21902C41.8516 3.23164 41.8516 3.24434 41.8516 3.25712C41.8516 3.2699 41.8516 3.28275 41.8516 3.29568C41.8516 3.3086 41.8516 3.3216 41.8516 3.33468C41.8516 3.34775 41.8516 3.3609 41.8516 3.37412C41.8516 3.38734 41.8516 3.40064 41.8516 3.41401C41.8516 3.42738 41.8516 3.44082 41.8516 3.45434C41.8516 3.46786 41.8516 3.48145 41.8516 3.49511C41.8516 3.50877 41.8516 3.52251 41.8516 3.53632C41.8516 3.55013 41.8516 3.56401 41.8516 3.57797C41.8516 3.59192 41.8516 3.60595 41.8516 3.62005C41.8516 3.63415 41.8516 3.64832 41.8516 3.66256C41.8516 3.67681 41.8516 3.69113 41.8516 3.70551C41.8516 3.7199 41.8516 3.73436 41.8516 3.7489C41.8516 3.76343 41.8516 3.77803 41.8516 3.79271C41.8516 3.80738 41.8516 3.82213 41.8516 3.83695C41.8516 3.85176 41.8516 3.86665 41.8516 3.88161C41.8516 3.89657 41.8516 3.9116 41.8516 3.9267C41.8516 3.9418 41.8516 3.95698 41.8516 3.97222C41.8516 3.98746 41.8516 4.00277 41.8516 4.01816C41.8516 4.03354 41.8516 4.04899 41.8516 4.06452C41.8516 4.08004 41.8516 4.09563 41.8516 4.11129C41.8516 4.12696 41.8516 4.14269 41.8516 4.15849C41.8516 4.17429 41.8516 4.19016 41.8516 4.2061C41.8516 4.22204 41.8516 4.23805 41.8516 4.25413C41.8516 4.27021 41.8516 4.28636 41.8516 4.30257C41.8516 4.31879 41.8516 4.33507 41.8516 4.35143C41.8516 4.36778 41.8516 4.3842 41.8516 4.40069C41.8516 4.41718 41.8516 4.43374 41.8516 4.45036C41.8516 4.46699 41.8516 4.48368 41.8516 4.50044C41.8516 4.51721 41.8516 4.53403 41.8516 4.55093C41.8516 4.56783 41.8516 4.58479 41.8516 4.60182C41.8516 4.61885 41.8516 4.63595 41.8516 4.65312C41.8516 4.67028 41.8516 4.68751 41.8516 4.70481C41.8516 4.72211 41.8516 4.73948 41.8516 4.75691C41.8516 4.77434 41.8516 4.79184 41.8516 4.8094C41.8516 4.82697 41.8516 4.8446 41.8516 4.86229C41.8516 4.87999 41.8516 4.89775 41.8516 4.91558C41.8516 4.93341 41.8516 4.9513 41.8516 4.96926C41.8516 4.98722 41.8516 5.00525 41.8516 5.02334C41.8516 5.04143 41.8516 5.05958 41.8516 5.0778C41.8516 5.09602 41.8516 5.11431 41.8516 5.13266C41.8516 5.15101 41.8516 5.16942 41.8516 5.1879C41.8516 5.20638 41.8516 5.22492 41.8516 5.24353C41.8516 5.26214 41.8516 5.28081 41.8516 5.29955C41.8516 5.31828 41.8516 5.33708 41.8516 5.35594C41.8516 5.37481 41.8516 5.39374 41.8516 5.41273C41.8516 5.43172 41.8516 5.45077 41.8516 5.46989C41.8516 5.489 41.8516 5.50819 41.8516 5.52743C41.8516 5.54667 41.8516 5.56598 41.8516 5.58535C41.8516 5.60472 41.8516 5.62415 41.8516 5.64364C41.8516 5.66314 41.8516 5.68269 41.8516 5.70231C41.8516 5.72193 41.8516 5.74161 41.8516 5.76136C41.8516 5.7811 41.8516 5.8009 41.8516 5.82077C41.8516 5.84064 41.8516 5.86057 41.8516 5.88056C41.8516 5.90055 41.8516 5.9206 41.8516 5.94071C41.8516 5.96082 41.8516 5.981 41.8516 6.00123C41.8516 6.02147 41.8516 6.04176 41.8516 6.06212C41.8516 6.08248 41.8516 6.10289 41.8516 6.12337C41.8516 6.14385 41.8516 6.16439 41.8516 6.18499C41.8516 6.20558 41.8516 6.22624 41.8516 6.24696C41.8516 6.26768 41.8516 6.28846 41.8516 6.3093C41.8516 6.33014 41.8516 6.35103 41.8516 6.37199C41.8516 6.39295 41.8516 6.41397 41.8516 6.43504C41.8516 6.45612 41.8516 6.47726 41.8516 6.49845C41.8516 6.51964 41.8516 6.5409 41.8516 6.56221C41.8516 6.58352 41.8516 6.60489 41.8516 6.62632C41.8516 6.64775 41.8516 6.66924 41.8516 6.69079C41.8516 6.71233 41.8516 6.73394 41.8516 6.7556C41.8516 6.77726 41.8516 6.79898 41.8516 6.82076C41.8516 6.84254 41.8516 6.86438 41.8516 6.88627C41.8516 6.90816 41.8516 6.93012 41.8516 6.95212C41.8516 6.97413 41.8516 6.9962 41.8516 7.01832C41.8516 7.04044 41.8516 7.06262 41.8516 7.08486C41.8516 7.10709 41.8516 7.12939 41.8516 7.15174C41.8516 7.17409 41.8516 7.19649 41.8516 7.21896C41.8516 7.24142 41.8516 7.26394 41.8516 7.28651C41.8516 7.30909 41.8516 7.33172 41.8516 7.3544C41.8516 7.37709 41.8516 7.39983 41.8516 7.42263C41.8516 7.44543 41.8516 7.46828 41.8516 7.49119C41.8516 7.5141 41.8516 7.53706 41.8516 7.56008C41.8516 7.5831 41.8516 7.60617 41.8516 7.6293C41.8516 7.65243 41.8516 7.67561 41.8516 7.69885C41.8516 7.72209 41.8516 7.74538 41.8516 7.76873C41.8516 7.79207 41.8516 7.81548 41.8516 7.83893C41.8516 7.86239 41.8516 7.88589 41.8516 7.90946C41.8516 7.93302 41.8516 7.95664 41.8516 7.98031C41.8516 8.00398 41.8516 8.0277 41.8516 8.05148C41.8516 8.07525 41.8516 8.09908 41.8516 8.12297C41.8516 8.14685 41.8516 8.17079 41.8516 8.19478C41.8516 8.21876 41.8516 8.24281 41.8516 8.2669C41.8516 8.291 41.8516 8.31514 41.8516 8.33934C41.8516 8.36354 41.8516 8.38779 41.8516 8.4121C41.8516 8.4364 41.8516 8.46075 41.8516 8.48516C41.8516 8.50957 41.8516 8.53403 41.8516 8.55854C41.8516 8.58305 41.8516 8.60761 41.8516 8.63223C41.8516 8.65684 41.8516 8.6815 41.8516 8.70622C41.8516 8.73094 41.8516 8.7557 41.8516 8.78052C41.8516 8.80534 41.8516 8.83021 41.8516 8.85513C41.8516 8.88004 41.8516 8.90501 41.8516 8.93003C41.8516 8.95505 41.8516 8.98012 41.8516 9.00524C41.8516 9.03036 41.8516 9.05554 41.8516 9.08076C41.8516 9.10598 41.8516 9.13125 41.8516 9.15657C41.8516 9.18188 41.8516 9.20725 41.8516 9.23267C41.8516 9.25809 41.8516 9.28356 41.8516 9.30907C41.8516 9.33459 41.8516 9.36016 41.8516 9.38577C41.8516 9.41139 41.8516 9.43705 41.8516 9.46276C41.8516 9.48847 41.8516 9.51423 41.8516 9.54004C41.8516 9.56585 41.8516 9.59171 41.8516 9.61761C41.8516 9.64352 41.8516 9.66947 41.8516 9.69547C41.8516 9.72148 41.8516 9.74753 41.8516 9.77362C41.8516 9.79972 41.8516 9.82586 41.8516 9.85205C41.8516 9.87825 41.8516 9.90448 41.8516 9.93077C41.8516 9.95706 41.8516 9.98339 41.8516 10.0098C41.8516 10.0361 41.8516 10.0626 41.8516 10.089C41.8516 10.1155 41.8516 10.142 41.8516 10.1686C41.8516 10.1952 41.8516 10.2218 41.8516 10.2484C41.8516 10.2751 41.8516 10.3018 41.8516 10.3286C41.8516 10.3553 41.8516 10.3821 41.8516 10.4089C41.8516 10.4358 41.8516 10.4627 41.8516 10.4896C41.8516 10.5165 41.8516 10.5435 41.8516 10.5705C41.8516 10.5976 41.8516 10.6246 41.8516 10.6517C41.8516 10.6789 41.8516 10.706 41.8516 10.7332C41.8516 10.7604 41.8516 10.7877 41.8516 10.815C41.8516 10.8423 41.8516 10.8696 41.8516 10.897C41.8516 10.9243 41.8516 10.9518 41.8516 10.9792C41.8516 11.0067 41.8516 11.0342 41.8516 11.0618C41.8516 11.0893 41.8516 11.1169 41.8516 11.1446C41.8516 11.1722 41.8516 11.1999 41.8516 11.2276C41.8516 11.2554 41.8516 11.2831 41.8516 11.3109C41.8516 11.3388 41.8516 11.3666 41.8516 11.3945C41.8516 11.4224 41.8516 11.4504 41.8516 11.4783C41.8516 11.5063 41.8516 11.5344 41.8516 11.5624C41.8516 11.5905 41.8516 11.6186 41.8516 11.6468C41.8516 11.6749 41.8516 11.7031 41.8516 11.7313C41.8516 11.7596 41.8516 11.7879 41.8516 11.8162C41.8516 11.8445 41.8516 11.8729 41.8516 11.9013C41.8516 11.9297 41.8516 11.9581 41.8516 11.9866C41.8516 12.0151 41.8516 12.0436 41.8516 12.0722C41.8516 12.1007 41.8516 12.1293 41.8516 12.158C41.8516 12.1866 41.8516 12.2153 41.8516 12.2441C41.8516 12.2728 41.8516 12.3016 41.8516 12.3304C41.8516 12.3592 41.8516 12.388 41.8516 12.4169C41.8516 12.4458 41.8516 12.4747 41.8516 12.5037C41.8516 12.5326 41.8516 12.5617 41.8516 12.5907C41.8516 12.6197 41.8516 12.6488 41.8516 12.678C41.8516 12.7071 41.8516 12.7362 41.8516 12.7654C41.8516 12.7946 41.8516 12.8239 41.8516 12.8532C41.8516 12.8824 41.8516 12.9117 41.8516 12.9411C41.8516 12.9705 41.8516 12.9998 41.8516 13.0293C41.8516 13.0587 41.8516 13.0882 41.8516 13.1177C41.8516 13.1472 41.8516 13.1767 41.8516 13.2063C41.8516 13.2359 41.8516 13.2655 41.8516 13.2952C41.8516 13.3248 41.8516 13.3545 41.8516 13.3842C41.8516 13.414 41.8516 13.4437 41.8516 13.4735C41.8516 13.5033 41.8516 13.5332 41.8516 13.563C41.8516 13.5929 41.8516 13.6228 41.8516 13.6528C41.8516 13.6827 41.8516 13.7127 41.8516 13.7427C41.8516 13.7728 41.8516 13.8028 41.8516 13.8329C41.8516 13.863 41.8516 13.8931 41.8516 13.9233C41.8516 13.9535 41.8516 13.9836 41.8516 14.0139C41.8516 14.0441 41.8516 14.0744 41.8516 14.1047C41.8516 14.135 41.8516 14.1653 41.8516 14.1957C41.8516 14.2261 41.8516 14.2565 41.8516 14.2869C41.8516 14.3174 41.8516 14.3478 41.8516 14.3784C41.8516 14.4089 41.8516 14.4394 41.8516 14.47C41.8516 14.5006 41.8516 14.5312 41.8516 14.5618C41.8516 14.5925 41.8516 14.6232 41.8516 14.6539C41.8516 14.6846 41.8516 14.7153 41.8516 14.7461C41.8516 14.7769 41.8516 14.8077 41.8516 14.8385C41.8516 14.8694 41.8516 14.9003 41.8516 14.9312C41.8516 14.9621 41.8516 14.993 41.8516 15.024C41.8516 15.055 41.8516 15.086 41.8516 15.117C41.8516 15.1481 41.8516 15.1792 41.8516 15.2103C41.8516 15.2414 41.8516 15.2725 41.8516 15.3037C41.8516 15.3349 41.8516 15.3661 41.8516 15.3973C41.8516 15.4285 41.8516 15.4598 41.8516 15.4911C41.8516 15.5224 41.8516 15.5537 41.8516 15.5851C41.8516 15.6164 41.8516 15.6478 41.8516 15.6792C41.8516 15.7106 41.8516 15.7421 41.8516 15.7736C41.8516 15.805 41.8516 15.8366 41.8516 15.8681C41.8516 15.8996 41.8516 15.9312 41.8516 15.9628C41.8516 15.9944 41.8516 16.026 41.8516 16.0577C41.8516 16.0894 41.8516 16.1211 41.8516 16.1528C41.8516 16.1845 41.8516 16.2162 41.8516 16.248C41.8516 16.2798 41.8516 16.3116 41.8516 16.3434C41.8516 16.3753 41.8516 16.4071 41.8516 16.439C41.8516 16.4709 41.8516 16.5029 41.8516 16.5348C41.8516 16.5668 41.8516 16.5987 41.8516 16.6307C41.8516 16.6628 41.8516 16.6948 41.8516 16.7269C41.8516 16.7589 41.8516 16.791 41.8516 16.8231C41.8516 16.8553 41.8516 16.8874 41.8516 16.9196C41.8516 16.9517 41.8516 16.984 41.8516 17.0162C41.8516 17.0484 41.8516 17.0807 41.8516 17.113C41.8516 17.1452 41.8516 17.1775 41.8516 17.2099C41.8516 17.2422 41.8516 17.2746 41.8516 17.307C41.8516 17.3394 41.8516 17.3718 41.8516 17.4042C41.8516 17.4367 41.8516 17.4691 41.8516 17.5016C41.8516 17.5341 41.8516 17.5667 41.8516 17.5992C41.8516 17.6318 41.8516 17.6643 41.8516 17.6969C41.8516 17.7295 41.8516 17.7621 41.8516 17.7948C41.8516 17.8274 41.8516 17.8601 41.8516 17.8928C41.8516 17.9255 41.8516 17.9582 41.8516 17.991C41.8516 18.0237 41.8516 18.0565 41.8516 18.0893C41.8516 18.1221 41.8516 18.1549 41.8516 18.1878C41.8516 18.2206 41.8516 18.2535 41.8516 18.2864C41.8516 18.3193 41.8516 18.3522 41.8516 18.3852C41.8516 18.4181 41.8516 18.4511 41.8516 18.4841C41.8516 18.517 41.8516 18.5501 41.8516 18.5831C41.8516 18.6161 41.8516 18.6492 41.8516 18.6823C41.8516 18.7154 41.8516 18.7485 41.8516 18.7816C41.8516 18.8147 41.8516 18.8479 41.8516 18.8811C41.8516 18.9142 41.8516 18.9474 41.8516 18.9806C41.8516 19.0139 41.8516 19.0471 41.8516 19.0804C41.8516 19.1136 41.8516 19.1469 41.8516 19.1802C41.8516 19.2135 41.8516 19.2469 41.8516 19.2802C41.8516 19.3136 41.8516 19.3469 41.8516 19.3803C41.8516 19.4137 41.8516 19.4471 41.8516 19.4806C41.8516 19.514 41.8516 19.5475 41.8516 19.5809C41.8516 19.6144 41.8516 19.6479 41.8516 19.6814C41.8516 19.715 41.8516 19.7485 41.8516 19.7821C41.8516 19.8156 41.8516 19.8492 41.8516 19.8828C41.8516 19.9164 41.8516 19.95 41.8516 19.9837C41.8516 20.0173 41.8516 20.051 41.8516 20.0846C41.8516 20.1183 41.8516 20.152 41.8516 20.1857C41.8516 20.2194 41.8516 20.2532 41.8516 20.2869C41.8516 20.3207 41.8516 20.3545 41.8516 20.3883C41.8516 20.4221 41.8516 20.4559 41.8516 20.4897C41.8516 20.5235 41.8516 20.5574 41.8516 20.5913C41.8516 20.6251 41.8516 20.659 41.8516 20.6929C41.8516 20.7268 41.8516 20.7607 41.8516 20.7947C41.8516 20.8286 41.8516 20.8626 41.8516 20.8966C41.8516 20.9305 41.8516 20.9645 41.8516 20.9985C41.8516 21.0325 41.8516 21.0666 41.8516 21.1006C41.8516 21.1347 41.8516 21.1687 41.8516 21.2028C41.8516 21.2369 41.8516 21.271 41.8516 21.3051C41.8516 21.3392 41.8516 21.3733 41.8516 21.4075C41.8516 21.4416 41.8516 21.4758 41.8516 21.51C41.8516 21.5441 41.8516 21.5783 41.8516 21.6125C41.8516 21.6467 41.8516 21.681 41.8516 21.7152C41.8516 21.7494 41.8516 21.7837 41.8516 21.818C41.8516 21.8522 41.8516 21.8865 41.8516 21.9208C41.8516 21.9551 41.8516 21.9895 41.8516 22.0238C41.8516 22.0581 41.8516 22.0925 41.8516 22.1268C41.8516 22.1612 41.8516 22.1956 41.8516 22.2299C41.8516 22.2643 41.8516 22.2987 41.8516 22.3332C41.8516 22.3676 41.8516 22.402 41.8516 22.4365C41.8516 22.4709 41.8516 22.5054 41.8516 22.5398C41.8516 22.5743 41.8516 22.6088 41.8516 22.6433C41.8516 22.6778 41.8516 22.7123 41.8516 22.7468C41.8516 22.7814 41.8516 22.8159 41.8516 22.8505C41.8516 22.885 41.8516 22.9196 41.8516 22.9542C41.8516 22.9887 41.8516 23.0233 41.8516 23.0579C41.8516 23.0925 41.8516 23.1271 41.8516 23.1618C41.8516 23.1964 41.8516 23.231 41.8516 23.2657C41.8516 23.3003 41.8516 23.335 41.8516 23.3697C41.8516 23.4044 41.8516 23.439 41.8516 23.4737C41.8516 23.5084 41.8516 23.5431 41.8516 23.5779C41.8516 23.6126 41.8516 23.6473 41.8516 23.6821C41.8516 23.7168 41.8516 23.7515 41.8516 23.7863C41.8516 23.8211 41.8516 23.8558 41.8516 23.8906C41.8516 23.9254 41.8516 23.9602 41.8516 23.995C41.8516 24.0298 41.8516 24.0646 41.8516 24.0995C41.8516 24.1343 41.8516 24.1691 41.8516 24.204C41.8516 24.2388 41.8516 24.2737 41.8516 24.3085C41.8516 24.3434 41.8516 24.3783 41.8516 24.4131C41.8516 24.448 41.8516 24.4829 41.8516 24.5178C41.8516 24.5527 41.8516 24.5876 41.8516 24.6225C41.8516 24.6575 41.8516 24.6924 41.8516 24.7273C41.8516 24.7622 41.8516 24.7972 41.8516 24.8321C41.8516 24.8671 41.8516 24.902 41.8516 24.937C41.8516 24.972 41.8516 25.007 41.8516 25.0419C41.8516 25.0769 41.8516 25.1119 41.8516 25.1469C41.8516 25.1819 41.8516 25.2169 41.8516 25.2519C41.8516 25.2869 41.8516 25.3219 41.8516 25.357C41.8516 25.392 41.8516 25.427 41.8516 25.4621C41.8516 25.4971 41.8516 25.5322 41.8516 25.5672C41.8516 25.6023 41.8516 25.6373 41.8516 25.6724C41.8516 25.7074 41.8516 25.7425 41.8516 25.7776C41.8516 25.8127 41.8516 25.8477 41.8516 25.8828C41.8516 25.9179 41.8516 25.953 41.8516 25.9881C41.8516 26.0232 41.8516 26.0583 41.8516 26.0934C41.8516 26.1285 41.8516 26.1637 41.8516 26.1988C41.8516 26.2339 41.8516 26.269 41.8516 26.3041C41.8516 26.3393 41.8516 26.3744 41.8516 26.4095C41.8516 26.4447 41.8516 26.4798 41.8516 26.515C41.8516 26.5501 41.8516 26.5853 41.8516 26.6204C41.8516 26.6556 41.8516 26.6907 41.8516 26.7259C41.8516 26.7611 41.8516 26.7962 41.8516 26.8314C41.8516 26.8666 41.8516 26.9017 41.8516 26.9369C41.8516 26.9721 41.8516 27.0073 41.8516 27.0424C41.8516 27.0776 41.8516 27.1128 41.8516 27.148C41.8516 27.1832 41.8516 27.2184 41.8516 27.2536C41.8516 27.2888 41.8516 27.324 41.8516 27.3591C41.8516 27.3943 41.8516 27.4295 41.8516 27.4647C41.8516 27.4999 41.8516 27.5352 41.8516 27.5704C41.8516 27.6056 41.8516 27.6408 41.8516 27.676C41.8516 27.7112 41.8516 27.7464 41.8516 27.7816C41.8516 27.8168 41.8516 27.852 41.8516 27.8872C41.8516 27.9224 41.8516 27.9577 41.8516 27.9929C41.8516 28.0281 41.8516 28.0633 41.8516 28.0985C41.8516 28.1337 41.8516 28.1689 41.8516 28.2042C41.8516 28.2394 41.8516 28.2746 41.8516 28.3098C41.8516 28.345 41.8516 28.3802 41.8516 28.4155C41.8516 28.4507 41.8516 28.4859 41.8516 28.5211C41.8516 28.5563 41.8516 28.5915 41.8516 28.6267C41.8516 28.6619 41.8516 28.6972 41.8516 28.7324C41.8516 28.7676 41.8516 28.8028 41.8516 28.838C41.8516 28.8732 41.8516 28.9084 41.8516 28.9436C41.8516 28.9788 41.8516 29.014 41.8516 29.0492C41.8516 29.0844 41.8516 29.1196 41.8516 29.1548C41.8516 29.19 41.8516 29.2252 41.8516 29.2604C41.8516 29.2956 41.8516 29.3308 41.8516 29.366C41.8516 29.4012 41.8516 29.4364 41.8516 29.4716C41.8516 29.5067 41.8516 29.5419 41.8516 29.5771C41.8516 29.6123 41.8516 29.6474 41.8516 29.6826C41.8516 29.7178 41.8516 29.753 41.8516 29.7881C41.8516 29.8233 41.8516 29.8584 41.8516 29.8936C41.8516 29.9288 41.8516 29.9639 41.8516 29.9991C41.8516 30.0342 41.8516 30.0694 41.8516 30.1045C41.8516 30.1396 41.8516 30.1748 41.8516 30.2099C41.8516 30.245 41.8516 30.2802 41.8516 30.3153C41.8516 30.3504 41.8516 30.3855 41.8516 30.4206C41.8516 30.4558 41.8516 30.4909 41.8516 30.526C41.8516 30.5611 41.8516 30.5962 41.8516 30.6313C41.8516 30.6664 41.8516 30.7014 41.8516 30.7365C41.8516 30.7716 41.8516 30.8067 41.8516 30.8417C41.8516 30.8768 41.8516 30.9119 41.8516 30.9469C41.8516 30.982 41.8516 31.017 41.8516 31.0521C41.8516 31.0871 41.8516 31.1222 41.8516 31.1572C41.8516 31.1922 41.8516 31.2272 41.8516 31.2623C41.8516 31.2973 41.8516 31.3323 41.8516 31.3673C41.8516 31.4023 41.8516 31.4373 41.8516 31.4723C41.8516 31.5073 41.8516 31.5422 41.8516 31.5772C41.8516 31.6122 41.8516 31.6472 41.8516 31.6821C41.8516 31.7171 41.8516 31.752 41.8516 31.7869C41.8516 31.8219 41.8516 31.8568 41.8516 31.8917C41.8516 31.9267 41.8516 31.9616 41.8516 31.9965C41.8516 32.0314 41.8516 32.0663 41.8516 32.1012C41.8516 32.1361 41.8516 32.1709 41.8516 32.2058C41.8516 32.2407 41.8516 32.2755 41.8516 32.3104C41.8516 32.3452 41.8516 32.3801 41.8516 32.4149C41.8516 32.4498 41.8516 32.4846 41.8516 32.5194C41.8516 32.5542 41.8516 32.589 41.8516 32.6238C41.8516 32.6586 41.8516 32.6934 41.8516 32.7281C41.8516 32.7629 41.8516 32.7977 41.8516 32.8324C41.8516 32.8672 41.8516 32.9019 41.8516 32.9366C41.8516 32.9714 41.8516 33.0061 41.8516 33.0408C41.8516 33.0755 41.8516 33.1102 41.8516 33.1449C41.8516 33.1795 41.8516 33.2142 41.8516 33.2489C41.8516 33.2835 41.8516 33.3182 41.8516 33.3528C41.8516 33.3875 41.8516 33.4221 41.8516 33.4567C41.8516 33.4913 41.8516 33.5259 41.8516 33.5605C41.8516 33.5951 41.8516 33.6297 41.8516 33.6642C41.8516 33.6988 41.8516 33.7333 41.8516 33.7679C41.8516 33.8024 41.8516 33.8369 41.8516 33.8714C41.8516 33.9059 41.8516 33.9404 41.8516 33.9749C41.8516 34.0094 41.8516 34.0439 41.8516 34.0783C41.8516 34.1128 41.8516 34.1472 41.8516 34.1817C41.8516 34.2161 41.8516 34.2505 41.8516 34.2849C41.8516 34.3193 41.8516 34.3537 41.8516 34.3881C41.8516 34.4224 41.8516 34.4568 41.8516 34.4911C41.8516 34.5255 41.8516 34.5598 41.8516 34.5941C41.8516 34.6284 41.8516 34.6627 41.8516 34.697C41.8516 34.7313 41.8516 34.7655 41.8516 34.7998C41.8516 34.8341 41.8516 34.8683 41.8516 34.9025C41.8516 34.9367 41.8516 34.9709 41.8516 35.0051C41.8516 35.0393 41.8516 35.0735 41.8516 35.1076C41.8516 35.1418 41.8516 35.1759 41.8516 35.2101C41.8516 35.2442 41.8516 35.2783 41.8516 35.3124C41.8516 35.3465 41.8516 35.3805 41.8516 35.4146C41.8516 35.4487 41.8516 35.4827 41.8516 35.5167C41.8516 35.5507 41.8516 35.5848 41.8516 35.6187C41.8516 35.6527 41.8516 35.6867 41.8516 35.7206C41.8516 35.7546 41.8516 35.7885 41.8516 35.8225C41.8516 35.8564 41.8516 35.8903 41.8516 35.9242C41.8516 35.958 41.8516 35.9919 41.8516 36.0257C41.8516 36.0596 41.8516 36.0934 41.8516 36.1272C41.8516 36.161 41.8516 36.1948 41.8516 36.2286C41.8516 36.2624 41.8516 36.2961 41.8516 36.3298C41.8516 36.3636 41.8516 36.3973 41.8516 36.431C41.8516 36.4647 41.8516 36.4983 41.8516 36.532C41.8516 36.5657 41.8516 36.5993 41.8516 36.6329C41.8516 36.6665 41.8516 36.7001 41.8516 36.7337C41.8516 36.7673 41.8516 36.8008 41.8516 36.8343C41.8516 36.8679 41.8516 36.9014 41.8516 36.9349C41.8516 36.9684 41.8516 37.0018 41.8516 37.0353C41.8516 37.0687 41.8516 37.1022 41.8516 37.1356C41.8516 37.169 41.8516 37.2024 41.8516 37.2357C41.8516 37.2691 41.8516 37.3025 41.8516 37.3358C41.8516 37.3691 41.8516 37.4024 41.8516 37.4357C41.8516 37.469 41.8516 37.5022 41.8516 37.5355C41.8516 37.5687 41.8516 37.6019 41.8516 37.6351C41.8516 37.6683 41.8516 37.7015 41.8516 37.7346C41.8516 37.7677 41.8516 37.8009 41.8516 37.834C41.8516 37.8671 41.8516 37.9001 41.8516 37.9332C41.8516 37.9663 41.8516 37.9993 41.8516 38.0323C41.8516 38.0653 41.8516 38.0983 41.8516 38.1312C41.8516 38.1642 41.8516 38.1971 41.8516 38.2301C41.8516 38.263 41.8516 38.2959 41.8516 38.3287C41.8516 38.3616 41.8516 38.3944 41.8516 38.4272C41.8516 38.4601 41.8516 38.4929 41.8516 38.5256C41.8516 38.5584 41.8516 38.5911 41.8516 38.6238C41.8516 38.6566 41.8516 38.6893 41.8516 38.7219C41.8516 38.7546 41.8516 38.7872 41.8516 38.8199C41.8516 38.8525 41.8516 38.8851 41.8516 38.9176C41.8516 38.9502 41.8516 38.9827 41.8516 39.0152C41.8516 39.0478 41.8516 39.0802 41.8516 39.1127C41.8516 39.1452 41.8516 39.1776 41.8516 39.21C41.8516 39.2424 41.8516 39.2748 41.8516 39.3072C41.8516 39.3395 41.8516 39.3719 41.8516 39.4042C41.8516 39.4365 41.8516 39.4687 41.8516 39.501C41.8516 39.5332 41.8516 39.5655 41.8516 39.5977C41.8516 39.6298 41.8516 39.662 41.8516 39.6942C41.8516 39.7263 41.8516 39.7584 41.8516 39.7905C41.8516 39.8226 41.8516 39.8546 41.8516 39.8867C41.8516 39.9187 41.8516 39.9507 41.8516 39.9827C41.8516 40.0146 41.8516 40.0466 41.8516 40.0785C41.8516 40.1104 41.8516 40.1423 41.8516 40.1741C41.8516 40.206 41.8516 40.2378 41.8516 40.2696C41.8516 40.3014 41.8516 40.3332 41.8516 40.3649C41.8516 40.3967 41.8516 40.4284 41.8516 40.4601C41.8516 40.4918 41.8516 40.5234 41.8516 40.555C41.8516 40.5867 41.8516 40.6182 41.8516 40.6498C41.8516 40.6814 41.8516 40.7129 41.8516 40.7444C41.8516 40.7759 41.8516 40.8074 41.8516 40.8388C41.8516 40.8703 41.8516 40.9017 41.8516 40.9331C41.8516 40.9644 41.8516 40.9958 41.8516 41.0271C41.8516 41.0584 41.8516 41.0897 41.8516 41.121C41.8516 41.1522 41.8516 41.1834 41.8516 41.2146C41.8516 41.2458 41.8516 41.277 41.8516 41.3081C41.8516 41.3392 41.8516 41.3703 41.8516 41.4014C41.8516 41.4325 41.8516 41.4635 41.8516 41.4945C41.8516 41.5255 41.8516 41.5565 41.8516 41.5874C41.8516 41.6183 41.8516 41.6492 41.8516 41.6801C41.8516 41.711 41.8516 41.7418 41.8516 41.7726C41.8516 41.8034 41.8516 41.8342 41.8516 41.8649C41.8516 41.8957 41.8516 41.9264 41.8516 41.957L42.3516 41.957C42.3516 41.9264 42.3516 41.8957 42.3516 41.8649C42.3516 41.8342 42.3516 41.8034 42.3516 41.7726C42.3516 41.7418 42.3516 41.711 42.3516 41.6801C42.3516 41.6492 42.3516 41.6183 42.3516 41.5874C42.3516 41.5565 42.3516 41.5255 42.3516 41.4945C42.3516 41.4635 42.3516 41.4325 42.3516 41.4014C42.3516 41.3703 42.3516 41.3392 42.3516 41.3081C42.3516 41.277 42.3516 41.2458 42.3516 41.2146C42.3516 41.1834 42.3516 41.1522 42.3516 41.121C42.3516 41.0897 42.3516 41.0584 42.3516 41.0271C42.3516 40.9958 42.3516 40.9644 42.3516 40.9331C42.3516 40.9017 42.3516 40.8703 42.3516 40.8388C42.3516 40.8074 42.3516 40.7759 42.3516 40.7444C42.3516 40.7129 42.3516 40.6814 42.3516 40.6498C42.3516 40.6182 42.3516 40.5867 42.3516 40.555C42.3516 40.5234 42.3516 40.4918 42.3516 40.4601C42.3516 40.4284 42.3516 40.3967 42.3516 40.3649C42.3516 40.3332 42.3516 40.3014 42.3516 40.2696C42.3516 40.2378 42.3516 40.206 42.3516 40.1741C42.3516 40.1423 42.3516 40.1104 42.3516 40.0785C42.3516 40.0466 42.3516 40.0146 42.3516 39.9827C42.3516 39.9507 42.3516 39.9187 42.3516 39.8867C42.3516 39.8546 42.3516 39.8226 42.3516 39.7905C42.3516 39.7584 42.3516 39.7263 42.3516 39.6942C42.3516 39.662 42.3516 39.6298 42.3516 39.5977C42.3516 39.5655 42.3516 39.5332 42.3516 39.501C42.3516 39.4687 42.3516 39.4365 42.3516 39.4042C42.3516 39.3719 42.3516 39.3395 42.3516 39.3072C42.3516 39.2748 42.3516 39.2424 42.3516 39.21C42.3516 39.1776 42.3516 39.1452 42.3516 39.1127C42.3516 39.0802 42.3516 39.0478 42.3516 39.0152C42.3516 38.9827 42.3516 38.9502 42.3516 38.9176C42.3516 38.8851 42.3516 38.8525 42.3516 38.8199C42.3516 38.7872 42.3516 38.7546 42.3516 38.7219C42.3516 38.6893 42.3516 38.6566 42.3516 38.6238C42.3516 38.5911 42.3516 38.5584 42.3516 38.5256C42.3516 38.4929 42.3516 38.4601 42.3516 38.4272C42.3516 38.3944 42.3516 38.3616 42.3516 38.3287C42.3516 38.2959 42.3516 38.263 42.3516 38.2301C42.3516 38.1971 42.3516 38.1642 42.3516 38.1312C42.3516 38.0983 42.3516 38.0653 42.3516 38.0323C42.3516 37.9993 42.3516 37.9663 42.3516 37.9332C42.3516 37.9001 42.3516 37.8671 42.3516 37.834C42.3516 37.8009 42.3516 37.7677 42.3516 37.7346C42.3516 37.7015 42.3516 37.6683 42.3516 37.6351C42.3516 37.6019 42.3516 37.5687 42.3516 37.5355C42.3516 37.5022 42.3516 37.469 42.3516 37.4357C42.3516 37.4024 42.3516 37.3691 42.3516 37.3358C42.3516 37.3025 42.3516 37.2691 42.3516 37.2357C42.3516 37.2024 42.3516 37.169 42.3516 37.1356C42.3516 37.1022 42.3516 37.0687 42.3516 37.0353C42.3516 37.0018 42.3516 36.9684 42.3516 36.9349C42.3516 36.9014 42.3516 36.8679 42.3516 36.8343C42.3516 36.8008 42.3516 36.7673 42.3516 36.7337C42.3516 36.7001 42.3516 36.6665 42.3516 36.6329C42.3516 36.5993 42.3516 36.5657 42.3516 36.532C42.3516 36.4983 42.3516 36.4647 42.3516 36.431C42.3516 36.3973 42.3516 36.3636 42.3516 36.3298C42.3516 36.2961 42.3516 36.2624 42.3516 36.2286C42.3516 36.1948 42.3516 36.161 42.3516 36.1272C42.3516 36.0934 42.3516 36.0596 42.3516 36.0257C42.3516 35.9919 42.3516 35.958 42.3516 35.9242C42.3516 35.8903 42.3516 35.8564 42.3516 35.8225C42.3516 35.7885 42.3516 35.7546 42.3516 35.7206C42.3516 35.6867 42.3516 35.6527 42.3516 35.6187C42.3516 35.5848 42.3516 35.5507 42.3516 35.5167C42.3516 35.4827 42.3516 35.4487 42.3516 35.4146C42.3516 35.3805 42.3516 35.3465 42.3516 35.3124C42.3516 35.2783 42.3516 35.2442 42.3516 35.2101C42.3516 35.1759 42.3516 35.1418 42.3516 35.1076C42.3516 35.0735 42.3516 35.0393 42.3516 35.0051C42.3516 34.9709 42.3516 34.9367 42.3516 34.9025C42.3516 34.8683 42.3516 34.8341 42.3516 34.7998C42.3516 34.7655 42.3516 34.7313 42.3516 34.697C42.3516 34.6627 42.3516 34.6284 42.3516 34.5941C42.3516 34.5598 42.3516 34.5255 42.3516 34.4911C42.3516 34.4568 42.3516 34.4224 42.3516 34.3881C42.3516 34.3537 42.3516 34.3193 42.3516 34.2849C42.3516 34.2505 42.3516 34.2161 42.3516 34.1817C42.3516 34.1472 42.3516 34.1128 42.3516 34.0783C42.3516 34.0439 42.3516 34.0094 42.3516 33.9749C42.3516 33.9404 42.3516 33.9059 42.3516 33.8714C42.3516 33.8369 42.3516 33.8024 42.3516 33.7679C42.3516 33.7333 42.3516 33.6988 42.3516 33.6642C42.3516 33.6297 42.3516 33.5951 42.3516 33.5605C42.3516 33.5259 42.3516 33.4913 42.3516 33.4567C42.3516 33.4221 42.3516 33.3875 42.3516 33.3528C42.3516 33.3182 42.3516 33.2835 42.3516 33.2489C42.3516 33.2142 42.3516 33.1795 42.3516 33.1449C42.3516 33.1102 42.3516 33.0755 42.3516 33.0408C42.3516 33.0061 42.3516 32.9714 42.3516 32.9366C42.3516 32.9019 42.3516 32.8672 42.3516 32.8324C42.3516 32.7977 42.3516 32.7629 42.3516 32.7281C42.3516 32.6934 42.3516 32.6586 42.3516 32.6238C42.3516 32.589 42.3516 32.5542 42.3516 32.5194C42.3516 32.4846 42.3516 32.4498 42.3516 32.4149C42.3516 32.3801 42.3516 32.3452 42.3516 32.3104C42.3516 32.2755 42.3516 32.2407 42.3516 32.2058C42.3516 32.1709 42.3516 32.1361 42.3516 32.1012C42.3516 32.0663 42.3516 32.0314 42.3516 31.9965C42.3516 31.9616 42.3516 31.9267 42.3516 31.8917C42.3516 31.8568 42.3516 31.8219 42.3516 31.7869C42.3516 31.752 42.3516 31.7171 42.3516 31.6821C42.3516 31.6472 42.3516 31.6122 42.3516 31.5772C42.3516 31.5422 42.3516 31.5073 42.3516 31.4723C42.3516 31.4373 42.3516 31.4023 42.3516 31.3673C42.3516 31.3323 42.3516 31.2973 42.3516 31.2623C42.3516 31.2272 42.3516 31.1922 42.3516 31.1572C42.3516 31.1222 42.3516 31.0871 42.3516 31.0521C42.3516 31.017 42.3516 30.982 42.3516 30.9469C42.3516 30.9119 42.3516 30.8768 42.3516 30.8417C42.3516 30.8067 42.3516 30.7716 42.3516 30.7365C42.3516 30.7014 42.3516 30.6664 42.3516 30.6313C42.3516 30.5962 42.3516 30.5611 42.3516 30.526C42.3516 30.4909 42.3516 30.4558 42.3516 30.4206C42.3516 30.3855 42.3516 30.3504 42.3516 30.3153C42.3516 30.2802 42.3516 30.245 42.3516 30.2099C42.3516 30.1748 42.3516 30.1396 42.3516 30.1045C42.3516 30.0694 42.3516 30.0342 42.3516 29.9991C42.3516 29.9639 42.3516 29.9288 42.3516 29.8936C42.3516 29.8584 42.3516 29.8233 42.3516 29.7881C42.3516 29.753 42.3516 29.7178 42.3516 29.6826C42.3516 29.6474 42.3516 29.6123 42.3516 29.5771C42.3516 29.5419 42.3516 29.5067 42.3516 29.4716C42.3516 29.4364 42.3516 29.4012 42.3516 29.366C42.3516 29.3308 42.3516 29.2956 42.3516 29.2604C42.3516 29.2252 42.3516 29.19 42.3516 29.1548C42.3516 29.1196 42.3516 29.0844 42.3516 29.0492C42.3516 29.014 42.3516 28.9788 42.3516 28.9436C42.3516 28.9084 42.3516 28.8732 42.3516 28.838C42.3516 28.8028 42.3516 28.7676 42.3516 28.7324C42.3516 28.6972 42.3516 28.6619 42.3516 28.6267C42.3516 28.5915 42.3516 28.5563 42.3516 28.5211C42.3516 28.4859 42.3516 28.4507 42.3516 28.4155C42.3516 28.3802 42.3516 28.345 42.3516 28.3098C42.3516 28.2746 42.3516 28.2394 42.3516 28.2042C42.3516 28.1689 42.3516 28.1337 42.3516 28.0985C42.3516 28.0633 42.3516 28.0281 42.3516 27.9929C42.3516 27.9577 42.3516 27.9224 42.3516 27.8872C42.3516 27.852 42.3516 27.8168 42.3516 27.7816C42.3516 27.7464 42.3516 27.7112 42.3516 27.676C42.3516 27.6408 42.3516 27.6056 42.3516 27.5704C42.3516 27.5352 42.3516 27.4999 42.3516 27.4647C42.3516 27.4295 42.3516 27.3943 42.3516 27.3591C42.3516 27.324 42.3516 27.2888 42.3516 27.2536C42.3516 27.2184 42.3516 27.1832 42.3516 27.148C42.3516 27.1128 42.3516 27.0776 42.3516 27.0424C42.3516 27.0073 42.3516 26.9721 42.3516 26.9369C42.3516 26.9017 42.3516 26.8666 42.3516 26.8314C42.3516 26.7962 42.3516 26.7611 42.3516 26.7259C42.3516 26.6907 42.3516 26.6556 42.3516 26.6204C42.3516 26.5853 42.3516 26.5501 42.3516 26.515C42.3516 26.4798 42.3516 26.4447 42.3516 26.4095C42.3516 26.3744 42.3516 26.3393 42.3516 26.3041C42.3516 26.269 42.3516 26.2339 42.3516 26.1988C42.3516 26.1637 42.3516 26.1285 42.3516 26.0934C42.3516 26.0583 42.3516 26.0232 42.3516 25.9881C42.3516 25.953 42.3516 25.9179 42.3516 25.8828C42.3516 25.8477 42.3516 25.8127 42.3516 25.7776C42.3516 25.7425 42.3516 25.7074 42.3516 25.6724C42.3516 25.6373 42.3516 25.6023 42.3516 25.5672C42.3516 25.5322 42.3516 25.4971 42.3516 25.4621C42.3516 25.427 42.3516 25.392 42.3516 25.357C42.3516 25.3219 42.3516 25.2869 42.3516 25.2519C42.3516 25.2169 42.3516 25.1819 42.3516 25.1469C42.3516 25.1119 42.3516 25.0769 42.3516 25.0419C42.3516 25.007 42.3516 24.972 42.3516 24.937C42.3516 24.902 42.3516 24.8671 42.3516 24.8321C42.3516 24.7972 42.3516 24.7622 42.3516 24.7273C42.3516 24.6924 42.3516 24.6575 42.3516 24.6225C42.3516 24.5876 42.3516 24.5527 42.3516 24.5178C42.3516 24.4829 42.3516 24.448 42.3516 24.4131C42.3516 24.3783 42.3516 24.3434 42.3516 24.3085C42.3516 24.2737 42.3516 24.2388 42.3516 24.204C42.3516 24.1691 42.3516 24.1343 42.3516 24.0995C42.3516 24.0646 42.3516 24.0298 42.3516 23.995C42.3516 23.9602 42.3516 23.9254 42.3516 23.8906C42.3516 23.8558 42.3516 23.8211 42.3516 23.7863C42.3516 23.7515 42.3516 23.7168 42.3516 23.6821C42.3516 23.6473 42.3516 23.6126 42.3516 23.5779C42.3516 23.5431 42.3516 23.5084 42.3516 23.4737C42.3516 23.439 42.3516 23.4044 42.3516 23.3697C42.3516 23.335 42.3516 23.3003 42.3516 23.2657C42.3516 23.231 42.3516 23.1964 42.3516 23.1618C42.3516 23.1271 42.3516 23.0925 42.3516 23.0579C42.3516 23.0233 42.3516 22.9887 42.3516 22.9542C42.3516 22.9196 42.3516 22.885 42.3516 22.8505C42.3516 22.8159 42.3516 22.7814 42.3516 22.7468C42.3516 22.7123 42.3516 22.6778 42.3516 22.6433C42.3516 22.6088 42.3516 22.5743 42.3516 22.5398C42.3516 22.5054 42.3516 22.4709 42.3516 22.4365C42.3516 22.402 42.3516 22.3676 42.3516 22.3332C42.3516 22.2987 42.3516 22.2643 42.3516 22.2299C42.3516 22.1956 42.3516 22.1612 42.3516 22.1268C42.3516 22.0925 42.3516 22.0581 42.3516 22.0238C42.3516 21.9895 42.3516 21.9551 42.3516 21.9208C42.3516 21.8865 42.3516 21.8522 42.3516 21.818C42.3516 21.7837 42.3516 21.7494 42.3516 21.7152C42.3516 21.681 42.3516 21.6467 42.3516 21.6125C42.3516 21.5783 42.3516 21.5441 42.3516 21.51C42.3516 21.4758 42.3516 21.4416 42.3516 21.4075C42.3516 21.3733 42.3516 21.3392 42.3516 21.3051C42.3516 21.271 42.3516 21.2369 42.3516 21.2028C42.3516 21.1687 42.3516 21.1347 42.3516 21.1006C42.3516 21.0666 42.3516 21.0325 42.3516 20.9985C42.3516 20.9645 42.3516 20.9305 42.3516 20.8966C42.3516 20.8626 42.3516 20.8286 42.3516 20.7947C42.3516 20.7607 42.3516 20.7268 42.3516 20.6929C42.3516 20.659 42.3516 20.6251 42.3516 20.5913C42.3516 20.5574 42.3516 20.5235 42.3516 20.4897C42.3516 20.4559 42.3516 20.4221 42.3516 20.3883C42.3516 20.3545 42.3516 20.3207 42.3516 20.2869C42.3516 20.2532 42.3516 20.2194 42.3516 20.1857C42.3516 20.152 42.3516 20.1183 42.3516 20.0846C42.3516 20.051 42.3516 20.0173 42.3516 19.9837C42.3516 19.95 42.3516 19.9164 42.3516 19.8828C42.3516 19.8492 42.3516 19.8156 42.3516 19.7821C42.3516 19.7485 42.3516 19.715 42.3516 19.6814C42.3516 19.6479 42.3516 19.6144 42.3516 19.5809C42.3516 19.5475 42.3516 19.514 42.3516 19.4806C42.3516 19.4471 42.3516 19.4137 42.3516 19.3803C42.3516 19.3469 42.3516 19.3136 42.3516 19.2802C42.3516 19.2469 42.3516 19.2135 42.3516 19.1802C42.3516 19.1469 42.3516 19.1136 42.3516 19.0804C42.3516 19.0471 42.3516 19.0139 42.3516 18.9806C42.3516 18.9474 42.3516 18.9142 42.3516 18.8811C42.3516 18.8479 42.3516 18.8147 42.3516 18.7816C42.3516 18.7485 42.3516 18.7154 42.3516 18.6823C42.3516 18.6492 42.3516 18.6161 42.3516 18.5831C42.3516 18.5501 42.3516 18.517 42.3516 18.4841C42.3516 18.4511 42.3516 18.4181 42.3516 18.3852C42.3516 18.3522 42.3516 18.3193 42.3516 18.2864C42.3516 18.2535 42.3516 18.2206 42.3516 18.1878C42.3516 18.1549 42.3516 18.1221 42.3516 18.0893C42.3516 18.0565 42.3516 18.0237 42.3516 17.991C42.3516 17.9582 42.3516 17.9255 42.3516 17.8928C42.3516 17.8601 42.3516 17.8274 42.3516 17.7948C42.3516 17.7621 42.3516 17.7295 42.3516 17.6969C42.3516 17.6643 42.3516 17.6318 42.3516 17.5992C42.3516 17.5667 42.3516 17.5341 42.3516 17.5016C42.3516 17.4691 42.3516 17.4367 42.3516 17.4042C42.3516 17.3718 42.3516 17.3394 42.3516 17.307C42.3516 17.2746 42.3516 17.2422 42.3516 17.2099C42.3516 17.1775 42.3516 17.1452 42.3516 17.113C42.3516 17.0807 42.3516 17.0484 42.3516 17.0162C42.3516 16.984 42.3516 16.9517 42.3516 16.9196C42.3516 16.8874 42.3516 16.8553 42.3516 16.8231C42.3516 16.791 42.3516 16.7589 42.3516 16.7269C42.3516 16.6948 42.3516 16.6628 42.3516 16.6307C42.3516 16.5987 42.3516 16.5668 42.3516 16.5348C42.3516 16.5029 42.3516 16.4709 42.3516 16.439C42.3516 16.4071 42.3516 16.3753 42.3516 16.3434C42.3516 16.3116 42.3516 16.2798 42.3516 16.248C42.3516 16.2162 42.3516 16.1845 42.3516 16.1528C42.3516 16.1211 42.3516 16.0894 42.3516 16.0577C42.3516 16.026 42.3516 15.9944 42.3516 15.9628C42.3516 15.9312 42.3516 15.8996 42.3516 15.8681C42.3516 15.8366 42.3516 15.805 42.3516 15.7736C42.3516 15.7421 42.3516 15.7106 42.3516 15.6792C42.3516 15.6478 42.3516 15.6164 42.3516 15.5851C42.3516 15.5537 42.3516 15.5224 42.3516 15.4911C42.3516 15.4598 42.3516 15.4285 42.3516 15.3973C42.3516 15.3661 42.3516 15.3349 42.3516 15.3037C42.3516 15.2725 42.3516 15.2414 42.3516 15.2103C42.3516 15.1792 42.3516 15.1481 42.3516 15.117C42.3516 15.086 42.3516 15.055 42.3516 15.024C42.3516 14.993 42.3516 14.9621 42.3516 14.9312C42.3516 14.9003 42.3516 14.8694 42.3516 14.8385C42.3516 14.8077 42.3516 14.7769 42.3516 14.7461C42.3516 14.7153 42.3516 14.6846 42.3516 14.6539C42.3516 14.6232 42.3516 14.5925 42.3516 14.5618C42.3516 14.5312 42.3516 14.5006 42.3516 14.47C42.3516 14.4394 42.3516 14.4089 42.3516 14.3784C42.3516 14.3478 42.3516 14.3174 42.3516 14.2869C42.3516 14.2565 42.3516 14.2261 42.3516 14.1957C42.3516 14.1653 42.3516 14.135 42.3516 14.1047C42.3516 14.0744 42.3516 14.0441 42.3516 14.0139C42.3516 13.9836 42.3516 13.9535 42.3516 13.9233C42.3516 13.8931 42.3516 13.863 42.3516 13.8329C42.3516 13.8028 42.3516 13.7728 42.3516 13.7427C42.3516 13.7127 42.3516 13.6827 42.3516 13.6528C42.3516 13.6228 42.3516 13.5929 42.3516 13.563C42.3516 13.5332 42.3516 13.5033 42.3516 13.4735C42.3516 13.4437 42.3516 13.414 42.3516 13.3842C42.3516 13.3545 42.3516 13.3248 42.3516 13.2952C42.3516 13.2655 42.3516 13.2359 42.3516 13.2063C42.3516 13.1767 42.3516 13.1472 42.3516 13.1177C42.3516 13.0882 42.3516 13.0587 42.3516 13.0293C42.3516 12.9998 42.3516 12.9705 42.3516 12.9411C42.3516 12.9117 42.3516 12.8824 42.3516 12.8532C42.3516 12.8239 42.3516 12.7946 42.3516 12.7654C42.3516 12.7362 42.3516 12.7071 42.3516 12.678C42.3516 12.6488 42.3516 12.6197 42.3516 12.5907C42.3516 12.5617 42.3516 12.5326 42.3516 12.5037C42.3516 12.4747 42.3516 12.4458 42.3516 12.4169C42.3516 12.388 42.3516 12.3592 42.3516 12.3304C42.3516 12.3016 42.3516 12.2728 42.3516 12.2441C42.3516 12.2153 42.3516 12.1866 42.3516 12.158C42.3516 12.1293 42.3516 12.1007 42.3516 12.0722C42.3516 12.0436 42.3516 12.0151 42.3516 11.9866C42.3516 11.9581 42.3516 11.9297 42.3516 11.9013C42.3516 11.8729 42.3516 11.8445 42.3516 11.8162C42.3516 11.7879 42.3516 11.7596 42.3516 11.7313C42.3516 11.7031 42.3516 11.6749 42.3516 11.6468C42.3516 11.6186 42.3516 11.5905 42.3516 11.5624C42.3516 11.5344 42.3516 11.5063 42.3516 11.4783C42.3516 11.4504 42.3516 11.4224 42.3516 11.3945C42.3516 11.3666 42.3516 11.3388 42.3516 11.3109C42.3516 11.2831 42.3516 11.2554 42.3516 11.2276C42.3516 11.1999 42.3516 11.1722 42.3516 11.1446C42.3516 11.1169 42.3516 11.0893 42.3516 11.0618C42.3516 11.0342 42.3516 11.0067 42.3516 10.9792C42.3516 10.9518 42.3516 10.9243 42.3516 10.897C42.3516 10.8696 42.3516 10.8423 42.3516 10.815C42.3516 10.7877 42.3516 10.7604 42.3516 10.7332C42.3516 10.706 42.3516 10.6789 42.3516 10.6517C42.3516 10.6246 42.3516 10.5976 42.3516 10.5705C42.3516 10.5435 42.3516 10.5165 42.3516 10.4896C42.3516 10.4627 42.3516 10.4358 42.3516 10.4089C42.3516 10.3821 42.3516 10.3553 42.3516 10.3286C42.3516 10.3018 42.3516 10.2751 42.3516 10.2484C42.3516 10.2218 42.3516 10.1952 42.3516 10.1686C42.3516 10.142 42.3516 10.1155 42.3516 10.089C42.3516 10.0626 42.3516 10.0361 42.3516 10.0098C42.3516 9.98339 42.3516 9.95706 42.3516 9.93077C42.3516 9.90448 42.3516 9.87825 42.3516 9.85205C42.3516 9.82586 42.3516 9.79972 42.3516 9.77362C42.3516 9.74753 42.3516 9.72148 42.3516 9.69547C42.3516 9.66947 42.3516 9.64352 42.3516 9.61761C42.3516 9.59171 42.3516 9.56585 42.3516 9.54004C42.3516 9.51423 42.3516 9.48847 42.3516 9.46276C42.3516 9.43705 42.3516 9.41139 42.3516 9.38577C42.3516 9.36016 42.3516 9.33459 42.3516 9.30907C42.3516 9.28356 42.3516 9.25809 42.3516 9.23267C42.3516 9.20725 42.3516 9.18188 42.3516 9.15657C42.3516 9.13125 42.3516 9.10598 42.3516 9.08076C42.3516 9.05554 42.3516 9.03036 42.3516 9.00524C42.3516 8.98012 42.3516 8.95505 42.3516 8.93003C42.3516 8.90501 42.3516 8.88004 42.3516 8.85513C42.3516 8.83021 42.3516 8.80534 42.3516 8.78052C42.3516 8.7557 42.3516 8.73094 42.3516 8.70622C42.3516 8.6815 42.3516 8.65684 42.3516 8.63223C42.3516 8.60761 42.3516 8.58305 42.3516 8.55854C42.3516 8.53403 42.3516 8.50957 42.3516 8.48516C42.3516 8.46075 42.3516 8.4364 42.3516 8.4121C42.3516 8.38779 42.3516 8.36354 42.3516 8.33934C42.3516 8.31514 42.3516 8.291 42.3516 8.2669C42.3516 8.24281 42.3516 8.21876 42.3516 8.19478C42.3516 8.17079 42.3516 8.14685 42.3516 8.12297C42.3516 8.09908 42.3516 8.07525 42.3516 8.05148C42.3516 8.0277 42.3516 8.00398 42.3516 7.98031C42.3516 7.95664 42.3516 7.93302 42.3516 7.90946C42.3516 7.88589 42.3516 7.86239 42.3516 7.83893C42.3516 7.81548 42.3516 7.79207 42.3516 7.76873C42.3516 7.74538 42.3516 7.72209 42.3516 7.69885C42.3516 7.67561 42.3516 7.65243 42.3516 7.6293C42.3516 7.60617 42.3516 7.5831 42.3516 7.56008C42.3516 7.53706 42.3516 7.5141 42.3516 7.49119C42.3516 7.46828 42.3516 7.44543 42.3516 7.42263C42.3516 7.39983 42.3516 7.37709 42.3516 7.3544C42.3516 7.33172 42.3516 7.30909 42.3516 7.28651C42.3516 7.26394 42.3516 7.24142 42.3516 7.21896C42.3516 7.19649 42.3516 7.17409 42.3516 7.15174C42.3516 7.12939 42.3516 7.10709 42.3516 7.08486C42.3516 7.06262 42.3516 7.04044 42.3516 7.01832C42.3516 6.9962 42.3516 6.97413 42.3516 6.95212C42.3516 6.93012 42.3516 6.90816 42.3516 6.88627C42.3516 6.86438 42.3516 6.84254 42.3516 6.82076C42.3516 6.79898 42.3516 6.77726 42.3516 6.7556C42.3516 6.73394 42.3516 6.71233 42.3516 6.69079C42.3516 6.66924 42.3516 6.64775 42.3516 6.62632C42.3516 6.60489 42.3516 6.58352 42.3516 6.56221C42.3516 6.5409 42.3516 6.51964 42.3516 6.49845C42.3516 6.47726 42.3516 6.45612 42.3516 6.43504C42.3516 6.41397 42.3516 6.39295 42.3516 6.37199C42.3516 6.35103 42.3516 6.33014 42.3516 6.3093C42.3516 6.28846 42.3516 6.26768 42.3516 6.24696C42.3516 6.22624 42.3516 6.20558 42.3516 6.18499C42.3516 6.16439 42.3516 6.14385 42.3516 6.12337C42.3516 6.10289 42.3516 6.08248 42.3516 6.06212C42.3516 6.04176 42.3516 6.02147 42.3516 6.00123C42.3516 5.981 42.3516 5.96082 42.3516 5.94071C42.3516 5.9206 42.3516 5.90055 42.3516 5.88056C42.3516 5.86057 42.3516 5.84064 42.3516 5.82077C42.3516 5.8009 42.3516 5.7811 42.3516 5.76136C42.3516 5.74161 42.3516 5.72193 42.3516 5.70231C42.3516 5.68269 42.3516 5.66314 42.3516 5.64364C42.3516 5.62415 42.3516 5.60472 42.3516 5.58535C42.3516 5.56598 42.3516 5.54667 42.3516 5.52743C42.3516 5.50819 42.3516 5.489 42.3516 5.46989C42.3516 5.45077 42.3516 5.43172 42.3516 5.41273C42.3516 5.39374 42.3516 5.37481 42.3516 5.35594C42.3516 5.33708 42.3516 5.31828 42.3516 5.29955C42.3516 5.28081 42.3516 5.26214 42.3516 5.24353C42.3516 5.22492 42.3516 5.20638 42.3516 5.1879C42.3516 5.16942 42.3516 5.15101 42.3516 5.13266C42.3516 5.11431 42.3516 5.09602 42.3516 5.0778C42.3516 5.05958 42.3516 5.04143 42.3516 5.02334C42.3516 5.00525 42.3516 4.98722 42.3516 4.96926C42.3516 4.9513 42.3516 4.93341 42.3516 4.91558C42.3516 4.89775 42.3516 4.87999 42.3516 4.86229C42.3516 4.8446 42.3516 4.82697 42.3516 4.8094C42.3516 4.79184 42.3516 4.77434 42.3516 4.75691C42.3516 4.73948 42.3516 4.72211 42.3516 4.70481C42.3516 4.68751 42.3516 4.67028 42.3516 4.65312C42.3516 4.63595 42.3516 4.61885 42.3516 4.60182C42.3516 4.58479 42.3516 4.56783 42.3516 4.55093C42.3516 4.53403 42.3516 4.51721 42.3516 4.50044C42.3516 4.48368 42.3516 4.46699 42.3516 4.45036C42.3516 4.43374 42.3516 4.41718 42.3516 4.40069C42.3516 4.3842 42.3516 4.36778 42.3516 4.35143C42.3516 4.33507 42.3516 4.31879 42.3516 4.30257C42.3516 4.28636 42.3516 4.27021 42.3516 4.25413C42.3516 4.23805 42.3516 4.22204 42.3516 4.2061C42.3516 4.19016 42.3516 4.17429 42.3516 4.15849C42.3516 4.14269 42.3516 4.12696 42.3516 4.11129C42.3516 4.09563 42.3516 4.08004 42.3516 4.06452C42.3516 4.04899 42.3516 4.03354 42.3516 4.01816C42.3516 4.00277 42.3516 3.98746 42.3516 3.97222C42.3516 3.95698 42.3516 3.9418 42.3516 3.9267C42.3516 3.9116 42.3516 3.89657 42.3516 3.88161C42.3516 3.86665 42.3516 3.85176 42.3516 3.83695C42.3516 3.82213 42.3516 3.80738 42.3516 3.79271C42.3516 3.77803 42.3516 3.76343 42.3516 3.7489C42.3516 3.73436 42.3516 3.7199 42.3516 3.70551C42.3516 3.69113 42.3516 3.67681 42.3516 3.66256C42.3516 3.64832 42.3516 3.63415 42.3516 3.62005C42.3516 3.60595 42.3516 3.59192 42.3516 3.57797C42.3516 3.56401 42.3516 3.55013 42.3516 3.53632C42.3516 3.52251 42.3516 3.50877 42.3516 3.49511C42.3516 3.48145 42.3516 3.46786 42.3516 3.45434C42.3516 3.44082 42.3516 3.42738 42.3516 3.41401C42.3516 3.40064 42.3516 3.38734 42.3516 3.37412C42.3516 3.3609 42.3516 3.34775 42.3516 3.33468C42.3516 3.3216 42.3516 3.3086 42.3516 3.29568C42.3516 3.28275 42.3516 3.2699 42.3516 3.25712C42.3516 3.24434 42.3516 3.23164 42.3516 3.21902C42.3516 3.20639 42.3516 3.19384 42.3516 3.18136C42.3516 3.16888 42.3516 3.15648 42.3516 3.14415C42.3516 3.13183 42.3516 3.11957 42.3516 3.1074C42.3516 3.09522 42.3516 3.08312 42.3516 3.0711C42.3516 3.05907 42.3516 3.04713 42.3516 3.03525C42.3516 3.02338 42.3516 3.01158 42.3516 2.99986C42.3516 2.98814 42.3516 2.9765 42.3516 2.96493C42.3516 2.95337 42.3516 2.94188 42.3516 2.93046C42.3516 2.91905 42.3516 2.90771 42.3516 2.89645C42.3516 2.8852 42.3516 2.87401 42.3516 2.86291C42.3516 2.8518 42.3516 2.84078 42.3516 2.82983C42.3516 2.81888 42.3516 2.808 42.3516 2.79721C42.3516 2.78641 42.3516 2.7757 42.3516 2.76506C42.3516 2.75442 42.3516 2.74386 42.3516 2.73338C42.3516 2.7229 42.3516 2.71249 42.3516 2.70217C42.3516 2.69184 42.3516 2.68159 42.3516 2.67143C42.3516 2.66126 42.3516 2.65117 42.3516 2.64116C42.3516 2.63115 42.3516 2.62122 42.3516 2.61137C42.3516 2.60152 42.3516 2.59174 42.3516 2.58205C42.3516 2.57236 42.3516 2.56275 42.3516 2.55321C42.3516 2.54368 42.3516 2.53423 42.3516 2.52485C42.3516 2.51548 42.3516 2.50619 42.3516 2.49698C42.3516 2.48776 42.3516 2.47863 42.3516 2.46958C42.3516 2.46053 42.3516 2.45156 42.3516 2.44267C42.3516 2.43378 42.3516 2.42497 42.3516 2.41624C42.3516 2.40751 42.3516 2.39886 42.3516 2.3903C42.3516 2.38173 42.3516 2.37325 42.3516 2.36484C42.3516 2.35644 42.3516 2.34812 42.3516 2.33988C42.3516 2.33164 42.3516 2.32348 42.3516 2.3154C42.3516 2.30733 42.3516 2.29933 42.3516 2.29142C42.3516 2.28351 42.3516 2.27568 42.3516 2.26794C42.3516 2.26019 42.3516 2.25253 42.3516 2.24494C42.3516 2.23736 42.3516 2.22987 42.3516 2.22245C42.3516 2.21503 42.3516 2.2077 42.3516 2.20045C42.3516 2.1932 42.3516 2.18604 42.3516 2.17896C42.3516 2.17187 42.3516 2.16488 42.3516 2.15796C42.3516 2.15105 42.3516 2.14422 42.3516 2.13747C42.3516 2.13072 42.3516 2.12406 42.3516 2.11748C42.3516 2.1109 42.3516 2.10441 42.3516 2.098C42.3516 2.09159 42.3516 2.08527 42.3516 2.07902C42.3516 2.07278 42.3516 2.06663 42.3516 2.06056C42.3516 2.05449 42.3516 2.0485 42.3516 2.0426C42.3516 2.0367 42.3516 2.03089 42.3516 2.02516C42.3516 2.01943 42.3516 2.01379 42.3516 2.00823C42.3516 2.00267 42.3516 1.9972 42.3516 1.99181C42.3516 1.98643 42.3516 1.98113 42.3516 1.97591C42.3516 1.9707 42.3516 1.96557 42.3516 1.96053C42.3516 1.95549 42.3516 1.95054 42.3516 1.94567C42.3516 1.9408 42.3516 1.93602 42.3516 1.93133C42.3516 1.92663 42.3516 1.92203 42.3516 1.91751C42.3516 1.91299 42.3516 1.90856 42.3516 1.90421C42.3516 1.89987 42.3516 1.89561 42.3516 1.89144C42.3516 1.88727 42.3516 1.88319 42.3516 1.8792C42.3516 1.8752 42.3516 1.8713 42.3516 1.86748C42.3516 1.86366 42.3516 1.85994 42.3516 1.8563C42.3516 1.85265 42.3516 1.8491 42.3516 1.84564C42.3516 1.84218 42.3516 1.8388 42.3516 1.83552C42.3516 1.83223 42.3516 1.82904 42.3516 1.82593C42.3516 1.82282 42.3516 1.8198 42.3516 1.81688C42.3516 1.81395 42.3516 1.81111 42.3516 1.80836C42.3516 1.80561 42.3516 1.80295 42.3516 1.80038C42.3516 1.79782 42.3516 1.79534 42.3516 1.79295C42.3516 1.79056 42.3516 1.78826 42.3516 1.78605C42.3516 1.78384 42.3516 1.78173 42.3516 1.7797C42.3516 1.77767 42.3516 1.77574 42.3516 1.77389C42.3516 1.77205 42.3516 1.77029 42.3516 1.76863C42.3516 1.76697 42.3516 1.7654 42.3516 1.76392C42.3516 1.76244 42.3516 1.76105 42.3516 1.75975C42.3516 1.75845 42.3516 1.75725 42.3516 1.75614C42.3516 1.75502 42.3516 1.754 42.3516 1.75307C42.3516 1.75215 42.3516 1.75131 42.3516 1.75057C42.3516 1.74982 42.3516 1.74917 42.3516 1.74861C42.3516 1.74805 42.3516 1.74759 42.3516 1.74721C42.3516 1.74684 42.3516 1.74656 42.3516 1.74637C42.3516 1.74619 42.3516 1.74609 42.1016 1.74609ZM42.1016 41.707L1.89061 41.707L1.89061 42.207L42.1016 42.207L42.1016 41.707Z" fill="#660066"/>
</svg>
