<svg width="45" height="40" viewBox="0 0 45 40" fill="none" xmlns="http://www.w3.org/2000/svg">
<path fill-rule="evenodd" clip-rule="evenodd" d="M33.622 5.77939C33.6196 8.41498 33.5307 10.6992 33.424 10.8553C33.2239 11.1484 29.7131 13.1143 19.8967 18.4305C16.7746 20.1212 13.6542 21.8256 12.9621 22.2179C12.2701 22.6104 11.6362 22.9316 11.553 22.9316C11.4701 22.9316 9.7194 22.0117 7.66265 20.8875C5.60617 19.7634 3.18085 18.4502 2.27314 17.9695L0.622986 17.0956V11.8778V6.66034L1.48106 7.15524C1.95314 7.42741 3.92645 8.51336 5.8665 9.56835C7.80681 10.6231 9.76719 11.7013 10.2229 11.9642C10.6789 12.2272 11.2367 12.4426 11.4628 12.4431C11.6888 12.4436 16.6788 9.81555 22.5518 6.60265C28.4247 3.38976 33.3192 0.811854 33.428 0.874279C33.5367 0.936455 33.6241 3.14381 33.622 5.77939ZM44.451 22.38V27.5717L38.5764 30.7891C35.3453 32.5588 30.4817 35.2226 27.7681 36.709C25.0544 38.1955 22.7004 39.4118 22.5364 39.4118C22.3727 39.4118 20.8504 38.6449 19.1535 37.7078C17.4566 36.7704 15.101 35.4748 13.9187 34.8283C12.6612 34.1406 11.7125 33.4479 11.6325 33.159C11.4464 32.4851 11.4271 23.6647 11.6114 23.3828C11.698 23.2504 11.8857 23.2564 12.0655 23.3972C12.2342 23.5296 13.0849 24.0245 13.9562 24.4972C14.8275 24.9701 17.1174 26.2199 19.045 27.2746L22.5496 29.1923L28.8139 25.7689C32.2591 23.8862 37.1573 21.1906 39.6985 19.7791C42.2398 18.3673 44.3488 17.2069 44.3849 17.2004C44.4211 17.1939 44.451 19.5246 44.451 22.38Z" fill="black"/>
</svg>
