<svg width="45" height="40" viewBox="0 0 45 40" fill="none" xmlns="http://www.w3.org/2000/svg">
<path fill-rule="evenodd" clip-rule="evenodd" d="M44.7457 3.2655V5.65782H42.3766H40.0075V19.4137V33.1696H37.6384H35.2693V19.4137V5.65782H28.1716H21.0732L20.9163 22.5351L20.7587 39.4118L13.3554 30.5966L5.95198 21.7809L5.78259 27.4753L5.6132 33.1696H3.26544H0.917686V20.6099C0.917686 13.702 1.02489 8.05015 1.15578 8.05015C1.28726 8.05015 4.62648 11.9526 8.57692 16.7223C12.5274 21.492 15.8849 25.3945 16.0377 25.3945C16.1911 25.3945 16.3167 20.9538 16.3167 15.5262V5.65782H14.2438C12.22 5.65782 12.1708 5.60101 12.1708 3.2655V0.873169H28.4582H44.7457V3.2655ZM30.5312 20.3108V33.1696H28.1621H25.793V20.7098C25.793 13.8563 25.9707 8.06989 26.1881 7.85099C26.4048 7.6315 27.4709 7.45207 28.5571 7.45207H30.5312V20.3108Z" fill="white"/>
</svg>
