<svg width="57" height="59" viewBox="0 0 57 59" fill="none" xmlns="http://www.w3.org/2000/svg">
<path opacity="0.9" d="M56.7435 56.959C56.7435 56.2226 56.1465 55.6257 55.4102 55.6257C54.6738 55.6257 54.0768 56.2226 54.0768 56.959C54.0768 57.6954 54.6738 58.2923 55.4102 58.2923C56.1465 58.2923 56.7435 57.6954 56.7435 56.959ZM3.66504 2.00402C3.66504 1.26764 3.06808 0.670684 2.3317 0.670684C1.59532 0.670684 0.998368 1.26764 0.998368 2.00402C0.998368 2.7404 1.59532 3.33735 2.3317 3.33735C3.06808 3.33735 3.66504 2.7404 3.66504 2.00402ZM55.4102 56.959C55.4102 56.709 55.4101 56.709 55.41 56.709C55.4099 56.709 55.4097 56.709 55.4095 56.709C55.4092 56.709 55.4089 56.709 55.4086 56.709C55.4082 56.709 55.4078 56.709 55.4074 56.709C55.4069 56.709 55.4064 56.709 55.4058 56.709C55.4052 56.709 55.4046 56.709 55.4039 56.709C55.4032 56.709 55.4024 56.709 55.4016 56.709C55.4008 56.709 55.3999 56.709 55.399 56.709C55.3981 56.709 55.3971 56.709 55.396 56.709C55.395 56.709 55.3939 56.709 55.3927 56.709C55.3916 56.709 55.3904 56.709 55.3891 56.709C55.3878 56.709 55.3865 56.709 55.3851 56.709C55.3837 56.709 55.3823 56.709 55.3808 56.709C55.3793 56.709 55.3777 56.709 55.3761 56.709C55.3745 56.709 55.3728 56.709 55.3711 56.709C55.3693 56.709 55.3675 56.709 55.3657 56.709C55.3639 56.709 55.362 56.709 55.36 56.709C55.3581 56.709 55.356 56.709 55.354 56.709C55.3519 56.709 55.3498 56.709 55.3476 56.709C55.3454 56.709 55.3432 56.709 55.3409 56.709C55.3386 56.709 55.3362 56.709 55.3338 56.709C55.3314 56.709 55.3289 56.709 55.3264 56.709C55.3239 56.709 55.3213 56.709 55.3187 56.709C55.3161 56.709 55.3134 56.709 55.3106 56.709C55.3079 56.709 55.3051 56.709 55.3022 56.709C55.2994 56.709 55.2965 56.709 55.2935 56.709C55.2905 56.709 55.2875 56.709 55.2844 56.709C55.2814 56.709 55.2782 56.709 55.275 56.709C55.2718 56.709 55.2686 56.709 55.2653 56.709C55.262 56.709 55.2586 56.709 55.2552 56.709C55.2518 56.709 55.2484 56.709 55.2448 56.709C55.2413 56.709 55.2377 56.709 55.2341 56.709C55.2305 56.709 55.2268 56.709 55.223 56.709C55.2193 56.709 55.2155 56.709 55.2117 56.709C55.2078 56.709 55.2039 56.709 55.1999 56.709C55.196 56.709 55.192 56.709 55.1879 56.709C55.1838 56.709 55.1797 56.709 55.1755 56.709C55.1713 56.709 55.1671 56.709 55.1628 56.709C55.1585 56.709 55.1542 56.709 55.1498 56.709C55.1454 56.709 55.1409 56.709 55.1364 56.709C55.1319 56.709 55.1274 56.709 55.1228 56.709C55.1182 56.709 55.1135 56.709 55.1088 56.709C55.104 56.709 55.0993 56.709 55.0944 56.709C55.0896 56.709 55.0847 56.709 55.0798 56.709C55.0749 56.709 55.0699 56.709 55.0648 56.709C55.0598 56.709 55.0547 56.709 55.0495 56.709C55.0444 56.709 55.0392 56.709 55.0339 56.709C55.0287 56.709 55.0233 56.709 55.018 56.709C55.0126 56.709 55.0072 56.709 55.0017 56.709C54.9963 56.709 54.9907 56.709 54.9851 56.709C54.9796 56.709 54.9739 56.709 54.9683 56.709C54.9626 56.709 54.9568 56.709 54.951 56.709C54.9453 56.709 54.9394 56.709 54.9335 56.709C54.9276 56.709 54.9217 56.709 54.9157 56.709C54.9097 56.709 54.9036 56.709 54.8975 56.709C54.8914 56.709 54.8852 56.709 54.879 56.709C54.8728 56.709 54.8666 56.709 54.8602 56.709C54.8539 56.709 54.8476 56.709 54.8411 56.709C54.8347 56.709 54.8282 56.709 54.8217 56.709C54.8152 56.709 54.8086 56.709 54.802 56.709C54.7954 56.709 54.7887 56.709 54.7819 56.709C54.7752 56.709 54.7684 56.709 54.7616 56.709C54.7548 56.709 54.7479 56.709 54.7409 56.709C54.734 56.709 54.727 56.709 54.7199 56.709C54.7129 56.709 54.7058 56.709 54.6987 56.709C54.6915 56.709 54.6843 56.709 54.6771 56.709C54.6698 56.709 54.6625 56.709 54.6552 56.709C54.6478 56.709 54.6404 56.709 54.633 56.709C54.6255 56.709 54.618 56.709 54.6104 56.709C54.6029 56.709 54.5953 56.709 54.5876 56.709C54.5799 56.709 54.5722 56.709 54.5645 56.709C54.5567 56.709 54.5489 56.709 54.541 56.709C54.5332 56.709 54.5253 56.709 54.5173 56.709C54.5093 56.709 54.5013 56.709 54.4933 56.709C54.4852 56.709 54.4771 56.709 54.4689 56.709C54.4607 56.709 54.4525 56.709 54.4443 56.709C54.436 56.709 54.4277 56.709 54.4193 56.709C54.4109 56.709 54.4025 56.709 54.394 56.709C54.3856 56.709 54.3771 56.709 54.3685 56.709C54.3599 56.709 54.3513 56.709 54.3426 56.709C54.334 56.709 54.3253 56.709 54.3165 56.709C54.3077 56.709 54.2989 56.709 54.29 56.709C54.2812 56.709 54.2722 56.709 54.2633 56.709C54.2543 56.709 54.2453 56.709 54.2362 56.709C54.2272 56.709 54.2181 56.709 54.2089 56.709C54.1997 56.709 54.1905 56.709 54.1812 56.709C54.172 56.709 54.1627 56.709 54.1533 56.709C54.1439 56.709 54.1345 56.709 54.1251 56.709C54.1156 56.709 54.1061 56.709 54.0966 56.709C54.087 56.709 54.0774 56.709 54.0677 56.709C54.0581 56.709 54.0484 56.709 54.0386 56.709C54.0289 56.709 54.0191 56.709 54.0092 56.709C53.9994 56.709 53.9895 56.709 53.9795 56.709C53.9696 56.709 53.9596 56.709 53.9495 56.709C53.9395 56.709 53.9294 56.709 53.9192 56.709C53.9091 56.709 53.8989 56.709 53.8887 56.709C53.8784 56.709 53.8682 56.709 53.8578 56.709C53.8475 56.709 53.8371 56.709 53.8267 56.709C53.8162 56.709 53.8058 56.709 53.7952 56.709C53.7847 56.709 53.7741 56.709 53.7635 56.709C53.7529 56.709 53.7422 56.709 53.7315 56.709C53.7208 56.709 53.71 56.709 53.6992 56.709C53.6884 56.709 53.6775 56.709 53.6666 56.709C53.6557 56.709 53.6448 56.709 53.6338 56.709C53.6228 56.709 53.6117 56.709 53.6006 56.709C53.5895 56.709 53.5784 56.709 53.5672 56.709C53.556 56.709 53.5448 56.709 53.5335 56.709C53.5222 56.709 53.5109 56.709 53.4995 56.709C53.4881 56.709 53.4767 56.709 53.4652 56.709C53.4537 56.709 53.4422 56.709 53.4306 56.709C53.4191 56.709 53.4075 56.709 53.3958 56.709C53.3841 56.709 53.3724 56.709 53.3607 56.709C53.3489 56.709 53.3371 56.709 53.3253 56.709C53.3134 56.709 53.3016 56.709 53.2896 56.709C53.2777 56.709 53.2657 56.709 53.2537 56.709C53.2416 56.709 53.2296 56.709 53.2174 56.709C53.2053 56.709 53.1931 56.709 53.1809 56.709C53.1687 56.709 53.1564 56.709 53.1441 56.709C53.1318 56.709 53.1195 56.709 53.1071 56.709C53.0947 56.709 53.0822 56.709 53.0698 56.709C53.0573 56.709 53.0447 56.709 53.0321 56.709C53.0196 56.709 53.0069 56.709 52.9943 56.709C52.9816 56.709 52.9689 56.709 52.9561 56.709C52.9434 56.709 52.9305 56.709 52.9177 56.709C52.9048 56.709 52.8919 56.709 52.879 56.709C52.8661 56.709 52.8531 56.709 52.84 56.709C52.827 56.709 52.8139 56.709 52.8008 56.709C52.7877 56.709 52.7745 56.709 52.7613 56.709C52.7481 56.709 52.7348 56.709 52.7215 56.709C52.7082 56.709 52.6949 56.709 52.6815 56.709C52.6681 56.709 52.6547 56.709 52.6412 56.709C52.6277 56.709 52.6142 56.709 52.6006 56.709C52.587 56.709 52.5734 56.709 52.5598 56.709C52.5461 56.709 52.5324 56.709 52.5186 56.709C52.5049 56.709 52.4911 56.709 52.4773 56.709C52.4634 56.709 52.4496 56.709 52.4356 56.709C52.4217 56.709 52.4078 56.709 52.3937 56.709C52.3797 56.709 52.3657 56.709 52.3516 56.709C52.3375 56.709 52.3233 56.709 52.3092 56.709C52.295 56.709 52.2807 56.709 52.2665 56.709C52.2522 56.709 52.2379 56.709 52.2235 56.709C52.2092 56.709 52.1948 56.709 52.1803 56.709C52.1659 56.709 52.1514 56.709 52.1368 56.709C52.1223 56.709 52.1077 56.709 52.0931 56.709C52.0785 56.709 52.0638 56.709 52.0491 56.709C52.0344 56.709 52.0197 56.709 52.0049 56.709C51.9901 56.709 51.9753 56.709 51.9604 56.709C51.9455 56.709 51.9306 56.709 51.9156 56.709C51.9007 56.709 51.8857 56.709 51.8706 56.709C51.8556 56.709 51.8405 56.709 51.8254 56.709C51.8102 56.709 51.7951 56.709 51.7798 56.709C51.7646 56.709 51.7494 56.709 51.7341 56.709C51.7188 56.709 51.7034 56.709 51.688 56.709C51.6726 56.709 51.6572 56.709 51.6417 56.709C51.6263 56.709 51.6108 56.709 51.5952 56.709C51.5797 56.709 51.5641 56.709 51.5484 56.709C51.5328 56.709 51.5171 56.709 51.5014 56.709C51.4857 56.709 51.4699 56.709 51.4541 56.709C51.4383 56.709 51.4225 56.709 51.4066 56.709C51.3907 56.709 51.3748 56.709 51.3588 56.709C51.3428 56.709 51.3268 56.709 51.3108 56.709C51.2947 56.709 51.2786 56.709 51.2625 56.709C51.2463 56.709 51.2302 56.709 51.2139 56.709C51.1977 56.709 51.1815 56.709 51.1652 56.709C51.1489 56.709 51.1325 56.709 51.1162 56.709C51.0998 56.709 51.0834 56.709 51.0669 56.709C51.0504 56.709 51.0339 56.709 51.0174 56.709C51.0008 56.709 50.9843 56.709 50.9676 56.709C50.951 56.709 50.9343 56.709 50.9176 56.709C50.9009 56.709 50.8842 56.709 50.8674 56.709C50.8506 56.709 50.8338 56.709 50.8169 56.709C50.8001 56.709 50.7831 56.709 50.7662 56.709C50.7493 56.709 50.7323 56.709 50.7152 56.709C50.6982 56.709 50.6811 56.709 50.664 56.709C50.6469 56.709 50.6298 56.709 50.6126 56.709C50.5954 56.709 50.5782 56.709 50.5609 56.709C50.5437 56.709 50.5264 56.709 50.509 56.709C50.4917 56.709 50.4743 56.709 50.4569 56.709C50.4394 56.709 50.422 56.709 50.4045 56.709C50.387 56.709 50.3694 56.709 50.3518 56.709C50.3343 56.709 50.3166 56.709 50.299 56.709C50.2813 56.709 50.2636 56.709 50.2459 56.709C50.2281 56.709 50.2104 56.709 50.1926 56.709C50.1747 56.709 50.1569 56.709 50.139 56.709C50.1211 56.709 50.1032 56.709 50.0852 56.709C50.0672 56.709 50.0492 56.709 50.0312 56.709C50.0131 56.709 49.995 56.709 49.9769 56.709C49.9588 56.709 49.9406 56.709 49.9224 56.709C49.9042 56.709 49.886 56.709 49.8677 56.709C49.8494 56.709 49.8311 56.709 49.8127 56.709C49.7944 56.709 49.776 56.709 49.7576 56.709C49.7391 56.709 49.7207 56.709 49.7022 56.709C49.6836 56.709 49.6651 56.709 49.6465 56.709C49.6279 56.709 49.6093 56.709 49.5907 56.709C49.572 56.709 49.5533 56.709 49.5346 56.709C49.5158 56.709 49.4971 56.709 49.4783 56.709C49.4594 56.709 49.4406 56.709 49.4217 56.709C49.4028 56.709 49.3839 56.709 49.3649 56.709C49.346 56.709 49.327 56.709 49.308 56.709C49.2889 56.709 49.2699 56.709 49.2507 56.709C49.2316 56.709 49.2125 56.709 49.1933 56.709C49.1741 56.709 49.1549 56.709 49.1357 56.709C49.1164 56.709 49.0971 56.709 49.0778 56.709C49.0585 56.709 49.0391 56.709 49.0197 56.709C49.0003 56.709 48.9808 56.709 48.9614 56.709C48.9419 56.709 48.9224 56.709 48.9028 56.709C48.8833 56.709 48.8637 56.709 48.8441 56.709C48.8245 56.709 48.8048 56.709 48.7851 56.709C48.7654 56.709 48.7457 56.709 48.7259 56.709C48.7061 56.709 48.6863 56.709 48.6665 56.709C48.6467 56.709 48.6268 56.709 48.6069 56.709C48.587 56.709 48.567 56.709 48.547 56.709C48.5271 56.709 48.507 56.709 48.487 56.709C48.4669 56.709 48.4468 56.709 48.4267 56.709C48.4066 56.709 48.3864 56.709 48.3662 56.709C48.346 56.709 48.3258 56.709 48.3055 56.709C48.2853 56.709 48.265 56.709 48.2446 56.709C48.2243 56.709 48.2039 56.709 48.1835 56.709C48.1631 56.709 48.1427 56.709 48.1222 56.709C48.1017 56.709 48.0812 56.709 48.0606 56.709C48.0401 56.709 48.0195 56.709 47.9989 56.709C47.9783 56.709 47.9576 56.709 47.9369 56.709C47.9162 56.709 47.8955 56.709 47.8748 56.709C47.854 56.709 47.8332 56.709 47.8124 56.709C47.7916 56.709 47.7707 56.709 47.7498 56.709C47.7289 56.709 47.708 56.709 47.687 56.709C47.6661 56.709 47.6451 56.709 47.624 56.709C47.603 56.709 47.5819 56.709 47.5608 56.709C47.5397 56.709 47.5186 56.709 47.4974 56.709C47.4762 56.709 47.455 56.709 47.4338 56.709C47.4126 56.709 47.3913 56.709 47.37 56.709C47.3487 56.709 47.3274 56.709 47.306 56.709C47.2846 56.709 47.2632 56.709 47.2418 56.709C47.2203 56.709 47.1988 56.709 47.1773 56.709C47.1558 56.709 47.1343 56.709 47.1127 56.709C47.0912 56.709 47.0695 56.709 47.0479 56.709C47.0263 56.709 47.0046 56.709 46.9829 56.709C46.9612 56.709 46.9394 56.709 46.9177 56.709C46.8959 56.709 46.8741 56.709 46.8523 56.709C46.8304 56.709 46.8085 56.709 46.7866 56.709C46.7647 56.709 46.7428 56.709 46.7208 56.709C46.6989 56.709 46.6769 56.709 46.6548 56.709C46.6328 56.709 46.6107 56.709 46.5886 56.709C46.5665 56.709 46.5444 56.709 46.5222 56.709C46.5001 56.709 46.4779 56.709 46.4556 56.709C46.4334 56.709 46.4111 56.709 46.3888 56.709C46.3666 56.709 46.3442 56.709 46.3219 56.709C46.2995 56.709 46.2771 56.709 46.2547 56.709C46.2323 56.709 46.2098 56.709 46.1873 56.709C46.1648 56.709 46.1423 56.709 46.1198 56.709C46.0972 56.709 46.0747 56.709 46.052 56.709C46.0294 56.709 46.0068 56.709 45.9841 56.709C45.9614 56.709 45.9387 56.709 45.916 56.709C45.8932 56.709 45.8705 56.709 45.8477 56.709C45.8249 56.709 45.802 56.709 45.7792 56.709C45.7563 56.709 45.7334 56.709 45.7105 56.709C45.6876 56.709 45.6646 56.709 45.6416 56.709C45.6186 56.709 45.5956 56.709 45.5725 56.709C45.5495 56.709 45.5264 56.709 45.5033 56.709C45.4802 56.709 45.457 56.709 45.4339 56.709C45.4107 56.709 45.3875 56.709 45.3643 56.709C45.341 56.709 45.3178 56.709 45.2945 56.709C45.2712 56.709 45.2478 56.709 45.2245 56.709C45.2011 56.709 45.1777 56.709 45.1543 56.709C45.1309 56.709 45.1075 56.709 45.084 56.709C45.0605 56.709 45.037 56.709 45.0135 56.709C44.9899 56.709 44.9663 56.709 44.9427 56.709C44.9191 56.709 44.8955 56.709 44.8719 56.709C44.8482 56.709 44.8245 56.709 44.8008 56.709C44.7771 56.709 44.7533 56.709 44.7296 56.709C44.7058 56.709 44.682 56.709 44.6581 56.709C44.6343 56.709 44.6104 56.709 44.5865 56.709C44.5626 56.709 44.5387 56.709 44.5148 56.709C44.4908 56.709 44.4668 56.709 44.4428 56.709C44.4188 56.709 44.3948 56.709 44.3707 56.709C44.3466 56.709 44.3225 56.709 44.2984 56.709C44.2743 56.709 44.2501 56.709 44.2259 56.709C44.2017 56.709 44.1775 56.709 44.1533 56.709C44.129 56.709 44.1048 56.709 44.0805 56.709C44.0562 56.709 44.0318 56.709 44.0075 56.709C43.9831 56.709 43.9587 56.709 43.9343 56.709C43.9099 56.709 43.8854 56.709 43.861 56.709C43.8365 56.709 43.812 56.709 43.7875 56.709C43.7629 56.709 43.7384 56.709 43.7138 56.709C43.6892 56.709 43.6646 56.709 43.64 56.709C43.6153 56.709 43.5906 56.709 43.566 56.709C43.5413 56.709 43.5165 56.709 43.4918 56.709C43.467 56.709 43.4422 56.709 43.4174 56.709C43.3926 56.709 43.3678 56.709 43.3429 56.709C43.3181 56.709 43.2932 56.709 43.2683 56.709C43.2433 56.709 43.2184 56.709 43.1934 56.709C43.1684 56.709 43.1434 56.709 43.1184 56.709C43.0934 56.709 43.0683 56.709 43.0432 56.709C43.0182 56.709 42.993 56.709 42.9679 56.709C42.9428 56.709 42.9176 56.709 42.8924 56.709C42.8672 56.709 42.842 56.709 42.8168 56.709C42.7915 56.709 42.7662 56.709 42.741 56.709C42.7157 56.709 42.6903 56.709 42.665 56.709C42.6396 56.709 42.6142 56.709 42.5888 56.709C42.5634 56.709 42.538 56.709 42.5125 56.709C42.4871 56.709 42.4616 56.709 42.4361 56.709C42.4106 56.709 42.385 56.709 42.3595 56.709C42.3339 56.709 42.3083 56.709 42.2827 56.709C42.2571 56.709 42.2315 56.709 42.2058 56.709C42.1801 56.709 42.1544 56.709 42.1287 56.709C42.103 56.709 42.0772 56.709 42.0515 56.709C42.0257 56.709 41.9999 56.709 41.9741 56.709C41.9483 56.709 41.9224 56.709 41.8965 56.709C41.8707 56.709 41.8448 56.709 41.8188 56.709C41.7929 56.709 41.767 56.709 41.741 56.709C41.715 56.709 41.689 56.709 41.663 56.709C41.637 56.709 41.6109 56.709 41.5848 56.709C41.5588 56.709 41.5327 56.709 41.5065 56.709C41.4804 56.709 41.4543 56.709 41.4281 56.709C41.4019 56.709 41.3757 56.709 41.3495 56.709C41.3233 56.709 41.297 56.709 41.2707 56.709C41.2444 56.709 41.2181 56.709 41.1918 56.709C41.1655 56.709 41.1391 56.709 41.1128 56.709C41.0864 56.709 41.06 56.709 41.0336 56.709C41.0072 56.709 40.9807 56.709 40.9542 56.709C40.9278 56.709 40.9013 56.709 40.8748 56.709C40.8482 56.709 40.8217 56.709 40.7951 56.709C40.7685 56.709 40.742 56.709 40.7153 56.709C40.6887 56.709 40.6621 56.709 40.6354 56.709C40.6088 56.709 40.5821 56.709 40.5554 56.709C40.5286 56.709 40.5019 56.709 40.4752 56.709C40.4484 56.709 40.4216 56.709 40.3948 56.709C40.368 56.709 40.3412 56.709 40.3143 56.709C40.2875 56.709 40.2606 56.709 40.2337 56.709C40.2068 56.709 40.1799 56.709 40.1529 56.709C40.126 56.709 40.099 56.709 40.072 56.709C40.045 56.709 40.018 56.709 39.991 56.709C39.9639 56.709 39.9369 56.709 39.9098 56.709C39.8827 56.709 39.8556 56.709 39.8284 56.709C39.8013 56.709 39.7742 56.709 39.747 56.709C39.7198 56.709 39.6926 56.709 39.6654 56.709C39.6382 56.709 39.6109 56.709 39.5837 56.709C39.5564 56.709 39.5291 56.709 39.5018 56.709C39.4745 56.709 39.4472 56.709 39.4198 56.709C39.3924 56.709 39.3651 56.709 39.3377 56.709C39.3103 56.709 39.2828 56.709 39.2554 56.709C39.228 56.709 39.2005 56.709 39.173 56.709C39.1455 56.709 39.118 56.709 39.0905 56.709C39.0629 56.709 39.0354 56.709 39.0078 56.709C38.9802 56.709 38.9526 56.709 38.925 56.709C38.8974 56.709 38.8698 56.709 38.8421 56.709C38.8144 56.709 38.7868 56.709 38.759 56.709C38.7313 56.709 38.7036 56.709 38.6759 56.709C38.6481 56.709 38.6204 56.709 38.5926 56.709C38.5648 56.709 38.537 56.709 38.5091 56.709C38.4813 56.709 38.4534 56.709 38.4256 56.709C38.3977 56.709 38.3698 56.709 38.3419 56.709C38.314 56.709 38.286 56.709 38.2581 56.709C38.2301 56.709 38.2021 56.709 38.1741 56.709C38.1461 56.709 38.1181 56.709 38.0901 56.709C38.062 56.709 38.034 56.709 38.0059 56.709C37.9778 56.709 37.9497 56.709 37.9216 56.709C37.8935 56.709 37.8653 56.709 37.8372 56.709C37.809 56.709 37.7808 56.709 37.7526 56.709C37.7244 56.709 37.6962 56.709 37.668 56.709C37.6397 56.709 37.6114 56.709 37.5832 56.709C37.5549 56.709 37.5266 56.709 37.4983 56.709C37.4699 56.709 37.4416 56.709 37.4132 56.709C37.3849 56.709 37.3565 56.709 37.3281 56.709C37.2997 56.709 37.2713 56.709 37.2428 56.709C37.2144 56.709 37.1859 56.709 37.1574 56.709C37.129 56.709 37.1005 56.709 37.072 56.709C37.0434 56.709 37.0149 56.709 36.9863 56.709C36.9578 56.709 36.9292 56.709 36.9006 56.709C36.872 56.709 36.8434 56.709 36.8148 56.709C36.7861 56.709 36.7575 56.709 36.7288 56.709C36.7002 56.709 36.6715 56.709 36.6428 56.709C36.614 56.709 36.5853 56.709 36.5566 56.709C36.5278 56.709 36.4991 56.709 36.4703 56.709C36.4415 56.709 36.4127 56.709 36.3839 56.709C36.3551 56.709 36.3262 56.709 36.2974 56.709C36.2685 56.709 36.2396 56.709 36.2108 56.709C36.1819 56.709 36.1529 56.709 36.124 56.709C36.0951 56.709 36.0661 56.709 36.0372 56.709C36.0082 56.709 35.9792 56.709 35.9502 56.709C35.9212 56.709 35.8922 56.709 35.8632 56.709C35.8341 56.709 35.8051 56.709 35.776 56.709C35.7469 56.709 35.7179 56.709 35.6888 56.709C35.6596 56.709 35.6305 56.709 35.6014 56.709C35.5722 56.709 35.5431 56.709 35.5139 56.709C35.4847 56.709 35.4555 56.709 35.4263 56.709C35.3971 56.709 35.3679 56.709 35.3386 56.709C35.3094 56.709 35.2801 56.709 35.2508 56.709C35.2216 56.709 35.1923 56.709 35.163 56.709C35.1336 56.709 35.1043 56.709 35.075 56.709C35.0456 56.709 35.0163 56.709 34.9869 56.709C34.9575 56.709 34.9281 56.709 34.8987 56.709C34.8693 56.709 34.8398 56.709 34.8104 56.709C34.7809 56.709 34.7515 56.709 34.722 56.709C34.6925 56.709 34.663 56.709 34.6335 56.709C34.604 56.709 34.5745 56.709 34.5449 56.709C34.5154 56.709 34.4858 56.709 34.4562 56.709C34.4267 56.709 34.3971 56.709 34.3675 56.709C34.3379 56.709 34.3082 56.709 34.2786 56.709C34.249 56.709 34.2193 56.709 34.1896 56.709C34.16 56.709 34.1303 56.709 34.1006 56.709C34.0709 56.709 34.0411 56.709 34.0114 56.709C33.9817 56.709 33.9519 56.709 33.9222 56.709C33.8924 56.709 33.8626 56.709 33.8328 56.709C33.803 56.709 33.7732 56.709 33.7434 56.709C33.7135 56.709 33.6837 56.709 33.6538 56.709C33.624 56.709 33.5941 56.709 33.5642 56.709C33.5343 56.709 33.5044 56.709 33.4745 56.709C33.4446 56.709 33.4147 56.709 33.3847 56.709C33.3548 56.709 33.3248 56.709 33.2948 56.709C33.2649 56.709 33.2349 56.709 33.2049 56.709C33.1749 56.709 33.1448 56.709 33.1148 56.709C33.0848 56.709 33.0547 56.709 33.0247 56.709C32.9946 56.709 32.9645 56.709 32.9344 56.709C32.9043 56.709 32.8742 56.709 32.8441 56.709C32.814 56.709 32.7839 56.709 32.7537 56.709C32.7236 56.709 32.6934 56.709 32.6632 56.709C32.633 56.709 32.6028 56.709 32.5726 56.709C32.5424 56.709 32.5122 56.709 32.482 56.709C32.4518 56.709 32.4215 56.709 32.3913 56.709C32.361 56.709 32.3307 56.709 32.3004 56.709C32.2702 56.709 32.2399 56.709 32.2095 56.709C32.1792 56.709 32.1489 56.709 32.1186 56.709C32.0882 56.709 32.0579 56.709 32.0275 56.709C31.9971 56.709 31.9668 56.709 31.9364 56.709C31.906 56.709 31.8756 56.709 31.8451 56.709C31.8147 56.709 31.7843 56.709 31.7539 56.709C31.7234 56.709 31.693 56.709 31.6625 56.709C31.632 56.709 31.6015 56.709 31.571 56.709C31.5405 56.709 31.51 56.709 31.4795 56.709C31.449 56.709 31.4185 56.709 31.3879 56.709C31.3574 56.709 31.3268 56.709 31.2962 56.709C31.2657 56.709 31.2351 56.709 31.2045 56.709C31.1739 56.709 31.1433 56.709 31.1127 56.709C31.0821 56.709 31.0514 56.709 31.0208 56.709C30.9901 56.709 30.9595 56.709 30.9288 56.709C30.8981 56.709 30.8675 56.709 30.8368 56.709C30.8061 56.709 30.7754 56.709 30.7447 56.709C30.714 56.709 30.6832 56.709 30.6525 56.709C30.6218 56.709 30.591 56.709 30.5603 56.709C30.5295 56.709 30.4987 56.709 30.4679 56.709C30.4372 56.709 30.4064 56.709 30.3756 56.709C30.3447 56.709 30.3139 56.709 30.2831 56.709C30.2523 56.709 30.2214 56.709 30.1906 56.709C30.1597 56.709 30.1289 56.709 30.098 56.709C30.0671 56.709 30.0362 56.709 30.0054 56.709C29.9745 56.709 29.9436 56.709 29.9126 56.709C29.8817 56.709 29.8508 56.709 29.8199 56.709C29.7889 56.709 29.758 56.709 29.727 56.709C29.6961 56.709 29.6651 56.709 29.6341 56.709C29.6031 56.709 29.5721 56.709 29.5411 56.709C29.5101 56.709 29.4791 56.709 29.4481 56.709C29.4171 56.709 29.3861 56.709 29.355 56.709C29.324 56.709 29.2929 56.709 29.2619 56.709C29.2308 56.709 29.1997 56.709 29.1687 56.709C29.1376 56.709 29.1065 56.709 29.0754 56.709C29.0443 56.709 29.0132 56.709 28.9821 56.709C28.9509 56.709 28.9198 56.709 28.8887 56.709C28.8575 56.709 28.8264 56.709 28.7952 56.709C28.7641 56.709 28.7329 56.709 28.7017 56.709C28.6706 56.709 28.6394 56.709 28.6082 56.709C28.577 56.709 28.5458 56.709 28.5146 56.709C28.4834 56.709 28.4521 56.709 28.4209 56.709C28.3897 56.709 28.3584 56.709 28.3272 56.709C28.2959 56.709 28.2647 56.709 28.2334 56.709C28.2021 56.709 28.1709 56.709 28.1396 56.709C28.1083 56.709 28.077 56.709 28.0457 56.709C28.0144 56.709 27.9831 56.709 27.9518 56.709C27.9205 56.709 27.8891 56.709 27.8578 56.709C27.8265 56.709 27.7951 56.709 27.7638 56.709C27.7324 56.709 27.7011 56.709 27.6697 56.709C27.6383 56.709 27.6069 56.709 27.5756 56.709C27.5442 56.709 27.5128 56.709 27.4814 56.709C27.45 56.709 27.4186 56.709 27.3872 56.709C27.3557 56.709 27.3243 56.709 27.2929 56.709C27.2615 56.709 27.23 56.709 27.1986 56.709C27.1671 56.709 27.1357 56.709 27.1042 56.709C27.0727 56.709 27.0413 56.709 27.0098 56.709C26.9783 56.709 26.9468 56.709 26.9153 56.709C26.8838 56.709 26.8523 56.709 26.8208 56.709C26.7893 56.709 26.7578 56.709 26.7263 56.709C26.6948 56.709 26.6633 56.709 26.6317 56.709C26.6002 56.709 26.5686 56.709 26.5371 56.709C26.5055 56.709 26.474 56.709 26.4424 56.709C26.4109 56.709 26.3793 56.709 26.3477 56.709C26.3161 56.709 26.2846 56.709 26.253 56.709C26.2214 56.709 26.1898 56.709 26.1582 56.709C26.1266 56.709 26.095 56.709 26.0634 56.709C26.0317 56.709 26.0001 56.709 25.9685 56.709C25.9369 56.709 25.9052 56.709 25.8736 56.709C25.842 56.709 25.8103 56.709 25.7787 56.709C25.747 56.709 25.7154 56.709 25.6837 56.709C25.652 56.709 25.6204 56.709 25.5887 56.709C25.557 56.709 25.5253 56.709 25.4936 56.709C25.462 56.709 25.4303 56.709 25.3986 56.709C25.3669 56.709 25.3352 56.709 25.3035 56.709C25.2717 56.709 25.24 56.709 25.2083 56.709C25.1766 56.709 25.1449 56.709 25.1131 56.709C25.0814 56.709 25.0497 56.709 25.0179 56.709C24.9862 56.709 24.9544 56.709 24.9227 56.709C24.8909 56.709 24.8592 56.709 24.8274 56.709C24.7957 56.709 24.7639 56.709 24.7321 56.709C24.7003 56.709 24.6686 56.709 24.6368 56.709C24.605 56.709 24.5732 56.709 24.5414 56.709C24.5096 56.709 24.4778 56.709 24.4461 56.709C24.4143 56.709 24.3824 56.709 24.3506 56.709C24.3188 56.709 24.287 56.709 24.2552 56.709C24.2234 56.709 24.1916 56.709 24.1597 56.709C24.1279 56.709 24.0961 56.709 24.0643 56.709C24.0324 56.709 24.0006 56.709 23.9687 56.709C23.9369 56.709 23.9051 56.709 23.8732 56.709C23.8414 56.709 23.8095 56.709 23.7776 56.709L23.7776 57.209C23.8095 57.209 23.8414 57.209 23.8732 57.209C23.9051 57.209 23.9369 57.209 23.9687 57.209C24.0006 57.209 24.0324 57.209 24.0643 57.209C24.0961 57.209 24.1279 57.209 24.1597 57.209C24.1916 57.209 24.2234 57.209 24.2552 57.209C24.287 57.209 24.3188 57.209 24.3506 57.209C24.3824 57.209 24.4143 57.209 24.4461 57.209C24.4778 57.209 24.5096 57.209 24.5414 57.209C24.5732 57.209 24.605 57.209 24.6368 57.209C24.6686 57.209 24.7003 57.209 24.7321 57.209C24.7639 57.209 24.7957 57.209 24.8274 57.209C24.8592 57.209 24.8909 57.209 24.9227 57.209C24.9544 57.209 24.9862 57.209 25.0179 57.209C25.0497 57.209 25.0814 57.209 25.1131 57.209C25.1449 57.209 25.1766 57.209 25.2083 57.209C25.24 57.209 25.2717 57.209 25.3035 57.209C25.3352 57.209 25.3669 57.209 25.3986 57.209C25.4303 57.209 25.462 57.209 25.4936 57.209C25.5253 57.209 25.557 57.209 25.5887 57.209C25.6204 57.209 25.652 57.209 25.6837 57.209C25.7154 57.209 25.747 57.209 25.7787 57.209C25.8103 57.209 25.842 57.209 25.8736 57.209C25.9052 57.209 25.9369 57.209 25.9685 57.209C26.0001 57.209 26.0317 57.209 26.0634 57.209C26.095 57.209 26.1266 57.209 26.1582 57.209C26.1898 57.209 26.2214 57.209 26.253 57.209C26.2846 57.209 26.3161 57.209 26.3477 57.209C26.3793 57.209 26.4109 57.209 26.4424 57.209C26.474 57.209 26.5055 57.209 26.5371 57.209C26.5686 57.209 26.6002 57.209 26.6317 57.209C26.6633 57.209 26.6948 57.209 26.7263 57.209C26.7578 57.209 26.7893 57.209 26.8208 57.209C26.8523 57.209 26.8838 57.209 26.9153 57.209C26.9468 57.209 26.9783 57.209 27.0098 57.209C27.0413 57.209 27.0727 57.209 27.1042 57.209C27.1357 57.209 27.1671 57.209 27.1986 57.209C27.23 57.209 27.2615 57.209 27.2929 57.209C27.3243 57.209 27.3557 57.209 27.3872 57.209C27.4186 57.209 27.45 57.209 27.4814 57.209C27.5128 57.209 27.5442 57.209 27.5756 57.209C27.6069 57.209 27.6383 57.209 27.6697 57.209C27.7011 57.209 27.7324 57.209 27.7638 57.209C27.7951 57.209 27.8265 57.209 27.8578 57.209C27.8891 57.209 27.9205 57.209 27.9518 57.209C27.9831 57.209 28.0144 57.209 28.0457 57.209C28.077 57.209 28.1083 57.209 28.1396 57.209C28.1709 57.209 28.2021 57.209 28.2334 57.209C28.2647 57.209 28.2959 57.209 28.3272 57.209C28.3584 57.209 28.3897 57.209 28.4209 57.209C28.4521 57.209 28.4834 57.209 28.5146 57.209C28.5458 57.209 28.577 57.209 28.6082 57.209C28.6394 57.209 28.6706 57.209 28.7017 57.209C28.7329 57.209 28.7641 57.209 28.7952 57.209C28.8264 57.209 28.8575 57.209 28.8887 57.209C28.9198 57.209 28.9509 57.209 28.9821 57.209C29.0132 57.209 29.0443 57.209 29.0754 57.209C29.1065 57.209 29.1376 57.209 29.1687 57.209C29.1997 57.209 29.2308 57.209 29.2619 57.209C29.2929 57.209 29.324 57.209 29.355 57.209C29.3861 57.209 29.4171 57.209 29.4481 57.209C29.4791 57.209 29.5101 57.209 29.5411 57.209C29.5721 57.209 29.6031 57.209 29.6341 57.209C29.6651 57.209 29.6961 57.209 29.727 57.209C29.758 57.209 29.7889 57.209 29.8199 57.209C29.8508 57.209 29.8817 57.209 29.9126 57.209C29.9436 57.209 29.9745 57.209 30.0054 57.209C30.0362 57.209 30.0671 57.209 30.098 57.209C30.1289 57.209 30.1597 57.209 30.1906 57.209C30.2214 57.209 30.2523 57.209 30.2831 57.209C30.3139 57.209 30.3447 57.209 30.3756 57.209C30.4064 57.209 30.4372 57.209 30.4679 57.209C30.4987 57.209 30.5295 57.209 30.5603 57.209C30.591 57.209 30.6218 57.209 30.6525 57.209C30.6832 57.209 30.714 57.209 30.7447 57.209C30.7754 57.209 30.8061 57.209 30.8368 57.209C30.8675 57.209 30.8981 57.209 30.9288 57.209C30.9595 57.209 30.9901 57.209 31.0208 57.209C31.0514 57.209 31.0821 57.209 31.1127 57.209C31.1433 57.209 31.1739 57.209 31.2045 57.209C31.2351 57.209 31.2657 57.209 31.2962 57.209C31.3268 57.209 31.3574 57.209 31.3879 57.209C31.4185 57.209 31.449 57.209 31.4795 57.209C31.51 57.209 31.5405 57.209 31.571 57.209C31.6015 57.209 31.632 57.209 31.6625 57.209C31.693 57.209 31.7234 57.209 31.7539 57.209C31.7843 57.209 31.8147 57.209 31.8451 57.209C31.8756 57.209 31.906 57.209 31.9364 57.209C31.9668 57.209 31.9971 57.209 32.0275 57.209C32.0579 57.209 32.0882 57.209 32.1186 57.209C32.1489 57.209 32.1792 57.209 32.2095 57.209C32.2399 57.209 32.2702 57.209 32.3004 57.209C32.3307 57.209 32.361 57.209 32.3913 57.209C32.4215 57.209 32.4518 57.209 32.482 57.209C32.5122 57.209 32.5424 57.209 32.5726 57.209C32.6028 57.209 32.633 57.209 32.6632 57.209C32.6934 57.209 32.7236 57.209 32.7537 57.209C32.7839 57.209 32.814 57.209 32.8441 57.209C32.8742 57.209 32.9043 57.209 32.9344 57.209C32.9645 57.209 32.9946 57.209 33.0247 57.209C33.0547 57.209 33.0848 57.209 33.1148 57.209C33.1448 57.209 33.1749 57.209 33.2049 57.209C33.2349 57.209 33.2649 57.209 33.2948 57.209C33.3248 57.209 33.3548 57.209 33.3847 57.209C33.4147 57.209 33.4446 57.209 33.4745 57.209C33.5044 57.209 33.5343 57.209 33.5642 57.209C33.5941 57.209 33.624 57.209 33.6538 57.209C33.6837 57.209 33.7135 57.209 33.7434 57.209C33.7732 57.209 33.803 57.209 33.8328 57.209C33.8626 57.209 33.8924 57.209 33.9222 57.209C33.9519 57.209 33.9817 57.209 34.0114 57.209C34.0411 57.209 34.0709 57.209 34.1006 57.209C34.1303 57.209 34.16 57.209 34.1896 57.209C34.2193 57.209 34.249 57.209 34.2786 57.209C34.3082 57.209 34.3379 57.209 34.3675 57.209C34.3971 57.209 34.4267 57.209 34.4562 57.209C34.4858 57.209 34.5154 57.209 34.5449 57.209C34.5745 57.209 34.604 57.209 34.6335 57.209C34.663 57.209 34.6925 57.209 34.722 57.209C34.7515 57.209 34.7809 57.209 34.8104 57.209C34.8398 57.209 34.8693 57.209 34.8987 57.209C34.9281 57.209 34.9575 57.209 34.9869 57.209C35.0163 57.209 35.0456 57.209 35.075 57.209C35.1043 57.209 35.1336 57.209 35.163 57.209C35.1923 57.209 35.2216 57.209 35.2508 57.209C35.2801 57.209 35.3094 57.209 35.3386 57.209C35.3679 57.209 35.3971 57.209 35.4263 57.209C35.4555 57.209 35.4847 57.209 35.5139 57.209C35.5431 57.209 35.5722 57.209 35.6014 57.209C35.6305 57.209 35.6596 57.209 35.6888 57.209C35.7179 57.209 35.7469 57.209 35.776 57.209C35.8051 57.209 35.8341 57.209 35.8632 57.209C35.8922 57.209 35.9212 57.209 35.9502 57.209C35.9792 57.209 36.0082 57.209 36.0372 57.209C36.0661 57.209 36.0951 57.209 36.124 57.209C36.1529 57.209 36.1819 57.209 36.2108 57.209C36.2396 57.209 36.2685 57.209 36.2974 57.209C36.3262 57.209 36.3551 57.209 36.3839 57.209C36.4127 57.209 36.4415 57.209 36.4703 57.209C36.4991 57.209 36.5278 57.209 36.5566 57.209C36.5853 57.209 36.614 57.209 36.6428 57.209C36.6715 57.209 36.7002 57.209 36.7288 57.209C36.7575 57.209 36.7861 57.209 36.8148 57.209C36.8434 57.209 36.872 57.209 36.9006 57.209C36.9292 57.209 36.9578 57.209 36.9863 57.209C37.0149 57.209 37.0434 57.209 37.072 57.209C37.1005 57.209 37.129 57.209 37.1574 57.209C37.1859 57.209 37.2144 57.209 37.2428 57.209C37.2713 57.209 37.2997 57.209 37.3281 57.209C37.3565 57.209 37.3849 57.209 37.4132 57.209C37.4416 57.209 37.4699 57.209 37.4983 57.209C37.5266 57.209 37.5549 57.209 37.5832 57.209C37.6114 57.209 37.6397 57.209 37.668 57.209C37.6962 57.209 37.7244 57.209 37.7526 57.209C37.7808 57.209 37.809 57.209 37.8372 57.209C37.8653 57.209 37.8935 57.209 37.9216 57.209C37.9497 57.209 37.9778 57.209 38.0059 57.209C38.034 57.209 38.062 57.209 38.0901 57.209C38.1181 57.209 38.1461 57.209 38.1741 57.209C38.2021 57.209 38.2301 57.209 38.2581 57.209C38.286 57.209 38.314 57.209 38.3419 57.209C38.3698 57.209 38.3977 57.209 38.4256 57.209C38.4534 57.209 38.4813 57.209 38.5091 57.209C38.537 57.209 38.5648 57.209 38.5926 57.209C38.6204 57.209 38.6481 57.209 38.6759 57.209C38.7036 57.209 38.7313 57.209 38.759 57.209C38.7868 57.209 38.8144 57.209 38.8421 57.209C38.8698 57.209 38.8974 57.209 38.925 57.209C38.9526 57.209 38.9802 57.209 39.0078 57.209C39.0354 57.209 39.0629 57.209 39.0905 57.209C39.118 57.209 39.1455 57.209 39.173 57.209C39.2005 57.209 39.228 57.209 39.2554 57.209C39.2828 57.209 39.3103 57.209 39.3377 57.209C39.3651 57.209 39.3924 57.209 39.4198 57.209C39.4472 57.209 39.4745 57.209 39.5018 57.209C39.5291 57.209 39.5564 57.209 39.5837 57.209C39.6109 57.209 39.6382 57.209 39.6654 57.209C39.6926 57.209 39.7198 57.209 39.747 57.209C39.7742 57.209 39.8013 57.209 39.8284 57.209C39.8556 57.209 39.8827 57.209 39.9098 57.209C39.9369 57.209 39.9639 57.209 39.991 57.209C40.018 57.209 40.045 57.209 40.072 57.209C40.099 57.209 40.126 57.209 40.1529 57.209C40.1799 57.209 40.2068 57.209 40.2337 57.209C40.2606 57.209 40.2875 57.209 40.3143 57.209C40.3412 57.209 40.368 57.209 40.3948 57.209C40.4216 57.209 40.4484 57.209 40.4752 57.209C40.5019 57.209 40.5286 57.209 40.5554 57.209C40.5821 57.209 40.6088 57.209 40.6354 57.209C40.6621 57.209 40.6887 57.209 40.7153 57.209C40.742 57.209 40.7685 57.209 40.7951 57.209C40.8217 57.209 40.8482 57.209 40.8748 57.209C40.9013 57.209 40.9278 57.209 40.9542 57.209C40.9807 57.209 41.0072 57.209 41.0336 57.209C41.06 57.209 41.0864 57.209 41.1128 57.209C41.1391 57.209 41.1655 57.209 41.1918 57.209C41.2181 57.209 41.2444 57.209 41.2707 57.209C41.297 57.209 41.3233 57.209 41.3495 57.209C41.3757 57.209 41.4019 57.209 41.4281 57.209C41.4543 57.209 41.4804 57.209 41.5065 57.209C41.5327 57.209 41.5588 57.209 41.5848 57.209C41.6109 57.209 41.637 57.209 41.663 57.209C41.689 57.209 41.715 57.209 41.741 57.209C41.767 57.209 41.7929 57.209 41.8188 57.209C41.8448 57.209 41.8707 57.209 41.8965 57.209C41.9224 57.209 41.9483 57.209 41.9741 57.209C41.9999 57.209 42.0257 57.209 42.0515 57.209C42.0772 57.209 42.103 57.209 42.1287 57.209C42.1544 57.209 42.1801 57.209 42.2058 57.209C42.2315 57.209 42.2571 57.209 42.2827 57.209C42.3083 57.209 42.3339 57.209 42.3595 57.209C42.385 57.209 42.4106 57.209 42.4361 57.209C42.4616 57.209 42.4871 57.209 42.5125 57.209C42.538 57.209 42.5634 57.209 42.5888 57.209C42.6142 57.209 42.6396 57.209 42.665 57.209C42.6903 57.209 42.7157 57.209 42.741 57.209C42.7662 57.209 42.7915 57.209 42.8168 57.209C42.842 57.209 42.8672 57.209 42.8924 57.209C42.9176 57.209 42.9428 57.209 42.9679 57.209C42.993 57.209 43.0182 57.209 43.0432 57.209C43.0683 57.209 43.0934 57.209 43.1184 57.209C43.1434 57.209 43.1684 57.209 43.1934 57.209C43.2184 57.209 43.2433 57.209 43.2683 57.209C43.2932 57.209 43.3181 57.209 43.3429 57.209C43.3678 57.209 43.3926 57.209 43.4174 57.209C43.4422 57.209 43.467 57.209 43.4918 57.209C43.5165 57.209 43.5413 57.209 43.566 57.209C43.5906 57.209 43.6153 57.209 43.64 57.209C43.6646 57.209 43.6892 57.209 43.7138 57.209C43.7384 57.209 43.7629 57.209 43.7875 57.209C43.812 57.209 43.8365 57.209 43.861 57.209C43.8854 57.209 43.9099 57.209 43.9343 57.209C43.9587 57.209 43.9831 57.209 44.0075 57.209C44.0318 57.209 44.0562 57.209 44.0805 57.209C44.1048 57.209 44.129 57.209 44.1533 57.209C44.1775 57.209 44.2017 57.209 44.2259 57.209C44.2501 57.209 44.2743 57.209 44.2984 57.209C44.3225 57.209 44.3466 57.209 44.3707 57.209C44.3948 57.209 44.4188 57.209 44.4428 57.209C44.4668 57.209 44.4908 57.209 44.5148 57.209C44.5387 57.209 44.5626 57.209 44.5865 57.209C44.6104 57.209 44.6343 57.209 44.6581 57.209C44.682 57.209 44.7058 57.209 44.7296 57.209C44.7533 57.209 44.7771 57.209 44.8008 57.209C44.8245 57.209 44.8482 57.209 44.8719 57.209C44.8955 57.209 44.9191 57.209 44.9427 57.209C44.9663 57.209 44.9899 57.209 45.0135 57.209C45.037 57.209 45.0605 57.209 45.084 57.209C45.1075 57.209 45.1309 57.209 45.1543 57.209C45.1777 57.209 45.2011 57.209 45.2245 57.209C45.2478 57.209 45.2712 57.209 45.2945 57.209C45.3178 57.209 45.341 57.209 45.3643 57.209C45.3875 57.209 45.4107 57.209 45.4339 57.209C45.457 57.209 45.4802 57.209 45.5033 57.209C45.5264 57.209 45.5495 57.209 45.5725 57.209C45.5956 57.209 45.6186 57.209 45.6416 57.209C45.6646 57.209 45.6876 57.209 45.7105 57.209C45.7334 57.209 45.7563 57.209 45.7792 57.209C45.802 57.209 45.8249 57.209 45.8477 57.209C45.8705 57.209 45.8932 57.209 45.916 57.209C45.9387 57.209 45.9614 57.209 45.9841 57.209C46.0068 57.209 46.0294 57.209 46.052 57.209C46.0747 57.209 46.0972 57.209 46.1198 57.209C46.1423 57.209 46.1648 57.209 46.1873 57.209C46.2098 57.209 46.2323 57.209 46.2547 57.209C46.2771 57.209 46.2995 57.209 46.3219 57.209C46.3442 57.209 46.3666 57.209 46.3888 57.209C46.4111 57.209 46.4334 57.209 46.4556 57.209C46.4779 57.209 46.5001 57.209 46.5222 57.209C46.5444 57.209 46.5665 57.209 46.5886 57.209C46.6107 57.209 46.6328 57.209 46.6548 57.209C46.6769 57.209 46.6989 57.209 46.7208 57.209C46.7428 57.209 46.7647 57.209 46.7866 57.209C46.8085 57.209 46.8304 57.209 46.8523 57.209C46.8741 57.209 46.8959 57.209 46.9177 57.209C46.9394 57.209 46.9612 57.209 46.9829 57.209C47.0046 57.209 47.0263 57.209 47.0479 57.209C47.0695 57.209 47.0912 57.209 47.1127 57.209C47.1343 57.209 47.1558 57.209 47.1773 57.209C47.1988 57.209 47.2203 57.209 47.2418 57.209C47.2632 57.209 47.2846 57.209 47.306 57.209C47.3274 57.209 47.3487 57.209 47.37 57.209C47.3913 57.209 47.4126 57.209 47.4338 57.209C47.455 57.209 47.4762 57.209 47.4974 57.209C47.5186 57.209 47.5397 57.209 47.5608 57.209C47.5819 57.209 47.603 57.209 47.624 57.209C47.6451 57.209 47.6661 57.209 47.687 57.209C47.708 57.209 47.7289 57.209 47.7498 57.209C47.7707 57.209 47.7916 57.209 47.8124 57.209C47.8332 57.209 47.854 57.209 47.8748 57.209C47.8955 57.209 47.9162 57.209 47.9369 57.209C47.9576 57.209 47.9783 57.209 47.9989 57.209C48.0195 57.209 48.0401 57.209 48.0606 57.209C48.0812 57.209 48.1017 57.209 48.1222 57.209C48.1427 57.209 48.1631 57.209 48.1835 57.209C48.2039 57.209 48.2243 57.209 48.2446 57.209C48.265 57.209 48.2853 57.209 48.3055 57.209C48.3258 57.209 48.346 57.209 48.3662 57.209C48.3864 57.209 48.4066 57.209 48.4267 57.209C48.4468 57.209 48.4669 57.209 48.487 57.209C48.507 57.209 48.5271 57.209 48.547 57.209C48.567 57.209 48.587 57.209 48.6069 57.209C48.6268 57.209 48.6467 57.209 48.6665 57.209C48.6863 57.209 48.7061 57.209 48.7259 57.209C48.7457 57.209 48.7654 57.209 48.7851 57.209C48.8048 57.209 48.8245 57.209 48.8441 57.209C48.8637 57.209 48.8833 57.209 48.9028 57.209C48.9224 57.209 48.9419 57.209 48.9614 57.209C48.9808 57.209 49.0003 57.209 49.0197 57.209C49.0391 57.209 49.0585 57.209 49.0778 57.209C49.0971 57.209 49.1164 57.209 49.1357 57.209C49.1549 57.209 49.1741 57.209 49.1933 57.209C49.2125 57.209 49.2316 57.209 49.2507 57.209C49.2699 57.209 49.2889 57.209 49.308 57.209C49.327 57.209 49.346 57.209 49.3649 57.209C49.3839 57.209 49.4028 57.209 49.4217 57.209C49.4406 57.209 49.4594 57.209 49.4783 57.209C49.4971 57.209 49.5158 57.209 49.5346 57.209C49.5533 57.209 49.572 57.209 49.5907 57.209C49.6093 57.209 49.6279 57.209 49.6465 57.209C49.6651 57.209 49.6836 57.209 49.7022 57.209C49.7207 57.209 49.7391 57.209 49.7576 57.209C49.776 57.209 49.7944 57.209 49.8127 57.209C49.8311 57.209 49.8494 57.209 49.8677 57.209C49.886 57.209 49.9042 57.209 49.9224 57.209C49.9406 57.209 49.9588 57.209 49.9769 57.209C49.995 57.209 50.0131 57.209 50.0312 57.209C50.0492 57.209 50.0672 57.209 50.0852 57.209C50.1032 57.209 50.1211 57.209 50.139 57.209C50.1569 57.209 50.1747 57.209 50.1926 57.209C50.2104 57.209 50.2281 57.209 50.2459 57.209C50.2636 57.209 50.2813 57.209 50.299 57.209C50.3166 57.209 50.3343 57.209 50.3518 57.209C50.3694 57.209 50.387 57.209 50.4045 57.209C50.422 57.209 50.4394 57.209 50.4569 57.209C50.4743 57.209 50.4917 57.209 50.509 57.209C50.5264 57.209 50.5437 57.209 50.5609 57.209C50.5782 57.209 50.5954 57.209 50.6126 57.209C50.6298 57.209 50.6469 57.209 50.664 57.209C50.6811 57.209 50.6982 57.209 50.7152 57.209C50.7323 57.209 50.7493 57.209 50.7662 57.209C50.7831 57.209 50.8001 57.209 50.8169 57.209C50.8338 57.209 50.8506 57.209 50.8674 57.209C50.8842 57.209 50.9009 57.209 50.9176 57.209C50.9343 57.209 50.951 57.209 50.9676 57.209C50.9843 57.209 51.0008 57.209 51.0174 57.209C51.0339 57.209 51.0504 57.209 51.0669 57.209C51.0834 57.209 51.0998 57.209 51.1162 57.209C51.1325 57.209 51.1489 57.209 51.1652 57.209C51.1815 57.209 51.1977 57.209 51.2139 57.209C51.2302 57.209 51.2463 57.209 51.2625 57.209C51.2786 57.209 51.2947 57.209 51.3108 57.209C51.3268 57.209 51.3428 57.209 51.3588 57.209C51.3748 57.209 51.3907 57.209 51.4066 57.209C51.4225 57.209 51.4383 57.209 51.4541 57.209C51.4699 57.209 51.4857 57.209 51.5014 57.209C51.5171 57.209 51.5328 57.209 51.5484 57.209C51.5641 57.209 51.5797 57.209 51.5952 57.209C51.6108 57.209 51.6263 57.209 51.6417 57.209C51.6572 57.209 51.6726 57.209 51.688 57.209C51.7034 57.209 51.7188 57.209 51.7341 57.209C51.7494 57.209 51.7646 57.209 51.7798 57.209C51.7951 57.209 51.8102 57.209 51.8254 57.209C51.8405 57.209 51.8556 57.209 51.8706 57.209C51.8857 57.209 51.9007 57.209 51.9156 57.209C51.9306 57.209 51.9455 57.209 51.9604 57.209C51.9753 57.209 51.9901 57.209 52.0049 57.209C52.0197 57.209 52.0344 57.209 52.0491 57.209C52.0638 57.209 52.0785 57.209 52.0931 57.209C52.1077 57.209 52.1223 57.209 52.1368 57.209C52.1514 57.209 52.1659 57.209 52.1803 57.209C52.1948 57.209 52.2092 57.209 52.2235 57.209C52.2379 57.209 52.2522 57.209 52.2665 57.209C52.2807 57.209 52.295 57.209 52.3092 57.209C52.3233 57.209 52.3375 57.209 52.3516 57.209C52.3657 57.209 52.3797 57.209 52.3937 57.209C52.4078 57.209 52.4217 57.209 52.4356 57.209C52.4496 57.209 52.4634 57.209 52.4773 57.209C52.4911 57.209 52.5049 57.209 52.5186 57.209C52.5324 57.209 52.5461 57.209 52.5598 57.209C52.5734 57.209 52.587 57.209 52.6006 57.209C52.6142 57.209 52.6277 57.209 52.6412 57.209C52.6547 57.209 52.6681 57.209 52.6815 57.209C52.6949 57.209 52.7082 57.209 52.7215 57.209C52.7348 57.209 52.7481 57.209 52.7613 57.209C52.7745 57.209 52.7877 57.209 52.8008 57.209C52.8139 57.209 52.827 57.209 52.84 57.209C52.8531 57.209 52.8661 57.209 52.879 57.209C52.8919 57.209 52.9048 57.209 52.9177 57.209C52.9305 57.209 52.9434 57.209 52.9561 57.209C52.9689 57.209 52.9816 57.209 52.9943 57.209C53.0069 57.209 53.0196 57.209 53.0321 57.209C53.0447 57.209 53.0573 57.209 53.0698 57.209C53.0822 57.209 53.0947 57.209 53.1071 57.209C53.1195 57.209 53.1318 57.209 53.1441 57.209C53.1564 57.209 53.1687 57.209 53.1809 57.209C53.1931 57.209 53.2053 57.209 53.2174 57.209C53.2296 57.209 53.2416 57.209 53.2537 57.209C53.2657 57.209 53.2777 57.209 53.2896 57.209C53.3016 57.209 53.3134 57.209 53.3253 57.209C53.3371 57.209 53.3489 57.209 53.3607 57.209C53.3724 57.209 53.3841 57.209 53.3958 57.209C53.4075 57.209 53.4191 57.209 53.4306 57.209C53.4422 57.209 53.4537 57.209 53.4652 57.209C53.4767 57.209 53.4881 57.209 53.4995 57.209C53.5109 57.209 53.5222 57.209 53.5335 57.209C53.5448 57.209 53.556 57.209 53.5672 57.209C53.5784 57.209 53.5895 57.209 53.6006 57.209C53.6117 57.209 53.6228 57.209 53.6338 57.209C53.6448 57.209 53.6557 57.209 53.6666 57.209C53.6775 57.209 53.6884 57.209 53.6992 57.209C53.71 57.209 53.7208 57.209 53.7315 57.209C53.7422 57.209 53.7529 57.209 53.7635 57.209C53.7741 57.209 53.7847 57.209 53.7952 57.209C53.8058 57.209 53.8162 57.209 53.8267 57.209C53.8371 57.209 53.8475 57.209 53.8578 57.209C53.8682 57.209 53.8784 57.209 53.8887 57.209C53.8989 57.209 53.9091 57.209 53.9192 57.209C53.9294 57.209 53.9395 57.209 53.9495 57.209C53.9596 57.209 53.9696 57.209 53.9795 57.209C53.9895 57.209 53.9994 57.209 54.0092 57.209C54.0191 57.209 54.0289 57.209 54.0386 57.209C54.0484 57.209 54.0581 57.209 54.0677 57.209C54.0774 57.209 54.087 57.209 54.0966 57.209C54.1061 57.209 54.1156 57.209 54.1251 57.209C54.1345 57.209 54.1439 57.209 54.1533 57.209C54.1627 57.209 54.172 57.209 54.1812 57.209C54.1905 57.209 54.1997 57.209 54.2089 57.209C54.2181 57.209 54.2272 57.209 54.2362 57.209C54.2453 57.209 54.2543 57.209 54.2633 57.209C54.2722 57.209 54.2812 57.209 54.29 57.209C54.2989 57.209 54.3077 57.209 54.3165 57.209C54.3253 57.209 54.334 57.209 54.3426 57.209C54.3513 57.209 54.3599 57.209 54.3685 57.209C54.3771 57.209 54.3856 57.209 54.394 57.209C54.4025 57.209 54.4109 57.209 54.4193 57.209C54.4277 57.209 54.436 57.209 54.4443 57.209C54.4525 57.209 54.4607 57.209 54.4689 57.209C54.4771 57.209 54.4852 57.209 54.4933 57.209C54.5013 57.209 54.5093 57.209 54.5173 57.209C54.5253 57.209 54.5332 57.209 54.541 57.209C54.5489 57.209 54.5567 57.209 54.5645 57.209C54.5722 57.209 54.5799 57.209 54.5876 57.209C54.5953 57.209 54.6029 57.209 54.6104 57.209C54.618 57.209 54.6255 57.209 54.633 57.209C54.6404 57.209 54.6478 57.209 54.6552 57.209C54.6625 57.209 54.6698 57.209 54.6771 57.209C54.6843 57.209 54.6915 57.209 54.6987 57.209C54.7058 57.209 54.7129 57.209 54.7199 57.209C54.727 57.209 54.734 57.209 54.7409 57.209C54.7479 57.209 54.7548 57.209 54.7616 57.209C54.7684 57.209 54.7752 57.209 54.7819 57.209C54.7887 57.209 54.7954 57.209 54.802 57.209C54.8086 57.209 54.8152 57.209 54.8217 57.209C54.8282 57.209 54.8347 57.209 54.8411 57.209C54.8476 57.209 54.8539 57.209 54.8602 57.209C54.8666 57.209 54.8728 57.209 54.879 57.209C54.8852 57.209 54.8914 57.209 54.8975 57.209C54.9036 57.209 54.9097 57.209 54.9157 57.209C54.9217 57.209 54.9276 57.209 54.9335 57.209C54.9394 57.209 54.9453 57.209 54.951 57.209C54.9568 57.209 54.9626 57.209 54.9683 57.209C54.9739 57.209 54.9796 57.209 54.9851 57.209C54.9907 57.209 54.9963 57.209 55.0017 57.209C55.0072 57.209 55.0126 57.209 55.018 57.209C55.0233 57.209 55.0287 57.209 55.0339 57.209C55.0392 57.209 55.0444 57.209 55.0495 57.209C55.0547 57.209 55.0598 57.209 55.0648 57.209C55.0699 57.209 55.0749 57.209 55.0798 57.209C55.0847 57.209 55.0896 57.209 55.0944 57.209C55.0993 57.209 55.104 57.209 55.1088 57.209C55.1135 57.209 55.1182 57.209 55.1228 57.209C55.1274 57.209 55.1319 57.209 55.1364 57.209C55.1409 57.209 55.1454 57.209 55.1498 57.209C55.1542 57.209 55.1585 57.209 55.1628 57.209C55.1671 57.209 55.1713 57.209 55.1755 57.209C55.1797 57.209 55.1838 57.209 55.1879 57.209C55.192 57.209 55.196 57.209 55.1999 57.209C55.2039 57.209 55.2078 57.209 55.2117 57.209C55.2155 57.209 55.2193 57.209 55.223 57.209C55.2268 57.209 55.2305 57.209 55.2341 57.209C55.2377 57.209 55.2413 57.209 55.2448 57.209C55.2484 57.209 55.2518 57.209 55.2552 57.209C55.2586 57.209 55.262 57.209 55.2653 57.209C55.2686 57.209 55.2718 57.209 55.275 57.209C55.2782 57.209 55.2814 57.209 55.2844 57.209C55.2875 57.209 55.2905 57.209 55.2935 57.209C55.2965 57.209 55.2994 57.209 55.3022 57.209C55.3051 57.209 55.3079 57.209 55.3106 57.209C55.3134 57.209 55.3161 57.209 55.3187 57.209C55.3213 57.209 55.3239 57.209 55.3264 57.209C55.3289 57.209 55.3314 57.209 55.3338 57.209C55.3362 57.209 55.3386 57.209 55.3409 57.209C55.3432 57.209 55.3454 57.209 55.3476 57.209C55.3498 57.209 55.3519 57.209 55.354 57.209C55.356 57.209 55.3581 57.209 55.36 57.209C55.362 57.209 55.3639 57.209 55.3657 57.209C55.3675 57.209 55.3693 57.209 55.3711 57.209C55.3728 57.209 55.3745 57.209 55.3761 57.209C55.3777 57.209 55.3793 57.209 55.3808 57.209C55.3823 57.209 55.3837 57.209 55.3851 57.209C55.3865 57.209 55.3878 57.209 55.3891 57.209C55.3904 57.209 55.3916 57.209 55.3927 57.209C55.3939 57.209 55.395 57.209 55.396 57.209C55.3971 57.209 55.3981 57.209 55.399 57.209C55.3999 57.209 55.4008 57.209 55.4016 57.209C55.4024 57.209 55.4032 57.209 55.4039 57.209C55.4046 57.209 55.4052 57.209 55.4058 57.209C55.4064 57.209 55.4069 57.209 55.4074 57.209C55.4078 57.209 55.4082 57.209 55.4086 57.209C55.4089 57.209 55.4092 57.209 55.4095 57.209C55.4097 57.209 55.4099 57.209 55.41 57.209C55.4101 57.209 55.4102 57.209 55.4102 56.959ZM2.5817 35.5131L2.5817 2.00402L2.0817 2.00402L2.0817 35.5131L2.5817 35.5131ZM23.7776 56.709C12.0715 56.709 2.5817 47.2193 2.5817 35.5131L2.0817 35.5131C2.0817 47.4954 11.7954 57.209 23.7776 57.209L23.7776 56.709Z" fill="#660066"/>
</svg>
