<svg width="53" height="46" viewBox="0 0 53 46" fill="none" xmlns="http://www.w3.org/2000/svg">
<path opacity="0.9" d="M0.174479 1.59766C0.174479 2.33404 0.771433 2.93099 1.50781 2.93099C2.24419 2.93099 2.84115 2.33404 2.84115 1.59766C2.84115 0.861277 2.24419 0.264323 1.50781 0.264323C0.771433 0.264323 0.174479 0.861277 0.174479 1.59766ZM49.768 43.6851C49.768 44.4215 50.3649 45.0184 51.1013 45.0184C51.8377 45.0184 52.4347 44.4215 52.4347 43.6851C52.4347 42.9487 51.8377 42.3518 51.1013 42.3518C50.3649 42.3518 49.768 42.9487 49.768 43.6851ZM1.50781 1.59766C1.50781 1.84766 1.50786 1.84766 1.50797 1.84766C1.50807 1.84766 1.50822 1.84766 1.50843 1.84766C1.50863 1.84766 1.50889 1.84766 1.50919 1.84766C1.5095 1.84766 1.50986 1.84766 1.51027 1.84766C1.51068 1.84766 1.51114 1.84766 1.51165 1.84766C1.51216 1.84766 1.51272 1.84766 1.51333 1.84766C1.51394 1.84766 1.51461 1.84766 1.51532 1.84766C1.51603 1.84766 1.5168 1.84766 1.51761 1.84766C1.51843 1.84766 1.51929 1.84766 1.52021 1.84766C1.52112 1.84766 1.52209 1.84766 1.52311 1.84766C1.52412 1.84766 1.52519 1.84766 1.52631 1.84766C1.52743 1.84766 1.52859 1.84766 1.52981 1.84766C1.53103 1.84766 1.5323 1.84766 1.53362 1.84766C1.53493 1.84766 1.5363 1.84766 1.53772 1.84766C1.53914 1.84766 1.54061 1.84766 1.54212 1.84766C1.54364 1.84766 1.54521 1.84766 1.54683 1.84766C1.54845 1.84766 1.55011 1.84766 1.55183 1.84766C1.55355 1.84766 1.55532 1.84766 1.55713 1.84766C1.55895 1.84766 1.56082 1.84766 1.56273 1.84766C1.56465 1.84766 1.56662 1.84766 1.56863 1.84766C1.57065 1.84766 1.57271 1.84766 1.57482 1.84766C1.57694 1.84766 1.5791 1.84766 1.58131 1.84766C1.58353 1.84766 1.58579 1.84766 1.5881 1.84766C1.59041 1.84766 1.59277 1.84766 1.59518 1.84766C1.59759 1.84766 1.60005 1.84766 1.60256 1.84766C1.60506 1.84766 1.60762 1.84766 1.61023 1.84766C1.61283 1.84766 1.61549 1.84766 1.61819 1.84766C1.62089 1.84766 1.62365 1.84766 1.62645 1.84766C1.62925 1.84766 1.6321 1.84766 1.635 1.84766C1.63789 1.84766 1.64084 1.84766 1.64384 1.84766C1.64683 1.84766 1.64988 1.84766 1.65297 1.84766C1.65606 1.84766 1.6592 1.84766 1.66239 1.84766C1.66558 1.84766 1.66882 1.84766 1.6721 1.84766C1.67539 1.84766 1.67872 1.84766 1.68211 1.84766C1.68549 1.84766 1.68892 1.84766 1.6924 1.84766C1.69588 1.84766 1.69941 1.84766 1.70298 1.84766C1.70655 1.84766 1.71018 1.84766 1.71385 1.84766C1.71752 1.84766 1.72124 1.84766 1.72501 1.84766C1.72877 1.84766 1.73259 1.84766 1.73645 1.84766C1.74031 1.84766 1.74422 1.84766 1.74818 1.84766C1.75214 1.84766 1.75614 1.84766 1.76019 1.84766C1.76425 1.84766 1.76835 1.84766 1.7725 1.84766C1.77664 1.84766 1.78084 1.84766 1.78508 1.84766C1.78932 1.84766 1.79362 1.84766 1.79795 1.84766C1.80229 1.84766 1.80667 1.84766 1.81111 1.84766C1.81554 1.84766 1.82002 1.84766 1.82454 1.84766C1.82907 1.84766 1.83364 1.84766 1.83826 1.84766C1.84288 1.84766 1.84755 1.84766 1.85227 1.84766C1.85698 1.84766 1.86174 1.84766 1.86655 1.84766C1.87136 1.84766 1.87621 1.84766 1.88111 1.84766C1.88602 1.84766 1.89096 1.84766 1.89596 1.84766C1.90096 1.84766 1.906 1.84766 1.91109 1.84766C1.91617 1.84766 1.92131 1.84766 1.92649 1.84766C1.93167 1.84766 1.9369 1.84766 1.94217 1.84766C1.94745 1.84766 1.95277 1.84766 1.95813 1.84766C1.9635 1.84766 1.96891 1.84766 1.97437 1.84766C1.97983 1.84766 1.98534 1.84766 1.99089 1.84766C1.99644 1.84766 2.00204 1.84766 2.00768 1.84766C2.01333 1.84766 2.01902 1.84766 2.02475 1.84766C2.03049 1.84766 2.03627 1.84766 2.0421 1.84766C2.04793 1.84766 2.0538 1.84766 2.05972 1.84766C2.06564 1.84766 2.0716 1.84766 2.07761 1.84766C2.08362 1.84766 2.08968 1.84766 2.09578 1.84766C2.10188 1.84766 2.10803 1.84766 2.11422 1.84766C2.12042 1.84766 2.12665 1.84766 2.13294 1.84766C2.13922 1.84766 2.14555 1.84766 2.15193 1.84766C2.1583 1.84766 2.16472 1.84766 2.17118 1.84766C2.17765 1.84766 2.18416 1.84766 2.19071 1.84766C2.19727 1.84766 2.20387 1.84766 2.21052 1.84766C2.21716 1.84766 2.22385 1.84766 2.23059 1.84766C2.23732 1.84766 2.2441 1.84766 2.25093 1.84766C2.25775 1.84766 2.26462 1.84766 2.27154 1.84766C2.27845 1.84766 2.28541 1.84766 2.29241 1.84766C2.29942 1.84766 2.30647 1.84766 2.31356 1.84766C2.32065 1.84766 2.32779 1.84766 2.33497 1.84766C2.34216 1.84766 2.34938 1.84766 2.35665 1.84766C2.36392 1.84766 2.37124 1.84766 2.3786 1.84766C2.38596 1.84766 2.39336 1.84766 2.40081 1.84766C2.40826 1.84766 2.41575 1.84766 2.42329 1.84766C2.43083 1.84766 2.43841 1.84766 2.44603 1.84766C2.45366 1.84766 2.46132 1.84766 2.46904 1.84766C2.47675 1.84766 2.48451 1.84766 2.49231 1.84766C2.50011 1.84766 2.50795 1.84766 2.51584 1.84766C2.52373 1.84766 2.53166 1.84766 2.53964 1.84766C2.54761 1.84766 2.55563 1.84766 2.56369 1.84766C2.57176 1.84766 2.57986 1.84766 2.58801 1.84766C2.59616 1.84766 2.60436 1.84766 2.61259 1.84766C2.62083 1.84766 2.62911 1.84766 2.63743 1.84766C2.64576 1.84766 2.65412 1.84766 2.66253 1.84766C2.67094 1.84766 2.67939 1.84766 2.68789 1.84766C2.69639 1.84766 2.70493 1.84766 2.71351 1.84766C2.72209 1.84766 2.73072 1.84766 2.73938 1.84766C2.74805 1.84766 2.75676 1.84766 2.76552 1.84766C2.77427 1.84766 2.78307 1.84766 2.79191 1.84766C2.80075 1.84766 2.80963 1.84766 2.81855 1.84766C2.82748 1.84766 2.83645 1.84766 2.84546 1.84766C2.85447 1.84766 2.86352 1.84766 2.87262 1.84766C2.88171 1.84766 2.89085 1.84766 2.90003 1.84766C2.90921 1.84766 2.91843 1.84766 2.9277 1.84766C2.93696 1.84766 2.94627 1.84766 2.95562 1.84766C2.96497 1.84766 2.97436 1.84766 2.98379 1.84766C2.99323 1.84766 3.0027 1.84766 3.01222 1.84766C3.02174 1.84766 3.0313 1.84766 3.0409 1.84766C3.0505 1.84766 3.06014 1.84766 3.06983 1.84766C3.07952 1.84766 3.08924 1.84766 3.09901 1.84766C3.10878 1.84766 3.11859 1.84766 3.12845 1.84766C3.1383 1.84766 3.14819 1.84766 3.15813 1.84766C3.16806 1.84766 3.17804 1.84766 3.18806 1.84766C3.19808 1.84766 3.20814 1.84766 3.21824 1.84766C3.22834 1.84766 3.23849 1.84766 3.24867 1.84766C3.25885 1.84766 3.26908 1.84766 3.27935 1.84766C3.28961 1.84766 3.29992 1.84766 3.31027 1.84766C3.32062 1.84766 3.33101 1.84766 3.34144 1.84766C3.35187 1.84766 3.36235 1.84766 3.37286 1.84766C3.38337 1.84766 3.39393 1.84766 3.40452 1.84766C3.41512 1.84766 3.42575 1.84766 3.43643 1.84766C3.44711 1.84766 3.45782 1.84766 3.46858 1.84766C3.47934 1.84766 3.49014 1.84766 3.50098 1.84766C3.51182 1.84766 3.5227 1.84766 3.53362 1.84766C3.54454 1.84766 3.5555 1.84766 3.5665 1.84766C3.5775 1.84766 3.58854 1.84766 3.59963 1.84766C3.61071 1.84766 3.62183 1.84766 3.63299 1.84766C3.64415 1.84766 3.65536 1.84766 3.6666 1.84766C3.67784 1.84766 3.68913 1.84766 3.70045 1.84766C3.71177 1.84766 3.72313 1.84766 3.73454 1.84766C3.74594 1.84766 3.75738 1.84766 3.76887 1.84766C3.78035 1.84766 3.79187 1.84766 3.80343 1.84766C3.815 1.84766 3.8266 1.84766 3.83824 1.84766C3.84988 1.84766 3.86156 1.84766 3.87328 1.84766C3.885 1.84766 3.89676 1.84766 3.90856 1.84766C3.92036 1.84766 3.9322 1.84766 3.94408 1.84766C3.95596 1.84766 3.96788 1.84766 3.97984 1.84766C3.9918 1.84766 4.00379 1.84766 4.01583 1.84766C4.02786 1.84766 4.03994 1.84766 4.05205 1.84766C4.06417 1.84766 4.07632 1.84766 4.08851 1.84766C4.10071 1.84766 4.11294 1.84766 4.12521 1.84766C4.13748 1.84766 4.14979 1.84766 4.16214 1.84766C4.17449 1.84766 4.18687 1.84766 4.1993 1.84766C4.21172 1.84766 4.22419 1.84766 4.23669 1.84766C4.2492 1.84766 4.26174 1.84766 4.27432 1.84766C4.2869 1.84766 4.29952 1.84766 4.31218 1.84766C4.32483 1.84766 4.33753 1.84766 4.35026 1.84766C4.363 1.84766 4.37577 1.84766 4.38858 1.84766C4.40139 1.84766 4.41424 1.84766 4.42713 1.84766C4.44002 1.84766 4.45294 1.84766 4.46591 1.84766C4.47887 1.84766 4.49188 1.84766 4.50492 1.84766C4.51796 1.84766 4.53103 1.84766 4.54415 1.84766C4.55727 1.84766 4.57042 1.84766 4.58361 1.84766C4.5968 1.84766 4.61003 1.84766 4.6233 1.84766C4.63657 1.84766 4.64987 1.84766 4.66322 1.84766C4.67656 1.84766 4.68994 1.84766 4.70336 1.84766C4.71678 1.84766 4.73023 1.84766 4.74373 1.84766C4.75722 1.84766 4.77075 1.84766 4.78432 1.84766C4.79789 1.84766 4.81149 1.84766 4.82513 1.84766C4.83878 1.84766 4.85246 1.84766 4.86618 1.84766C4.87989 1.84766 4.89365 1.84766 4.90744 1.84766C4.92123 1.84766 4.93506 1.84766 4.94893 1.84766C4.96279 1.84766 4.97669 1.84766 4.99063 1.84766C5.00457 1.84766 5.01855 1.84766 5.03256 1.84766C5.04658 1.84766 5.06063 1.84766 5.07472 1.84766C5.0888 1.84766 5.10293 1.84766 5.11709 1.84766C5.13125 1.84766 5.14545 1.84766 5.15968 1.84766C5.17391 1.84766 5.18818 1.84766 5.20249 1.84766C5.2168 1.84766 5.23114 1.84766 5.24552 1.84766C5.2599 1.84766 5.27432 1.84766 5.28877 1.84766C5.30322 1.84766 5.31771 1.84766 5.33224 1.84766C5.34676 1.84766 5.36132 1.84766 5.37592 1.84766C5.39052 1.84766 5.40515 1.84766 5.41982 1.84766C5.43449 1.84766 5.44919 1.84766 5.46394 1.84766C5.47868 1.84766 5.49345 1.84766 5.50827 1.84766C5.52308 1.84766 5.53793 1.84766 5.55282 1.84766C5.5677 1.84766 5.58262 1.84766 5.59758 1.84766C5.61253 1.84766 5.62753 1.84766 5.64255 1.84766C5.65758 1.84766 5.67264 1.84766 5.68774 1.84766C5.70284 1.84766 5.71798 1.84766 5.73314 1.84766C5.74831 1.84766 5.76352 1.84766 5.77876 1.84766C5.794 1.84766 5.80928 1.84766 5.82459 1.84766C5.8399 1.84766 5.85524 1.84766 5.87062 1.84766C5.886 1.84766 5.90142 1.84766 5.91687 1.84766C5.93232 1.84766 5.94781 1.84766 5.96333 1.84766C5.97885 1.84766 5.99441 1.84766 6.01 1.84766C6.02559 1.84766 6.04122 1.84766 6.05688 1.84766C6.07254 1.84766 6.08823 1.84766 6.10396 1.84766C6.11969 1.84766 6.13546 1.84766 6.15126 1.84766C6.16706 1.84766 6.18289 1.84766 6.19876 1.84766C6.21463 1.84766 6.23053 1.84766 6.24647 1.84766C6.2624 1.84766 6.27838 1.84766 6.29438 1.84766C6.31039 1.84766 6.32643 1.84766 6.3425 1.84766C6.35858 1.84766 6.37469 1.84766 6.39083 1.84766C6.40697 1.84766 6.42315 1.84766 6.43936 1.84766C6.45557 1.84766 6.47181 1.84766 6.48809 1.84766C6.50437 1.84766 6.52069 1.84766 6.53703 1.84766C6.55338 1.84766 6.56976 1.84766 6.58617 1.84766C6.60259 1.84766 6.61904 1.84766 6.63552 1.84766C6.652 1.84766 6.66852 1.84766 6.68506 1.84766C6.70161 1.84766 6.7182 1.84766 6.73481 1.84766C6.75143 1.84766 6.76808 1.84766 6.78476 1.84766C6.80144 1.84766 6.81816 1.84766 6.83491 1.84766C6.85166 1.84766 6.86844 1.84766 6.88526 1.84766C6.90207 1.84766 6.91892 1.84766 6.93581 1.84766C6.95269 1.84766 6.96961 1.84766 6.98655 1.84766C7.0035 1.84766 7.02048 1.84766 7.0375 1.84766C7.05451 1.84766 7.07156 1.84766 7.08864 1.84766C7.10572 1.84766 7.12284 1.84766 7.13998 1.84766C7.15713 1.84766 7.17431 1.84766 7.19152 1.84766C7.20873 1.84766 7.22597 1.84766 7.24325 1.84766C7.26053 1.84766 7.27784 1.84766 7.29518 1.84766C7.31252 1.84766 7.3299 1.84766 7.3473 1.84766C7.36471 1.84766 7.38215 1.84766 7.39962 1.84766C7.41709 1.84766 7.43459 1.84766 7.45213 1.84766C7.46967 1.84766 7.48723 1.84766 7.50484 1.84766C7.52244 1.84766 7.54007 1.84766 7.55773 1.84766C7.5754 1.84766 7.59309 1.84766 7.61082 1.84766C7.62855 1.84766 7.64631 1.84766 7.6641 1.84766C7.6819 1.84766 7.69972 1.84766 7.71758 1.84766C7.73543 1.84766 7.75332 1.84766 7.77124 1.84766C7.78916 1.84766 7.80711 1.84766 7.82509 1.84766C7.84307 1.84766 7.86109 1.84766 7.87913 1.84766C7.89718 1.84766 7.91526 1.84766 7.93336 1.84766C7.95147 1.84766 7.96961 1.84766 7.98778 1.84766C8.00596 1.84766 8.02416 1.84766 8.04239 1.84766C8.06063 1.84766 8.07889 1.84766 8.09719 1.84766C8.11548 1.84766 8.13381 1.84766 8.15217 1.84766C8.17053 1.84766 8.18892 1.84766 8.20734 1.84766C8.22576 1.84766 8.24421 1.84766 8.26269 1.84766C8.28117 1.84766 8.29969 1.84766 8.31823 1.84766C8.33677 1.84766 8.35535 1.84766 8.37395 1.84766C8.39256 1.84766 8.41119 1.84766 8.42986 1.84766C8.44853 1.84766 8.46722 1.84766 8.48595 1.84766C8.50468 1.84766 8.52344 1.84766 8.54222 1.84766C8.56101 1.84766 8.57983 1.84766 8.59868 1.84766C8.61753 1.84766 8.63641 1.84766 8.65532 1.84766C8.67423 1.84766 8.69317 1.84766 8.71214 1.84766C8.73111 1.84766 8.75011 1.84766 8.76914 1.84766C8.78817 1.84766 8.80723 1.84766 8.82632 1.84766C8.84541 1.84766 8.86453 1.84766 8.88368 1.84766C8.90283 1.84766 8.92201 1.84766 8.94122 1.84766C8.96043 1.84766 8.97967 1.84766 8.99894 1.84766C9.01821 1.84766 9.0375 1.84766 9.05683 1.84766C9.07616 1.84766 9.09552 1.84766 9.11491 1.84766C9.13429 1.84766 9.15371 1.84766 9.17316 1.84766C9.1926 1.84766 9.21208 1.84766 9.23158 1.84766C9.25109 1.84766 9.27062 1.84766 9.29018 1.84766C9.30975 1.84766 9.32934 1.84766 9.34896 1.84766C9.36858 1.84766 9.38824 1.84766 9.40792 1.84766C9.4276 1.84766 9.4473 1.84766 9.46704 1.84766C9.48678 1.84766 9.50655 1.84766 9.52634 1.84766C9.54614 1.84766 9.56596 1.84766 9.58582 1.84766C9.60567 1.84766 9.62555 1.84766 9.64546 1.84766C9.66537 1.84766 9.68531 1.84766 9.70528 1.84766C9.72525 1.84766 9.74525 1.84766 9.76527 1.84766C9.7853 1.84766 9.80535 1.84766 9.82543 1.84766C9.84552 1.84766 9.86563 1.84766 9.88576 1.84766C9.9059 1.84766 9.92607 1.84766 9.94627 1.84766C9.96646 1.84766 9.98668 1.84766 10.0069 1.84766C10.0272 1.84766 10.0475 1.84766 10.0678 1.84766C10.0881 1.84766 10.1084 1.84766 10.1288 1.84766C10.1491 1.84766 10.1695 1.84766 10.19 1.84766C10.2104 1.84766 10.2308 1.84766 10.2513 1.84766C10.2718 1.84766 10.2923 1.84766 10.3128 1.84766C10.3333 1.84766 10.3539 1.84766 10.3745 1.84766C10.3951 1.84766 10.4157 1.84766 10.4363 1.84766C10.457 1.84766 10.4776 1.84766 10.4983 1.84766C10.519 1.84766 10.5398 1.84766 10.5605 1.84766C10.5813 1.84766 10.602 1.84766 10.6228 1.84766C10.6436 1.84766 10.6645 1.84766 10.6853 1.84766C10.7062 1.84766 10.7271 1.84766 10.748 1.84766C10.7689 1.84766 10.7898 1.84766 10.8108 1.84766C10.8318 1.84766 10.8528 1.84766 10.8738 1.84766C10.8948 1.84766 10.9159 1.84766 10.9369 1.84766C10.958 1.84766 10.9791 1.84766 11.0002 1.84766C11.0214 1.84766 11.0425 1.84766 11.0637 1.84766C11.0849 1.84766 11.1061 1.84766 11.1273 1.84766C11.1486 1.84766 11.1698 1.84766 11.1911 1.84766C11.2124 1.84766 11.2337 1.84766 11.2551 1.84766C11.2764 1.84766 11.2978 1.84766 11.3192 1.84766C11.3406 1.84766 11.362 1.84766 11.3834 1.84766C11.4049 1.84766 11.4263 1.84766 11.4478 1.84766C11.4693 1.84766 11.4909 1.84766 11.5124 1.84766C11.534 1.84766 11.5555 1.84766 11.5771 1.84766C11.5987 1.84766 11.6204 1.84766 11.642 1.84766C11.6637 1.84766 11.6854 1.84766 11.7071 1.84766C11.7288 1.84766 11.7505 1.84766 11.7722 1.84766C11.794 1.84766 11.8158 1.84766 11.8376 1.84766C11.8594 1.84766 11.8812 1.84766 11.9031 1.84766C11.9249 1.84766 11.9468 1.84766 11.9687 1.84766C11.9906 1.84766 12.0126 1.84766 12.0345 1.84766C12.0565 1.84766 12.0785 1.84766 12.1005 1.84766C12.1225 1.84766 12.1445 1.84766 12.1666 1.84766C12.1887 1.84766 12.2107 1.84766 12.2329 1.84766C12.255 1.84766 12.2771 1.84766 12.2993 1.84766C12.3214 1.84766 12.3436 1.84766 12.3658 1.84766C12.388 1.84766 12.4103 1.84766 12.4325 1.84766C12.4548 1.84766 12.4771 1.84766 12.4994 1.84766C12.5217 1.84766 12.544 1.84766 12.5664 1.84766C12.5887 1.84766 12.6111 1.84766 12.6335 1.84766C12.6559 1.84766 12.6783 1.84766 12.7008 1.84766C12.7232 1.84766 12.7457 1.84766 12.7682 1.84766C12.7907 1.84766 12.8133 1.84766 12.8358 1.84766C12.8584 1.84766 12.8809 1.84766 12.9035 1.84766C12.9261 1.84766 12.9488 1.84766 12.9714 1.84766C12.9941 1.84766 13.0167 1.84766 13.0394 1.84766C13.0621 1.84766 13.0848 1.84766 13.1076 1.84766C13.1303 1.84766 13.1531 1.84766 13.1759 1.84766C13.1987 1.84766 13.2215 1.84766 13.2443 1.84766C13.2672 1.84766 13.29 1.84766 13.3129 1.84766C13.3358 1.84766 13.3587 1.84766 13.3816 1.84766C13.4046 1.84766 13.4275 1.84766 13.4505 1.84766C13.4735 1.84766 13.4965 1.84766 13.5195 1.84766C13.5425 1.84766 13.5656 1.84766 13.5886 1.84766C13.6117 1.84766 13.6348 1.84766 13.6579 1.84766C13.681 1.84766 13.7042 1.84766 13.7274 1.84766C13.7505 1.84766 13.7737 1.84766 13.7969 1.84766C13.8201 1.84766 13.8434 1.84766 13.8666 1.84766C13.8899 1.84766 13.9131 1.84766 13.9364 1.84766C13.9597 1.84766 13.9831 1.84766 14.0064 1.84766C14.0298 1.84766 14.0531 1.84766 14.0765 1.84766C14.0999 1.84766 14.1233 1.84766 14.1468 1.84766C14.1702 1.84766 14.1937 1.84766 14.2171 1.84766C14.2406 1.84766 14.2641 1.84766 14.2876 1.84766C14.3112 1.84766 14.3347 1.84766 14.3583 1.84766C14.3819 1.84766 14.4054 1.84766 14.4291 1.84766C14.4527 1.84766 14.4763 1.84766 14.5 1.84766C14.5236 1.84766 14.5473 1.84766 14.571 1.84766C14.5947 1.84766 14.6184 1.84766 14.6422 1.84766C14.6659 1.84766 14.6897 1.84766 14.7135 1.84766C14.7373 1.84766 14.7611 1.84766 14.7849 1.84766C14.8087 1.84766 14.8326 1.84766 14.8565 1.84766C14.8803 1.84766 14.9042 1.84766 14.9282 1.84766C14.9521 1.84766 14.976 1.84766 15 1.84766C15.0239 1.84766 15.0479 1.84766 15.0719 1.84766C15.0959 1.84766 15.1199 1.84766 15.144 1.84766C15.168 1.84766 15.1921 1.84766 15.2162 1.84766C15.2403 1.84766 15.2644 1.84766 15.2885 1.84766C15.3126 1.84766 15.3368 1.84766 15.361 1.84766C15.3851 1.84766 15.4093 1.84766 15.4335 1.84766C15.4578 1.84766 15.482 1.84766 15.5062 1.84766C15.5305 1.84766 15.5548 1.84766 15.5791 1.84766C15.6034 1.84766 15.6277 1.84766 15.652 1.84766C15.6764 1.84766 15.7007 1.84766 15.7251 1.84766C15.7495 1.84766 15.7739 1.84766 15.7983 1.84766C15.8227 1.84766 15.8471 1.84766 15.8716 1.84766C15.8961 1.84766 15.9205 1.84766 15.945 1.84766C15.9695 1.84766 15.9941 1.84766 16.0186 1.84766C16.0431 1.84766 16.0677 1.84766 16.0923 1.84766C16.1169 1.84766 16.1415 1.84766 16.1661 1.84766C16.1907 1.84766 16.2153 1.84766 16.24 1.84766C16.2647 1.84766 16.2893 1.84766 16.314 1.84766C16.3387 1.84766 16.3635 1.84766 16.3882 1.84766C16.4129 1.84766 16.4377 1.84766 16.4625 1.84766C16.4872 1.84766 16.512 1.84766 16.5369 1.84766C16.5617 1.84766 16.5865 1.84766 16.6114 1.84766C16.6362 1.84766 16.6611 1.84766 16.686 1.84766C16.7109 1.84766 16.7358 1.84766 16.7607 1.84766C16.7857 1.84766 16.8106 1.84766 16.8356 1.84766C16.8605 1.84766 16.8855 1.84766 16.9105 1.84766C16.9355 1.84766 16.9606 1.84766 16.9856 1.84766C17.0107 1.84766 17.0357 1.84766 17.0608 1.84766C17.0859 1.84766 17.111 1.84766 17.1361 1.84766C17.1612 1.84766 17.1864 1.84766 17.2115 1.84766C17.2367 1.84766 17.2619 1.84766 17.2871 1.84766C17.3123 1.84766 17.3375 1.84766 17.3627 1.84766C17.3879 1.84766 17.4132 1.84766 17.4385 1.84766C17.4637 1.84766 17.489 1.84766 17.5143 1.84766C17.5396 1.84766 17.565 1.84766 17.5903 1.84766C17.6156 1.84766 17.641 1.84766 17.6664 1.84766C17.6918 1.84766 17.7171 1.84766 17.7426 1.84766C17.768 1.84766 17.7934 1.84766 17.8189 1.84766C17.8443 1.84766 17.8698 1.84766 17.8953 1.84766C17.9207 1.84766 17.9463 1.84766 17.9718 1.84766C17.9973 1.84766 18.0228 1.84766 18.0484 1.84766C18.0739 1.84766 18.0995 1.84766 18.1251 1.84766C18.1507 1.84766 18.1763 1.84766 18.2019 1.84766C18.2276 1.84766 18.2532 1.84766 18.2789 1.84766C18.3045 1.84766 18.3302 1.84766 18.3559 1.84766C18.3816 1.84766 18.4073 1.84766 18.433 1.84766C18.4588 1.84766 18.4845 1.84766 18.5103 1.84766C18.536 1.84766 18.5618 1.84766 18.5876 1.84766C18.6134 1.84766 18.6392 1.84766 18.6651 1.84766C18.6909 1.84766 18.7168 1.84766 18.7426 1.84766C18.7685 1.84766 18.7944 1.84766 18.8203 1.84766C18.8462 1.84766 18.8721 1.84766 18.898 1.84766C18.9239 1.84766 18.9499 1.84766 18.9759 1.84766C19.0018 1.84766 19.0278 1.84766 19.0538 1.84766C19.0798 1.84766 19.1058 1.84766 19.1318 1.84766C19.1579 1.84766 19.1839 1.84766 19.21 1.84766C19.2361 1.84766 19.2621 1.84766 19.2882 1.84766C19.3143 1.84766 19.3404 1.84766 19.3666 1.84766C19.3927 1.84766 19.4188 1.84766 19.445 1.84766C19.4712 1.84766 19.4973 1.84766 19.5235 1.84766C19.5497 1.84766 19.5759 1.84766 19.6022 1.84766C19.6284 1.84766 19.6546 1.84766 19.6809 1.84766C19.7071 1.84766 19.7334 1.84766 19.7597 1.84766C19.786 1.84766 19.8123 1.84766 19.8386 1.84766C19.8649 1.84766 19.8912 1.84766 19.9176 1.84766C19.9439 1.84766 19.9703 1.84766 19.9967 1.84766C20.0231 1.84766 20.0495 1.84766 20.0759 1.84766C20.1023 1.84766 20.1287 1.84766 20.1551 1.84766C20.1816 1.84766 20.208 1.84766 20.2345 1.84766C20.261 1.84766 20.2875 1.84766 20.314 1.84766C20.3405 1.84766 20.367 1.84766 20.3935 1.84766C20.42 1.84766 20.4466 1.84766 20.4731 1.84766C20.4997 1.84766 20.5263 1.84766 20.5529 1.84766C20.5795 1.84766 20.6061 1.84766 20.6327 1.84766C20.6593 1.84766 20.6859 1.84766 20.7126 1.84766C20.7392 1.84766 20.7659 1.84766 20.7926 1.84766C20.8193 1.84766 20.8459 1.84766 20.8726 1.84766C20.8994 1.84766 20.9261 1.84766 20.9528 1.84766C20.9795 1.84766 21.0063 1.84766 21.0331 1.84766C21.0598 1.84766 21.0866 1.84766 21.1134 1.84766C21.1402 1.84766 21.167 1.84766 21.1938 1.84766C21.2206 1.84766 21.2474 1.84766 21.2743 1.84766C21.3011 1.84766 21.328 1.84766 21.3549 1.84766C21.3818 1.84766 21.4086 1.84766 21.4355 1.84766C21.4624 1.84766 21.4894 1.84766 21.5163 1.84766C21.5432 1.84766 21.5702 1.84766 21.5971 1.84766C21.6241 1.84766 21.651 1.84766 21.678 1.84766C21.705 1.84766 21.732 1.84766 21.759 1.84766C21.786 1.84766 21.813 1.84766 21.8401 1.84766C21.8671 1.84766 21.8942 1.84766 21.9212 1.84766C21.9483 1.84766 21.9754 1.84766 22.0025 1.84766C22.0295 1.84766 22.0566 1.84766 22.0838 1.84766C22.1109 1.84766 22.138 1.84766 22.1651 1.84766C22.1923 1.84766 22.2194 1.84766 22.2466 1.84766C22.2738 1.84766 22.301 1.84766 22.3281 1.84766C22.3553 1.84766 22.3825 1.84766 22.4098 1.84766C22.437 1.84766 22.4642 1.84766 22.4914 1.84766C22.5187 1.84766 22.5459 1.84766 22.5732 1.84766C22.6005 1.84766 22.6278 1.84766 22.6551 1.84766C22.6823 1.84766 22.7097 1.84766 22.737 1.84766C22.7643 1.84766 22.7916 1.84766 22.819 1.84766C22.8463 1.84766 22.8736 1.84766 22.901 1.84766C22.9284 1.84766 22.9558 1.84766 22.9831 1.84766C23.0105 1.84766 23.0379 1.84766 23.0653 1.84766C23.0928 1.84766 23.1202 1.84766 23.1476 1.84766C23.1751 1.84766 23.2025 1.84766 23.23 1.84766C23.2574 1.84766 23.2849 1.84766 23.3124 1.84766C23.3399 1.84766 23.3674 1.84766 23.3949 1.84766C23.4224 1.84766 23.4499 1.84766 23.4774 1.84766C23.505 1.84766 23.5325 1.84766 23.56 1.84766C23.5876 1.84766 23.6152 1.84766 23.6427 1.84766C23.6703 1.84766 23.6979 1.84766 23.7255 1.84766C23.7531 1.84766 23.7807 1.84766 23.8083 1.84766C23.8359 1.84766 23.8636 1.84766 23.8912 1.84766C23.9189 1.84766 23.9465 1.84766 23.9742 1.84766C24.0018 1.84766 24.0295 1.84766 24.0572 1.84766C24.0849 1.84766 24.1126 1.84766 24.1403 1.84766C24.168 1.84766 24.1957 1.84766 24.2234 1.84766C24.2512 1.84766 24.2789 1.84766 24.3067 1.84766C24.3344 1.84766 24.3622 1.84766 24.3899 1.84766C24.4177 1.84766 24.4455 1.84766 24.4733 1.84766C24.5011 1.84766 24.5289 1.84766 24.5567 1.84766C24.5845 1.84766 24.6123 1.84766 24.6401 1.84766C24.668 1.84766 24.6958 1.84766 24.7237 1.84766C24.7515 1.84766 24.7794 1.84766 24.8072 1.84766C24.8351 1.84766 24.863 1.84766 24.8909 1.84766C24.9188 1.84766 24.9467 1.84766 24.9746 1.84766C25.0025 1.84766 25.0304 1.84766 25.0584 1.84766C25.0863 1.84766 25.1142 1.84766 25.1422 1.84766C25.1701 1.84766 25.1981 1.84766 25.2261 1.84766C25.254 1.84766 25.282 1.84766 25.31 1.84766C25.338 1.84766 25.366 1.84766 25.394 1.84766C25.422 1.84766 25.45 1.84766 25.478 1.84766C25.5061 1.84766 25.5341 1.84766 25.5621 1.84766C25.5902 1.84766 25.6182 1.84766 25.6463 1.84766C25.6744 1.84766 25.7024 1.84766 25.7305 1.84766C25.7586 1.84766 25.7867 1.84766 25.8148 1.84766C25.8429 1.84766 25.871 1.84766 25.8991 1.84766C25.9272 1.84766 25.9554 1.84766 25.9835 1.84766C26.0116 1.84766 26.0398 1.84766 26.0679 1.84766C26.0961 1.84766 26.1242 1.84766 26.1524 1.84766C26.1806 1.84766 26.2087 1.84766 26.2369 1.84766C26.2651 1.84766 26.2933 1.84766 26.3215 1.84766C26.3497 1.84766 26.3779 1.84766 26.4061 1.84766C26.4343 1.84766 26.4626 1.84766 26.4908 1.84766C26.519 1.84766 26.5473 1.84766 26.5755 1.84766C26.6038 1.84766 26.632 1.84766 26.6603 1.84766C26.6886 1.84766 26.7168 1.84766 26.7451 1.84766C26.7734 1.84766 26.8017 1.84766 26.83 1.84766C26.8583 1.84766 26.8866 1.84766 26.9149 1.84766C26.9432 1.84766 26.9716 1.84766 26.9999 1.84766C27.0282 1.84766 27.0565 1.84766 27.0849 1.84766C27.1132 1.84766 27.1416 1.84766 27.1699 1.84766C27.1983 1.84766 27.2267 1.84766 27.255 1.84766C27.2834 1.84766 27.3118 1.84766 27.3402 1.84766C27.3686 1.84766 27.397 1.84766 27.4254 1.84766C27.4538 1.84766 27.4822 1.84766 27.5106 1.84766C27.539 1.84766 27.5674 1.84766 27.5959 1.84766C27.6243 1.84766 27.6527 1.84766 27.6812 1.84766C27.7096 1.84766 27.7381 1.84766 27.7665 1.84766C27.795 1.84766 27.8235 1.84766 27.8519 1.84766C27.8804 1.84766 27.9089 1.84766 27.9374 1.84766C27.9659 1.84766 27.9944 1.84766 28.0229 1.84766C28.0514 1.84766 28.0799 1.84766 28.1084 1.84766C28.1369 1.84766 28.1654 1.84766 28.1939 1.84766C28.2225 1.84766 28.251 1.84766 28.2795 1.84766C28.3081 1.84766 28.3366 1.84766 28.3651 1.84766C28.3937 1.84766 28.4223 1.84766 28.4508 1.84766C28.4794 1.84766 28.5079 1.84766 28.5365 1.84766C28.5651 1.84766 28.5937 1.84766 28.6223 1.84766C28.6508 1.84766 28.6794 1.84766 28.708 1.84766C28.7366 1.84766 28.7652 1.84766 28.7938 1.84766C28.8224 1.84766 28.8511 1.84766 28.8797 1.84766C28.9083 1.84766 28.9369 1.84766 28.9656 1.84766C28.9942 1.84766 29.0228 1.84766 29.0515 1.84766C29.0801 1.84766 29.1088 1.84766 29.1374 1.84766C29.1661 1.84766 29.1947 1.84766 29.2234 1.84766C29.252 1.84766 29.2807 1.84766 29.3094 1.84766C29.3381 1.84766 29.3667 1.84766 29.3954 1.84766C29.4241 1.84766 29.4528 1.84766 29.4815 1.84766C29.5102 1.84766 29.5389 1.84766 29.5676 1.84766C29.5963 1.84766 29.625 1.84766 29.6537 1.84766V1.34766C29.625 1.34766 29.5963 1.34766 29.5676 1.34766C29.5389 1.34766 29.5102 1.34766 29.4815 1.34766C29.4528 1.34766 29.4241 1.34766 29.3954 1.34766C29.3667 1.34766 29.3381 1.34766 29.3094 1.34766C29.2807 1.34766 29.252 1.34766 29.2234 1.34766C29.1947 1.34766 29.1661 1.34766 29.1374 1.34766C29.1088 1.34766 29.0801 1.34766 29.0515 1.34766C29.0228 1.34766 28.9942 1.34766 28.9656 1.34766C28.9369 1.34766 28.9083 1.34766 28.8797 1.34766C28.8511 1.34766 28.8224 1.34766 28.7938 1.34766C28.7652 1.34766 28.7366 1.34766 28.708 1.34766C28.6794 1.34766 28.6508 1.34766 28.6223 1.34766C28.5937 1.34766 28.5651 1.34766 28.5365 1.34766C28.5079 1.34766 28.4794 1.34766 28.4508 1.34766C28.4223 1.34766 28.3937 1.34766 28.3651 1.34766C28.3366 1.34766 28.3081 1.34766 28.2795 1.34766C28.251 1.34766 28.2225 1.34766 28.1939 1.34766C28.1654 1.34766 28.1369 1.34766 28.1084 1.34766C28.0799 1.34766 28.0514 1.34766 28.0229 1.34766C27.9944 1.34766 27.9659 1.34766 27.9374 1.34766C27.9089 1.34766 27.8804 1.34766 27.8519 1.34766C27.8235 1.34766 27.795 1.34766 27.7665 1.34766C27.7381 1.34766 27.7096 1.34766 27.6812 1.34766C27.6527 1.34766 27.6243 1.34766 27.5959 1.34766C27.5674 1.34766 27.539 1.34766 27.5106 1.34766C27.4822 1.34766 27.4538 1.34766 27.4254 1.34766C27.397 1.34766 27.3686 1.34766 27.3402 1.34766C27.3118 1.34766 27.2834 1.34766 27.255 1.34766C27.2267 1.34766 27.1983 1.34766 27.1699 1.34766C27.1416 1.34766 27.1132 1.34766 27.0849 1.34766C27.0565 1.34766 27.0282 1.34766 26.9999 1.34766C26.9716 1.34766 26.9432 1.34766 26.9149 1.34766C26.8866 1.34766 26.8583 1.34766 26.83 1.34766C26.8017 1.34766 26.7734 1.34766 26.7451 1.34766C26.7168 1.34766 26.6886 1.34766 26.6603 1.34766C26.632 1.34766 26.6038 1.34766 26.5755 1.34766C26.5473 1.34766 26.519 1.34766 26.4908 1.34766C26.4626 1.34766 26.4343 1.34766 26.4061 1.34766C26.3779 1.34766 26.3497 1.34766 26.3215 1.34766C26.2933 1.34766 26.2651 1.34766 26.2369 1.34766C26.2087 1.34766 26.1806 1.34766 26.1524 1.34766C26.1242 1.34766 26.0961 1.34766 26.0679 1.34766C26.0398 1.34766 26.0116 1.34766 25.9835 1.34766C25.9554 1.34766 25.9272 1.34766 25.8991 1.34766C25.871 1.34766 25.8429 1.34766 25.8148 1.34766C25.7867 1.34766 25.7586 1.34766 25.7305 1.34766C25.7024 1.34766 25.6744 1.34766 25.6463 1.34766C25.6182 1.34766 25.5902 1.34766 25.5621 1.34766C25.5341 1.34766 25.5061 1.34766 25.478 1.34766C25.45 1.34766 25.422 1.34766 25.394 1.34766C25.366 1.34766 25.338 1.34766 25.31 1.34766C25.282 1.34766 25.254 1.34766 25.2261 1.34766C25.1981 1.34766 25.1701 1.34766 25.1422 1.34766C25.1142 1.34766 25.0863 1.34766 25.0584 1.34766C25.0304 1.34766 25.0025 1.34766 24.9746 1.34766C24.9467 1.34766 24.9188 1.34766 24.8909 1.34766C24.863 1.34766 24.8351 1.34766 24.8072 1.34766C24.7794 1.34766 24.7515 1.34766 24.7237 1.34766C24.6958 1.34766 24.668 1.34766 24.6401 1.34766C24.6123 1.34766 24.5845 1.34766 24.5567 1.34766C24.5289 1.34766 24.5011 1.34766 24.4733 1.34766C24.4455 1.34766 24.4177 1.34766 24.3899 1.34766C24.3622 1.34766 24.3344 1.34766 24.3067 1.34766C24.2789 1.34766 24.2512 1.34766 24.2234 1.34766C24.1957 1.34766 24.168 1.34766 24.1403 1.34766C24.1126 1.34766 24.0849 1.34766 24.0572 1.34766C24.0295 1.34766 24.0018 1.34766 23.9742 1.34766C23.9465 1.34766 23.9189 1.34766 23.8912 1.34766C23.8636 1.34766 23.8359 1.34766 23.8083 1.34766C23.7807 1.34766 23.7531 1.34766 23.7255 1.34766C23.6979 1.34766 23.6703 1.34766 23.6427 1.34766C23.6152 1.34766 23.5876 1.34766 23.56 1.34766C23.5325 1.34766 23.505 1.34766 23.4774 1.34766C23.4499 1.34766 23.4224 1.34766 23.3949 1.34766C23.3674 1.34766 23.3399 1.34766 23.3124 1.34766C23.2849 1.34766 23.2574 1.34766 23.23 1.34766C23.2025 1.34766 23.1751 1.34766 23.1476 1.34766C23.1202 1.34766 23.0928 1.34766 23.0653 1.34766C23.0379 1.34766 23.0105 1.34766 22.9831 1.34766C22.9558 1.34766 22.9284 1.34766 22.901 1.34766C22.8736 1.34766 22.8463 1.34766 22.819 1.34766C22.7916 1.34766 22.7643 1.34766 22.737 1.34766C22.7097 1.34766 22.6823 1.34766 22.6551 1.34766C22.6278 1.34766 22.6005 1.34766 22.5732 1.34766C22.5459 1.34766 22.5187 1.34766 22.4914 1.34766C22.4642 1.34766 22.437 1.34766 22.4098 1.34766C22.3825 1.34766 22.3553 1.34766 22.3281 1.34766C22.301 1.34766 22.2738 1.34766 22.2466 1.34766C22.2194 1.34766 22.1923 1.34766 22.1651 1.34766C22.138 1.34766 22.1109 1.34766 22.0838 1.34766C22.0566 1.34766 22.0295 1.34766 22.0025 1.34766C21.9754 1.34766 21.9483 1.34766 21.9212 1.34766C21.8942 1.34766 21.8671 1.34766 21.8401 1.34766C21.813 1.34766 21.786 1.34766 21.759 1.34766C21.732 1.34766 21.705 1.34766 21.678 1.34766C21.651 1.34766 21.6241 1.34766 21.5971 1.34766C21.5702 1.34766 21.5432 1.34766 21.5163 1.34766C21.4894 1.34766 21.4624 1.34766 21.4355 1.34766C21.4086 1.34766 21.3818 1.34766 21.3549 1.34766C21.328 1.34766 21.3011 1.34766 21.2743 1.34766C21.2474 1.34766 21.2206 1.34766 21.1938 1.34766C21.167 1.34766 21.1402 1.34766 21.1134 1.34766C21.0866 1.34766 21.0598 1.34766 21.0331 1.34766C21.0063 1.34766 20.9795 1.34766 20.9528 1.34766C20.9261 1.34766 20.8994 1.34766 20.8726 1.34766C20.8459 1.34766 20.8193 1.34766 20.7926 1.34766C20.7659 1.34766 20.7392 1.34766 20.7126 1.34766C20.6859 1.34766 20.6593 1.34766 20.6327 1.34766C20.6061 1.34766 20.5795 1.34766 20.5529 1.34766C20.5263 1.34766 20.4997 1.34766 20.4731 1.34766C20.4466 1.34766 20.42 1.34766 20.3935 1.34766C20.367 1.34766 20.3405 1.34766 20.314 1.34766C20.2875 1.34766 20.261 1.34766 20.2345 1.34766C20.208 1.34766 20.1816 1.34766 20.1551 1.34766C20.1287 1.34766 20.1023 1.34766 20.0759 1.34766C20.0495 1.34766 20.0231 1.34766 19.9967 1.34766C19.9703 1.34766 19.9439 1.34766 19.9176 1.34766C19.8912 1.34766 19.8649 1.34766 19.8386 1.34766C19.8123 1.34766 19.786 1.34766 19.7597 1.34766C19.7334 1.34766 19.7071 1.34766 19.6809 1.34766C19.6546 1.34766 19.6284 1.34766 19.6022 1.34766C19.5759 1.34766 19.5497 1.34766 19.5235 1.34766C19.4973 1.34766 19.4712 1.34766 19.445 1.34766C19.4188 1.34766 19.3927 1.34766 19.3666 1.34766C19.3404 1.34766 19.3143 1.34766 19.2882 1.34766C19.2621 1.34766 19.2361 1.34766 19.21 1.34766C19.1839 1.34766 19.1579 1.34766 19.1318 1.34766C19.1058 1.34766 19.0798 1.34766 19.0538 1.34766C19.0278 1.34766 19.0018 1.34766 18.9759 1.34766C18.9499 1.34766 18.9239 1.34766 18.898 1.34766C18.8721 1.34766 18.8462 1.34766 18.8203 1.34766C18.7944 1.34766 18.7685 1.34766 18.7426 1.34766C18.7168 1.34766 18.6909 1.34766 18.6651 1.34766C18.6392 1.34766 18.6134 1.34766 18.5876 1.34766C18.5618 1.34766 18.536 1.34766 18.5103 1.34766C18.4845 1.34766 18.4588 1.34766 18.433 1.34766C18.4073 1.34766 18.3816 1.34766 18.3559 1.34766C18.3302 1.34766 18.3045 1.34766 18.2789 1.34766C18.2532 1.34766 18.2276 1.34766 18.2019 1.34766C18.1763 1.34766 18.1507 1.34766 18.1251 1.34766C18.0995 1.34766 18.0739 1.34766 18.0484 1.34766C18.0228 1.34766 17.9973 1.34766 17.9718 1.34766C17.9463 1.34766 17.9207 1.34766 17.8953 1.34766C17.8698 1.34766 17.8443 1.34766 17.8189 1.34766C17.7934 1.34766 17.768 1.34766 17.7426 1.34766C17.7171 1.34766 17.6918 1.34766 17.6664 1.34766C17.641 1.34766 17.6156 1.34766 17.5903 1.34766C17.565 1.34766 17.5396 1.34766 17.5143 1.34766C17.489 1.34766 17.4637 1.34766 17.4385 1.34766C17.4132 1.34766 17.3879 1.34766 17.3627 1.34766C17.3375 1.34766 17.3123 1.34766 17.2871 1.34766C17.2619 1.34766 17.2367 1.34766 17.2115 1.34766C17.1864 1.34766 17.1612 1.34766 17.1361 1.34766C17.111 1.34766 17.0859 1.34766 17.0608 1.34766C17.0357 1.34766 17.0107 1.34766 16.9856 1.34766C16.9606 1.34766 16.9355 1.34766 16.9105 1.34766C16.8855 1.34766 16.8605 1.34766 16.8356 1.34766C16.8106 1.34766 16.7857 1.34766 16.7607 1.34766C16.7358 1.34766 16.7109 1.34766 16.686 1.34766C16.6611 1.34766 16.6362 1.34766 16.6114 1.34766C16.5865 1.34766 16.5617 1.34766 16.5369 1.34766C16.512 1.34766 16.4872 1.34766 16.4625 1.34766C16.4377 1.34766 16.4129 1.34766 16.3882 1.34766C16.3635 1.34766 16.3387 1.34766 16.314 1.34766C16.2893 1.34766 16.2647 1.34766 16.24 1.34766C16.2153 1.34766 16.1907 1.34766 16.1661 1.34766C16.1415 1.34766 16.1169 1.34766 16.0923 1.34766C16.0677 1.34766 16.0431 1.34766 16.0186 1.34766C15.9941 1.34766 15.9695 1.34766 15.945 1.34766C15.9205 1.34766 15.8961 1.34766 15.8716 1.34766C15.8471 1.34766 15.8227 1.34766 15.7983 1.34766C15.7739 1.34766 15.7495 1.34766 15.7251 1.34766C15.7007 1.34766 15.6764 1.34766 15.652 1.34766C15.6277 1.34766 15.6034 1.34766 15.5791 1.34766C15.5548 1.34766 15.5305 1.34766 15.5062 1.34766C15.482 1.34766 15.4578 1.34766 15.4335 1.34766C15.4093 1.34766 15.3851 1.34766 15.361 1.34766C15.3368 1.34766 15.3126 1.34766 15.2885 1.34766C15.2644 1.34766 15.2403 1.34766 15.2162 1.34766C15.1921 1.34766 15.168 1.34766 15.144 1.34766C15.1199 1.34766 15.0959 1.34766 15.0719 1.34766C15.0479 1.34766 15.0239 1.34766 15 1.34766C14.976 1.34766 14.9521 1.34766 14.9282 1.34766C14.9042 1.34766 14.8803 1.34766 14.8565 1.34766C14.8326 1.34766 14.8087 1.34766 14.7849 1.34766C14.7611 1.34766 14.7373 1.34766 14.7135 1.34766C14.6897 1.34766 14.6659 1.34766 14.6422 1.34766C14.6184 1.34766 14.5947 1.34766 14.571 1.34766C14.5473 1.34766 14.5236 1.34766 14.5 1.34766C14.4763 1.34766 14.4527 1.34766 14.4291 1.34766C14.4054 1.34766 14.3819 1.34766 14.3583 1.34766C14.3347 1.34766 14.3112 1.34766 14.2876 1.34766C14.2641 1.34766 14.2406 1.34766 14.2171 1.34766C14.1937 1.34766 14.1702 1.34766 14.1468 1.34766C14.1233 1.34766 14.0999 1.34766 14.0765 1.34766C14.0531 1.34766 14.0298 1.34766 14.0064 1.34766C13.9831 1.34766 13.9597 1.34766 13.9364 1.34766C13.9131 1.34766 13.8899 1.34766 13.8666 1.34766C13.8434 1.34766 13.8201 1.34766 13.7969 1.34766C13.7737 1.34766 13.7505 1.34766 13.7274 1.34766C13.7042 1.34766 13.681 1.34766 13.6579 1.34766C13.6348 1.34766 13.6117 1.34766 13.5886 1.34766C13.5656 1.34766 13.5425 1.34766 13.5195 1.34766C13.4965 1.34766 13.4735 1.34766 13.4505 1.34766C13.4275 1.34766 13.4046 1.34766 13.3816 1.34766C13.3587 1.34766 13.3358 1.34766 13.3129 1.34766C13.29 1.34766 13.2672 1.34766 13.2443 1.34766C13.2215 1.34766 13.1987 1.34766 13.1759 1.34766C13.1531 1.34766 13.1303 1.34766 13.1076 1.34766C13.0848 1.34766 13.0621 1.34766 13.0394 1.34766C13.0167 1.34766 12.9941 1.34766 12.9714 1.34766C12.9488 1.34766 12.9261 1.34766 12.9035 1.34766C12.8809 1.34766 12.8584 1.34766 12.8358 1.34766C12.8133 1.34766 12.7907 1.34766 12.7682 1.34766C12.7457 1.34766 12.7232 1.34766 12.7008 1.34766C12.6783 1.34766 12.6559 1.34766 12.6335 1.34766C12.6111 1.34766 12.5887 1.34766 12.5664 1.34766C12.544 1.34766 12.5217 1.34766 12.4994 1.34766C12.4771 1.34766 12.4548 1.34766 12.4325 1.34766C12.4103 1.34766 12.388 1.34766 12.3658 1.34766C12.3436 1.34766 12.3214 1.34766 12.2993 1.34766C12.2771 1.34766 12.255 1.34766 12.2329 1.34766C12.2107 1.34766 12.1887 1.34766 12.1666 1.34766C12.1445 1.34766 12.1225 1.34766 12.1005 1.34766C12.0785 1.34766 12.0565 1.34766 12.0345 1.34766C12.0126 1.34766 11.9906 1.34766 11.9687 1.34766C11.9468 1.34766 11.9249 1.34766 11.9031 1.34766C11.8812 1.34766 11.8594 1.34766 11.8376 1.34766C11.8158 1.34766 11.794 1.34766 11.7722 1.34766C11.7505 1.34766 11.7288 1.34766 11.7071 1.34766C11.6854 1.34766 11.6637 1.34766 11.642 1.34766C11.6204 1.34766 11.5987 1.34766 11.5771 1.34766C11.5555 1.34766 11.534 1.34766 11.5124 1.34766C11.4909 1.34766 11.4693 1.34766 11.4478 1.34766C11.4263 1.34766 11.4049 1.34766 11.3834 1.34766C11.362 1.34766 11.3406 1.34766 11.3192 1.34766C11.2978 1.34766 11.2764 1.34766 11.2551 1.34766C11.2337 1.34766 11.2124 1.34766 11.1911 1.34766C11.1698 1.34766 11.1486 1.34766 11.1273 1.34766C11.1061 1.34766 11.0849 1.34766 11.0637 1.34766C11.0425 1.34766 11.0214 1.34766 11.0002 1.34766C10.9791 1.34766 10.958 1.34766 10.9369 1.34766C10.9159 1.34766 10.8948 1.34766 10.8738 1.34766C10.8528 1.34766 10.8318 1.34766 10.8108 1.34766C10.7898 1.34766 10.7689 1.34766 10.748 1.34766C10.7271 1.34766 10.7062 1.34766 10.6853 1.34766C10.6645 1.34766 10.6436 1.34766 10.6228 1.34766C10.602 1.34766 10.5813 1.34766 10.5605 1.34766C10.5398 1.34766 10.519 1.34766 10.4983 1.34766C10.4776 1.34766 10.457 1.34766 10.4363 1.34766C10.4157 1.34766 10.3951 1.34766 10.3745 1.34766C10.3539 1.34766 10.3333 1.34766 10.3128 1.34766C10.2923 1.34766 10.2718 1.34766 10.2513 1.34766C10.2308 1.34766 10.2104 1.34766 10.19 1.34766C10.1695 1.34766 10.1491 1.34766 10.1288 1.34766C10.1084 1.34766 10.0881 1.34766 10.0678 1.34766C10.0475 1.34766 10.0272 1.34766 10.0069 1.34766C9.98668 1.34766 9.96646 1.34766 9.94627 1.34766C9.92607 1.34766 9.9059 1.34766 9.88576 1.34766C9.86563 1.34766 9.84552 1.34766 9.82543 1.34766C9.80535 1.34766 9.7853 1.34766 9.76527 1.34766C9.74525 1.34766 9.72525 1.34766 9.70528 1.34766C9.68531 1.34766 9.66537 1.34766 9.64546 1.34766C9.62555 1.34766 9.60567 1.34766 9.58582 1.34766C9.56596 1.34766 9.54614 1.34766 9.52634 1.34766C9.50655 1.34766 9.48678 1.34766 9.46704 1.34766C9.4473 1.34766 9.4276 1.34766 9.40792 1.34766C9.38824 1.34766 9.36858 1.34766 9.34896 1.34766C9.32934 1.34766 9.30975 1.34766 9.29018 1.34766C9.27062 1.34766 9.25109 1.34766 9.23158 1.34766C9.21208 1.34766 9.1926 1.34766 9.17316 1.34766C9.15371 1.34766 9.13429 1.34766 9.11491 1.34766C9.09552 1.34766 9.07616 1.34766 9.05683 1.34766C9.0375 1.34766 9.01821 1.34766 8.99894 1.34766C8.97967 1.34766 8.96043 1.34766 8.94122 1.34766C8.92201 1.34766 8.90283 1.34766 8.88368 1.34766C8.86453 1.34766 8.84541 1.34766 8.82632 1.34766C8.80723 1.34766 8.78817 1.34766 8.76914 1.34766C8.75011 1.34766 8.73111 1.34766 8.71214 1.34766C8.69317 1.34766 8.67423 1.34766 8.65532 1.34766C8.63641 1.34766 8.61753 1.34766 8.59868 1.34766C8.57983 1.34766 8.56101 1.34766 8.54222 1.34766C8.52344 1.34766 8.50468 1.34766 8.48595 1.34766C8.46722 1.34766 8.44853 1.34766 8.42986 1.34766C8.41119 1.34766 8.39256 1.34766 8.37395 1.34766C8.35535 1.34766 8.33677 1.34766 8.31823 1.34766C8.29969 1.34766 8.28117 1.34766 8.26269 1.34766C8.24421 1.34766 8.22576 1.34766 8.20734 1.34766C8.18892 1.34766 8.17053 1.34766 8.15217 1.34766C8.13381 1.34766 8.11548 1.34766 8.09719 1.34766C8.07889 1.34766 8.06063 1.34766 8.04239 1.34766C8.02416 1.34766 8.00596 1.34766 7.98778 1.34766C7.96961 1.34766 7.95147 1.34766 7.93336 1.34766C7.91526 1.34766 7.89718 1.34766 7.87913 1.34766C7.86109 1.34766 7.84307 1.34766 7.82509 1.34766C7.80711 1.34766 7.78916 1.34766 7.77124 1.34766C7.75332 1.34766 7.73543 1.34766 7.71758 1.34766C7.69972 1.34766 7.6819 1.34766 7.6641 1.34766C7.64631 1.34766 7.62855 1.34766 7.61082 1.34766C7.59309 1.34766 7.5754 1.34766 7.55773 1.34766C7.54007 1.34766 7.52244 1.34766 7.50484 1.34766C7.48723 1.34766 7.46967 1.34766 7.45213 1.34766C7.43459 1.34766 7.41709 1.34766 7.39962 1.34766C7.38215 1.34766 7.36471 1.34766 7.3473 1.34766C7.3299 1.34766 7.31252 1.34766 7.29518 1.34766C7.27784 1.34766 7.26053 1.34766 7.24325 1.34766C7.22597 1.34766 7.20873 1.34766 7.19152 1.34766C7.17431 1.34766 7.15713 1.34766 7.13998 1.34766C7.12284 1.34766 7.10572 1.34766 7.08864 1.34766C7.07156 1.34766 7.05451 1.34766 7.0375 1.34766C7.02048 1.34766 7.0035 1.34766 6.98655 1.34766C6.96961 1.34766 6.95269 1.34766 6.93581 1.34766C6.91892 1.34766 6.90207 1.34766 6.88526 1.34766C6.86844 1.34766 6.85166 1.34766 6.83491 1.34766C6.81816 1.34766 6.80144 1.34766 6.78476 1.34766C6.76808 1.34766 6.75143 1.34766 6.73481 1.34766C6.7182 1.34766 6.70161 1.34766 6.68506 1.34766C6.66852 1.34766 6.652 1.34766 6.63552 1.34766C6.61904 1.34766 6.60259 1.34766 6.58617 1.34766C6.56976 1.34766 6.55338 1.34766 6.53703 1.34766C6.52069 1.34766 6.50437 1.34766 6.48809 1.34766C6.47181 1.34766 6.45557 1.34766 6.43936 1.34766C6.42315 1.34766 6.40697 1.34766 6.39083 1.34766C6.37469 1.34766 6.35858 1.34766 6.3425 1.34766C6.32643 1.34766 6.31039 1.34766 6.29438 1.34766C6.27838 1.34766 6.2624 1.34766 6.24647 1.34766C6.23053 1.34766 6.21463 1.34766 6.19876 1.34766C6.18289 1.34766 6.16706 1.34766 6.15126 1.34766C6.13546 1.34766 6.11969 1.34766 6.10396 1.34766C6.08823 1.34766 6.07254 1.34766 6.05688 1.34766C6.04122 1.34766 6.02559 1.34766 6.01 1.34766C5.99441 1.34766 5.97885 1.34766 5.96333 1.34766C5.94781 1.34766 5.93232 1.34766 5.91687 1.34766C5.90142 1.34766 5.886 1.34766 5.87062 1.34766C5.85524 1.34766 5.8399 1.34766 5.82459 1.34766C5.80928 1.34766 5.794 1.34766 5.77876 1.34766C5.76352 1.34766 5.74831 1.34766 5.73314 1.34766C5.71798 1.34766 5.70284 1.34766 5.68774 1.34766C5.67264 1.34766 5.65758 1.34766 5.64255 1.34766C5.62753 1.34766 5.61253 1.34766 5.59758 1.34766C5.58262 1.34766 5.5677 1.34766 5.55282 1.34766C5.53793 1.34766 5.52308 1.34766 5.50827 1.34766C5.49345 1.34766 5.47868 1.34766 5.46394 1.34766C5.44919 1.34766 5.43449 1.34766 5.41982 1.34766C5.40515 1.34766 5.39052 1.34766 5.37592 1.34766C5.36132 1.34766 5.34676 1.34766 5.33224 1.34766C5.31771 1.34766 5.30322 1.34766 5.28877 1.34766C5.27432 1.34766 5.2599 1.34766 5.24552 1.34766C5.23114 1.34766 5.2168 1.34766 5.20249 1.34766C5.18818 1.34766 5.17391 1.34766 5.15968 1.34766C5.14545 1.34766 5.13125 1.34766 5.11709 1.34766C5.10293 1.34766 5.0888 1.34766 5.07472 1.34766C5.06063 1.34766 5.04658 1.34766 5.03256 1.34766C5.01855 1.34766 5.00457 1.34766 4.99063 1.34766C4.97669 1.34766 4.96279 1.34766 4.94893 1.34766C4.93506 1.34766 4.92123 1.34766 4.90744 1.34766C4.89365 1.34766 4.87989 1.34766 4.86618 1.34766C4.85246 1.34766 4.83878 1.34766 4.82513 1.34766C4.81149 1.34766 4.79789 1.34766 4.78432 1.34766C4.77075 1.34766 4.75722 1.34766 4.74373 1.34766C4.73023 1.34766 4.71678 1.34766 4.70336 1.34766C4.68994 1.34766 4.67656 1.34766 4.66322 1.34766C4.64987 1.34766 4.63657 1.34766 4.6233 1.34766C4.61003 1.34766 4.5968 1.34766 4.58361 1.34766C4.57042 1.34766 4.55727 1.34766 4.54415 1.34766C4.53103 1.34766 4.51796 1.34766 4.50492 1.34766C4.49188 1.34766 4.47887 1.34766 4.46591 1.34766C4.45294 1.34766 4.44002 1.34766 4.42713 1.34766C4.41424 1.34766 4.40139 1.34766 4.38858 1.34766C4.37577 1.34766 4.363 1.34766 4.35026 1.34766C4.33753 1.34766 4.32483 1.34766 4.31218 1.34766C4.29952 1.34766 4.2869 1.34766 4.27432 1.34766C4.26174 1.34766 4.2492 1.34766 4.23669 1.34766C4.22419 1.34766 4.21172 1.34766 4.1993 1.34766C4.18687 1.34766 4.17449 1.34766 4.16214 1.34766C4.14979 1.34766 4.13748 1.34766 4.12521 1.34766C4.11294 1.34766 4.10071 1.34766 4.08851 1.34766C4.07632 1.34766 4.06417 1.34766 4.05205 1.34766C4.03994 1.34766 4.02786 1.34766 4.01583 1.34766C4.00379 1.34766 3.9918 1.34766 3.97984 1.34766C3.96788 1.34766 3.95596 1.34766 3.94408 1.34766C3.9322 1.34766 3.92036 1.34766 3.90856 1.34766C3.89676 1.34766 3.885 1.34766 3.87328 1.34766C3.86156 1.34766 3.84988 1.34766 3.83824 1.34766C3.8266 1.34766 3.815 1.34766 3.80343 1.34766C3.79187 1.34766 3.78035 1.34766 3.76887 1.34766C3.75738 1.34766 3.74594 1.34766 3.73454 1.34766C3.72313 1.34766 3.71177 1.34766 3.70045 1.34766C3.68913 1.34766 3.67784 1.34766 3.6666 1.34766C3.65536 1.34766 3.64415 1.34766 3.63299 1.34766C3.62183 1.34766 3.61071 1.34766 3.59963 1.34766C3.58854 1.34766 3.5775 1.34766 3.5665 1.34766C3.5555 1.34766 3.54454 1.34766 3.53362 1.34766C3.5227 1.34766 3.51182 1.34766 3.50098 1.34766C3.49014 1.34766 3.47934 1.34766 3.46858 1.34766C3.45782 1.34766 3.44711 1.34766 3.43643 1.34766C3.42575 1.34766 3.41512 1.34766 3.40452 1.34766C3.39393 1.34766 3.38337 1.34766 3.37286 1.34766C3.36235 1.34766 3.35187 1.34766 3.34144 1.34766C3.33101 1.34766 3.32062 1.34766 3.31027 1.34766C3.29992 1.34766 3.28961 1.34766 3.27935 1.34766C3.26908 1.34766 3.25885 1.34766 3.24867 1.34766C3.23849 1.34766 3.22834 1.34766 3.21824 1.34766C3.20814 1.34766 3.19808 1.34766 3.18806 1.34766C3.17804 1.34766 3.16806 1.34766 3.15813 1.34766C3.14819 1.34766 3.1383 1.34766 3.12845 1.34766C3.11859 1.34766 3.10878 1.34766 3.09901 1.34766C3.08924 1.34766 3.07952 1.34766 3.06983 1.34766C3.06014 1.34766 3.0505 1.34766 3.0409 1.34766C3.0313 1.34766 3.02174 1.34766 3.01222 1.34766C3.0027 1.34766 2.99323 1.34766 2.98379 1.34766C2.97436 1.34766 2.96497 1.34766 2.95562 1.34766C2.94627 1.34766 2.93696 1.34766 2.9277 1.34766C2.91843 1.34766 2.90921 1.34766 2.90003 1.34766C2.89085 1.34766 2.88171 1.34766 2.87262 1.34766C2.86352 1.34766 2.85447 1.34766 2.84546 1.34766C2.83645 1.34766 2.82748 1.34766 2.81855 1.34766C2.80963 1.34766 2.80075 1.34766 2.79191 1.34766C2.78307 1.34766 2.77427 1.34766 2.76552 1.34766C2.75676 1.34766 2.74805 1.34766 2.73938 1.34766C2.73072 1.34766 2.72209 1.34766 2.71351 1.34766C2.70493 1.34766 2.69639 1.34766 2.68789 1.34766C2.67939 1.34766 2.67094 1.34766 2.66253 1.34766C2.65412 1.34766 2.64576 1.34766 2.63743 1.34766C2.62911 1.34766 2.62083 1.34766 2.61259 1.34766C2.60436 1.34766 2.59616 1.34766 2.58801 1.34766C2.57986 1.34766 2.57176 1.34766 2.56369 1.34766C2.55563 1.34766 2.54761 1.34766 2.53964 1.34766C2.53166 1.34766 2.52373 1.34766 2.51584 1.34766C2.50795 1.34766 2.50011 1.34766 2.49231 1.34766C2.48451 1.34766 2.47675 1.34766 2.46904 1.34766C2.46132 1.34766 2.45366 1.34766 2.44603 1.34766C2.43841 1.34766 2.43083 1.34766 2.42329 1.34766C2.41575 1.34766 2.40826 1.34766 2.40081 1.34766C2.39336 1.34766 2.38596 1.34766 2.3786 1.34766C2.37124 1.34766 2.36392 1.34766 2.35665 1.34766C2.34938 1.34766 2.34216 1.34766 2.33497 1.34766C2.32779 1.34766 2.32065 1.34766 2.31356 1.34766C2.30647 1.34766 2.29942 1.34766 2.29241 1.34766C2.28541 1.34766 2.27845 1.34766 2.27154 1.34766C2.26462 1.34766 2.25775 1.34766 2.25093 1.34766C2.2441 1.34766 2.23732 1.34766 2.23059 1.34766C2.22385 1.34766 2.21716 1.34766 2.21052 1.34766C2.20387 1.34766 2.19727 1.34766 2.19071 1.34766C2.18416 1.34766 2.17765 1.34766 2.17118 1.34766C2.16472 1.34766 2.1583 1.34766 2.15193 1.34766C2.14555 1.34766 2.13922 1.34766 2.13294 1.34766C2.12665 1.34766 2.12042 1.34766 2.11422 1.34766C2.10803 1.34766 2.10188 1.34766 2.09578 1.34766C2.08968 1.34766 2.08362 1.34766 2.07761 1.34766C2.0716 1.34766 2.06564 1.34766 2.05972 1.34766C2.0538 1.34766 2.04793 1.34766 2.0421 1.34766C2.03627 1.34766 2.03049 1.34766 2.02475 1.34766C2.01902 1.34766 2.01333 1.34766 2.00768 1.34766C2.00204 1.34766 1.99644 1.34766 1.99089 1.34766C1.98534 1.34766 1.97983 1.34766 1.97437 1.34766C1.96891 1.34766 1.9635 1.34766 1.95813 1.34766C1.95277 1.34766 1.94745 1.34766 1.94217 1.34766C1.9369 1.34766 1.93167 1.34766 1.92649 1.34766C1.92131 1.34766 1.91617 1.34766 1.91109 1.34766C1.906 1.34766 1.90096 1.34766 1.89596 1.34766C1.89096 1.34766 1.88602 1.34766 1.88111 1.34766C1.87621 1.34766 1.87136 1.34766 1.86655 1.34766C1.86174 1.34766 1.85698 1.34766 1.85227 1.34766C1.84755 1.34766 1.84288 1.34766 1.83826 1.34766C1.83364 1.34766 1.82907 1.34766 1.82454 1.34766C1.82002 1.34766 1.81554 1.34766 1.81111 1.34766C1.80667 1.34766 1.80229 1.34766 1.79795 1.34766C1.79362 1.34766 1.78932 1.34766 1.78508 1.34766C1.78084 1.34766 1.77664 1.34766 1.7725 1.34766C1.76835 1.34766 1.76425 1.34766 1.76019 1.34766C1.75614 1.34766 1.75214 1.34766 1.74818 1.34766C1.74422 1.34766 1.74031 1.34766 1.73645 1.34766C1.73259 1.34766 1.72877 1.34766 1.72501 1.34766C1.72124 1.34766 1.71752 1.34766 1.71385 1.34766C1.71018 1.34766 1.70655 1.34766 1.70298 1.34766C1.69941 1.34766 1.69588 1.34766 1.6924 1.34766C1.68892 1.34766 1.68549 1.34766 1.68211 1.34766C1.67872 1.34766 1.67539 1.34766 1.6721 1.34766C1.66882 1.34766 1.66558 1.34766 1.66239 1.34766C1.6592 1.34766 1.65606 1.34766 1.65297 1.34766C1.64988 1.34766 1.64683 1.34766 1.64384 1.34766C1.64084 1.34766 1.63789 1.34766 1.635 1.34766C1.6321 1.34766 1.62925 1.34766 1.62645 1.34766C1.62365 1.34766 1.62089 1.34766 1.61819 1.34766C1.61549 1.34766 1.61283 1.34766 1.61023 1.34766C1.60762 1.34766 1.60506 1.34766 1.60256 1.34766C1.60005 1.34766 1.59759 1.34766 1.59518 1.34766C1.59277 1.34766 1.59041 1.34766 1.5881 1.34766C1.58579 1.34766 1.58353 1.34766 1.58131 1.34766C1.5791 1.34766 1.57694 1.34766 1.57482 1.34766C1.57271 1.34766 1.57065 1.34766 1.56863 1.34766C1.56662 1.34766 1.56465 1.34766 1.56273 1.34766C1.56082 1.34766 1.55895 1.34766 1.55713 1.34766C1.55532 1.34766 1.55355 1.34766 1.55183 1.34766C1.55011 1.34766 1.54845 1.34766 1.54683 1.34766C1.54521 1.34766 1.54364 1.34766 1.54212 1.34766C1.54061 1.34766 1.53914 1.34766 1.53772 1.34766C1.5363 1.34766 1.53493 1.34766 1.53362 1.34766C1.5323 1.34766 1.53103 1.34766 1.52981 1.34766C1.52859 1.34766 1.52743 1.34766 1.52631 1.34766C1.52519 1.34766 1.52412 1.34766 1.52311 1.34766C1.52209 1.34766 1.52112 1.34766 1.52021 1.34766C1.51929 1.34766 1.51843 1.34766 1.51761 1.34766C1.5168 1.34766 1.51603 1.34766 1.51532 1.34766C1.51461 1.34766 1.51394 1.34766 1.51333 1.34766C1.51272 1.34766 1.51216 1.34766 1.51165 1.34766C1.51114 1.34766 1.51068 1.34766 1.51027 1.34766C1.50986 1.34766 1.5095 1.34766 1.50919 1.34766C1.50889 1.34766 1.50863 1.34766 1.50843 1.34766C1.50822 1.34766 1.50807 1.34766 1.50797 1.34766C1.50786 1.34766 1.50781 1.34766 1.50781 1.59766ZM50.8513 23.0435V43.6851H51.3513V23.0435H50.8513ZM29.6537 1.84766C41.3599 1.84766 50.8513 11.3374 50.8513 23.0435H51.3513C51.3513 11.0612 41.636 1.34766 29.6537 1.34766V1.84766Z" fill="#660066"/>
</svg>
