<svg width="95" height="95" viewBox="0 0 95 95" fill="none" xmlns="http://www.w3.org/2000/svg">
<ellipse cx="78.7826" cy="3.92476" rx="3.46567" ry="3.46567" transform="rotate(90.3363 78.7826 3.92476)" fill="#660066" fill-opacity="0.3"/>
<ellipse cx="91.514" cy="4.1794" rx="3.46567" ry="3.46567" transform="rotate(90.3363 91.514 4.1794)" fill="#660066" fill-opacity="0.3"/>
<ellipse cx="79.0375" cy="16.6557" rx="3.46567" ry="3.46567" transform="rotate(90.3363 79.0375 16.6557)" fill="#660066" fill-opacity="0.3"/>
<ellipse cx="66.5609" cy="29.132" rx="3.46567" ry="3.46567" transform="rotate(90.3363 66.5609 29.132)" fill="#660066" fill-opacity="0.3"/>
<ellipse cx="54.0844" cy="41.6084" rx="3.46567" ry="3.46567" transform="rotate(90.3363 54.0844 41.6084)" fill="#660066" fill-opacity="0.3"/>
<ellipse cx="41.6088" cy="54.0847" rx="3.46567" ry="3.46567" transform="rotate(90.3363 41.6088 54.0847)" fill="#660066" fill-opacity="0.3"/>
<ellipse cx="29.1303" cy="66.561" rx="3.46567" ry="3.46567" transform="rotate(90.3363 29.1303 66.561)" fill="#660066" fill-opacity="0.3"/>
<ellipse cx="16.6556" cy="79.0373" rx="3.46567" ry="3.46567" transform="rotate(90.3363 16.6556 79.0373)" fill="#660066" fill-opacity="0.3"/>
<ellipse cx="4.17908" cy="91.5136" rx="3.46567" ry="3.46567" transform="rotate(90.3363 4.17908 91.5136)" fill="#660066" fill-opacity="0.3"/>
<ellipse rx="3.46567" ry="3.46567" transform="matrix(-0.00586727 0.999983 -0.999983 -0.00587227 66.306 3.85298)" fill="#660066" fill-opacity="0.3"/>
<ellipse cx="66.2338" cy="16.3281" rx="3.46567" ry="3.46567" transform="rotate(90.3363 66.2338 16.3281)" fill="#660066" fill-opacity="0.3"/>
<ellipse rx="3.46567" ry="3.46567" transform="matrix(-0.00586727 0.999983 -0.999983 -0.00587227 53.8305 3.77851)" fill="#660066" fill-opacity="0.3"/>
<ellipse cx="53.7553" cy="16.2548" rx="3.46567" ry="3.46567" transform="rotate(90.3363 53.7553 16.2548)" fill="#660066" fill-opacity="0.3"/>
<ellipse cx="53.682" cy="28.7312" rx="3.46567" ry="3.46567" transform="rotate(90.3363 53.682 28.7312)" fill="#660066" fill-opacity="0.3"/>
<ellipse rx="3.46567" ry="3.46567" transform="matrix(-0.00586727 0.999983 -0.999983 -0.00587227 41.3539 3.70527)" fill="#660066" fill-opacity="0.3"/>
<ellipse cx="41.2806" cy="16.1816" rx="3.46567" ry="3.46567" transform="rotate(90.3363 41.2806 16.1816)" fill="#660066" fill-opacity="0.3"/>
<ellipse cx="41.2074" cy="28.6582" rx="3.46567" ry="3.46567" transform="rotate(90.3363 41.2074 28.6582)" fill="#660066" fill-opacity="0.3"/>
<ellipse cx="41.1342" cy="41.1345" rx="3.46567" ry="3.46567" transform="rotate(90.3363 41.1342 41.1345)" fill="#660066" fill-opacity="0.3"/>
<ellipse rx="3.46567" ry="3.46567" transform="matrix(-0.00586727 0.999983 -0.999983 -0.00587227 28.8773 3.63227)" fill="#660066" fill-opacity="0.3"/>
<ellipse cx="28.8041" cy="16.1086" rx="3.46567" ry="3.46567" transform="rotate(90.3363 28.8041 16.1086)" fill="#660066" fill-opacity="0.3"/>
<ellipse cx="28.7308" cy="28.5849" rx="3.46567" ry="3.46567" transform="rotate(90.3363 28.7308 28.5849)" fill="#660066" fill-opacity="0.3"/>
<ellipse cx="28.6576" cy="41.0612" rx="3.46567" ry="3.46567" transform="rotate(90.3363 28.6576 41.0612)" fill="#660066" fill-opacity="0.3"/>
<ellipse cx="28.5853" cy="53.5376" rx="3.46567" ry="3.46567" transform="rotate(90.3363 28.5853 53.5376)" fill="#660066" fill-opacity="0.3"/>
<ellipse rx="3.46567" ry="3.46567" transform="matrix(-0.00586727 0.999983 -0.999983 -0.00587227 16.4008 3.55903)" fill="#660066" fill-opacity="0.3"/>
<ellipse cx="16.3275" cy="16.0354" rx="3.46567" ry="3.46567" transform="rotate(90.3363 16.3275 16.0354)" fill="#660066" fill-opacity="0.3"/>
<ellipse cx="16.2553" cy="28.5117" rx="3.46567" ry="3.46567" transform="rotate(90.3363 16.2553 28.5117)" fill="#660066" fill-opacity="0.3"/>
<ellipse cx="16.182" cy="40.9882" rx="3.46567" ry="3.46567" transform="rotate(90.3363 16.182 40.9882)" fill="#660066" fill-opacity="0.3"/>
<ellipse cx="16.1088" cy="53.4646" rx="3.46567" ry="3.46567" transform="rotate(90.3363 16.1088 53.4646)" fill="#660066" fill-opacity="0.3"/>
<ellipse cx="16.0355" cy="65.9409" rx="3.46567" ry="3.46567" transform="rotate(90.3363 16.0355 65.9409)" fill="#660066" fill-opacity="0.3"/>
<ellipse rx="3.46567" ry="3.46567" transform="matrix(-0.00586727 0.999983 -0.999983 -0.00587227 3.92518 3.48603)" fill="#660066" fill-opacity="0.3"/>
<ellipse cx="3.85193" cy="15.9624" rx="3.46567" ry="3.46567" transform="rotate(90.3363 3.85193 15.9624)" fill="#660066" fill-opacity="0.3"/>
<ellipse cx="3.77869" cy="28.4387" rx="3.46567" ry="3.46567" transform="rotate(90.3363 3.77869 28.4387)" fill="#660066" fill-opacity="0.3"/>
<ellipse cx="3.70545" cy="40.915" rx="3.46567" ry="3.46567" transform="rotate(90.3363 3.70545 40.915)" fill="#660066" fill-opacity="0.3"/>
<ellipse cx="3.63221" cy="53.3913" rx="3.46567" ry="3.46567" transform="rotate(90.3363 3.63221 53.3913)" fill="#660066" fill-opacity="0.3"/>
<ellipse cx="3.55896" cy="65.8676" rx="3.46567" ry="3.46567" transform="rotate(90.3363 3.55896 65.8676)" fill="#660066" fill-opacity="0.3"/>
<ellipse cx="3.48572" cy="78.3427" rx="3.46567" ry="3.46567" transform="rotate(90.3363 3.48572 78.3427)" fill="#660066" fill-opacity="0.3"/>
</svg>
