<svg width="20" height="20" viewBox="0 0 20 20" fill="none" xmlns="http://www.w3.org/2000/svg">
<path d="M8.58953 11.41C8.99953 11.8 8.99953 12.44 8.58953 12.83C8.19953 13.22 7.55953 13.22 7.16953 12.83C6.23291 11.892 5.70684 10.6206 5.70684 9.29502C5.70684 7.96944 6.23291 6.69804 7.16953 5.76002L10.7095 2.22002C11.6476 1.28339 12.919 0.757324 14.2445 0.757324C15.5701 0.757324 16.8415 1.28339 17.7795 2.22002C18.7161 3.15804 19.2422 4.42944 19.2422 5.75502C19.2422 7.08059 18.7161 8.35199 17.7795 9.29002L16.2895 10.78C16.2995 9.96002 16.1695 9.14002 15.8895 8.36002L16.3595 7.88002C16.6399 7.6027 16.8624 7.27254 17.0143 6.90865C17.1662 6.54475 17.2444 6.15434 17.2444 5.76002C17.2444 5.36569 17.1662 4.97528 17.0143 4.61139C16.8624 4.24749 16.6399 3.91733 16.3595 3.64002C16.0822 3.35968 15.7521 3.13712 15.3882 2.98524C15.0243 2.83335 14.6339 2.75514 14.2395 2.75514C13.8452 2.75514 13.4548 2.83335 13.0909 2.98524C12.727 3.13712 12.3968 3.35968 12.1195 3.64002L8.58953 7.17002C8.30919 7.44733 8.08664 7.77749 7.93475 8.14139C7.78286 8.50528 7.70465 8.89569 7.70465 9.29002C7.70465 9.68434 7.78286 10.0747 7.93475 10.4386C8.08664 10.8025 8.30919 11.1327 8.58953 11.41ZM11.4095 7.17002C11.7995 6.78002 12.4395 6.78002 12.8295 7.17002C13.7661 8.10804 14.2922 9.37944 14.2922 10.705C14.2922 12.0306 13.7661 13.302 12.8295 14.24L9.28953 17.78C8.3515 18.7166 7.0801 19.2427 5.75453 19.2427C4.42895 19.2427 3.15756 18.7166 2.21953 17.78C1.28291 16.842 0.756836 15.5706 0.756836 14.245C0.756836 12.9194 1.28291 11.648 2.21953 10.71L3.70953 9.22002C3.69953 10.04 3.82953 10.86 4.10953 11.65L3.63953 12.12C3.35919 12.3973 3.13664 12.7275 2.98475 13.0914C2.83286 13.4553 2.75465 13.8457 2.75465 14.24C2.75465 14.6343 2.83286 15.0247 2.98475 15.3886C3.13664 15.7525 3.35919 16.0827 3.63953 16.36C3.91684 16.6404 4.247 16.8629 4.6109 17.0148C4.97479 17.1667 5.3652 17.2449 5.75953 17.2449C6.15385 17.2449 6.54426 17.1667 6.90816 17.0148C7.27206 16.8629 7.60221 16.6404 7.87953 16.36L11.4095 12.83C11.6899 12.5527 11.9124 12.2225 12.0643 11.8586C12.2162 11.4947 12.2944 11.1043 12.2944 10.71C12.2944 10.3157 12.2162 9.92528 12.0643 9.56139C11.9124 9.19749 11.6899 8.86733 11.4095 8.59002C11.3124 8.49901 11.235 8.38904 11.1821 8.26692C11.1291 8.1448 11.1018 8.01311 11.1018 7.88002C11.1018 7.74692 11.1291 7.61523 11.1821 7.49311C11.235 7.37099 11.3124 7.26102 11.4095 7.17002Z" fill="black"/>
</svg>
