<svg width="24" height="20" viewBox="0 0 24 20" fill="none" xmlns="http://www.w3.org/2000/svg">
<path d="M24 2.5C23.1 2.95 22.2 3.1 21.15 3.25C22.2 2.65 22.95 1.75 23.25 0.55C22.35 1.15 21.3 1.45 20.1 1.75C19.2 0.85 17.85 0.25 16.5 0.25C13.95 0.25 11.7 2.5 11.7 5.2C11.7 5.65 11.7 5.95 11.85 6.25C7.8 6.1 4.05 4.15 1.65 1.15C1.2 1.9 1.05 2.65 1.05 3.7C1.05 5.35 1.95 6.85 3.3 7.75C2.55 7.75 1.8 7.45 1.05 7.15C1.05 9.55 2.7 11.5 4.95 11.95C4.5 12.1 4.05 12.1 3.6 12.1C3.3 12.1 3 12.1 2.7 11.95C3.3 13.9 5.1 15.4 7.35 15.4C5.7 16.75 3.6 17.5 1.2 17.5H0C2.25 18.85 4.8 19.75 7.5 19.75C16.5 19.75 21.45 12.25 21.45 5.8V5.2C22.5 4.45 23.4 3.55 24 2.5Z" fill="black"/>
</svg>
